<?xml version="1.0" encoding="UTF-8" standalone="no"?>
<!DOCTYPE svg PUBLIC "-//W3C//DTD SVG 1.1//EN"
 "http://www.w3.org/Graphics/SVG/1.1/DTD/svg11.dtd">
<!-- Generated by graphviz version 2.26.0 (20091210.2329)
 -->
<!-- Title: is_gimple_reg Pages: 1 -->
<svg width="4566pt" height="323pt"
 viewBox="0.00 0.00 4566.00 322.71" xmlns="http://www.w3.org/2000/svg" xmlns:xlink="http://www.w3.org/1999/xlink">
<g id="graph1" class="graph" transform="scale(1 1) rotate(0) translate(4 318.71)">
<title>is_gimple_reg</title>
<polygon fill="white" stroke="white" points="-4,5 -4,-318.71 4563,-318.71 4563,5 -4,5"/>
<!-- Basic Block 1 -->
<g id="node1" class="node"><title>Basic Block 1</title>
<polygon fill="#fd8d3c" stroke="black" points="93,-273 1,-273 1,-237 93,-237 93,-273"/>
<text text-anchor="middle" x="47" y="-251.9" font-family="Times Roman,serif" font-size="14.00">Basic Block 1</text>
</g>
<!-- Basic Block 2 -->
<g id="node2" class="node"><title>Basic Block 2</title>
<polygon fill="#fed976" stroke="black" points="223,-296 131,-296 131,-260 223,-260 223,-296"/>
<text text-anchor="middle" x="177" y="-274.9" font-family="Times Roman,serif" font-size="14.00">Basic Block 2</text>
</g>
<!-- Basic Block 1&#45;&gt;Basic Block 2 -->
<g id="edge4" class="edge"><title>Basic Block 1&#45;&gt;Basic Block 2</title>
<path fill="none" stroke="black" d="M93.5658,-263.239C102.247,-264.774 111.406,-266.395 120.351,-267.978"/>
<polygon fill="black" stroke="black" points="119.866,-271.446 130.322,-269.742 121.085,-264.553 119.866,-271.446"/>
</g>
<!-- Basic Block 5 -->
<g id="node5" class="node"><title>Basic Block 5</title>
<polygon fill="#fed976" stroke="black" points="705,-273 613,-273 613,-237 705,-237 705,-273"/>
<text text-anchor="middle" x="659" y="-251.9" font-family="Times Roman,serif" font-size="14.00">Basic Block 5</text>
</g>
<!-- Basic Block 1&#45;&gt;Basic Block 5 -->
<g id="edge2" class="edge"><title>Basic Block 1&#45;&gt;Basic Block 5</title>
<path fill="none" stroke="black" d="M93.8594,-248.347C145.834,-241.555 232.23,-232 307,-232 307,-232 307,-232 418,-232 481.371,-232 553.694,-239.978 602.442,-246.537"/>
<polygon fill="black" stroke="black" points="602.092,-250.022 612.474,-247.912 603.042,-243.086 602.092,-250.022"/>
</g>
<!-- Basic Block 3 -->
<g id="node3" class="node"><title>Basic Block 3</title>
<polygon fill="#ffffcc" stroke="black" points="353,-296 261,-296 261,-260 353,-260 353,-296"/>
<text text-anchor="middle" x="307" y="-274.9" font-family="Times Roman,serif" font-size="14.00">Basic Block 3</text>
</g>
<!-- Basic Block 2&#45;&gt;Basic Block 3 -->
<g id="edge8" class="edge"><title>Basic Block 2&#45;&gt;Basic Block 3</title>
<path fill="none" stroke="black" d="M223.566,-278C232.154,-278 241.21,-278 250.063,-278"/>
<polygon fill="black" stroke="black" points="250.322,-281.5 260.322,-278 250.322,-274.5 250.322,-281.5"/>
</g>
<!-- Basic Block 4 -->
<g id="node4" class="node"><title>Basic Block 4</title>
<polygon fill="#ffeda0" stroke="black" points="575,-296 483,-296 483,-260 575,-260 575,-296"/>
<text text-anchor="middle" x="529" y="-274.9" font-family="Times Roman,serif" font-size="14.00">Basic Block 4</text>
</g>
<!-- Basic Block 2&#45;&gt;Basic Block 4 -->
<g id="edge6" class="edge"><title>Basic Block 2&#45;&gt;Basic Block 4</title>
<path fill="none" stroke="black" d="M223.772,-296.046C235.432,-299.753 248.027,-303.102 260,-305 341.647,-317.946 364.353,-317.946 446,-305 454.699,-303.621 463.727,-301.476 472.485,-298.984"/>
<polygon fill="black" stroke="black" points="473.664,-302.284 482.228,-296.046 471.643,-295.582 473.664,-302.284"/>
</g>
<!-- Addr 1 -->
<g id="node34" class="node"><title>Addr 1</title>
<polygon fill="lightgrey" stroke="black" points="445,-296 391,-296 391,-260 445,-260 445,-296"/>
<text text-anchor="middle" x="418" y="-274.9" font-family="Times Roman,serif" font-size="14.00">Addr 1</text>
</g>
<!-- Basic Block 3&#45;&gt;Addr 1 -->
<g id="edge10" class="edge"><title>Basic Block 3&#45;&gt;Addr 1</title>
<path fill="none" stroke="black" d="M353.752,-278C362.598,-278 371.748,-278 380.272,-278"/>
<polygon fill="black" stroke="black" points="380.298,-281.5 390.298,-278 380.298,-274.5 380.298,-281.5"/>
</g>
<!-- Basic Block 4&#45;&gt;Basic Block 5 -->
<g id="edge14" class="edge"><title>Basic Block 4&#45;&gt;Basic Block 5</title>
<path fill="none" stroke="black" d="M575.566,-269.761C584.247,-268.226 593.406,-266.605 602.351,-265.022"/>
<polygon fill="black" stroke="black" points="603.085,-268.447 612.322,-263.258 601.866,-261.554 603.085,-268.447"/>
</g>
<!-- Addr 2 -->
<g id="node35" class="node"><title>Addr 2</title>
<polygon fill="lightgrey" stroke="black" points="797,-273 743,-273 743,-237 797,-237 797,-273"/>
<text text-anchor="middle" x="770" y="-251.9" font-family="Times Roman,serif" font-size="14.00">Addr 2</text>
</g>
<!-- Basic Block 5&#45;&gt;Addr 2 -->
<g id="edge16" class="edge"><title>Basic Block 5&#45;&gt;Addr 2</title>
<path fill="none" stroke="black" d="M705.752,-255C714.598,-255 723.748,-255 732.272,-255"/>
<polygon fill="black" stroke="black" points="732.298,-258.5 742.298,-255 732.298,-251.5 732.298,-258.5"/>
</g>
<!-- Basic Block 6 -->
<g id="node6" class="node"><title>Basic Block 6</title>
<polygon fill="#ffffcc" stroke="black" points="927,-273 835,-273 835,-237 927,-237 927,-273"/>
<text text-anchor="middle" x="881" y="-251.9" font-family="Times Roman,serif" font-size="14.00">Basic Block 6</text>
</g>
<!-- Basic Block 7 -->
<g id="node7" class="node"><title>Basic Block 7</title>
<polygon fill="#ffffcc" stroke="black" points="1187,-302 1095,-302 1095,-266 1187,-266 1187,-302"/>
<text text-anchor="middle" x="1141" y="-280.9" font-family="Times Roman,serif" font-size="14.00">Basic Block 7</text>
</g>
<!-- Basic Block 6&#45;&gt;Basic Block 7 -->
<g id="edge22" class="edge"><title>Basic Block 6&#45;&gt;Basic Block 7</title>
<path fill="none" stroke="black" d="M927.783,-260.218C971.642,-265.11 1037.3,-272.434 1084.16,-277.66"/>
<polygon fill="black" stroke="black" points="1083.83,-281.145 1094.15,-278.775 1084.6,-274.188 1083.83,-281.145"/>
</g>
<!-- Basic Block 8 -->
<g id="node8" class="node"><title>Basic Block 8</title>
<polygon fill="#bd0026" stroke="black" points="1057,-216 965,-216 965,-180 1057,-180 1057,-216"/>
<text text-anchor="middle" x="1011" y="-194.9" font-family="Times Roman,serif" font-size="14.00">Basic Block 8</text>
</g>
<!-- Basic Block 6&#45;&gt;Basic Block 8 -->
<g id="edge20" class="edge"><title>Basic Block 6&#45;&gt;Basic Block 8</title>
<path fill="none" stroke="black" d="M922.133,-236.965C934.225,-231.663 947.598,-225.8 960.218,-220.266"/>
<polygon fill="black" stroke="black" points="961.936,-223.335 969.689,-216.113 959.125,-216.924 961.936,-223.335"/>
</g>
<!-- Basic Block 33 -->
<g id="node33" class="node"><title>Basic Block 33</title>
<polygon fill="#ffffcc" stroke="black" points="4460,-173 4360,-173 4360,-137 4460,-137 4460,-173"/>
<text text-anchor="middle" x="4410" y="-151.9" font-family="Times Roman,serif" font-size="14.00">Basic Block 33</text>
</g>
<!-- Basic Block 7&#45;&gt;Basic Block 33 -->
<g id="edge24" class="edge"><title>Basic Block 7&#45;&gt;Basic Block 33</title>
<path fill="none" stroke="black" d="M1187.92,-288.623C1233.4,-292.701 1304.36,-298 1366,-298 1366,-298 1366,-298 4160,-298 4235.95,-298 4259.65,-290.336 4324,-250 4352.16,-232.346 4376.75,-202.938 4392.34,-181.51"/>
<polygon fill="black" stroke="black" points="4395.33,-183.342 4398.25,-173.16 4389.62,-179.296 4395.33,-183.342"/>
</g>
<!-- Basic Block 9 -->
<g id="node9" class="node"><title>Basic Block 9</title>
<polygon fill="#ffffcc" stroke="black" points="1187,-170 1095,-170 1095,-134 1187,-134 1187,-170"/>
<text text-anchor="middle" x="1141" y="-148.9" font-family="Times Roman,serif" font-size="14.00">Basic Block 9</text>
</g>
<!-- Basic Block 8&#45;&gt;Basic Block 9 -->
<g id="edge28" class="edge"><title>Basic Block 8&#45;&gt;Basic Block 9</title>
<path fill="none" stroke="black" d="M1057.57,-181.523C1066.34,-178.418 1075.6,-175.14 1084.64,-171.943"/>
<polygon fill="black" stroke="black" points="1086.06,-175.152 1094.32,-168.517 1083.73,-168.553 1086.06,-175.152"/>
</g>
<!-- Basic Block 10 -->
<g id="node10" class="node"><title>Basic Block 10</title>
<polygon fill="#ffeda0" stroke="black" points="1416,-170 1316,-170 1316,-134 1416,-134 1416,-170"/>
<text text-anchor="middle" x="1366" y="-148.9" font-family="Times Roman,serif" font-size="14.00">Basic Block 10</text>
</g>
<!-- Basic Block 8&#45;&gt;Basic Block 10 -->
<g id="edge26" class="edge"><title>Basic Block 8&#45;&gt;Basic Block 10</title>
<path fill="none" stroke="black" d="M1057.59,-197.995C1111.57,-197.233 1202.95,-193.607 1280,-179 1288.49,-177.39 1297.32,-175.219 1305.94,-172.803"/>
<polygon fill="black" stroke="black" points="1306.95,-176.155 1315.57,-169.988 1304.99,-169.436 1306.95,-176.155"/>
</g>
<!-- Addr 3 -->
<g id="node36" class="node"><title>Addr 3</title>
<polygon fill="lightgrey" stroke="black" points="1279,-170 1225,-170 1225,-134 1279,-134 1279,-170"/>
<text text-anchor="middle" x="1252" y="-148.9" font-family="Times Roman,serif" font-size="14.00">Addr 3</text>
</g>
<!-- Basic Block 9&#45;&gt;Addr 3 -->
<g id="edge30" class="edge"><title>Basic Block 9&#45;&gt;Addr 3</title>
<path fill="none" stroke="black" d="M1187.75,-152C1196.6,-152 1205.75,-152 1214.27,-152"/>
<polygon fill="black" stroke="black" points="1214.3,-155.5 1224.3,-152 1214.3,-148.5 1214.3,-155.5"/>
</g>
<!-- Addr 4 -->
<g id="node37" class="node"><title>Addr 4</title>
<polygon fill="lightgrey" stroke="black" points="1507,-163 1453,-163 1453,-127 1507,-127 1507,-163"/>
<text text-anchor="middle" x="1480" y="-141.9" font-family="Times Roman,serif" font-size="14.00">Addr 4</text>
</g>
<!-- Basic Block 10&#45;&gt;Addr 4 -->
<g id="edge34" class="edge"><title>Basic Block 10&#45;&gt;Addr 4</title>
<path fill="none" stroke="black" d="M1416,-148.93C1424.75,-148.392 1433.72,-147.841 1442.08,-147.328"/>
<polygon fill="black" stroke="black" points="1442.5,-150.809 1452.27,-146.703 1442.07,-143.822 1442.5,-150.809"/>
</g>
<!-- Basic Block 11 -->
<g id="node11" class="node"><title>Basic Block 11</title>
<polygon fill="#ffffcc" stroke="black" points="1644,-159 1544,-159 1544,-123 1644,-123 1644,-159"/>
<text text-anchor="middle" x="1594" y="-137.9" font-family="Times Roman,serif" font-size="14.00">Basic Block 11</text>
</g>
<!-- Basic Block 12 -->
<g id="node12" class="node"><title>Basic Block 12</title>
<polygon fill="#ffffcc" stroke="black" points="2052,-57 1952,-57 1952,-21 2052,-21 2052,-57"/>
<text text-anchor="middle" x="2002" y="-35.9" font-family="Times Roman,serif" font-size="14.00">Basic Block 12</text>
</g>
<!-- Basic Block 11&#45;&gt;Basic Block 12 -->
<g id="edge40" class="edge"><title>Basic Block 11&#45;&gt;Basic Block 12</title>
<path fill="none" stroke="black" d="M1644.29,-124.513C1655.96,-120.881 1668.38,-117.174 1680,-114 1770.54,-89.282 1876.77,-65.5442 1941.72,-51.6174"/>
<polygon fill="black" stroke="black" points="1942.74,-54.9801 1951.79,-49.4679 1941.28,-48.1346 1942.74,-54.9801"/>
</g>
<!-- Basic Block 13 -->
<g id="node13" class="node"><title>Basic Block 13</title>
<polygon fill="#ffeda0" stroke="black" points="1780,-159 1680,-159 1680,-123 1780,-123 1780,-159"/>
<text text-anchor="middle" x="1730" y="-137.9" font-family="Times Roman,serif" font-size="14.00">Basic Block 13</text>
</g>
<!-- Basic Block 11&#45;&gt;Basic Block 13 -->
<g id="edge38" class="edge"><title>Basic Block 11&#45;&gt;Basic Block 13</title>
<path fill="none" stroke="black" d="M1644.25,-141C1652.54,-141 1661.2,-141 1669.7,-141"/>
<polygon fill="black" stroke="black" points="1669.95,-144.5 1679.95,-141 1669.95,-137.5 1669.95,-144.5"/>
</g>
<!-- Basic Block 12&#45;&gt;Basic Block 33 -->
<g id="edge42" class="edge"><title>Basic Block 12&#45;&gt;Basic Block 33</title>
<path fill="none" stroke="black" d="M2052.32,-27.4043C2106.69,-15.9082 2196,-0 2274,-0 2274,-0 2274,-0 4160,-0 4235.58,-0 4261.09,-3.10445 4324,-45 4355.67,-66.0889 4380.83,-102.665 4395.56,-127.812"/>
<polygon fill="black" stroke="black" points="4392.7,-129.869 4400.69,-136.834 4398.79,-126.41 4392.7,-129.869"/>
</g>
<!-- Basic Block 14 -->
<g id="node14" class="node"><title>Basic Block 14</title>
<polygon fill="#ffffcc" stroke="black" points="2188,-205 2088,-205 2088,-169 2188,-169 2188,-205"/>
<text text-anchor="middle" x="2138" y="-183.9" font-family="Times Roman,serif" font-size="14.00">Basic Block 14</text>
</g>
<!-- Basic Block 13&#45;&gt;Basic Block 14 -->
<g id="edge46" class="edge"><title>Basic Block 13&#45;&gt;Basic Block 14</title>
<path fill="none" stroke="black" d="M1780.04,-157.535C1791.73,-160.839 1804.21,-163.927 1816,-166 1906.34,-181.882 2012.85,-186.038 2077.88,-186.972"/>
<polygon fill="black" stroke="black" points="2077.91,-190.472 2087.95,-187.095 2078,-183.473 2077.91,-190.472"/>
</g>
<!-- Basic Block 15 -->
<g id="node15" class="node"><title>Basic Block 15</title>
<polygon fill="#ffffcc" stroke="black" points="1916,-157 1816,-157 1816,-121 1916,-121 1916,-157"/>
<text text-anchor="middle" x="1866" y="-135.9" font-family="Times Roman,serif" font-size="14.00">Basic Block 15</text>
</g>
<!-- Basic Block 13&#45;&gt;Basic Block 15 -->
<g id="edge44" class="edge"><title>Basic Block 13&#45;&gt;Basic Block 15</title>
<path fill="none" stroke="black" d="M1780.25,-140.261C1788.54,-140.139 1797.2,-140.012 1805.7,-139.887"/>
<polygon fill="black" stroke="black" points="1806,-143.383 1815.95,-139.736 1805.9,-136.384 1806,-143.383"/>
</g>
<!-- Basic Block 14&#45;&gt;Basic Block 33 -->
<g id="edge48" class="edge"><title>Basic Block 14&#45;&gt;Basic Block 33</title>
<path fill="none" stroke="black" d="M2178.56,-205.045C2230.93,-226.662 2325.41,-260 2410,-260 2410,-260 2410,-260 4160,-260 4235.35,-260 4255.84,-249.132 4324,-217 4344.7,-207.242 4365.58,-192.338 4381.58,-179.589"/>
<polygon fill="black" stroke="black" points="4383.93,-182.186 4389.47,-173.157 4379.51,-176.759 4383.93,-182.186"/>
</g>
<!-- Addr 5 -->
<g id="node38" class="node"><title>Addr 5</title>
<polygon fill="lightgrey" stroke="black" points="2029,-153 1975,-153 1975,-117 2029,-117 2029,-153"/>
<text text-anchor="middle" x="2002" y="-131.9" font-family="Times Roman,serif" font-size="14.00">Addr 5</text>
</g>
<!-- Basic Block 15&#45;&gt;Addr 5 -->
<g id="edge50" class="edge"><title>Basic Block 15&#45;&gt;Addr 5</title>
<path fill="none" stroke="black" d="M1916.25,-137.522C1932.09,-137.056 1949.3,-136.55 1964.12,-136.114"/>
<polygon fill="black" stroke="black" points="1964.54,-139.603 1974.43,-135.811 1964.33,-132.606 1964.54,-139.603"/>
</g>
<!-- Basic Block 16 -->
<g id="node16" class="node"><title>Basic Block 16</title>
<polygon fill="#ffffcc" stroke="black" points="2188,-149 2088,-149 2088,-113 2188,-113 2188,-149"/>
<text text-anchor="middle" x="2138" y="-127.9" font-family="Times Roman,serif" font-size="14.00">Basic Block 16</text>
</g>
<!-- Basic Block 17 -->
<g id="node17" class="node"><title>Basic Block 17</title>
<polygon fill="#ffffcc" stroke="black" points="2460,-74 2360,-74 2360,-38 2460,-38 2460,-74"/>
<text text-anchor="middle" x="2410" y="-52.9" font-family="Times Roman,serif" font-size="14.00">Basic Block 17</text>
</g>
<!-- Basic Block 16&#45;&gt;Basic Block 17 -->
<g id="edge56" class="edge"><title>Basic Block 16&#45;&gt;Basic Block 17</title>
<path fill="none" stroke="black" d="M2188.35,-114.715C2200.02,-111.073 2212.41,-107.311 2224,-104 2265.77,-92.0629 2313.18,-79.8468 2349.69,-70.7259"/>
<polygon fill="black" stroke="black" points="2350.82,-74.0503 2359.68,-68.2382 2349.13,-67.2576 2350.82,-74.0503"/>
</g>
<!-- Basic Block 18 -->
<g id="node18" class="node"><title>Basic Block 18</title>
<polygon fill="#ffeda0" stroke="black" points="2324,-149 2224,-149 2224,-113 2324,-113 2324,-149"/>
<text text-anchor="middle" x="2274" y="-127.9" font-family="Times Roman,serif" font-size="14.00">Basic Block 18</text>
</g>
<!-- Basic Block 16&#45;&gt;Basic Block 18 -->
<g id="edge54" class="edge"><title>Basic Block 16&#45;&gt;Basic Block 18</title>
<path fill="none" stroke="black" d="M2188.25,-131C2196.54,-131 2205.2,-131 2213.7,-131"/>
<polygon fill="black" stroke="black" points="2213.95,-134.5 2223.95,-131 2213.95,-127.5 2213.95,-134.5"/>
</g>
<!-- Basic Block 17&#45;&gt;Basic Block 33 -->
<g id="edge58" class="edge"><title>Basic Block 17&#45;&gt;Basic Block 33</title>
<path fill="none" stroke="black" d="M2460.2,-50.2552C2510.63,-44.9874 2590.59,-38 2660,-38 2660,-38 2660,-38 4160,-38 4246.66,-38 4335.64,-96.3872 4380.42,-130.669"/>
<polygon fill="black" stroke="black" points="4378.47,-133.59 4388.51,-136.975 4382.78,-128.068 4378.47,-133.59"/>
</g>
<!-- Basic Block 19 -->
<g id="node19" class="node"><title>Basic Block 19</title>
<polygon fill="#fed976" stroke="black" points="2460,-194 2360,-194 2360,-158 2460,-158 2460,-194"/>
<text text-anchor="middle" x="2410" y="-172.9" font-family="Times Roman,serif" font-size="14.00">Basic Block 19</text>
</g>
<!-- Basic Block 18&#45;&gt;Basic Block 19 -->
<g id="edge62" class="edge"><title>Basic Block 18&#45;&gt;Basic Block 19</title>
<path fill="none" stroke="black" d="M2324.25,-147.628C2332.72,-150.43 2341.58,-153.362 2350.26,-156.233"/>
<polygon fill="black" stroke="black" points="2349.36,-159.621 2359.95,-159.44 2351.56,-152.976 2349.36,-159.621"/>
</g>
<!-- Basic Block 23 -->
<g id="node23" class="node"><title>Basic Block 23</title>
<polygon fill="#800026" stroke="black" points="2960,-170 2860,-170 2860,-134 2960,-134 2960,-170"/>
<text text-anchor="middle" x="2910" y="-148.9" font-family="Times Roman,serif" font-size="14.00">Basic Block 23</text>
</g>
<!-- Basic Block 18&#45;&gt;Basic Block 23 -->
<g id="edge60" class="edge"><title>Basic Block 18&#45;&gt;Basic Block 23</title>
<path fill="none" stroke="black" d="M2324.13,-130.705C2378.71,-130.41 2468.56,-130 2546,-130 2546,-130 2546,-130 2660,-130 2725.02,-130 2799.18,-137.475 2849.73,-143.71"/>
<polygon fill="black" stroke="black" points="2849.48,-147.206 2859.84,-144.979 2850.35,-140.26 2849.48,-147.206"/>
</g>
<!-- Basic Block 20 -->
<g id="node20" class="node"><title>Basic Block 20</title>
<polygon fill="#ffffcc" stroke="black" points="2596,-194 2496,-194 2496,-158 2596,-158 2596,-194"/>
<text text-anchor="middle" x="2546" y="-172.9" font-family="Times Roman,serif" font-size="14.00">Basic Block 20</text>
</g>
<!-- Basic Block 19&#45;&gt;Basic Block 20 -->
<g id="edge66" class="edge"><title>Basic Block 19&#45;&gt;Basic Block 20</title>
<path fill="none" stroke="black" d="M2460.25,-176C2468.54,-176 2477.2,-176 2485.7,-176"/>
<polygon fill="black" stroke="black" points="2485.95,-179.5 2495.95,-176 2485.95,-172.5 2485.95,-179.5"/>
</g>
<!-- Basic Block 21 -->
<g id="node21" class="node"><title>Basic Block 21</title>
<polygon fill="#fd8d3c" stroke="black" points="2824,-197 2724,-197 2724,-161 2824,-161 2824,-197"/>
<text text-anchor="middle" x="2774" y="-175.9" font-family="Times Roman,serif" font-size="14.00">Basic Block 21</text>
</g>
<!-- Basic Block 19&#45;&gt;Basic Block 21 -->
<g id="edge64" class="edge"><title>Basic Block 19&#45;&gt;Basic Block 21</title>
<path fill="none" stroke="black" d="M2458.51,-194.048C2470.59,-197.755 2483.63,-201.103 2496,-203 2580.35,-215.93 2603.46,-214.576 2688,-203 2696.39,-201.851 2705.11,-200.1 2713.65,-198.056"/>
<polygon fill="black" stroke="black" points="2714.72,-201.395 2723.55,-195.54 2713,-194.611 2714.72,-201.395"/>
</g>
<!-- Addr 6 -->
<g id="node39" class="node"><title>Addr 6</title>
<polygon fill="lightgrey" stroke="black" points="2687,-194 2633,-194 2633,-158 2687,-158 2687,-194"/>
<text text-anchor="middle" x="2660" y="-172.9" font-family="Times Roman,serif" font-size="14.00">Addr 6</text>
</g>
<!-- Basic Block 20&#45;&gt;Addr 6 -->
<g id="edge68" class="edge"><title>Basic Block 20&#45;&gt;Addr 6</title>
<path fill="none" stroke="black" d="M2596,-176C2604.75,-176 2613.72,-176 2622.08,-176"/>
<polygon fill="black" stroke="black" points="2622.27,-179.5 2632.27,-176 2622.27,-172.5 2622.27,-179.5"/>
</g>
<!-- Basic Block 22 -->
<g id="node22" class="node"><title>Basic Block 22</title>
<polygon fill="#ffffcc" stroke="black" points="3096,-227 2996,-227 2996,-191 3096,-191 3096,-227"/>
<text text-anchor="middle" x="3046" y="-205.9" font-family="Times Roman,serif" font-size="14.00">Basic Block 22</text>
</g>
<!-- Basic Block 21&#45;&gt;Basic Block 22 -->
<g id="edge74" class="edge"><title>Basic Block 21&#45;&gt;Basic Block 22</title>
<path fill="none" stroke="black" d="M2824.21,-184.537C2869.78,-189.564 2937.07,-196.986 2985.58,-202.336"/>
<polygon fill="black" stroke="black" points="2985.3,-205.827 2995.63,-203.444 2986.07,-198.869 2985.3,-205.827"/>
</g>
<!-- Basic Block 21&#45;&gt;Basic Block 23 -->
<g id="edge72" class="edge"><title>Basic Block 21&#45;&gt;Basic Block 23</title>
<path fill="none" stroke="black" d="M2824.25,-169.023C2832.63,-167.36 2841.39,-165.621 2849.98,-163.916"/>
<polygon fill="black" stroke="black" points="2850.82,-167.316 2859.95,-161.936 2849.46,-160.45 2850.82,-167.316"/>
</g>
<!-- Basic Block 22&#45;&gt;Basic Block 33 -->
<g id="edge76" class="edge"><title>Basic Block 22&#45;&gt;Basic Block 33</title>
<path fill="none" stroke="black" d="M3096.22,-213.51C3142.38,-217.265 3212.74,-222 3274,-222 3274,-222 3274,-222 4160,-222 4230.98,-222 4309.56,-196.488 4359.32,-176.95"/>
<polygon fill="black" stroke="black" points="4360.89,-180.091 4368.88,-173.131 4358.3,-173.591 4360.89,-180.091"/>
</g>
<!-- Basic Block 24 -->
<g id="node24" class="node"><title>Basic Block 24</title>
<polygon fill="#ffffcc" stroke="black" points="3096,-126 2996,-126 2996,-90 3096,-90 3096,-126"/>
<text text-anchor="middle" x="3046" y="-104.9" font-family="Times Roman,serif" font-size="14.00">Basic Block 24</text>
</g>
<!-- Basic Block 23&#45;&gt;Basic Block 24 -->
<g id="edge80" class="edge"><title>Basic Block 23&#45;&gt;Basic Block 24</title>
<path fill="none" stroke="black" d="M2960.25,-135.741C2968.72,-133.002 2977.58,-130.135 2986.26,-127.327"/>
<polygon fill="black" stroke="black" points="2987.51,-130.6 2995.95,-124.192 2985.36,-123.94 2987.51,-130.6"/>
</g>
<!-- Basic Block 25 -->
<g id="node25" class="node"><title>Basic Block 25</title>
<polygon fill="#fed976" stroke="black" points="3324,-156 3224,-156 3224,-120 3324,-120 3324,-156"/>
<text text-anchor="middle" x="3274" y="-134.9" font-family="Times Roman,serif" font-size="14.00">Basic Block 25</text>
</g>
<!-- Basic Block 23&#45;&gt;Basic Block 25 -->
<g id="edge78" class="edge"><title>Basic Block 23&#45;&gt;Basic Block 25</title>
<path fill="none" stroke="black" d="M2960.23,-150.068C3026.5,-147.519 3143,-143.038 3213.88,-140.312"/>
<polygon fill="black" stroke="black" points="3214.14,-143.805 3223.99,-139.923 3213.87,-136.81 3214.14,-143.805"/>
</g>
<!-- Addr 7 -->
<g id="node40" class="node"><title>Addr 7</title>
<polygon fill="lightgrey" stroke="black" points="3187,-126 3133,-126 3133,-90 3187,-90 3187,-126"/>
<text text-anchor="middle" x="3160" y="-104.9" font-family="Times Roman,serif" font-size="14.00">Addr 7</text>
</g>
<!-- Basic Block 24&#45;&gt;Addr 7 -->
<g id="edge82" class="edge"><title>Basic Block 24&#45;&gt;Addr 7</title>
<path fill="none" stroke="black" d="M3096,-108C3104.75,-108 3113.72,-108 3122.08,-108"/>
<polygon fill="black" stroke="black" points="3122.27,-111.5 3132.27,-108 3122.27,-104.5 3122.27,-111.5"/>
</g>
<!-- Basic Block 26 -->
<g id="node26" class="node"><title>Basic Block 26</title>
<polygon fill="#fd8d3c" stroke="black" points="3460,-140 3360,-140 3360,-104 3460,-104 3460,-140"/>
<text text-anchor="middle" x="3410" y="-118.9" font-family="Times Roman,serif" font-size="14.00">Basic Block 26</text>
</g>
<!-- Basic Block 25&#45;&gt;Basic Block 26 -->
<g id="edge88" class="edge"><title>Basic Block 25&#45;&gt;Basic Block 26</title>
<path fill="none" stroke="black" d="M3324.25,-132.088C3332.63,-131.102 3341.39,-130.072 3349.98,-129.061"/>
<polygon fill="black" stroke="black" points="3350.43,-132.533 3359.95,-127.888 3349.61,-125.581 3350.43,-132.533"/>
</g>
<!-- Basic Block 29 -->
<g id="node29" class="node"><title>Basic Block 29</title>
<polygon fill="#ffffcc" stroke="black" points="3960,-167 3860,-167 3860,-131 3960,-131 3960,-167"/>
<text text-anchor="middle" x="3910" y="-145.9" font-family="Times Roman,serif" font-size="14.00">Basic Block 29</text>
</g>
<!-- Basic Block 25&#45;&gt;Basic Block 29 -->
<g id="edge86" class="edge"><title>Basic Block 25&#45;&gt;Basic Block 29</title>
<path fill="none" stroke="black" d="M3324.2,-146.879C3378.64,-155.725 3468.2,-168 3546,-168 3546,-168 3546,-168 3660,-168 3724.95,-168 3799.12,-161.545 3849.7,-156.159"/>
<polygon fill="black" stroke="black" points="3850.24,-159.621 3859.81,-155.064 3849.49,-152.662 3850.24,-159.621"/>
</g>
<!-- Basic Block 27 -->
<g id="node27" class="node"><title>Basic Block 27</title>
<polygon fill="#ffffcc" stroke="black" points="3596,-102 3496,-102 3496,-66 3596,-66 3596,-102"/>
<text text-anchor="middle" x="3546" y="-80.9" font-family="Times Roman,serif" font-size="14.00">Basic Block 27</text>
</g>
<!-- Basic Block 26&#45;&gt;Basic Block 27 -->
<g id="edge92" class="edge"><title>Basic Block 26&#45;&gt;Basic Block 27</title>
<path fill="none" stroke="black" d="M3460.25,-107.958C3468.72,-105.593 3477.58,-103.117 3486.26,-100.692"/>
<polygon fill="black" stroke="black" points="3487.26,-104.046 3495.95,-97.9841 3485.38,-97.3043 3487.26,-104.046"/>
</g>
<!-- Basic Block 28 -->
<g id="node28" class="node"><title>Basic Block 28</title>
<polygon fill="#fed976" stroke="black" points="3824,-121 3724,-121 3724,-85 3824,-85 3824,-121"/>
<text text-anchor="middle" x="3774" y="-99.9" font-family="Times Roman,serif" font-size="14.00">Basic Block 28</text>
</g>
<!-- Basic Block 26&#45;&gt;Basic Block 28 -->
<g id="edge90" class="edge"><title>Basic Block 26&#45;&gt;Basic Block 28</title>
<path fill="none" stroke="black" d="M3460.01,-120.822C3515.7,-119.324 3608.36,-116.276 3688,-111 3696.28,-110.451 3705,-109.766 3713.58,-109.029"/>
<polygon fill="black" stroke="black" points="3713.91,-112.514 3723.56,-108.145 3713.29,-105.541 3713.91,-112.514"/>
</g>
<!-- Addr 8 -->
<g id="node41" class="node"><title>Addr 8</title>
<polygon fill="lightgrey" stroke="black" points="3687,-102 3633,-102 3633,-66 3687,-66 3687,-102"/>
<text text-anchor="middle" x="3660" y="-80.9" font-family="Times Roman,serif" font-size="14.00">Addr 8</text>
</g>
<!-- Basic Block 27&#45;&gt;Addr 8 -->
<g id="edge94" class="edge"><title>Basic Block 27&#45;&gt;Addr 8</title>
<path fill="none" stroke="black" d="M3596,-84C3604.75,-84 3613.72,-84 3622.08,-84"/>
<polygon fill="black" stroke="black" points="3622.27,-87.5001 3632.27,-84 3622.27,-80.5001 3622.27,-87.5001"/>
</g>
<!-- Basic Block 28&#45;&gt;Basic Block 29 -->
<g id="edge100" class="edge"><title>Basic Block 28&#45;&gt;Basic Block 29</title>
<path fill="none" stroke="black" d="M3824.25,-119.998C3832.72,-122.862 3841.58,-125.859 3850.26,-128.794"/>
<polygon fill="black" stroke="black" points="3849.36,-132.183 3859.95,-132.072 3851.6,-125.552 3849.36,-132.183"/>
</g>
<!-- Basic Block 32 -->
<g id="node32" class="node"><title>Basic Block 32</title>
<polygon fill="#ffffcc" stroke="black" points="4096,-102 3996,-102 3996,-66 4096,-66 4096,-102"/>
<text text-anchor="middle" x="4046" y="-80.9" font-family="Times Roman,serif" font-size="14.00">Basic Block 32</text>
</g>
<!-- Basic Block 28&#45;&gt;Basic Block 32 -->
<g id="edge98" class="edge"><title>Basic Block 28&#45;&gt;Basic Block 32</title>
<path fill="none" stroke="black" d="M3824.21,-99.493C3869.78,-96.3096 3937.07,-91.6089 3985.58,-88.2208"/>
<polygon fill="black" stroke="black" points="3985.89,-91.7071 3995.63,-87.5187 3985.41,-84.7242 3985.89,-91.7071"/>
</g>
<!-- Basic Block 30 -->
<g id="node30" class="node"><title>Basic Block 30</title>
<polygon fill="#ffffcc" stroke="black" points="4096,-194 3996,-194 3996,-158 4096,-158 4096,-194"/>
<text text-anchor="middle" x="4046" y="-172.9" font-family="Times Roman,serif" font-size="14.00">Basic Block 30</text>
</g>
<!-- Basic Block 29&#45;&gt;Basic Block 30 -->
<g id="edge104" class="edge"><title>Basic Block 29&#45;&gt;Basic Block 30</title>
<path fill="none" stroke="black" d="M3960.25,-158.977C3968.63,-160.64 3977.39,-162.379 3985.98,-164.084"/>
<polygon fill="black" stroke="black" points="3985.46,-167.55 3995.95,-166.064 3986.82,-160.684 3985.46,-167.55"/>
</g>
<!-- Basic Block 31 -->
<g id="node31" class="node"><title>Basic Block 31</title>
<polygon fill="#ffffcc" stroke="black" points="4324,-173 4224,-173 4224,-137 4324,-137 4324,-173"/>
<text text-anchor="middle" x="4274" y="-151.9" font-family="Times Roman,serif" font-size="14.00">Basic Block 31</text>
</g>
<!-- Basic Block 29&#45;&gt;Basic Block 31 -->
<g id="edge102" class="edge"><title>Basic Block 29&#45;&gt;Basic Block 31</title>
<path fill="none" stroke="black" d="M3960.24,-147.949C4015.93,-147.029 4108.41,-146.227 4188,-149 4196.19,-149.285 4204.81,-149.723 4213.3,-150.235"/>
<polygon fill="black" stroke="black" points="4213.35,-153.745 4223.55,-150.89 4213.8,-146.759 4213.35,-153.745"/>
</g>
<!-- Addr 9 -->
<g id="node42" class="node"><title>Addr 9</title>
<polygon fill="lightgrey" stroke="black" points="4187,-194 4133,-194 4133,-158 4187,-158 4187,-194"/>
<text text-anchor="middle" x="4160" y="-172.9" font-family="Times Roman,serif" font-size="14.00">Addr 9</text>
</g>
<!-- Basic Block 30&#45;&gt;Addr 9 -->
<g id="edge106" class="edge"><title>Basic Block 30&#45;&gt;Addr 9</title>
<path fill="none" stroke="black" d="M4096,-176C4104.75,-176 4113.72,-176 4122.08,-176"/>
<polygon fill="black" stroke="black" points="4122.27,-179.5 4132.27,-176 4122.27,-172.5 4122.27,-179.5"/>
</g>
<!-- Basic Block 31&#45;&gt;Basic Block 33 -->
<g id="edge110" class="edge"><title>Basic Block 31&#45;&gt;Basic Block 33</title>
<path fill="none" stroke="black" d="M4324.25,-155C4332.54,-155 4341.2,-155 4349.7,-155"/>
<polygon fill="black" stroke="black" points="4349.95,-158.5 4359.95,-155 4349.95,-151.5 4349.95,-158.5"/>
</g>
<!-- Basic Block 32&#45;&gt;Basic Block 33 -->
<g id="edge112" class="edge"><title>Basic Block 32&#45;&gt;Basic Block 33</title>
<path fill="none" stroke="black" d="M4096.15,-89.6789C4152.15,-96.5423 4245.27,-109.517 4324,-128 4332.52,-130.001 4341.43,-132.417 4350.14,-134.971"/>
<polygon fill="black" stroke="black" points="4349.28,-138.367 4359.87,-137.898 4351.3,-131.664 4349.28,-138.367"/>
</g>
<!-- Addr 10 -->
<g id="node43" class="node"><title>Addr 10</title>
<polygon fill="lightgrey" stroke="black" points="4558,-173 4496,-173 4496,-137 4558,-137 4558,-173"/>
<text text-anchor="middle" x="4527" y="-151.9" font-family="Times Roman,serif" font-size="14.00">Addr 10</text>
</g>
<!-- Basic Block 33&#45;&gt;Addr 10 -->
<g id="edge114" class="edge"><title>Basic Block 33&#45;&gt;Addr 10</title>
<path fill="none" stroke="black" d="M4460.3,-155C4468.75,-155 4477.43,-155 4485.62,-155"/>
<polygon fill="black" stroke="black" points="4485.68,-158.5 4495.67,-155 4485.67,-151.5 4485.68,-158.5"/>
</g>
<!-- Addr 1&#45;&gt;Basic Block 4 -->
<g id="edge12" class="edge"><title>Addr 1&#45;&gt;Basic Block 4</title>
<path fill="none" stroke="black" d="M445.724,-278C453.748,-278 462.817,-278 471.942,-278"/>
<polygon fill="black" stroke="black" points="472.215,-281.5 482.215,-278 472.215,-274.5 472.215,-281.5"/>
</g>
<!-- Addr 2&#45;&gt;Basic Block 6 -->
<g id="edge18" class="edge"><title>Addr 2&#45;&gt;Basic Block 6</title>
<path fill="none" stroke="black" d="M797.724,-255C805.748,-255 814.817,-255 823.942,-255"/>
<polygon fill="black" stroke="black" points="824.215,-258.5 834.215,-255 824.215,-251.5 824.215,-258.5"/>
</g>
<!-- Addr 3&#45;&gt;Basic Block 10 -->
<g id="edge32" class="edge"><title>Addr 3&#45;&gt;Basic Block 10</title>
<path fill="none" stroke="black" d="M1279.6,-152C1287.54,-152 1296.54,-152 1305.65,-152"/>
<polygon fill="black" stroke="black" points="1305.94,-155.5 1315.94,-152 1305.94,-148.5 1305.94,-155.5"/>
</g>
<!-- Addr 4&#45;&gt;Basic Block 11 -->
<g id="edge36" class="edge"><title>Addr 4&#45;&gt;Basic Block 11</title>
<path fill="none" stroke="black" d="M1507.6,-144.032C1515.54,-143.753 1524.54,-143.437 1533.65,-143.117"/>
<polygon fill="black" stroke="black" points="1534.07,-146.605 1543.94,-142.756 1533.82,-139.609 1534.07,-146.605"/>
</g>
<!-- Addr 5&#45;&gt;Basic Block 16 -->
<g id="edge52" class="edge"><title>Addr 5&#45;&gt;Basic Block 16</title>
<path fill="none" stroke="black" d="M2029.52,-134.191C2043.41,-133.782 2060.83,-133.27 2077.62,-132.776"/>
<polygon fill="black" stroke="black" points="2078.07,-136.264 2087.96,-132.472 2077.86,-129.267 2078.07,-136.264"/>
</g>
<!-- Addr 6&#45;&gt;Basic Block 21 -->
<g id="edge70" class="edge"><title>Addr 6&#45;&gt;Basic Block 21</title>
<path fill="none" stroke="black" d="M2687.6,-176.726C2695.54,-176.935 2704.54,-177.172 2713.65,-177.412"/>
<polygon fill="black" stroke="black" points="2713.85,-180.918 2723.94,-177.683 2714.04,-173.921 2713.85,-180.918"/>
</g>
<!-- Addr 7&#45;&gt;Basic Block 25 -->
<g id="edge84" class="edge"><title>Addr 7&#45;&gt;Basic Block 25</title>
<path fill="none" stroke="black" d="M3187.6,-115.262C3195.71,-117.399 3204.93,-119.823 3214.24,-122.274"/>
<polygon fill="black" stroke="black" points="3213.38,-125.666 3223.94,-124.827 3215.16,-118.897 3213.38,-125.666"/>
</g>
<!-- Addr 8&#45;&gt;Basic Block 28 -->
<g id="edge96" class="edge"><title>Addr 8&#45;&gt;Basic Block 28</title>
<path fill="none" stroke="black" d="M3687.6,-88.5994C3695.63,-89.9382 3704.74,-91.4559 3713.95,-92.9913"/>
<polygon fill="black" stroke="black" points="3713.5,-96.4651 3723.94,-94.6568 3714.65,-89.5604 3713.5,-96.4651"/>
</g>
<!-- Addr 9&#45;&gt;Basic Block 31 -->
<g id="edge108" class="edge"><title>Addr 9&#45;&gt;Basic Block 31</title>
<path fill="none" stroke="black" d="M4187.6,-170.916C4195.63,-169.437 4204.74,-167.759 4213.95,-166.062"/>
<polygon fill="black" stroke="black" points="4214.74,-169.475 4223.94,-164.221 4213.47,-162.591 4214.74,-169.475"/>
</g>
</g>
</svg>
