<?xml version="1.0" encoding="UTF-8" standalone="no"?>
<!DOCTYPE svg PUBLIC "-//W3C//DTD SVG 1.0//EN"
 "http://www.w3.org/TR/2001/REC-SVG-20010904/DTD/svg10.dtd" [
 <!ATTLIST svg xmlns:xlink CDATA #FIXED "http://www.w3.org/1999/xlink">
]>
<!-- Generated by Graphviz version 2.20.2 (Tue Mar &#160;2 19:03:41 UTC 2010)
     For user: (levinth) David Levinthal -->
<!-- Title: do_sync_read Pages: 1 -->
<svg width="1574pt" height="180pt"
 viewBox="0.00 0.00 1574.00 180.00" xmlns="http://www.w3.org/2000/svg" xmlns:xlink="http://www.w3.org/1999/xlink">
<g id="graph0" class="graph" transform="scale(1 1) rotate(0) translate(4 176)">
<title>do_sync_read</title>
<polygon style="fill:white;stroke:white;" points="-4,4 -4,-176 1570,-176 1570,4 -4,4"/>
<!-- Basic Block 1 -->
<g id="node1" class="node"><title>Basic Block 1</title>
<polygon style="fill:#ffffcc;stroke:black;" points="106,-153 3.55271e-14,-153 0,-117 106,-117 106,-153"/>
<text text-anchor="middle" x="53" y="-130.9" style="font-family:Times New Roman;font-size:14.00;">Basic Block 1</text>
</g>
<!-- Addr 1 -->
<g id="node13" class="node"><title>Addr 1</title>
<polygon style="fill:lightgrey;stroke:black;" points="204,-153 142,-153 142,-117 204,-117 204,-153"/>
<text text-anchor="middle" x="173" y="-130.9" style="font-family:Times New Roman;font-size:14.00;">Addr 1</text>
</g>
<!-- Basic Block 1&#45;&gt;Addr 1 -->
<g id="edge2" class="edge"><title>Basic Block 1&#45;&gt;Addr 1</title>
<path style="fill:none;stroke:black;" d="M106,-135C114,-135 123,-135 132,-135"/>
<polygon style="fill:black;stroke:black;" points="132,-138.5 142,-135 132,-131.5 132,-138.5"/>
</g>
<!-- Basic Block 2 -->
<g id="node2" class="node"><title>Basic Block 2</title>
<polygon style="fill:#ffffcc;stroke:black;" points="346,-153 240,-153 240,-117 346,-117 346,-153"/>
<text text-anchor="middle" x="293" y="-130.9" style="font-family:Times New Roman;font-size:14.00;">Basic Block 2</text>
</g>
<!-- Basic Block 6 -->
<g id="node6" class="node"><title>Basic Block 6</title>
<polygon style="fill:#ffffcc;stroke:black;" points="488,-153 382,-153 382,-117 488,-117 488,-153"/>
<text text-anchor="middle" x="435" y="-130.9" style="font-family:Times New Roman;font-size:14.00;">Basic Block 6</text>
</g>
<!-- Basic Block 2&#45;&gt;Basic Block 6 -->
<g id="edge6" class="edge"><title>Basic Block 2&#45;&gt;Basic Block 6</title>
<path style="fill:none;stroke:black;" d="M346,-135C355,-135 363,-135 372,-135"/>
<polygon style="fill:black;stroke:black;" points="372,-138.5 382,-135 372,-131.5 372,-138.5"/>
</g>
<!-- Basic Block 3 -->
<g id="node3" class="node"><title>Basic Block 3</title>
<polygon style="fill:#ffffcc;stroke:black;" points="728,-144 622,-144 622,-108 728,-108 728,-144"/>
<text text-anchor="middle" x="675" y="-121.9" style="font-family:Times New Roman;font-size:14.00;">Basic Block 3</text>
</g>
<!-- Basic Block 4 -->
<g id="node4" class="node"><title>Basic Block 4</title>
<polygon style="fill:#ffffcc;stroke:black;" points="875,-144 769,-144 769,-108 875,-108 875,-144"/>
<text text-anchor="middle" x="822" y="-121.9" style="font-family:Times New Roman;font-size:14.00;">Basic Block 4</text>
</g>
<!-- Basic Block 3&#45;&gt;Basic Block 4 -->
<g id="edge8" class="edge"><title>Basic Block 3&#45;&gt;Basic Block 4</title>
<path style="fill:none;stroke:black;" d="M728,-126C738,-126 749,-126 759,-126"/>
<polygon style="fill:black;stroke:black;" points="759,-129.5 769,-126 759,-122.5 759,-129.5"/>
</g>
<!-- Addr 2 -->
<g id="node14" class="node"><title>Addr 2</title>
<polygon style="fill:lightgrey;stroke:black;" points="1005,-144 943,-144 943,-108 1005,-108 1005,-144"/>
<text text-anchor="middle" x="974" y="-121.9" style="font-family:Times New Roman;font-size:14.00;">Addr 2</text>
</g>
<!-- Basic Block 4&#45;&gt;Addr 2 -->
<g id="edge10" class="edge"><title>Basic Block 4&#45;&gt;Addr 2</title>
<path style="fill:none;stroke:black;" d="M875,-126C894,-126 915,-126 933,-126"/>
<polygon style="fill:black;stroke:black;" points="933,-129.5 943,-126 933,-122.5 933,-129.5"/>
</g>
<!-- Basic Block 5 -->
<g id="node5" class="node"><title>Basic Block 5</title>
<polygon style="fill:#ffffcc;stroke:black;" points="1174,-167 1068,-167 1068,-131 1174,-131 1174,-167"/>
<text text-anchor="middle" x="1121" y="-144.9" style="font-family:Times New Roman;font-size:14.00;">Basic Block 5</text>
</g>
<!-- Basic Block 5&#45;&gt;Basic Block 6 -->
<g id="edge14" class="edge"><title>Basic Block 5&#45;&gt;Basic Block 6</title>
<path style="fill:none;stroke:black;" d="M1068,-156C1008,-162 909,-172 822,-172 675,-172 675,-172 675,-172 615,-172 546,-161 498,-150"/>
<polygon style="fill:black;stroke:black;" points="498.492,-146.529 488,-148 497.119,-153.393 498.492,-146.529"/>
</g>
<!-- Addr 3 -->
<g id="node15" class="node"><title>Addr 3</title>
<polygon style="fill:lightgrey;stroke:black;" points="586,-117 524,-117 524,-81 586,-81 586,-117"/>
<text text-anchor="middle" x="555" y="-94.9" style="font-family:Times New Roman;font-size:14.00;">Addr 3</text>
</g>
<!-- Basic Block 6&#45;&gt;Addr 3 -->
<g id="edge16" class="edge"><title>Basic Block 6&#45;&gt;Addr 3</title>
<path style="fill:none;stroke:black;" d="M488,-119C497,-116 506,-113 514,-111"/>
<polygon style="fill:black;stroke:black;" points="515.427,-114.226 524,-108 513.416,-107.521 515.427,-114.226"/>
</g>
<!-- Basic Block 7 -->
<g id="node7" class="node"><title>Basic Block 7</title>
<polygon style="fill:#800026;stroke:black;" points="728,-90 622,-90 622,-54 728,-54 728,-90"/>
<text text-anchor="middle" x="675" y="-67.9" style="font-family:Times New Roman;font-size:14.00;">Basic Block 7</text>
</g>
<!-- Basic Block 7&#45;&gt;Basic Block 4 -->
<g id="edge20" class="edge"><title>Basic Block 7&#45;&gt;Basic Block 4</title>
<path style="fill:none;stroke:black;" d="M724,-90C737,-95 750,-100 764,-104"/>
<polygon style="fill:black;stroke:black;" points="762.44,-107.137 773,-108 765.283,-100.74 762.44,-107.137"/>
</g>
<!-- Basic Block 8 -->
<g id="node8" class="node"><title>Basic Block 8</title>
<polygon style="fill:#ffffcc;stroke:black;" points="875,-90 769,-90 769,-54 875,-54 875,-90"/>
<text text-anchor="middle" x="822" y="-67.9" style="font-family:Times New Roman;font-size:14.00;">Basic Block 8</text>
</g>
<!-- Basic Block 7&#45;&gt;Basic Block 8 -->
<g id="edge22" class="edge"><title>Basic Block 7&#45;&gt;Basic Block 8</title>
<path style="fill:none;stroke:black;" d="M728,-72C738,-72 749,-72 759,-72"/>
<polygon style="fill:black;stroke:black;" points="759,-75.5001 769,-72 759,-68.5001 759,-75.5001"/>
</g>
<!-- Basic Block 9 -->
<g id="node9" class="node"><title>Basic Block 9</title>
<polygon style="fill:#800026;stroke:black;" points="1468,-67 1362,-67 1362,-31 1468,-31 1468,-67"/>
<text text-anchor="middle" x="1415" y="-44.9" style="font-family:Times New Roman;font-size:14.00;">Basic Block 9</text>
</g>
<!-- Basic Block 8&#45;&gt;Basic Block 9 -->
<g id="edge26" class="edge"><title>Basic Block 8&#45;&gt;Basic Block 9</title>
<path style="fill:none;stroke:black;" d="M875,-70C967,-67 1162,-60 1326,-53 1335,-52 1343,-52 1352,-52"/>
<polygon style="fill:black;stroke:black;" points="1352.4,-55.4778 1362,-51 1351.7,-48.5125 1352.4,-55.4778"/>
</g>
<!-- Basic Block 11 -->
<g id="node11" class="node"><title>Basic Block 11</title>
<polygon style="fill:#ffffcc;stroke:black;" points="1031,-44 917,-44 917,-8 1031,-8 1031,-44"/>
<text text-anchor="middle" x="974" y="-21.9" style="font-family:Times New Roman;font-size:14.00;">Basic Block 11</text>
</g>
<!-- Basic Block 8&#45;&gt;Basic Block 11 -->
<g id="edge24" class="edge"><title>Basic Block 8&#45;&gt;Basic Block 11</title>
<path style="fill:none;stroke:black;" d="M875,-56C885,-53 896,-50 906,-47"/>
<polygon style="fill:black;stroke:black;" points="907.427,-50.2259 916,-44 905.416,-43.5212 907.427,-50.2259"/>
</g>
<!-- Addr 4 -->
<g id="node16" class="node"><title>Addr 4</title>
<polygon style="fill:lightgrey;stroke:black;" points="1566,-67 1504,-67 1504,-31 1566,-31 1566,-67"/>
<text text-anchor="middle" x="1535" y="-44.9" style="font-family:Times New Roman;font-size:14.00;">Addr 4</text>
</g>
<!-- Basic Block 9&#45;&gt;Addr 4 -->
<g id="edge28" class="edge"><title>Basic Block 9&#45;&gt;Addr 4</title>
<path style="fill:none;stroke:black;" d="M1468,-49C1476,-49 1485,-49 1494,-49"/>
<polygon style="fill:black;stroke:black;" points="1494,-52.5001 1504,-49 1494,-45.5001 1494,-52.5001"/>
</g>
<!-- Basic Block 10 -->
<g id="node10" class="node"><title>Basic Block 10</title>
<polygon style="fill:#ffffcc;stroke:black;" points="879,-36 765,-36 765,-1.77636e-14 879,-3.55271e-15 879,-36"/>
<text text-anchor="middle" x="822" y="-13.9" style="font-family:Times New Roman;font-size:14.00;">Basic Block 10</text>
</g>
<!-- Basic Block 10&#45;&gt;Basic Block 11 -->
<g id="edge30" class="edge"><title>Basic Block 10&#45;&gt;Basic Block 11</title>
<path style="fill:none;stroke:black;" d="M880,-21C889,-22 897,-22 906,-22"/>
<polygon style="fill:black;stroke:black;" points="905.701,-25.4875 916,-23 906.398,-18.5222 905.701,-25.4875"/>
</g>
<!-- Addr 5 -->
<g id="node17" class="node"><title>Addr 5</title>
<polygon style="fill:lightgrey;stroke:black;" points="1152,-44 1090,-44 1090,-8 1152,-8 1152,-44"/>
<text text-anchor="middle" x="1121" y="-21.9" style="font-family:Times New Roman;font-size:14.00;">Addr 5</text>
</g>
<!-- Basic Block 11&#45;&gt;Addr 5 -->
<g id="edge32" class="edge"><title>Basic Block 11&#45;&gt;Addr 5</title>
<path style="fill:none;stroke:black;" d="M1032,-26C1048,-26 1065,-26 1080,-26"/>
<polygon style="fill:black;stroke:black;" points="1080,-29.5001 1090,-26 1080,-22.5001 1080,-29.5001"/>
</g>
<!-- Basic Block 12 -->
<g id="node12" class="node"><title>Basic Block 12</title>
<polygon style="fill:#ffffcc;stroke:black;" points="1325,-44 1211,-44 1211,-8 1325,-8 1325,-44"/>
<text text-anchor="middle" x="1268" y="-21.9" style="font-family:Times New Roman;font-size:14.00;">Basic Block 12</text>
</g>
<!-- Basic Block 12&#45;&gt;Basic Block 9 -->
<g id="edge36" class="edge"><title>Basic Block 12&#45;&gt;Basic Block 9</title>
<path style="fill:none;stroke:black;" d="M1326,-35C1335,-36 1343,-38 1352,-39"/>
<polygon style="fill:black;stroke:black;" points="1351.7,-42.4875 1362,-40 1352.4,-35.5222 1351.7,-42.4875"/>
</g>
<!-- Addr 1&#45;&gt;Basic Block 2 -->
<g id="edge4" class="edge"><title>Addr 1&#45;&gt;Basic Block 2</title>
<path style="fill:none;stroke:black;" d="M204,-135C212,-135 221,-135 230,-135"/>
<polygon style="fill:black;stroke:black;" points="230,-138.5 240,-135 230,-131.5 230,-138.5"/>
</g>
<!-- Addr 2&#45;&gt;Basic Block 5 -->
<g id="edge12" class="edge"><title>Addr 2&#45;&gt;Basic Block 5</title>
<path style="fill:none;stroke:black;" d="M1005,-131C1020,-134 1040,-137 1058,-140"/>
<polygon style="fill:black;stroke:black;" points="1057.7,-143.488 1068,-141 1058.4,-136.522 1057.7,-143.488"/>
</g>
<!-- Addr 3&#45;&gt;Basic Block 7 -->
<g id="edge18" class="edge"><title>Addr 3&#45;&gt;Basic Block 7</title>
<path style="fill:none;stroke:black;" d="M586,-92C594,-91 603,-89 612,-86"/>
<polygon style="fill:black;stroke:black;" points="612.881,-89.3933 622,-84 611.508,-82.5292 612.881,-89.3933"/>
</g>
<!-- Addr 5&#45;&gt;Basic Block 12 -->
<g id="edge34" class="edge"><title>Addr 5&#45;&gt;Basic Block 12</title>
<path style="fill:none;stroke:black;" d="M1152,-26C1166,-26 1183,-26 1200,-26"/>
<polygon style="fill:black;stroke:black;" points="1200,-29.5001 1210,-26 1200,-22.5001 1200,-29.5001"/>
</g>
</g>
</svg>
