<?xml version="1.0" encoding="UTF-8" standalone="no"?>
<!DOCTYPE svg PUBLIC "-//W3C//DTD SVG 1.0//EN"
 "http://www.w3.org/TR/2001/REC-SVG-20010904/DTD/svg10.dtd" [
 <!ATTLIST svg xmlns:xlink CDATA #FIXED "http://www.w3.org/1999/xlink">
]>
<!-- Generated by Graphviz version 2.20.2 (Tue Mar &#160;2 19:03:41 UTC 2010)
     For user: (levinth) David Levinthal -->
<!-- Title: rw_verify_area Pages: 1 -->
<svg width="2314pt" height="176pt"
 viewBox="0.00 0.00 2314.00 176.00" xmlns="http://www.w3.org/2000/svg" xmlns:xlink="http://www.w3.org/1999/xlink">
<g id="graph0" class="graph" transform="scale(1 1) rotate(0) translate(4 172)">
<title>rw_verify_area</title>
<polygon style="fill:white;stroke:white;" points="-4,4 -4,-172 2310,-172 2310,4 -4,4"/>
<!-- Basic Block 1 -->
<g id="node1" class="node"><title>Basic Block 1</title>
<polygon style="fill:#ffffcc;stroke:black;" points="106,-51 3.55271e-14,-51 0,-15 106,-15 106,-51"/>
<text text-anchor="middle" x="53" y="-28.9" style="font-family:Times New Roman;font-size:14.00;">Basic Block 1</text>
</g>
<!-- Addr 1 -->
<g id="node16" class="node"><title>Addr 1</title>
<polygon style="fill:lightgrey;stroke:black;" points="204,-51 142,-51 142,-15 204,-15 204,-51"/>
<text text-anchor="middle" x="173" y="-28.9" style="font-family:Times New Roman;font-size:14.00;">Addr 1</text>
</g>
<!-- Basic Block 1&#45;&gt;Addr 1 -->
<g id="edge2" class="edge"><title>Basic Block 1&#45;&gt;Addr 1</title>
<path style="fill:none;stroke:black;" d="M106,-33C114,-33 123,-33 132,-33"/>
<polygon style="fill:black;stroke:black;" points="132,-36.5001 142,-33 132,-29.5001 132,-36.5001"/>
</g>
<!-- Basic Block 2 -->
<g id="node2" class="node"><title>Basic Block 2</title>
<polygon style="fill:#ffffcc;stroke:black;" points="346,-51 240,-51 240,-15 346,-15 346,-51"/>
<text text-anchor="middle" x="293" y="-28.9" style="font-family:Times New Roman;font-size:14.00;">Basic Block 2</text>
</g>
<!-- Basic Block 3 -->
<g id="node3" class="node"><title>Basic Block 3</title>
<polygon style="fill:#ffffcc;stroke:black;" points="488,-74 382,-74 382,-38 488,-38 488,-74"/>
<text text-anchor="middle" x="435" y="-51.9" style="font-family:Times New Roman;font-size:14.00;">Basic Block 3</text>
</g>
<!-- Basic Block 2&#45;&gt;Basic Block 3 -->
<g id="edge8" class="edge"><title>Basic Block 2&#45;&gt;Basic Block 3</title>
<path style="fill:none;stroke:black;" d="M346,-42C355,-43 363,-45 372,-46"/>
<polygon style="fill:black;stroke:black;" points="371.701,-49.4875 382,-47 372.398,-42.5222 371.701,-49.4875"/>
</g>
<!-- Basic Block 10 -->
<g id="node10" class="node"><title>Basic Block 10</title>
<polygon style="fill:#ffffcc;stroke:black;" points="781,-47 667,-47 667,-11 781,-11 781,-47"/>
<text text-anchor="middle" x="724" y="-24.9" style="font-family:Times New Roman;font-size:14.00;">Basic Block 10</text>
</g>
<!-- Basic Block 2&#45;&gt;Basic Block 10 -->
<g id="edge6" class="edge"><title>Basic Block 2&#45;&gt;Basic Block 10</title>
<path style="fill:none;stroke:black;" d="M346,-30C358,-29 371,-29 382,-29 477,-27 587,-28 656,-28"/>
<polygon style="fill:black;stroke:black;" points="656,-31.5001 666,-28 656,-24.5001 656,-31.5001"/>
</g>
<!-- Basic Block 4 -->
<g id="node4" class="node"><title>Basic Block 4</title>
<polygon style="fill:#ffffcc;stroke:black;" points="630,-112 524,-112 524,-76 630,-76 630,-112"/>
<text text-anchor="middle" x="577" y="-89.9" style="font-family:Times New Roman;font-size:14.00;">Basic Block 4</text>
</g>
<!-- Basic Block 3&#45;&gt;Basic Block 4 -->
<g id="edge12" class="edge"><title>Basic Block 3&#45;&gt;Basic Block 4</title>
<path style="fill:none;stroke:black;" d="M488,-70C497,-72 505,-75 514,-77"/>
<polygon style="fill:black;stroke:black;" points="513.416,-80.4788 524,-80 515.427,-73.7741 513.416,-80.4788"/>
</g>
<!-- Basic Block 3&#45;&gt;Basic Block 10 -->
<g id="edge10" class="edge"><title>Basic Block 3&#45;&gt;Basic Block 10</title>
<path style="fill:none;stroke:black;" d="M488,-51C535,-46 605,-40 656,-35"/>
<polygon style="fill:black;stroke:black;" points="656.398,-38.4778 666,-34 655.701,-31.5125 656.398,-38.4778"/>
</g>
<!-- Basic Block 5 -->
<g id="node5" class="node"><title>Basic Block 5</title>
<polygon style="fill:#ffffcc;stroke:black;" points="777,-121 671,-121 671,-85 777,-85 777,-121"/>
<text text-anchor="middle" x="724" y="-98.9" style="font-family:Times New Roman;font-size:14.00;">Basic Block 5</text>
</g>
<!-- Basic Block 4&#45;&gt;Basic Block 5 -->
<g id="edge16" class="edge"><title>Basic Block 4&#45;&gt;Basic Block 5</title>
<path style="fill:none;stroke:black;" d="M630,-97C640,-98 651,-99 661,-99"/>
<polygon style="fill:black;stroke:black;" points="660.701,-102.488 671,-100 661.398,-95.5222 660.701,-102.488"/>
</g>
<!-- Basic Block 4&#45;&gt;Basic Block 10 -->
<g id="edge14" class="edge"><title>Basic Block 4&#45;&gt;Basic Block 10</title>
<path style="fill:none;stroke:black;" d="M618,-76C635,-68 656,-59 674,-51"/>
<polygon style="fill:black;stroke:black;" points="675.283,-54.2598 683,-47 672.44,-47.8631 675.283,-54.2598"/>
</g>
<!-- Basic Block 6 -->
<g id="node6" class="node"><title>Basic Block 6</title>
<polygon style="fill:#ffffcc;stroke:black;" points="1630,-129 1524,-129 1524,-93 1630,-93 1630,-129"/>
<text text-anchor="middle" x="1577" y="-106.9" style="font-family:Times New Roman;font-size:14.00;">Basic Block 6</text>
</g>
<!-- Basic Block 5&#45;&gt;Basic Block 6 -->
<g id="edge20" class="edge"><title>Basic Block 5&#45;&gt;Basic Block 6</title>
<path style="fill:none;stroke:black;" d="M776,-121C836,-140 938,-168 1028,-168 1028,-168 1028,-168 1305,-168 1378,-168 1460,-149 1514,-132"/>
<polygon style="fill:black;stroke:black;" points="1515.43,-135.226 1524,-129 1513.42,-128.521 1515.43,-135.226"/>
</g>
<!-- Basic Block 11 -->
<g id="node11" class="node"><title>Basic Block 11</title>
<polygon style="fill:#ffffcc;stroke:black;" points="933,-121 819,-121 819,-85 933,-85 933,-121"/>
<text text-anchor="middle" x="876" y="-98.9" style="font-family:Times New Roman;font-size:14.00;">Basic Block 11</text>
</g>
<!-- Basic Block 5&#45;&gt;Basic Block 11 -->
<g id="edge18" class="edge"><title>Basic Block 5&#45;&gt;Basic Block 11</title>
<path style="fill:none;stroke:black;" d="M777,-103C787,-103 798,-103 808,-103"/>
<polygon style="fill:black;stroke:black;" points="808,-106.5 818,-103 808,-99.5001 808,-106.5"/>
</g>
<!-- Addr 2 -->
<g id="node17" class="node"><title>Addr 2</title>
<polygon style="fill:lightgrey;stroke:black;" points="1755,-129 1693,-129 1693,-93 1755,-93 1755,-129"/>
<text text-anchor="middle" x="1724" y="-106.9" style="font-family:Times New Roman;font-size:14.00;">Addr 2</text>
</g>
<!-- Basic Block 6&#45;&gt;Addr 2 -->
<g id="edge22" class="edge"><title>Basic Block 6&#45;&gt;Addr 2</title>
<path style="fill:none;stroke:black;" d="M1630,-111C1647,-111 1666,-111 1683,-111"/>
<polygon style="fill:black;stroke:black;" points="1683,-114.5 1693,-111 1683,-107.5 1683,-114.5"/>
</g>
<!-- Basic Block 7 -->
<g id="node7" class="node"><title>Basic Block 7</title>
<polygon style="fill:#800026;stroke:black;" points="1924,-129 1818,-129 1818,-93 1924,-93 1924,-129"/>
<text text-anchor="middle" x="1871" y="-106.9" style="font-family:Times New Roman;font-size:14.00;">Basic Block 7</text>
</g>
<!-- Basic Block 8 -->
<g id="node8" class="node"><title>Basic Block 8</title>
<polygon style="fill:#ffffcc;stroke:black;" points="2066,-144 1960,-144 1960,-108 2066,-108 2066,-144"/>
<text text-anchor="middle" x="2013" y="-121.9" style="font-family:Times New Roman;font-size:14.00;">Basic Block 8</text>
</g>
<!-- Basic Block 7&#45;&gt;Basic Block 8 -->
<g id="edge28" class="edge"><title>Basic Block 7&#45;&gt;Basic Block 8</title>
<path style="fill:none;stroke:black;" d="M1924,-117C1933,-118 1941,-118 1950,-120"/>
<polygon style="fill:black;stroke:black;" points="1949.7,-123.488 1960,-121 1950.4,-116.522 1949.7,-123.488"/>
</g>
<!-- Basic Block 9 -->
<g id="node9" class="node"><title>Basic Block 9</title>
<polygon style="fill:#800026;stroke:black;" points="2208,-79 2102,-79 2102,-43 2208,-43 2208,-79"/>
<text text-anchor="middle" x="2155" y="-56.9" style="font-family:Times New Roman;font-size:14.00;">Basic Block 9</text>
</g>
<!-- Basic Block 7&#45;&gt;Basic Block 9 -->
<g id="edge26" class="edge"><title>Basic Block 7&#45;&gt;Basic Block 9</title>
<path style="fill:none;stroke:black;" d="M1924,-102C1972,-94 2041,-81 2092,-72"/>
<polygon style="fill:black;stroke:black;" points="2092.88,-75.3933 2102,-70 2091.51,-68.5292 2092.88,-75.3933"/>
</g>
<!-- Basic Block 8&#45;&gt;Basic Block 9 -->
<g id="edge30" class="edge"><title>Basic Block 8&#45;&gt;Basic Block 9</title>
<path style="fill:none;stroke:black;" d="M2053,-108C2070,-100 2089,-91 2106,-83"/>
<polygon style="fill:black;stroke:black;" points="2108.02,-85.9636 2116,-79 2105.42,-79.4643 2108.02,-85.9636"/>
</g>
<!-- Addr 3 -->
<g id="node18" class="node"><title>Addr 3</title>
<polygon style="fill:lightgrey;stroke:black;" points="2306,-79 2244,-79 2244,-43 2306,-43 2306,-79"/>
<text text-anchor="middle" x="2275" y="-56.9" style="font-family:Times New Roman;font-size:14.00;">Addr 3</text>
</g>
<!-- Basic Block 9&#45;&gt;Addr 3 -->
<g id="edge32" class="edge"><title>Basic Block 9&#45;&gt;Addr 3</title>
<path style="fill:none;stroke:black;" d="M2208,-61C2216,-61 2225,-61 2234,-61"/>
<polygon style="fill:black;stroke:black;" points="2234,-64.5001 2244,-61 2234,-57.5001 2234,-64.5001"/>
</g>
<!-- Basic Block 10&#45;&gt;Basic Block 9 -->
<g id="edge34" class="edge"><title>Basic Block 10&#45;&gt;Basic Block 9</title>
<path style="fill:none;stroke:black;" d="M782,-20C843,-12 942,-1 1028,-0 1028,-0 1028,-0 1871,-0 1949,-1 2036,-22 2093,-40"/>
<polygon style="fill:black;stroke:black;" points="2092.42,-43.4788 2103,-43 2094.43,-36.7741 2092.42,-43.4788"/>
</g>
<!-- Basic Block 11&#45;&gt;Basic Block 6 -->
<g id="edge36" class="edge"><title>Basic Block 11&#45;&gt;Basic Block 6</title>
<path style="fill:none;stroke:black;" d="M934,-111C995,-119 1094,-130 1180,-130 1180,-130 1180,-130 1305,-130 1377,-130 1459,-124 1514,-118"/>
<polygon style="fill:black;stroke:black;" points="1514.4,-121.478 1524,-117 1513.7,-114.512 1514.4,-121.478"/>
</g>
<!-- Basic Block 12 -->
<g id="node12" class="node"><title>Basic Block 12</title>
<polygon style="fill:#ffffcc;stroke:black;" points="1085,-102 971,-102 971,-66 1085,-66 1085,-102"/>
<text text-anchor="middle" x="1028" y="-79.9" style="font-family:Times New Roman;font-size:14.00;">Basic Block 12</text>
</g>
<!-- Basic Block 11&#45;&gt;Basic Block 12 -->
<g id="edge38" class="edge"><title>Basic Block 11&#45;&gt;Basic Block 12</title>
<path style="fill:none;stroke:black;" d="M934,-96C943,-95 951,-94 960,-92"/>
<polygon style="fill:black;stroke:black;" points="960.398,-95.4778 970,-91 959.701,-88.5125 960.398,-95.4778"/>
</g>
<!-- Basic Block 12&#45;&gt;Basic Block 6 -->
<g id="edge40" class="edge"><title>Basic Block 12&#45;&gt;Basic Block 6</title>
<path style="fill:none;stroke:black;" d="M1086,-87C1190,-92 1406,-102 1514,-108"/>
<polygon style="fill:black;stroke:black;" points="1514,-111.5 1524,-108 1514,-104.5 1514,-111.5"/>
</g>
<!-- Basic Block 13 -->
<g id="node13" class="node"><title>Basic Block 13</title>
<polygon style="fill:#ffffcc;stroke:black;" points="1237,-64 1123,-64 1123,-28 1237,-28 1237,-64"/>
<text text-anchor="middle" x="1180" y="-41.9" style="font-family:Times New Roman;font-size:14.00;">Basic Block 13</text>
</g>
<!-- Basic Block 12&#45;&gt;Basic Block 13 -->
<g id="edge42" class="edge"><title>Basic Block 12&#45;&gt;Basic Block 13</title>
<path style="fill:none;stroke:black;" d="M1086,-70C1095,-68 1103,-66 1112,-63"/>
<polygon style="fill:black;stroke:black;" points="1112.88,-66.3933 1122,-61 1111.51,-59.5292 1112.88,-66.3933"/>
</g>
<!-- Addr 4 -->
<g id="node19" class="node"><title>Addr 4</title>
<polygon style="fill:lightgrey;stroke:black;" points="1336,-64 1274,-64 1274,-28 1336,-28 1336,-64"/>
<text text-anchor="middle" x="1305" y="-41.9" style="font-family:Times New Roman;font-size:14.00;">Addr 4</text>
</g>
<!-- Basic Block 13&#45;&gt;Addr 4 -->
<g id="edge44" class="edge"><title>Basic Block 13&#45;&gt;Addr 4</title>
<path style="fill:none;stroke:black;" d="M1238,-46C1246,-46 1255,-46 1264,-46"/>
<polygon style="fill:black;stroke:black;" points="1264,-49.5001 1274,-46 1264,-42.5001 1264,-49.5001"/>
</g>
<!-- Basic Block 14 -->
<g id="node14" class="node"><title>Basic Block 14</title>
<polygon style="fill:#ffffcc;stroke:black;" points="1487,-64 1373,-64 1373,-28 1487,-28 1487,-64"/>
<text text-anchor="middle" x="1430" y="-41.9" style="font-family:Times New Roman;font-size:14.00;">Basic Block 14</text>
</g>
<!-- Basic Block 14&#45;&gt;Basic Block 6 -->
<g id="edge48" class="edge"><title>Basic Block 14&#45;&gt;Basic Block 6</title>
<path style="fill:none;stroke:black;" d="M1471,-64C1488,-72 1509,-81 1527,-89"/>
<polygon style="fill:black;stroke:black;" points="1525.44,-92.1369 1536,-93 1528.28,-85.7402 1525.44,-92.1369"/>
</g>
<!-- Basic Block 15 -->
<g id="node15" class="node"><title>Basic Block 15</title>
<polygon style="fill:#ffffcc;stroke:black;" points="1781,-64 1667,-64 1667,-28 1781,-28 1781,-64"/>
<text text-anchor="middle" x="1724" y="-41.9" style="font-family:Times New Roman;font-size:14.00;">Basic Block 15</text>
</g>
<!-- Basic Block 14&#45;&gt;Basic Block 15 -->
<g id="edge50" class="edge"><title>Basic Block 14&#45;&gt;Basic Block 15</title>
<path style="fill:none;stroke:black;" d="M1488,-46C1536,-46 1605,-46 1656,-46"/>
<polygon style="fill:black;stroke:black;" points="1656,-49.5001 1666,-46 1656,-42.5001 1656,-49.5001"/>
</g>
<!-- Basic Block 15&#45;&gt;Basic Block 9 -->
<g id="edge52" class="edge"><title>Basic Block 15&#45;&gt;Basic Block 9</title>
<path style="fill:none;stroke:black;" d="M1782,-48C1863,-51 2008,-56 2092,-59"/>
<polygon style="fill:black;stroke:black;" points="2092,-62.5001 2102,-59 2092,-55.5001 2092,-62.5001"/>
</g>
<!-- Addr 1&#45;&gt;Basic Block 2 -->
<g id="edge4" class="edge"><title>Addr 1&#45;&gt;Basic Block 2</title>
<path style="fill:none;stroke:black;" d="M204,-33C212,-33 221,-33 230,-33"/>
<polygon style="fill:black;stroke:black;" points="230,-36.5001 240,-33 230,-29.5001 230,-36.5001"/>
</g>
<!-- Addr 2&#45;&gt;Basic Block 7 -->
<g id="edge24" class="edge"><title>Addr 2&#45;&gt;Basic Block 7</title>
<path style="fill:none;stroke:black;" d="M1755,-111C1770,-111 1790,-111 1808,-111"/>
<polygon style="fill:black;stroke:black;" points="1808,-114.5 1818,-111 1808,-107.5 1808,-114.5"/>
</g>
<!-- Addr 4&#45;&gt;Basic Block 14 -->
<g id="edge46" class="edge"><title>Addr 4&#45;&gt;Basic Block 14</title>
<path style="fill:none;stroke:black;" d="M1336,-46C1344,-46 1353,-46 1362,-46"/>
<polygon style="fill:black;stroke:black;" points="1362,-49.5001 1372,-46 1362,-42.5001 1362,-49.5001"/>
</g>
</g>
</svg>
