<?xml version="1.0" encoding="UTF-8" standalone="no"?>
<!DOCTYPE svg PUBLIC "-//W3C//DTD SVG 1.0//EN"
 "http://www.w3.org/TR/2001/REC-SVG-20010904/DTD/svg10.dtd" [
 <!ATTLIST svg xmlns:xlink CDATA #FIXED "http://www.w3.org/1999/xlink">
]>
<!-- Generated by Graphviz version 2.20.2 (Tue Mar &#160;2 19:03:41 UTC 2010)
     For user: (levinth) David Levinthal -->
<!-- Title: touch_atime Pages: 1 -->
<svg width="4996pt" height="447pt"
 viewBox="0.00 0.00 4996.00 447.00" xmlns="http://www.w3.org/2000/svg" xmlns:xlink="http://www.w3.org/1999/xlink">
<g id="graph0" class="graph" transform="scale(1 1) rotate(0) translate(4 443)">
<title>touch_atime</title>
<polygon style="fill:white;stroke:white;" points="-4,4 -4,-443 4992,-443 4992,4 -4,4"/>
<!-- Basic Block 1 -->
<g id="node1" class="node"><title>Basic Block 1</title>
<polygon style="fill:#ffffcc;stroke:black;" points="106,-46 3.55271e-14,-46 0,-10 106,-10 106,-46"/>
<text text-anchor="middle" x="53" y="-23.9" style="font-family:Times New Roman;font-size:14.00;">Basic Block 1</text>
</g>
<!-- Addr 1 -->
<g id="node36" class="node"><title>Addr 1</title>
<polygon style="fill:lightgrey;stroke:black;" points="204,-46 142,-46 142,-10 204,-10 204,-46"/>
<text text-anchor="middle" x="173" y="-23.9" style="font-family:Times New Roman;font-size:14.00;">Addr 1</text>
</g>
<!-- Basic Block 1&#45;&gt;Addr 1 -->
<g id="edge2" class="edge"><title>Basic Block 1&#45;&gt;Addr 1</title>
<path style="fill:none;stroke:black;" d="M106,-28C114,-28 123,-28 132,-28"/>
<polygon style="fill:black;stroke:black;" points="132,-31.5001 142,-28 132,-24.5001 132,-31.5001"/>
</g>
<!-- Basic Block 2 -->
<g id="node2" class="node"><title>Basic Block 2</title>
<polygon style="fill:#ffffcc;stroke:black;" points="346,-46 240,-46 240,-10 346,-10 346,-46"/>
<text text-anchor="middle" x="293" y="-23.9" style="font-family:Times New Roman;font-size:14.00;">Basic Block 2</text>
</g>
<!-- Basic Block 3 -->
<g id="node3" class="node"><title>Basic Block 3</title>
<polygon style="fill:#ffffcc;stroke:black;" points="488,-69 382,-69 382,-33 488,-33 488,-69"/>
<text text-anchor="middle" x="435" y="-46.9" style="font-family:Times New Roman;font-size:14.00;">Basic Block 3</text>
</g>
<!-- Basic Block 2&#45;&gt;Basic Block 3 -->
<g id="edge8" class="edge"><title>Basic Block 2&#45;&gt;Basic Block 3</title>
<path style="fill:none;stroke:black;" d="M346,-37C355,-38 363,-40 372,-41"/>
<polygon style="fill:black;stroke:black;" points="371.701,-44.4875 382,-42 372.398,-37.5222 371.701,-44.4875"/>
</g>
<!-- Basic Block 17 -->
<g id="node17" class="node"><title>Basic Block 17</title>
<polygon style="fill:#800026;stroke:black;" points="4889,-229 4775,-229 4775,-193 4889,-193 4889,-229"/>
<text text-anchor="middle" x="4832" y="-206.9" style="font-family:Times New Roman;font-size:14.00;">Basic Block 17</text>
</g>
<!-- Basic Block 2&#45;&gt;Basic Block 17 -->
<g id="edge6" class="edge"><title>Basic Block 2&#45;&gt;Basic Block 17</title>
<path style="fill:none;stroke:black;" d="M346,-21C404,-14 500,-5 582,-5 582,-5 582,-5 4555,-5 4638,-5 4672,6 4738,-42 4786,-78 4813,-145 4824,-183"/>
<polygon style="fill:black;stroke:black;" points="4820.77,-184.427 4827,-193 4827.48,-182.416 4820.77,-184.427"/>
</g>
<!-- Basic Block 4 -->
<g id="node4" class="node"><title>Basic Block 4</title>
<polygon style="fill:#ffffcc;stroke:black;" points="635,-181 529,-181 529,-145 635,-145 635,-181"/>
<text text-anchor="middle" x="582" y="-158.9" style="font-family:Times New Roman;font-size:14.00;">Basic Block 4</text>
</g>
<!-- Basic Block 3&#45;&gt;Basic Block 4 -->
<g id="edge12" class="edge"><title>Basic Block 3&#45;&gt;Basic Block 4</title>
<path style="fill:none;stroke:black;" d="M451,-69C467,-88 496,-117 524,-136 526,-137 528,-138 530,-140"/>
<polygon style="fill:black;stroke:black;" points="528.559,-143.203 539,-145 531.958,-137.084 528.559,-143.203"/>
</g>
<!-- Basic Block 3&#45;&gt;Basic Block 17 -->
<g id="edge10" class="edge"><title>Basic Block 3&#45;&gt;Basic Block 17</title>
<path style="fill:none;stroke:black;" d="M488,-49C548,-46 648,-43 734,-43 734,-43 734,-43 4555,-43 4639,-43 4668,-44 4738,-90 4774,-114 4803,-156 4818,-184"/>
<polygon style="fill:black;stroke:black;" points="4815.08,-185.958 4823,-193 4821.2,-182.559 4815.08,-185.958"/>
</g>
<!-- Basic Block 5 -->
<g id="node5" class="node"><title>Basic Block 5</title>
<polygon style="fill:#ffffcc;stroke:black;" points="934,-302 828,-302 828,-266 934,-266 934,-302"/>
<text text-anchor="middle" x="881" y="-279.9" style="font-family:Times New Roman;font-size:14.00;">Basic Block 5</text>
</g>
<!-- Basic Block 4&#45;&gt;Basic Block 5 -->
<g id="edge16" class="edge"><title>Basic Block 4&#45;&gt;Basic Block 5</title>
<path style="fill:none;stroke:black;" d="M627,-181C680,-203 770,-239 826,-262"/>
<polygon style="fill:black;stroke:black;" points="825.415,-265.536 836,-266 828.015,-259.036 825.415,-265.536"/>
</g>
<!-- Basic Block 19 -->
<g id="node19" class="node"><title>Basic Block 19</title>
<polygon style="fill:#ffffcc;stroke:black;" points="791,-151 677,-151 677,-115 791,-115 791,-151"/>
<text text-anchor="middle" x="734" y="-128.9" style="font-family:Times New Roman;font-size:14.00;">Basic Block 19</text>
</g>
<!-- Basic Block 4&#45;&gt;Basic Block 19 -->
<g id="edge14" class="edge"><title>Basic Block 4&#45;&gt;Basic Block 19</title>
<path style="fill:none;stroke:black;" d="M635,-153C645,-151 656,-148 666,-147"/>
<polygon style="fill:black;stroke:black;" points="666.881,-150.393 676,-145 665.508,-143.529 666.881,-150.393"/>
</g>
<!-- Basic Block 6 -->
<g id="node6" class="node"><title>Basic Block 6</title>
<polygon style="fill:#ffffcc;stroke:black;" points="1081,-323 975,-323 975,-287 1081,-287 1081,-323"/>
<text text-anchor="middle" x="1028" y="-300.9" style="font-family:Times New Roman;font-size:14.00;">Basic Block 6</text>
</g>
<!-- Basic Block 5&#45;&gt;Basic Block 6 -->
<g id="edge20" class="edge"><title>Basic Block 5&#45;&gt;Basic Block 6</title>
<path style="fill:none;stroke:black;" d="M934,-292C944,-294 955,-295 965,-297"/>
<polygon style="fill:black;stroke:black;" points="964.701,-300.488 975,-298 965.398,-293.522 964.701,-300.488"/>
</g>
<!-- Basic Block 5&#45;&gt;Basic Block 17 -->
<g id="edge18" class="edge"><title>Basic Block 5&#45;&gt;Basic Block 17</title>
<path style="fill:none;stroke:black;" d="M900,-302C944,-343 1059,-439 1175,-439 1175,-439 1175,-439 4555,-439 4643,-439 4672,-424 4738,-368 4781,-333 4809,-273 4822,-238"/>
<polygon style="fill:black;stroke:black;" points="4825.14,-239.56 4826,-229 4818.74,-236.717 4825.14,-239.56"/>
</g>
<!-- Basic Block 7 -->
<g id="node7" class="node"><title>Basic Block 7</title>
<polygon style="fill:#ffffcc;stroke:black;" points="1228,-369 1122,-369 1122,-333 1228,-333 1228,-369"/>
<text text-anchor="middle" x="1175" y="-346.9" style="font-family:Times New Roman;font-size:14.00;">Basic Block 7</text>
</g>
<!-- Basic Block 6&#45;&gt;Basic Block 7 -->
<g id="edge24" class="edge"><title>Basic Block 6&#45;&gt;Basic Block 7</title>
<path style="fill:none;stroke:black;" d="M1081,-322C1091,-325 1102,-329 1112,-332"/>
<polygon style="fill:black;stroke:black;" points="1111.42,-335.479 1122,-335 1113.43,-328.774 1111.42,-335.479"/>
</g>
<!-- Basic Block 8 -->
<g id="node8" class="node"><title>Basic Block 8</title>
<polygon style="fill:#ffffcc;stroke:black;" points="1370,-346 1264,-346 1264,-310 1370,-310 1370,-346"/>
<text text-anchor="middle" x="1317" y="-323.9" style="font-family:Times New Roman;font-size:14.00;">Basic Block 8</text>
</g>
<!-- Basic Block 6&#45;&gt;Basic Block 8 -->
<g id="edge22" class="edge"><title>Basic Block 6&#45;&gt;Basic Block 8</title>
<path style="fill:none;stroke:black;" d="M1081,-309C1130,-313 1202,-319 1254,-323"/>
<polygon style="fill:black;stroke:black;" points="1253.7,-326.488 1264,-324 1254.4,-319.522 1253.7,-326.488"/>
</g>
<!-- Basic Block 7&#45;&gt;Basic Block 8 -->
<g id="edge28" class="edge"><title>Basic Block 7&#45;&gt;Basic Block 8</title>
<path style="fill:none;stroke:black;" d="M1228,-342C1237,-341 1245,-339 1254,-338"/>
<polygon style="fill:black;stroke:black;" points="1254.4,-341.478 1264,-337 1253.7,-334.512 1254.4,-341.478"/>
</g>
<!-- Basic Block 7&#45;&gt;Basic Block 17 -->
<g id="edge26" class="edge"><title>Basic Block 7&#45;&gt;Basic Block 17</title>
<path style="fill:none;stroke:black;" d="M1228,-367C1281,-382 1364,-401 1437,-401 1437,-401 1437,-401 4555,-401 4670,-401 4772,-290 4813,-237"/>
<polygon style="fill:black;stroke:black;" points="4815.8,-239.1 4819,-229 4810.2,-234.9 4815.8,-239.1"/>
</g>
<!-- Addr 2 -->
<g id="node37" class="node"><title>Addr 2</title>
<polygon style="fill:lightgrey;stroke:black;" points="1468,-346 1406,-346 1406,-310 1468,-310 1468,-346"/>
<text text-anchor="middle" x="1437" y="-323.9" style="font-family:Times New Roman;font-size:14.00;">Addr 2</text>
</g>
<!-- Basic Block 8&#45;&gt;Addr 2 -->
<g id="edge30" class="edge"><title>Basic Block 8&#45;&gt;Addr 2</title>
<path style="fill:none;stroke:black;" d="M1370,-328C1378,-328 1387,-328 1396,-328"/>
<polygon style="fill:black;stroke:black;" points="1396,-331.5 1406,-328 1396,-324.5 1396,-331.5"/>
</g>
<!-- Basic Block 9 -->
<g id="node9" class="node"><title>Basic Block 9</title>
<polygon style="fill:#800026;stroke:black;" points="1610,-346 1504,-346 1504,-310 1610,-310 1610,-346"/>
<text text-anchor="middle" x="1557" y="-323.9" style="font-family:Times New Roman;font-size:14.00;">Basic Block 9</text>
</g>
<!-- Basic Block 10 -->
<g id="node10" class="node"><title>Basic Block 10</title>
<polygon style="fill:#ffffcc;stroke:black;" points="1761,-266 1647,-266 1647,-230 1761,-230 1761,-266"/>
<text text-anchor="middle" x="1704" y="-243.9" style="font-family:Times New Roman;font-size:14.00;">Basic Block 10</text>
</g>
<!-- Basic Block 9&#45;&gt;Basic Block 10 -->
<g id="edge36" class="edge"><title>Basic Block 9&#45;&gt;Basic Block 10</title>
<path style="fill:none;stroke:black;" d="M1586,-310C1603,-299 1626,-286 1646,-275 1649,-274 1652,-272 1655,-271"/>
<polygon style="fill:black;stroke:black;" points="1656.96,-273.916 1664,-266 1653.56,-267.797 1656.96,-273.916"/>
</g>
<!-- Basic Block 25 -->
<g id="node25" class="node"><title>Basic Block 25</title>
<polygon style="fill:#ffffcc;stroke:black;" points="2977,-267 2863,-267 2863,-231 2977,-231 2977,-267"/>
<text text-anchor="middle" x="2920" y="-244.9" style="font-family:Times New Roman;font-size:14.00;">Basic Block 25</text>
</g>
<!-- Basic Block 9&#45;&gt;Basic Block 25 -->
<g id="edge34" class="edge"><title>Basic Block 9&#45;&gt;Basic Block 25</title>
<path style="fill:none;stroke:black;" d="M1610,-338C1670,-348 1770,-363 1856,-363 1856,-363 1856,-363 2616,-363 2712,-363 2744,-362 2826,-315 2847,-303 2843,-289 2862,-276 2864,-275 2865,-274 2867,-272"/>
<polygon style="fill:black;stroke:black;" points="2868.96,-274.916 2876,-267 2865.56,-268.797 2868.96,-274.916"/>
</g>
<!-- Basic Block 11 -->
<g id="node11" class="node"><title>Basic Block 11</title>
<polygon style="fill:#ffffcc;stroke:black;" points="2217,-245 2103,-245 2103,-209 2217,-209 2217,-245"/>
<text text-anchor="middle" x="2160" y="-222.9" style="font-family:Times New Roman;font-size:14.00;">Basic Block 11</text>
</g>
<!-- Basic Block 10&#45;&gt;Basic Block 11 -->
<g id="edge40" class="edge"><title>Basic Block 10&#45;&gt;Basic Block 11</title>
<path style="fill:none;stroke:black;" d="M1762,-245C1846,-241 2003,-235 2092,-230"/>
<polygon style="fill:black;stroke:black;" points="2092,-233.5 2102,-230 2092,-226.5 2092,-233.5"/>
</g>
<!-- Basic Block 22 -->
<g id="node22" class="node"><title>Basic Block 22</title>
<polygon style="fill:#ffffcc;stroke:black;" points="1913,-308 1799,-308 1799,-272 1913,-272 1913,-308"/>
<text text-anchor="middle" x="1856" y="-285.9" style="font-family:Times New Roman;font-size:14.00;">Basic Block 22</text>
</g>
<!-- Basic Block 10&#45;&gt;Basic Block 22 -->
<g id="edge38" class="edge"><title>Basic Block 10&#45;&gt;Basic Block 22</title>
<path style="fill:none;stroke:black;" d="M1762,-264C1771,-266 1779,-269 1788,-271"/>
<polygon style="fill:black;stroke:black;" points="1787.42,-274.479 1798,-274 1789.43,-267.774 1787.42,-274.479"/>
</g>
<!-- Basic Block 12 -->
<g id="node12" class="node"><title>Basic Block 12</title>
<polygon style="fill:#ffffcc;stroke:black;" points="2369,-243 2255,-243 2255,-207 2369,-207 2369,-243"/>
<text text-anchor="middle" x="2312" y="-220.9" style="font-family:Times New Roman;font-size:14.00;">Basic Block 12</text>
</g>
<!-- Basic Block 11&#45;&gt;Basic Block 12 -->
<g id="edge44" class="edge"><title>Basic Block 11&#45;&gt;Basic Block 12</title>
<path style="fill:none;stroke:black;" d="M2218,-226C2227,-226 2235,-226 2244,-226"/>
<polygon style="fill:black;stroke:black;" points="2244,-229.5 2254,-226 2244,-222.5 2244,-229.5"/>
</g>
<!-- Basic Block 15 -->
<g id="node15" class="node"><title>Basic Block 15</title>
<polygon style="fill:#ffffcc;stroke:black;" points="2825,-183 2711,-183 2711,-147 2825,-147 2825,-183"/>
<text text-anchor="middle" x="2768" y="-160.9" style="font-family:Times New Roman;font-size:14.00;">Basic Block 15</text>
</g>
<!-- Basic Block 11&#45;&gt;Basic Block 15 -->
<g id="edge42" class="edge"><title>Basic Block 11&#45;&gt;Basic Block 15</title>
<path style="fill:none;stroke:black;" d="M2215,-209C2227,-205 2241,-201 2254,-198 2388,-165 2421,-152 2558,-138 2610,-133 2623,-131 2674,-138 2684,-139 2694,-142 2704,-144"/>
<polygon style="fill:black;stroke:black;" points="2703.42,-147.479 2714,-147 2705.43,-140.774 2703.42,-147.479"/>
</g>
<!-- Basic Block 13 -->
<g id="node13" class="node"><title>Basic Block 13</title>
<polygon style="fill:#ffffcc;stroke:black;" points="2521,-221 2407,-221 2407,-185 2521,-185 2521,-221"/>
<text text-anchor="middle" x="2464" y="-198.9" style="font-family:Times New Roman;font-size:14.00;">Basic Block 13</text>
</g>
<!-- Basic Block 12&#45;&gt;Basic Block 13 -->
<g id="edge48" class="edge"><title>Basic Block 12&#45;&gt;Basic Block 13</title>
<path style="fill:none;stroke:black;" d="M2370,-217C2379,-216 2387,-214 2396,-213"/>
<polygon style="fill:black;stroke:black;" points="2396.88,-216.393 2406,-211 2395.51,-209.529 2396.88,-216.393"/>
</g>
<!-- Basic Block 12&#45;&gt;Basic Block 25 -->
<g id="edge46" class="edge"><title>Basic Block 12&#45;&gt;Basic Block 25</title>
<path style="fill:none;stroke:black;" d="M2370,-228C2382,-229 2394,-229 2406,-230 2566,-237 2754,-244 2852,-247"/>
<polygon style="fill:black;stroke:black;" points="2852,-250.5 2862,-247 2852,-243.5 2852,-250.5"/>
</g>
<!-- Basic Block 14 -->
<g id="node14" class="node"><title>Basic Block 14</title>
<polygon style="fill:#ffffcc;stroke:black;" points="2673,-183 2559,-183 2559,-147 2673,-147 2673,-183"/>
<text text-anchor="middle" x="2616" y="-160.9" style="font-family:Times New Roman;font-size:14.00;">Basic Block 14</text>
</g>
<!-- Basic Block 13&#45;&gt;Basic Block 14 -->
<g id="edge52" class="edge"><title>Basic Block 13&#45;&gt;Basic Block 14</title>
<path style="fill:none;stroke:black;" d="M2522,-189C2531,-187 2539,-185 2548,-182"/>
<polygon style="fill:black;stroke:black;" points="2548.88,-185.393 2558,-180 2547.51,-178.529 2548.88,-185.393"/>
</g>
<!-- Basic Block 13&#45;&gt;Basic Block 25 -->
<g id="edge50" class="edge"><title>Basic Block 13&#45;&gt;Basic Block 25</title>
<path style="fill:none;stroke:black;" d="M2522,-207C2593,-212 2719,-222 2826,-235 2835,-236 2843,-237 2852,-238"/>
<polygon style="fill:black;stroke:black;" points="2851.7,-241.488 2862,-239 2852.4,-234.522 2851.7,-241.488"/>
</g>
<!-- Basic Block 14&#45;&gt;Basic Block 15 -->
<g id="edge54" class="edge"><title>Basic Block 14&#45;&gt;Basic Block 15</title>
<path style="fill:none;stroke:black;" d="M2674,-165C2683,-165 2691,-165 2700,-165"/>
<polygon style="fill:black;stroke:black;" points="2700,-168.5 2710,-165 2700,-161.5 2700,-168.5"/>
</g>
<!-- Basic Block 16 -->
<g id="node16" class="node"><title>Basic Block 16</title>
<polygon style="fill:#ffffcc;stroke:black;" points="3129,-183 3015,-183 3015,-147 3129,-147 3129,-183"/>
<text text-anchor="middle" x="3072" y="-160.9" style="font-family:Times New Roman;font-size:14.00;">Basic Block 16</text>
</g>
<!-- Basic Block 15&#45;&gt;Basic Block 16 -->
<g id="edge58" class="edge"><title>Basic Block 15&#45;&gt;Basic Block 16</title>
<path style="fill:none;stroke:black;" d="M2826,-165C2877,-165 2950,-165 3004,-165"/>
<polygon style="fill:black;stroke:black;" points="3004,-168.5 3014,-165 3004,-161.5 3004,-168.5"/>
</g>
<!-- Basic Block 15&#45;&gt;Basic Block 25 -->
<g id="edge56" class="edge"><title>Basic Block 15&#45;&gt;Basic Block 25</title>
<path style="fill:none;stroke:black;" d="M2801,-183C2809,-188 2818,-193 2826,-197 2844,-206 2862,-217 2878,-226"/>
<polygon style="fill:black;stroke:black;" points="2876.56,-229.203 2887,-231 2879.96,-223.084 2876.56,-229.203"/>
</g>
<!-- Basic Block 16&#45;&gt;Basic Block 17 -->
<g id="edge60" class="edge"><title>Basic Block 16&#45;&gt;Basic Block 17</title>
<path style="fill:none;stroke:black;" d="M3130,-165C3191,-165 3290,-166 3376,-165 3376,-165 3376,-165 4555,-165 4637,-166 4658,-169 4738,-184 4747,-185 4757,-188 4766,-190"/>
<polygon style="fill:black;stroke:black;" points="4765.42,-193.479 4776,-193 4767.43,-186.774 4765.42,-193.479"/>
</g>
<!-- Addr 3 -->
<g id="node38" class="node"><title>Addr 3</title>
<polygon style="fill:lightgrey;stroke:black;" points="4988,-229 4926,-229 4926,-193 4988,-193 4988,-229"/>
<text text-anchor="middle" x="4957" y="-206.9" style="font-family:Times New Roman;font-size:14.00;">Addr 3</text>
</g>
<!-- Basic Block 17&#45;&gt;Addr 3 -->
<g id="edge62" class="edge"><title>Basic Block 17&#45;&gt;Addr 3</title>
<path style="fill:none;stroke:black;" d="M4890,-211C4898,-211 4907,-211 4916,-211"/>
<polygon style="fill:black;stroke:black;" points="4916,-214.5 4926,-211 4916,-207.5 4916,-214.5"/>
</g>
<!-- Basic Block 18 -->
<g id="node18" class="node"><title>Basic Block 18</title>
<polygon style="fill:#ffffcc;stroke:black;" points="639,-127 525,-127 525,-91 639,-91 639,-127"/>
<text text-anchor="middle" x="582" y="-104.9" style="font-family:Times New Roman;font-size:14.00;">Basic Block 18</text>
</g>
<!-- Basic Block 18&#45;&gt;Basic Block 19 -->
<g id="edge64" class="edge"><title>Basic Block 18&#45;&gt;Basic Block 19</title>
<path style="fill:none;stroke:black;" d="M640,-118C649,-119 657,-121 666,-122"/>
<polygon style="fill:black;stroke:black;" points="665.508,-125.471 676,-124 666.881,-118.607 665.508,-125.471"/>
</g>
<!-- Basic Block 19&#45;&gt;Basic Block 5 -->
<g id="edge66" class="edge"><title>Basic Block 19&#45;&gt;Basic Block 5</title>
<path style="fill:none;stroke:black;" d="M753,-151C765,-162 779,-176 792,-189 815,-212 840,-239 858,-259"/>
<polygon style="fill:black;stroke:black;" points="855.454,-261.404 865,-266 860.404,-256.454 855.454,-261.404"/>
</g>
<!-- Basic Block 20 -->
<g id="node20" class="node"><title>Basic Block 20</title>
<polygon style="fill:#ffffcc;stroke:black;" points="1085,-151 971,-151 971,-115 1085,-115 1085,-151"/>
<text text-anchor="middle" x="1028" y="-128.9" style="font-family:Times New Roman;font-size:14.00;">Basic Block 20</text>
</g>
<!-- Basic Block 19&#45;&gt;Basic Block 20 -->
<g id="edge68" class="edge"><title>Basic Block 19&#45;&gt;Basic Block 20</title>
<path style="fill:none;stroke:black;" d="M792,-133C840,-133 909,-133 960,-133"/>
<polygon style="fill:black;stroke:black;" points="960,-136.5 970,-133 960,-129.5 960,-136.5"/>
</g>
<!-- Basic Block 20&#45;&gt;Basic Block 17 -->
<g id="edge70" class="edge"><title>Basic Block 20&#45;&gt;Basic Block 17</title>
<path style="fill:none;stroke:black;" d="M1086,-117C1144,-102 1236,-82 1317,-81 1317,-81 1317,-81 4555,-81 4653,-82 4754,-149 4802,-187"/>
<polygon style="fill:black;stroke:black;" points="4799.9,-189.8 4810,-193 4804.1,-184.2 4799.9,-189.8"/>
</g>
<!-- Basic Block 21 -->
<g id="node21" class="node"><title>Basic Block 21</title>
<polygon style="fill:#ffffcc;stroke:black;" points="1761,-320 1647,-320 1647,-284 1761,-284 1761,-320"/>
<text text-anchor="middle" x="1704" y="-297.9" style="font-family:Times New Roman;font-size:14.00;">Basic Block 21</text>
</g>
<!-- Basic Block 21&#45;&gt;Basic Block 22 -->
<g id="edge72" class="edge"><title>Basic Block 21&#45;&gt;Basic Block 22</title>
<path style="fill:none;stroke:black;" d="M1762,-297C1771,-296 1779,-296 1788,-295"/>
<polygon style="fill:black;stroke:black;" points="1788.4,-298.478 1798,-294 1787.7,-291.512 1788.4,-298.478"/>
</g>
<!-- Basic Block 23 -->
<g id="node23" class="node"><title>Basic Block 23</title>
<polygon style="fill:#ffffcc;stroke:black;" points="2065,-297 1951,-297 1951,-261 2065,-261 2065,-297"/>
<text text-anchor="middle" x="2008" y="-274.9" style="font-family:Times New Roman;font-size:14.00;">Basic Block 23</text>
</g>
<!-- Basic Block 22&#45;&gt;Basic Block 23 -->
<g id="edge76" class="edge"><title>Basic Block 22&#45;&gt;Basic Block 23</title>
<path style="fill:none;stroke:black;" d="M1914,-286C1923,-285 1931,-285 1940,-284"/>
<polygon style="fill:black;stroke:black;" points="1940.4,-287.478 1950,-283 1939.7,-280.512 1940.4,-287.478"/>
</g>
<!-- Basic Block 22&#45;&gt;Basic Block 25 -->
<g id="edge74" class="edge"><title>Basic Block 22&#45;&gt;Basic Block 25</title>
<path style="fill:none;stroke:black;" d="M1914,-301C1975,-311 2074,-325 2160,-325 2160,-325 2160,-325 2616,-325 2707,-325 2808,-293 2867,-271"/>
<polygon style="fill:black;stroke:black;" points="2869.02,-273.964 2877,-267 2866.42,-267.464 2869.02,-273.964"/>
</g>
<!-- Basic Block 23&#45;&gt;Basic Block 11 -->
<g id="edge78" class="edge"><title>Basic Block 23&#45;&gt;Basic Block 11</title>
<path style="fill:none;stroke:black;" d="M2061,-261C2073,-257 2086,-252 2098,-248"/>
<polygon style="fill:black;stroke:black;" points="2099.43,-251.226 2108,-245 2097.42,-244.521 2099.43,-251.226"/>
</g>
<!-- Basic Block 24 -->
<g id="node24" class="node"><title>Basic Block 24</title>
<polygon style="fill:#ffffcc;stroke:black;" points="2369,-297 2255,-297 2255,-261 2369,-261 2369,-297"/>
<text text-anchor="middle" x="2312" y="-274.9" style="font-family:Times New Roman;font-size:14.00;">Basic Block 24</text>
</g>
<!-- Basic Block 23&#45;&gt;Basic Block 24 -->
<g id="edge80" class="edge"><title>Basic Block 23&#45;&gt;Basic Block 24</title>
<path style="fill:none;stroke:black;" d="M2066,-279C2117,-279 2190,-279 2244,-279"/>
<polygon style="fill:black;stroke:black;" points="2244,-282.5 2254,-279 2244,-275.5 2244,-282.5"/>
</g>
<!-- Basic Block 24&#45;&gt;Basic Block 25 -->
<g id="edge82" class="edge"><title>Basic Block 24&#45;&gt;Basic Block 25</title>
<path style="fill:none;stroke:black;" d="M2370,-277C2465,-273 2661,-265 2826,-256 2835,-255 2843,-255 2852,-254"/>
<polygon style="fill:black;stroke:black;" points="2852.4,-257.478 2862,-253 2851.7,-250.512 2852.4,-257.478"/>
</g>
<!-- Basic Block 26 -->
<g id="node26" class="node"><title>Basic Block 26</title>
<polygon style="fill:#ffffcc;stroke:black;" points="3281,-267 3167,-267 3167,-231 3281,-231 3281,-267"/>
<text text-anchor="middle" x="3224" y="-244.9" style="font-family:Times New Roman;font-size:14.00;">Basic Block 26</text>
</g>
<!-- Basic Block 25&#45;&gt;Basic Block 26 -->
<g id="edge86" class="edge"><title>Basic Block 25&#45;&gt;Basic Block 26</title>
<path style="fill:none;stroke:black;" d="M2978,-249C3029,-249 3102,-249 3156,-249"/>
<polygon style="fill:black;stroke:black;" points="3156,-252.5 3166,-249 3156,-245.5 3156,-252.5"/>
</g>
<!-- Basic Block 34 -->
<g id="node34" class="node"><title>Basic Block 34</title>
<polygon style="fill:#ffffcc;stroke:black;" points="3129,-313 3015,-313 3015,-277 3129,-277 3129,-313"/>
<text text-anchor="middle" x="3072" y="-290.9" style="font-family:Times New Roman;font-size:14.00;">Basic Block 34</text>
</g>
<!-- Basic Block 25&#45;&gt;Basic Block 34 -->
<g id="edge84" class="edge"><title>Basic Block 25&#45;&gt;Basic Block 34</title>
<path style="fill:none;stroke:black;" d="M2978,-267C2987,-270 2996,-272 3004,-275"/>
<polygon style="fill:black;stroke:black;" points="3003.42,-278.479 3014,-278 3005.43,-271.774 3003.42,-278.479"/>
</g>
<!-- Addr 4 -->
<g id="node39" class="node"><title>Addr 4</title>
<polygon style="fill:lightgrey;stroke:black;" points="3407,-259 3345,-259 3345,-223 3407,-223 3407,-259"/>
<text text-anchor="middle" x="3376" y="-236.9" style="font-family:Times New Roman;font-size:14.00;">Addr 4</text>
</g>
<!-- Basic Block 26&#45;&gt;Addr 4 -->
<g id="edge88" class="edge"><title>Basic Block 26&#45;&gt;Addr 4</title>
<path style="fill:none;stroke:black;" d="M3282,-246C3299,-245 3318,-244 3335,-244"/>
<polygon style="fill:black;stroke:black;" points="3335.4,-247.478 3345,-243 3334.7,-240.512 3335.4,-247.478"/>
</g>
<!-- Basic Block 27 -->
<g id="node27" class="node"><title>Basic Block 27</title>
<polygon style="fill:#ffffcc;stroke:black;" points="3585,-259 3471,-259 3471,-223 3585,-223 3585,-259"/>
<text text-anchor="middle" x="3528" y="-236.9" style="font-family:Times New Roman;font-size:14.00;">Basic Block 27</text>
</g>
<!-- Basic Block 27&#45;&gt;Basic Block 17 -->
<g id="edge92" class="edge"><title>Basic Block 27&#45;&gt;Basic Block 17</title>
<path style="fill:none;stroke:black;" d="M3586,-246C3642,-251 3729,-257 3805,-257 3805,-257 3805,-257 4555,-257 4637,-257 4658,-253 4738,-238 4747,-237 4755,-234 4764,-232"/>
<polygon style="fill:black;stroke:black;" points="4765.43,-235.226 4774,-229 4763.42,-228.521 4765.43,-235.226"/>
</g>
<!-- Basic Block 28 -->
<g id="node28" class="node"><title>Basic Block 28</title>
<polygon style="fill:#ffffcc;stroke:black;" points="3737,-229 3623,-229 3623,-193 3737,-193 3737,-229"/>
<text text-anchor="middle" x="3680" y="-206.9" style="font-family:Times New Roman;font-size:14.00;">Basic Block 28</text>
</g>
<!-- Basic Block 27&#45;&gt;Basic Block 28 -->
<g id="edge94" class="edge"><title>Basic Block 27&#45;&gt;Basic Block 28</title>
<path style="fill:none;stroke:black;" d="M3586,-230C3595,-229 3603,-227 3612,-225"/>
<polygon style="fill:black;stroke:black;" points="3612.88,-228.393 3622,-223 3611.51,-221.529 3612.88,-228.393"/>
</g>
<!-- Addr 5 -->
<g id="node40" class="node"><title>Addr 5</title>
<polygon style="fill:lightgrey;stroke:black;" points="3836,-229 3774,-229 3774,-193 3836,-193 3836,-229"/>
<text text-anchor="middle" x="3805" y="-206.9" style="font-family:Times New Roman;font-size:14.00;">Addr 5</text>
</g>
<!-- Basic Block 28&#45;&gt;Addr 5 -->
<g id="edge96" class="edge"><title>Basic Block 28&#45;&gt;Addr 5</title>
<path style="fill:none;stroke:black;" d="M3738,-211C3746,-211 3755,-211 3764,-211"/>
<polygon style="fill:black;stroke:black;" points="3764,-214.5 3774,-211 3764,-207.5 3764,-214.5"/>
</g>
<!-- Basic Block 29 -->
<g id="node29" class="node"><title>Basic Block 29</title>
<polygon style="fill:#ffffcc;stroke:black;" points="3987,-229 3873,-229 3873,-193 3987,-193 3987,-229"/>
<text text-anchor="middle" x="3930" y="-206.9" style="font-family:Times New Roman;font-size:14.00;">Basic Block 29</text>
</g>
<!-- Addr 6 -->
<g id="node41" class="node"><title>Addr 6</title>
<polygon style="fill:lightgrey;stroke:black;" points="4086,-229 4024,-229 4024,-193 4086,-193 4086,-229"/>
<text text-anchor="middle" x="4055" y="-206.9" style="font-family:Times New Roman;font-size:14.00;">Addr 6</text>
</g>
<!-- Basic Block 29&#45;&gt;Addr 6 -->
<g id="edge100" class="edge"><title>Basic Block 29&#45;&gt;Addr 6</title>
<path style="fill:none;stroke:black;" d="M3988,-211C3996,-211 4005,-211 4014,-211"/>
<polygon style="fill:black;stroke:black;" points="4014,-214.5 4024,-211 4014,-207.5 4014,-214.5"/>
</g>
<!-- Basic Block 30 -->
<g id="node30" class="node"><title>Basic Block 30</title>
<polygon style="fill:#ffffcc;stroke:black;" points="4237,-229 4123,-229 4123,-193 4237,-193 4237,-229"/>
<text text-anchor="middle" x="4180" y="-206.9" style="font-family:Times New Roman;font-size:14.00;">Basic Block 30</text>
</g>
<!-- Addr 7 -->
<g id="node42" class="node"><title>Addr 7</title>
<polygon style="fill:lightgrey;stroke:black;" points="4336,-229 4274,-229 4274,-193 4336,-193 4336,-229"/>
<text text-anchor="middle" x="4305" y="-206.9" style="font-family:Times New Roman;font-size:14.00;">Addr 7</text>
</g>
<!-- Basic Block 30&#45;&gt;Addr 7 -->
<g id="edge104" class="edge"><title>Basic Block 30&#45;&gt;Addr 7</title>
<path style="fill:none;stroke:black;" d="M4238,-211C4246,-211 4255,-211 4264,-211"/>
<polygon style="fill:black;stroke:black;" points="4264,-214.5 4274,-211 4264,-207.5 4264,-214.5"/>
</g>
<!-- Basic Block 31 -->
<g id="node31" class="node"><title>Basic Block 31</title>
<polygon style="fill:#ffffcc;stroke:black;" points="4487,-229 4373,-229 4373,-193 4487,-193 4487,-229"/>
<text text-anchor="middle" x="4430" y="-206.9" style="font-family:Times New Roman;font-size:14.00;">Basic Block 31</text>
</g>
<!-- Addr 8 -->
<g id="node43" class="node"><title>Addr 8</title>
<polygon style="fill:lightgrey;stroke:black;" points="4586,-229 4524,-229 4524,-193 4586,-193 4586,-229"/>
<text text-anchor="middle" x="4555" y="-206.9" style="font-family:Times New Roman;font-size:14.00;">Addr 8</text>
</g>
<!-- Basic Block 31&#45;&gt;Addr 8 -->
<g id="edge108" class="edge"><title>Basic Block 31&#45;&gt;Addr 8</title>
<path style="fill:none;stroke:black;" d="M4488,-211C4496,-211 4505,-211 4514,-211"/>
<polygon style="fill:black;stroke:black;" points="4514,-214.5 4524,-211 4514,-207.5 4514,-214.5"/>
</g>
<!-- Basic Block 32 -->
<g id="node32" class="node"><title>Basic Block 32</title>
<polygon style="fill:#ffffcc;stroke:black;" points="4737,-229 4623,-229 4623,-193 4737,-193 4737,-229"/>
<text text-anchor="middle" x="4680" y="-206.9" style="font-family:Times New Roman;font-size:14.00;">Basic Block 32</text>
</g>
<!-- Basic Block 32&#45;&gt;Basic Block 17 -->
<g id="edge112" class="edge"><title>Basic Block 32&#45;&gt;Basic Block 17</title>
<path style="fill:none;stroke:black;" d="M4738,-211C4747,-211 4755,-211 4764,-211"/>
<polygon style="fill:black;stroke:black;" points="4764,-214.5 4774,-211 4764,-207.5 4764,-214.5"/>
</g>
<!-- Basic Block 33 -->
<g id="node33" class="node"><title>Basic Block 33</title>
<polygon style="fill:#ffffcc;stroke:black;" points="2977,-321 2863,-321 2863,-285 2977,-285 2977,-321"/>
<text text-anchor="middle" x="2920" y="-298.9" style="font-family:Times New Roman;font-size:14.00;">Basic Block 33</text>
</g>
<!-- Basic Block 33&#45;&gt;Basic Block 34 -->
<g id="edge114" class="edge"><title>Basic Block 33&#45;&gt;Basic Block 34</title>
<path style="fill:none;stroke:black;" d="M2978,-300C2987,-299 2995,-299 3004,-299"/>
<polygon style="fill:black;stroke:black;" points="3004.4,-302.478 3014,-298 3003.7,-295.512 3004.4,-302.478"/>
</g>
<!-- Basic Block 34&#45;&gt;Basic Block 26 -->
<g id="edge116" class="edge"><title>Basic Block 34&#45;&gt;Basic Block 26</title>
<path style="fill:none;stroke:black;" d="M3130,-277C3139,-274 3148,-272 3156,-269"/>
<polygon style="fill:black;stroke:black;" points="3157.43,-272.226 3166,-266 3155.42,-265.521 3157.43,-272.226"/>
</g>
<!-- Basic Block 35 -->
<g id="node35" class="node"><title>Basic Block 35</title>
<polygon style="fill:#ffffcc;stroke:black;" points="3433,-313 3319,-313 3319,-277 3433,-277 3433,-313"/>
<text text-anchor="middle" x="3376" y="-290.9" style="font-family:Times New Roman;font-size:14.00;">Basic Block 35</text>
</g>
<!-- Basic Block 34&#45;&gt;Basic Block 35 -->
<g id="edge118" class="edge"><title>Basic Block 34&#45;&gt;Basic Block 35</title>
<path style="fill:none;stroke:black;" d="M3130,-295C3181,-295 3254,-295 3308,-295"/>
<polygon style="fill:black;stroke:black;" points="3308,-298.5 3318,-295 3308,-291.5 3308,-298.5"/>
</g>
<!-- Basic Block 35&#45;&gt;Basic Block 17 -->
<g id="edge120" class="edge"><title>Basic Block 35&#45;&gt;Basic Block 17</title>
<path style="fill:none;stroke:black;" d="M3434,-295C3495,-295 3594,-295 3680,-295 3680,-295 3680,-295 4555,-295 4638,-295 4660,-287 4738,-260 4757,-253 4778,-243 4794,-234"/>
<polygon style="fill:black;stroke:black;" points="4795.96,-236.916 4803,-229 4792.56,-230.797 4795.96,-236.916"/>
</g>
<!-- Addr 1&#45;&gt;Basic Block 2 -->
<g id="edge4" class="edge"><title>Addr 1&#45;&gt;Basic Block 2</title>
<path style="fill:none;stroke:black;" d="M204,-28C212,-28 221,-28 230,-28"/>
<polygon style="fill:black;stroke:black;" points="230,-31.5001 240,-28 230,-24.5001 230,-31.5001"/>
</g>
<!-- Addr 2&#45;&gt;Basic Block 9 -->
<g id="edge32" class="edge"><title>Addr 2&#45;&gt;Basic Block 9</title>
<path style="fill:none;stroke:black;" d="M1468,-328C1476,-328 1485,-328 1494,-328"/>
<polygon style="fill:black;stroke:black;" points="1494,-331.5 1504,-328 1494,-324.5 1494,-331.5"/>
</g>
<!-- Addr 4&#45;&gt;Basic Block 27 -->
<g id="edge90" class="edge"><title>Addr 4&#45;&gt;Basic Block 27</title>
<path style="fill:none;stroke:black;" d="M3407,-241C3422,-241 3442,-241 3460,-241"/>
<polygon style="fill:black;stroke:black;" points="3460,-244.5 3470,-241 3460,-237.5 3460,-244.5"/>
</g>
<!-- Addr 5&#45;&gt;Basic Block 29 -->
<g id="edge98" class="edge"><title>Addr 5&#45;&gt;Basic Block 29</title>
<path style="fill:none;stroke:black;" d="M3836,-211C3844,-211 3853,-211 3862,-211"/>
<polygon style="fill:black;stroke:black;" points="3862,-214.5 3872,-211 3862,-207.5 3862,-214.5"/>
</g>
<!-- Addr 6&#45;&gt;Basic Block 30 -->
<g id="edge102" class="edge"><title>Addr 6&#45;&gt;Basic Block 30</title>
<path style="fill:none;stroke:black;" d="M4086,-211C4094,-211 4103,-211 4112,-211"/>
<polygon style="fill:black;stroke:black;" points="4112,-214.5 4122,-211 4112,-207.5 4112,-214.5"/>
</g>
<!-- Addr 7&#45;&gt;Basic Block 31 -->
<g id="edge106" class="edge"><title>Addr 7&#45;&gt;Basic Block 31</title>
<path style="fill:none;stroke:black;" d="M4336,-211C4344,-211 4353,-211 4362,-211"/>
<polygon style="fill:black;stroke:black;" points="4362,-214.5 4372,-211 4362,-207.5 4362,-214.5"/>
</g>
<!-- Addr 8&#45;&gt;Basic Block 32 -->
<g id="edge110" class="edge"><title>Addr 8&#45;&gt;Basic Block 32</title>
<path style="fill:none;stroke:black;" d="M4586,-211C4594,-211 4603,-211 4612,-211"/>
<polygon style="fill:black;stroke:black;" points="4612,-214.5 4622,-211 4612,-207.5 4612,-214.5"/>
</g>
</g>
</svg>
