<?xml version="1.0" encoding="UTF-8" standalone="no"?>
<!DOCTYPE svg PUBLIC "-//W3C//DTD SVG 1.0//EN"
 "http://www.w3.org/TR/2001/REC-SVG-20010904/DTD/svg10.dtd" [
 <!ATTLIST svg xmlns:xlink CDATA #FIXED "http://www.w3.org/1999/xlink">
]>
<!-- Generated by Graphviz version 2.20.2 (Tue Mar &#160;2 19:03:41 UTC 2010)
     For user: (levinth) David Levinthal -->
<!-- Title: file_read_actor Pages: 1 -->
<svg width="2118pt" height="187pt"
 viewBox="0.00 0.00 2118.00 187.00" xmlns="http://www.w3.org/2000/svg" xmlns:xlink="http://www.w3.org/1999/xlink">
<g id="graph0" class="graph" transform="scale(1 1) rotate(0) translate(4 183)">
<title>file_read_actor</title>
<polygon style="fill:white;stroke:white;" points="-4,4 -4,-183 2114,-183 2114,4 -4,4"/>
<!-- Basic Block 1 -->
<g id="node1" class="node"><title>Basic Block 1</title>
<polygon style="fill:#ffffcc;stroke:black;" points="106,-179 3.55271e-14,-179 0,-143 106,-143 106,-179"/>
<text text-anchor="middle" x="53" y="-156.9" style="font-family:Times New Roman;font-size:14.00;">Basic Block 1</text>
</g>
<!-- Addr 1 -->
<g id="node15" class="node"><title>Addr 1</title>
<polygon style="fill:lightgrey;stroke:black;" points="204,-179 142,-179 142,-143 204,-143 204,-179"/>
<text text-anchor="middle" x="173" y="-156.9" style="font-family:Times New Roman;font-size:14.00;">Addr 1</text>
</g>
<!-- Basic Block 1&#45;&gt;Addr 1 -->
<g id="edge2" class="edge"><title>Basic Block 1&#45;&gt;Addr 1</title>
<path style="fill:none;stroke:black;" d="M106,-161C114,-161 123,-161 132,-161"/>
<polygon style="fill:black;stroke:black;" points="132,-164.5 142,-161 132,-157.5 132,-164.5"/>
</g>
<!-- Basic Block 2 -->
<g id="node2" class="node"><title>Basic Block 2</title>
<polygon style="fill:#ffffcc;stroke:black;" points="346,-179 240,-179 240,-143 346,-143 346,-179"/>
<text text-anchor="middle" x="293" y="-156.9" style="font-family:Times New Roman;font-size:14.00;">Basic Block 2</text>
</g>
<!-- Basic Block 3 -->
<g id="node3" class="node"><title>Basic Block 3</title>
<polygon style="fill:#ffffcc;stroke:black;" points="488,-147 382,-147 382,-111 488,-111 488,-147"/>
<text text-anchor="middle" x="435" y="-124.9" style="font-family:Times New Roman;font-size:14.00;">Basic Block 3</text>
</g>
<!-- Basic Block 2&#45;&gt;Basic Block 3 -->
<g id="edge8" class="edge"><title>Basic Block 2&#45;&gt;Basic Block 3</title>
<path style="fill:none;stroke:black;" d="M346,-149C355,-147 363,-145 372,-143"/>
<polygon style="fill:black;stroke:black;" points="372.881,-146.393 382,-141 371.508,-139.529 372.881,-146.393"/>
</g>
<!-- Basic Block 6 -->
<g id="node6" class="node"><title>Basic Block 6</title>
<polygon style="fill:#ffffcc;stroke:black;" points="919,-174 813,-174 813,-138 919,-138 919,-174"/>
<text text-anchor="middle" x="866" y="-151.9" style="font-family:Times New Roman;font-size:14.00;">Basic Block 6</text>
</g>
<!-- Basic Block 2&#45;&gt;Basic Block 6 -->
<g id="edge6" class="edge"><title>Basic Block 2&#45;&gt;Basic Block 6</title>
<path style="fill:none;stroke:black;" d="M346,-161C435,-160 618,-159 772,-158 782,-158 793,-157 803,-157"/>
<polygon style="fill:black;stroke:black;" points="803,-160.5 813,-157 803,-153.5 803,-160.5"/>
</g>
<!-- Basic Block 4 -->
<g id="node4" class="node"><title>Basic Block 4</title>
<polygon style="fill:#ffffcc;stroke:black;" points="630,-147 524,-147 524,-111 630,-111 630,-147"/>
<text text-anchor="middle" x="577" y="-124.9" style="font-family:Times New Roman;font-size:14.00;">Basic Block 4</text>
</g>
<!-- Basic Block 3&#45;&gt;Basic Block 4 -->
<g id="edge12" class="edge"><title>Basic Block 3&#45;&gt;Basic Block 4</title>
<path style="fill:none;stroke:black;" d="M488,-129C497,-129 505,-129 514,-129"/>
<polygon style="fill:black;stroke:black;" points="514,-132.5 524,-129 514,-125.5 514,-132.5"/>
</g>
<!-- Basic Block 10 -->
<g id="node10" class="node"><title>Basic Block 10</title>
<polygon style="fill:#ffffcc;stroke:black;" points="923,-82 809,-82 809,-46 923,-46 923,-82"/>
<text text-anchor="middle" x="866" y="-59.9" style="font-family:Times New Roman;font-size:14.00;">Basic Block 10</text>
</g>
<!-- Basic Block 3&#45;&gt;Basic Block 10 -->
<g id="edge10" class="edge"><title>Basic Block 3&#45;&gt;Basic Block 10</title>
<path style="fill:none;stroke:black;" d="M488,-111C500,-108 512,-105 524,-102 618,-82 729,-72 798,-68"/>
<polygon style="fill:black;stroke:black;" points="798.398,-71.4778 808,-67 797.701,-64.5125 798.398,-71.4778"/>
</g>
<!-- Basic Block 5 -->
<g id="node5" class="node"><title>Basic Block 5</title>
<polygon style="fill:#ffffcc;stroke:black;" points="772,-128 666,-128 666,-92 772,-92 772,-128"/>
<text text-anchor="middle" x="719" y="-105.9" style="font-family:Times New Roman;font-size:14.00;">Basic Block 5</text>
</g>
<!-- Basic Block 4&#45;&gt;Basic Block 5 -->
<g id="edge16" class="edge"><title>Basic Block 4&#45;&gt;Basic Block 5</title>
<path style="fill:none;stroke:black;" d="M630,-122C639,-121 647,-120 656,-118"/>
<polygon style="fill:black;stroke:black;" points="656.398,-121.478 666,-117 655.701,-114.512 656.398,-121.478"/>
</g>
<!-- Basic Block 4&#45;&gt;Basic Block 6 -->
<g id="edge14" class="edge"><title>Basic Block 4&#45;&gt;Basic Block 6</title>
<path style="fill:none;stroke:black;" d="M630,-134C679,-139 751,-145 803,-150"/>
<polygon style="fill:black;stroke:black;" points="802.701,-153.488 813,-151 803.398,-146.522 802.701,-153.488"/>
</g>
<!-- Basic Block 5&#45;&gt;Basic Block 6 -->
<g id="edge20" class="edge"><title>Basic Block 5&#45;&gt;Basic Block 6</title>
<path style="fill:none;stroke:black;" d="M772,-127C782,-130 793,-134 803,-137"/>
<polygon style="fill:black;stroke:black;" points="802.416,-140.479 813,-140 804.427,-133.774 802.416,-140.479"/>
</g>
<!-- Basic Block 5&#45;&gt;Basic Block 10 -->
<g id="edge18" class="edge"><title>Basic Block 5&#45;&gt;Basic Block 10</title>
<path style="fill:none;stroke:black;" d="M772,-93C781,-90 789,-87 798,-85"/>
<polygon style="fill:black;stroke:black;" points="799.427,-88.2259 808,-82 797.416,-81.5212 799.427,-88.2259"/>
</g>
<!-- Addr 2 -->
<g id="node16" class="node"><title>Addr 2</title>
<polygon style="fill:lightgrey;stroke:black;" points="1022,-174 960,-174 960,-138 1022,-138 1022,-174"/>
<text text-anchor="middle" x="991" y="-151.9" style="font-family:Times New Roman;font-size:14.00;">Addr 2</text>
</g>
<!-- Basic Block 6&#45;&gt;Addr 2 -->
<g id="edge22" class="edge"><title>Basic Block 6&#45;&gt;Addr 2</title>
<path style="fill:none;stroke:black;" d="M919,-156C929,-156 940,-156 950,-156"/>
<polygon style="fill:black;stroke:black;" points="950,-159.5 960,-156 950,-152.5 950,-159.5"/>
</g>
<!-- Basic Block 7 -->
<g id="node7" class="node"><title>Basic Block 7</title>
<polygon style="fill:#800026;stroke:black;" points="1164,-174 1058,-174 1058,-138 1164,-138 1164,-174"/>
<text text-anchor="middle" x="1111" y="-151.9" style="font-family:Times New Roman;font-size:14.00;">Basic Block 7</text>
</g>
<!-- Basic Block 8 -->
<g id="node8" class="node"><title>Basic Block 8</title>
<polygon style="fill:#ffffcc;stroke:black;" points="1306,-128 1200,-128 1200,-92 1306,-92 1306,-128"/>
<text text-anchor="middle" x="1253" y="-105.9" style="font-family:Times New Roman;font-size:14.00;">Basic Block 8</text>
</g>
<!-- Basic Block 7&#45;&gt;Basic Block 8 -->
<g id="edge28" class="edge"><title>Basic Block 7&#45;&gt;Basic Block 8</title>
<path style="fill:none;stroke:black;" d="M1164,-139C1173,-136 1182,-133 1190,-130"/>
<polygon style="fill:black;stroke:black;" points="1191.43,-133.226 1200,-127 1189.42,-126.521 1191.43,-133.226"/>
</g>
<!-- Basic Block 14 -->
<g id="node14" class="node"><title>Basic Block 14</title>
<polygon style="fill:#800026;stroke:black;" points="2011,-128 1897,-128 1897,-92 2011,-92 2011,-128"/>
<text text-anchor="middle" x="1954" y="-105.9" style="font-family:Times New Roman;font-size:14.00;">Basic Block 14</text>
</g>
<!-- Basic Block 7&#45;&gt;Basic Block 14 -->
<g id="edge26" class="edge"><title>Basic Block 7&#45;&gt;Basic Block 14</title>
<path style="fill:none;stroke:black;" d="M1164,-156C1222,-156 1318,-156 1400,-156 1400,-156 1400,-156 1650,-156 1744,-156 1768,-154 1860,-137 1870,-136 1880,-133 1889,-131"/>
<polygon style="fill:black;stroke:black;" points="1890.43,-134.226 1899,-128 1888.42,-127.521 1890.43,-134.226"/>
</g>
<!-- Basic Block 11 -->
<g id="node11" class="node"><title>Basic Block 11</title>
<polygon style="fill:#ffffcc;stroke:black;" points="1457,-105 1343,-105 1343,-69 1457,-69 1457,-105"/>
<text text-anchor="middle" x="1400" y="-82.9" style="font-family:Times New Roman;font-size:14.00;">Basic Block 11</text>
</g>
<!-- Basic Block 8&#45;&gt;Basic Block 11 -->
<g id="edge30" class="edge"><title>Basic Block 8&#45;&gt;Basic Block 11</title>
<path style="fill:none;stroke:black;" d="M1306,-102C1315,-101 1323,-99 1332,-98"/>
<polygon style="fill:black;stroke:black;" points="1332.88,-101.393 1342,-96 1331.51,-94.5292 1332.88,-101.393"/>
</g>
<!-- Basic Block 9 -->
<g id="node9" class="node"><title>Basic Block 9</title>
<polygon style="fill:#ffffcc;stroke:black;" points="772,-36 666,-36 666,-1.77636e-14 772,-3.55271e-15 772,-36"/>
<text text-anchor="middle" x="719" y="-13.9" style="font-family:Times New Roman;font-size:14.00;">Basic Block 9</text>
</g>
<!-- Basic Block 9&#45;&gt;Basic Block 10 -->
<g id="edge32" class="edge"><title>Basic Block 9&#45;&gt;Basic Block 10</title>
<path style="fill:none;stroke:black;" d="M772,-35C781,-38 789,-41 798,-43"/>
<polygon style="fill:black;stroke:black;" points="797.416,-46.4788 808,-46 799.427,-39.7741 797.416,-46.4788"/>
</g>
<!-- Basic Block 10&#45;&gt;Basic Block 11 -->
<g id="edge34" class="edge"><title>Basic Block 10&#45;&gt;Basic Block 11</title>
<path style="fill:none;stroke:black;" d="M924,-66C1024,-70 1226,-79 1332,-84"/>
<polygon style="fill:black;stroke:black;" points="1332,-87.5001 1342,-84 1332,-80.5001 1332,-87.5001"/>
</g>
<!-- Addr 3 -->
<g id="node17" class="node"><title>Addr 3</title>
<polygon style="fill:lightgrey;stroke:black;" points="1556,-105 1494,-105 1494,-69 1556,-69 1556,-105"/>
<text text-anchor="middle" x="1525" y="-82.9" style="font-family:Times New Roman;font-size:14.00;">Addr 3</text>
</g>
<!-- Basic Block 11&#45;&gt;Addr 3 -->
<g id="edge36" class="edge"><title>Basic Block 11&#45;&gt;Addr 3</title>
<path style="fill:none;stroke:black;" d="M1458,-87C1466,-87 1475,-87 1484,-87"/>
<polygon style="fill:black;stroke:black;" points="1484,-90.5001 1494,-87 1484,-83.5001 1484,-90.5001"/>
</g>
<!-- Basic Block 12 -->
<g id="node12" class="node"><title>Basic Block 12</title>
<polygon style="fill:#ffffcc;stroke:black;" points="1707,-105 1593,-105 1593,-69 1707,-69 1707,-105"/>
<text text-anchor="middle" x="1650" y="-82.9" style="font-family:Times New Roman;font-size:14.00;">Basic Block 12</text>
</g>
<!-- Basic Block 13 -->
<g id="node13" class="node"><title>Basic Block 13</title>
<polygon style="fill:#ffffcc;stroke:black;" points="1859,-128 1745,-128 1745,-92 1859,-92 1859,-128"/>
<text text-anchor="middle" x="1802" y="-105.9" style="font-family:Times New Roman;font-size:14.00;">Basic Block 13</text>
</g>
<!-- Basic Block 12&#45;&gt;Basic Block 13 -->
<g id="edge42" class="edge"><title>Basic Block 12&#45;&gt;Basic Block 13</title>
<path style="fill:none;stroke:black;" d="M1708,-96C1717,-97 1725,-98 1734,-100"/>
<polygon style="fill:black;stroke:black;" points="1733.7,-103.488 1744,-101 1734.4,-96.5222 1733.7,-103.488"/>
</g>
<!-- Basic Block 12&#45;&gt;Basic Block 14 -->
<g id="edge40" class="edge"><title>Basic Block 12&#45;&gt;Basic Block 14</title>
<path style="fill:none;stroke:black;" d="M1708,-81C1750,-78 1809,-76 1860,-83 1870,-84 1880,-87 1890,-89"/>
<polygon style="fill:black;stroke:black;" points="1889.42,-92.4788 1900,-92 1891.43,-85.7741 1889.42,-92.4788"/>
</g>
<!-- Basic Block 13&#45;&gt;Basic Block 14 -->
<g id="edge44" class="edge"><title>Basic Block 13&#45;&gt;Basic Block 14</title>
<path style="fill:none;stroke:black;" d="M1860,-110C1869,-110 1877,-110 1886,-110"/>
<polygon style="fill:black;stroke:black;" points="1886,-113.5 1896,-110 1886,-106.5 1886,-113.5"/>
</g>
<!-- Addr 4 -->
<g id="node18" class="node"><title>Addr 4</title>
<polygon style="fill:lightgrey;stroke:black;" points="2110,-128 2048,-128 2048,-92 2110,-92 2110,-128"/>
<text text-anchor="middle" x="2079" y="-105.9" style="font-family:Times New Roman;font-size:14.00;">Addr 4</text>
</g>
<!-- Basic Block 14&#45;&gt;Addr 4 -->
<g id="edge46" class="edge"><title>Basic Block 14&#45;&gt;Addr 4</title>
<path style="fill:none;stroke:black;" d="M2012,-110C2020,-110 2029,-110 2038,-110"/>
<polygon style="fill:black;stroke:black;" points="2038,-113.5 2048,-110 2038,-106.5 2038,-113.5"/>
</g>
<!-- Addr 1&#45;&gt;Basic Block 2 -->
<g id="edge4" class="edge"><title>Addr 1&#45;&gt;Basic Block 2</title>
<path style="fill:none;stroke:black;" d="M204,-161C212,-161 221,-161 230,-161"/>
<polygon style="fill:black;stroke:black;" points="230,-164.5 240,-161 230,-157.5 230,-164.5"/>
</g>
<!-- Addr 2&#45;&gt;Basic Block 7 -->
<g id="edge24" class="edge"><title>Addr 2&#45;&gt;Basic Block 7</title>
<path style="fill:none;stroke:black;" d="M1022,-156C1030,-156 1039,-156 1048,-156"/>
<polygon style="fill:black;stroke:black;" points="1048,-159.5 1058,-156 1048,-152.5 1048,-159.5"/>
</g>
<!-- Addr 3&#45;&gt;Basic Block 12 -->
<g id="edge38" class="edge"><title>Addr 3&#45;&gt;Basic Block 12</title>
<path style="fill:none;stroke:black;" d="M1556,-87C1564,-87 1573,-87 1582,-87"/>
<polygon style="fill:black;stroke:black;" points="1582,-90.5001 1592,-87 1582,-83.5001 1582,-90.5001"/>
</g>
</g>
</svg>
