<?xml version="1.0" encoding="UTF-8" standalone="no"?>
<!DOCTYPE svg PUBLIC "-//W3C//DTD SVG 1.0//EN"
 "http://www.w3.org/TR/2001/REC-SVG-20010904/DTD/svg10.dtd" [
 <!ATTLIST svg xmlns:xlink CDATA #FIXED "http://www.w3.org/1999/xlink">
]>
<!-- Generated by Graphviz version 2.20.2 (Tue Mar &#160;2 19:03:41 UTC 2010)
     For user: (levinth) David Levinthal -->
<!-- Title: diskmon_push_curr_file Pages: 1 -->
<svg width="452pt" height="44pt"
 viewBox="0.00 0.00 452.00 44.00" xmlns="http://www.w3.org/2000/svg" xmlns:xlink="http://www.w3.org/1999/xlink">
<g id="graph0" class="graph" transform="scale(1 1) rotate(0) translate(4 40)">
<title>diskmon_push_curr_file</title>
<polygon style="fill:white;stroke:white;" points="-4,4 -4,-40 448,-40 448,4 -4,4"/>
<!-- Basic Block 1 -->
<g id="node1" class="node"><title>Basic Block 1</title>
<polygon style="fill:#ffffcc;stroke:black;" points="106,-36 3.55271e-14,-36 0,-1.77636e-14 106,-3.55271e-15 106,-36"/>
<text text-anchor="middle" x="53" y="-13.9" style="font-family:Times New Roman;font-size:14.00;">Basic Block 1</text>
</g>
<!-- Addr 1 -->
<g id="node3" class="node"><title>Addr 1</title>
<polygon style="fill:lightgrey;stroke:black;" points="204,-36 142,-36 142,-1.77636e-14 204,-3.55271e-15 204,-36"/>
<text text-anchor="middle" x="173" y="-13.9" style="font-family:Times New Roman;font-size:14.00;">Addr 1</text>
</g>
<!-- Basic Block 1&#45;&gt;Addr 1 -->
<g id="edge2" class="edge"><title>Basic Block 1&#45;&gt;Addr 1</title>
<path style="fill:none;stroke:black;" d="M106,-18C114,-18 123,-18 132,-18"/>
<polygon style="fill:black;stroke:black;" points="132,-21.5001 142,-18 132,-14.5001 132,-21.5001"/>
</g>
<!-- Basic Block 2 -->
<g id="node2" class="node"><title>Basic Block 2</title>
<polygon style="fill:#800026;stroke:black;" points="346,-36 240,-36 240,-1.77636e-14 346,-3.55271e-15 346,-36"/>
<text text-anchor="middle" x="293" y="-13.9" style="font-family:Times New Roman;font-size:14.00;">Basic Block 2</text>
</g>
<!-- Addr 2 -->
<g id="node4" class="node"><title>Addr 2</title>
<polygon style="fill:lightgrey;stroke:black;" points="444,-36 382,-36 382,-1.77636e-14 444,-3.55271e-15 444,-36"/>
<text text-anchor="middle" x="413" y="-13.9" style="font-family:Times New Roman;font-size:14.00;">Addr 2</text>
</g>
<!-- Basic Block 2&#45;&gt;Addr 2 -->
<g id="edge6" class="edge"><title>Basic Block 2&#45;&gt;Addr 2</title>
<path style="fill:none;stroke:black;" d="M346,-18C354,-18 363,-18 372,-18"/>
<polygon style="fill:black;stroke:black;" points="372,-21.5001 382,-18 372,-14.5001 372,-21.5001"/>
</g>
<!-- Addr 1&#45;&gt;Basic Block 2 -->
<g id="edge4" class="edge"><title>Addr 1&#45;&gt;Basic Block 2</title>
<path style="fill:none;stroke:black;" d="M204,-18C212,-18 221,-18 230,-18"/>
<polygon style="fill:black;stroke:black;" points="230,-21.5001 240,-18 230,-14.5001 230,-21.5001"/>
</g>
</g>
</svg>
