<?xml version="1.0" encoding="UTF-8" standalone="no"?>
<!DOCTYPE svg PUBLIC "-//W3C//DTD SVG 1.1//EN"
 "http://www.w3.org/Graphics/SVG/1.1/DTD/svg11.dtd">
<!-- Generated by graphviz version 2.26.0 (20091210.2329)
 -->
<!-- Title: insert_aux Pages: 1 -->
<svg width="974pt" height="171pt"
 viewBox="0.00 0.00 974.00 170.60" xmlns="http://www.w3.org/2000/svg" xmlns:xlink="http://www.w3.org/1999/xlink">
<g id="graph1" class="graph" transform="scale(1 1) rotate(0) translate(4 166.596)">
<title>insert_aux</title>
<polygon fill="white" stroke="white" points="-4,5 -4,-166.596 971,-166.596 971,5 -4,5"/>
<!-- Basic Block 1 -->
<g id="node1" class="node"><title>Basic Block 1</title>
<polygon fill="#feb24c" stroke="black" points="93,-132 1,-132 1,-96 93,-96 93,-132"/>
<text text-anchor="middle" x="47" y="-110.9" font-family="Times Roman,serif" font-size="14.00">Basic Block 1</text>
</g>
<!-- Addr 1 -->
<g id="node9" class="node"><title>Addr 1</title>
<polygon fill="lightgrey" stroke="black" points="185,-132 131,-132 131,-96 185,-96 185,-132"/>
<text text-anchor="middle" x="158" y="-110.9" font-family="Times Roman,serif" font-size="14.00">Addr 1</text>
</g>
<!-- Basic Block 1&#45;&gt;Addr 1 -->
<g id="edge2" class="edge"><title>Basic Block 1&#45;&gt;Addr 1</title>
<path fill="none" stroke="black" d="M93.7523,-114C102.598,-114 111.748,-114 120.272,-114"/>
<polygon fill="black" stroke="black" points="120.298,-117.5 130.298,-114 120.298,-110.5 120.298,-117.5"/>
</g>
<!-- Basic Block 2 -->
<g id="node2" class="node"><title>Basic Block 2</title>
<polygon fill="#ffffcc" stroke="black" points="315,-132 223,-132 223,-96 315,-96 315,-132"/>
<text text-anchor="middle" x="269" y="-110.9" font-family="Times Roman,serif" font-size="14.00">Basic Block 2</text>
</g>
<!-- Basic Block 4 -->
<g id="node4" class="node"><title>Basic Block 4</title>
<polygon fill="#800026" stroke="black" points="445,-132 353,-132 353,-96 445,-96 445,-132"/>
<text text-anchor="middle" x="399" y="-110.9" font-family="Times Roman,serif" font-size="14.00">Basic Block 4</text>
</g>
<!-- Basic Block 2&#45;&gt;Basic Block 4 -->
<g id="edge6" class="edge"><title>Basic Block 2&#45;&gt;Basic Block 4</title>
<path fill="none" stroke="black" d="M315.566,-114C324.154,-114 333.21,-114 342.063,-114"/>
<polygon fill="black" stroke="black" points="342.322,-117.5 352.322,-114 342.322,-110.5 342.322,-117.5"/>
</g>
<!-- Basic Block 3 -->
<g id="node3" class="node"><title>Basic Block 3</title>
<polygon fill="#ffffcc" stroke="black" points="965,-82 873,-82 873,-46 965,-46 965,-82"/>
<text text-anchor="middle" x="919" y="-60.9" font-family="Times Roman,serif" font-size="14.00">Basic Block 3</text>
</g>
<!-- Basic Block 3&#45;&gt;Basic Block 4 -->
<g id="edge8" class="edge"><title>Basic Block 3&#45;&gt;Basic Block 4</title>
<path fill="none" stroke="black" d="M905.136,-82.1928C890.284,-100.034 864.908,-126.096 836,-137 706.767,-185.746 540.694,-153.657 455.282,-130.961"/>
<polygon fill="black" stroke="black" points="456.091,-127.554 445.524,-128.315 454.259,-134.31 456.091,-127.554"/>
</g>
<!-- Basic Block 5 -->
<g id="node5" class="node"><title>Basic Block 5</title>
<polygon fill="#fed976" stroke="black" points="575,-86 483,-86 483,-50 575,-50 575,-86"/>
<text text-anchor="middle" x="529" y="-64.9" font-family="Times Roman,serif" font-size="14.00">Basic Block 5</text>
</g>
<!-- Basic Block 4&#45;&gt;Basic Block 5 -->
<g id="edge12" class="edge"><title>Basic Block 4&#45;&gt;Basic Block 5</title>
<path fill="none" stroke="black" d="M445.566,-97.5229C454.34,-94.418 463.603,-91.1403 472.64,-87.9428"/>
<polygon fill="black" stroke="black" points="474.063,-91.1521 482.322,-84.5167 471.728,-84.553 474.063,-91.1521"/>
</g>
<!-- Basic Block 6 -->
<g id="node6" class="node"><title>Basic Block 6</title>
<polygon fill="#ffeda0" stroke="black" points="705,-128 613,-128 613,-92 705,-92 705,-128"/>
<text text-anchor="middle" x="659" y="-106.9" font-family="Times Roman,serif" font-size="14.00">Basic Block 6</text>
</g>
<!-- Basic Block 4&#45;&gt;Basic Block 6 -->
<g id="edge10" class="edge"><title>Basic Block 4&#45;&gt;Basic Block 6</title>
<path fill="none" stroke="black" d="M445.783,-113.28C489.55,-112.607 555.027,-111.6 601.865,-110.879"/>
<polygon fill="black" stroke="black" points="602.21,-114.374 612.155,-110.721 602.102,-107.375 602.21,-114.374"/>
</g>
<!-- Basic Block 5&#45;&gt;Basic Block 6 -->
<g id="edge16" class="edge"><title>Basic Block 5&#45;&gt;Basic Block 6</title>
<path fill="none" stroke="black" d="M575.566,-83.0443C584.34,-85.8792 593.603,-88.8719 602.64,-91.7913"/>
<polygon fill="black" stroke="black" points="601.731,-95.1757 612.322,-94.9195 603.883,-88.5147 601.731,-95.1757"/>
</g>
<!-- Basic Block 7 -->
<g id="node7" class="node"><title>Basic Block 7</title>
<polygon fill="#ffffcc" stroke="black" points="705,-74 613,-74 613,-38 705,-38 705,-74"/>
<text text-anchor="middle" x="659" y="-52.9" font-family="Times Roman,serif" font-size="14.00">Basic Block 7</text>
</g>
<!-- Basic Block 5&#45;&gt;Basic Block 7 -->
<g id="edge14" class="edge"><title>Basic Block 5&#45;&gt;Basic Block 7</title>
<path fill="none" stroke="black" d="M575.566,-63.7016C584.247,-62.9003 593.406,-62.0548 602.351,-61.2291"/>
<polygon fill="black" stroke="black" points="602.686,-64.7131 612.322,-60.3087 602.043,-57.7428 602.686,-64.7131"/>
</g>
<!-- Addr 2 -->
<g id="node10" class="node"><title>Addr 2</title>
<polygon fill="lightgrey" stroke="black" points="816,-128 762,-128 762,-92 816,-92 816,-128"/>
<text text-anchor="middle" x="789" y="-106.9" font-family="Times Roman,serif" font-size="14.00">Addr 2</text>
</g>
<!-- Basic Block 6&#45;&gt;Addr 2 -->
<g id="edge18" class="edge"><title>Basic Block 6&#45;&gt;Addr 2</title>
<path fill="none" stroke="black" d="M705.566,-110C720.428,-110 736.693,-110 750.882,-110"/>
<polygon fill="black" stroke="black" points="751.271,-113.5 761.271,-110 751.271,-106.5 751.271,-113.5"/>
</g>
<!-- Basic Block 7&#45;&gt;Basic Block 3 -->
<g id="edge20" class="edge"><title>Basic Block 7&#45;&gt;Basic Block 3</title>
<path fill="none" stroke="black" d="M705.783,-57.4395C749.55,-58.7862 815.027,-60.8008 861.865,-62.242"/>
<polygon fill="black" stroke="black" points="862.052,-65.7493 872.155,-62.5586 862.267,-58.7526 862.052,-65.7493"/>
</g>
<!-- Basic Block 8 -->
<g id="node8" class="node"><title>Basic Block 8</title>
<polygon fill="#ffffcc" stroke="black" points="835,-36 743,-36 743,-1.77636e-14 835,-3.55271e-15 835,-36"/>
<text text-anchor="middle" x="789" y="-14.9" font-family="Times Roman,serif" font-size="14.00">Basic Block 8</text>
</g>
<!-- Basic Block 7&#45;&gt;Basic Block 8 -->
<g id="edge22" class="edge"><title>Basic Block 7&#45;&gt;Basic Block 8</title>
<path fill="none" stroke="black" d="M705.566,-42.3885C714.34,-39.8236 723.603,-37.1159 732.64,-34.4745"/>
<polygon fill="black" stroke="black" points="733.706,-37.8094 742.322,-31.6442 731.742,-31.0905 733.706,-37.8094"/>
</g>
<!-- Basic Block 8&#45;&gt;Basic Block 3 -->
<g id="edge24" class="edge"><title>Basic Block 8&#45;&gt;Basic Block 3</title>
<path fill="none" stroke="black" d="M835.566,-34.4771C844.34,-37.582 853.603,-40.8597 862.64,-44.0572"/>
<polygon fill="black" stroke="black" points="861.728,-47.447 872.322,-47.4833 864.063,-40.8479 861.728,-47.447"/>
</g>
<!-- Addr 1&#45;&gt;Basic Block 2 -->
<g id="edge4" class="edge"><title>Addr 1&#45;&gt;Basic Block 2</title>
<path fill="none" stroke="black" d="M185.724,-114C193.748,-114 202.817,-114 211.942,-114"/>
<polygon fill="black" stroke="black" points="212.215,-117.5 222.215,-114 212.215,-110.5 212.215,-117.5"/>
</g>
</g>
</svg>
