<?xml version="1.0" encoding="UTF-8" standalone="no"?>
<!DOCTYPE svg PUBLIC "-//W3C//DTD SVG 1.1//EN"
 "http://www.w3.org/Graphics/SVG/1.1/DTD/svg11.dtd">
<!-- Generated by graphviz version 2.26.0 (20091210.2329)
 -->
<!-- Title: htab_find_slot_with_hash Pages: 1 -->
<svg width="3328pt" height="379pt"
 viewBox="0.00 0.00 3328.00 379.45" xmlns="http://www.w3.org/2000/svg" xmlns:xlink="http://www.w3.org/1999/xlink">
<g id="graph1" class="graph" transform="scale(1 1) rotate(0) translate(4 375.447)">
<title>htab_find_slot_with_hash</title>
<polygon fill="white" stroke="white" points="-4,5 -4,-375.447 3325,-375.447 3325,5 -4,5"/>
<!-- Basic Block 1 -->
<g id="node1" class="node"><title>Basic Block 1</title>
<polygon fill="#fed976" stroke="black" points="93,-222 1,-222 1,-186 93,-186 93,-222"/>
<text text-anchor="middle" x="47" y="-200.9" font-family="Times Roman,serif" font-size="14.00">Basic Block 1</text>
</g>
<!-- Basic Block 2 -->
<g id="node2" class="node"><title>Basic Block 2</title>
<polygon fill="#ffffcc" stroke="black" points="223,-245 131,-245 131,-209 223,-209 223,-245"/>
<text text-anchor="middle" x="177" y="-223.9" font-family="Times Roman,serif" font-size="14.00">Basic Block 2</text>
</g>
<!-- Basic Block 1&#45;&gt;Basic Block 2 -->
<g id="edge4" class="edge"><title>Basic Block 1&#45;&gt;Basic Block 2</title>
<path fill="none" stroke="black" d="M93.5658,-212.239C102.247,-213.774 111.406,-215.395 120.351,-216.978"/>
<polygon fill="black" stroke="black" points="119.866,-220.446 130.322,-218.742 121.085,-213.553 119.866,-220.446"/>
</g>
<!-- Basic Block 7 -->
<g id="node7" class="node"><title>Basic Block 7</title>
<polygon fill="#ffffcc" stroke="black" points="835,-218 743,-218 743,-182 835,-182 835,-218"/>
<text text-anchor="middle" x="789" y="-196.9" font-family="Times Roman,serif" font-size="14.00">Basic Block 7</text>
</g>
<!-- Basic Block 1&#45;&gt;Basic Block 7 -->
<g id="edge2" class="edge"><title>Basic Block 1&#45;&gt;Basic Block 7</title>
<path fill="none" stroke="black" d="M93.8594,-197.347C145.834,-190.555 232.23,-181 307,-181 307,-181 307,-181 529,-181 599.01,-181 679.344,-187.937 731.963,-193.428"/>
<polygon fill="black" stroke="black" points="731.792,-196.929 742.106,-194.504 732.531,-189.969 731.792,-196.929"/>
</g>
<!-- Basic Block 3 -->
<g id="node3" class="node"><title>Basic Block 3</title>
<polygon fill="#ffffcc" stroke="black" points="353,-283 261,-283 261,-247 353,-247 353,-283"/>
<text text-anchor="middle" x="307" y="-261.9" font-family="Times Roman,serif" font-size="14.00">Basic Block 3</text>
</g>
<!-- Basic Block 2&#45;&gt;Basic Block 3 -->
<g id="edge8" class="edge"><title>Basic Block 2&#45;&gt;Basic Block 3</title>
<path fill="none" stroke="black" d="M223.566,-240.612C232.34,-243.176 241.603,-245.884 250.64,-248.525"/>
<polygon fill="black" stroke="black" points="249.742,-251.909 260.322,-251.356 251.706,-245.191 249.742,-251.909"/>
</g>
<!-- Basic Block 2&#45;&gt;Basic Block 7 -->
<g id="edge6" class="edge"><title>Basic Block 2&#45;&gt;Basic Block 7</title>
<path fill="none" stroke="black" d="M223.636,-224.534C272.171,-222.184 350.391,-219 418,-219 418,-219 418,-219 529,-219 599.01,-219 679.344,-212.063 731.963,-206.572"/>
<polygon fill="black" stroke="black" points="732.531,-210.031 742.106,-205.496 731.792,-203.071 732.531,-210.031"/>
</g>
<!-- Addr 1 -->
<g id="node34" class="node"><title>Addr 1</title>
<polygon fill="lightgrey" stroke="black" points="445,-283 391,-283 391,-247 445,-247 445,-283"/>
<text text-anchor="middle" x="418" y="-261.9" font-family="Times Roman,serif" font-size="14.00">Addr 1</text>
</g>
<!-- Basic Block 3&#45;&gt;Addr 1 -->
<g id="edge10" class="edge"><title>Basic Block 3&#45;&gt;Addr 1</title>
<path fill="none" stroke="black" d="M353.752,-265C362.598,-265 371.748,-265 380.272,-265"/>
<polygon fill="black" stroke="black" points="380.298,-268.5 390.298,-265 380.298,-261.5 380.298,-268.5"/>
</g>
<!-- Basic Block 4 -->
<g id="node4" class="node"><title>Basic Block 4</title>
<polygon fill="#ffffcc" stroke="black" points="575,-283 483,-283 483,-247 575,-247 575,-283"/>
<text text-anchor="middle" x="529" y="-261.9" font-family="Times Roman,serif" font-size="14.00">Basic Block 4</text>
</g>
<!-- Basic Block 5 -->
<g id="node5" class="node"><title>Basic Block 5</title>
<polygon fill="#ffffcc" stroke="black" points="835,-369 743,-369 743,-333 835,-333 835,-369"/>
<text text-anchor="middle" x="789" y="-347.9" font-family="Times Roman,serif" font-size="14.00">Basic Block 5</text>
</g>
<!-- Basic Block 4&#45;&gt;Basic Block 5 -->
<g id="edge16" class="edge"><title>Basic Block 4&#45;&gt;Basic Block 5</title>
<path fill="none" stroke="black" d="M575.783,-280.474C619.734,-295.012 685.578,-316.791 732.454,-332.296"/>
<polygon fill="black" stroke="black" points="731.561,-335.688 742.155,-335.505 733.76,-329.042 731.561,-335.688"/>
</g>
<!-- Basic Block 6 -->
<g id="node6" class="node"><title>Basic Block 6</title>
<polygon fill="#ffffcc" stroke="black" points="705,-283 613,-283 613,-247 705,-247 705,-283"/>
<text text-anchor="middle" x="659" y="-261.9" font-family="Times Roman,serif" font-size="14.00">Basic Block 6</text>
</g>
<!-- Basic Block 4&#45;&gt;Basic Block 6 -->
<g id="edge14" class="edge"><title>Basic Block 4&#45;&gt;Basic Block 6</title>
<path fill="none" stroke="black" d="M575.566,-265C584.154,-265 593.21,-265 602.063,-265"/>
<polygon fill="black" stroke="black" points="602.322,-268.5 612.322,-265 602.322,-261.5 602.322,-268.5"/>
</g>
<!-- Basic Block 33 -->
<g id="node33" class="node"><title>Basic Block 33</title>
<polygon fill="#ffffcc" stroke="black" points="3228,-182 3128,-182 3128,-146 3228,-146 3228,-182"/>
<text text-anchor="middle" x="3178" y="-160.9" font-family="Times Roman,serif" font-size="14.00">Basic Block 33</text>
</g>
<!-- Basic Block 5&#45;&gt;Basic Block 33 -->
<g id="edge18" class="edge"><title>Basic Block 5&#45;&gt;Basic Block 33</title>
<path fill="none" stroke="black" d="M835.665,-357.66C880.512,-363.478 950.245,-371 1011,-371 1011,-371 1011,-371 2906,-371 2991.05,-371 3024.81,-378.151 3092,-326 3136.07,-291.792 3160.1,-228.527 3170.88,-192.001"/>
<polygon fill="black" stroke="black" points="3174.35,-192.594 3173.69,-182.02 3167.61,-190.697 3174.35,-192.594"/>
</g>
<!-- Basic Block 6&#45;&gt;Basic Block 7 -->
<g id="edge20" class="edge"><title>Basic Block 6&#45;&gt;Basic Block 7</title>
<path fill="none" stroke="black" d="M695.212,-246.894C710.285,-239.358 727.946,-230.527 743.852,-222.574"/>
<polygon fill="black" stroke="black" points="745.603,-225.612 752.982,-218.009 742.472,-219.351 745.603,-225.612"/>
</g>
<!-- Addr 2 -->
<g id="node35" class="node"><title>Addr 2</title>
<polygon fill="lightgrey" stroke="black" points="927,-178 873,-178 873,-142 927,-142 927,-178"/>
<text text-anchor="middle" x="900" y="-156.9" font-family="Times Roman,serif" font-size="14.00">Addr 2</text>
</g>
<!-- Basic Block 7&#45;&gt;Addr 2 -->
<g id="edge22" class="edge"><title>Basic Block 7&#45;&gt;Addr 2</title>
<path fill="none" stroke="black" d="M835.752,-183.152C844.792,-179.895 854.15,-176.522 862.833,-173.393"/>
<polygon fill="black" stroke="black" points="864.076,-176.666 872.298,-169.983 861.703,-170.08 864.076,-176.666"/>
</g>
<!-- Basic Block 8 -->
<g id="node8" class="node"><title>Basic Block 8</title>
<polygon fill="#800026" stroke="black" points="1057,-97 965,-97 965,-61 1057,-61 1057,-97"/>
<text text-anchor="middle" x="1011" y="-75.9" font-family="Times Roman,serif" font-size="14.00">Basic Block 8</text>
</g>
<!-- Basic Block 9 -->
<g id="node9" class="node"><title>Basic Block 9</title>
<polygon fill="#ffffcc" stroke="black" points="1187,-97 1095,-97 1095,-61 1187,-61 1187,-97"/>
<text text-anchor="middle" x="1141" y="-75.9" font-family="Times Roman,serif" font-size="14.00">Basic Block 9</text>
</g>
<!-- Basic Block 8&#45;&gt;Basic Block 9 -->
<g id="edge28" class="edge"><title>Basic Block 8&#45;&gt;Basic Block 9</title>
<path fill="none" stroke="black" d="M1057.57,-79C1066.15,-79 1075.21,-79 1084.06,-79"/>
<polygon fill="black" stroke="black" points="1084.32,-82.5001 1094.32,-79 1084.32,-75.5001 1084.32,-82.5001"/>
</g>
<!-- Basic Block 26 -->
<g id="node26" class="node"><title>Basic Block 26</title>
<polygon fill="#ffffcc" stroke="black" points="1460,-36 1360,-36 1360,-1.77636e-14 1460,-3.55271e-15 1460,-36"/>
<text text-anchor="middle" x="1410" y="-14.9" font-family="Times Roman,serif" font-size="14.00">Basic Block 26</text>
</g>
<!-- Basic Block 8&#45;&gt;Basic Block 26 -->
<g id="edge26" class="edge"><title>Basic Block 8&#45;&gt;Basic Block 26</title>
<path fill="none" stroke="black" d="M1057.5,-61.9997C1069.28,-58.215 1082,-54.5687 1094,-52 1181.78,-33.2125 1285.62,-24.5725 1349.65,-20.7702"/>
<polygon fill="black" stroke="black" points="1350.18,-24.2456 1359.96,-20.1792 1349.78,-17.2571 1350.18,-24.2456"/>
</g>
<!-- Basic Block 10 -->
<g id="node10" class="node"><title>Basic Block 10</title>
<polygon fill="#ffffcc" stroke="black" points="1596,-148 1496,-148 1496,-112 1596,-112 1596,-148"/>
<text text-anchor="middle" x="1546" y="-126.9" font-family="Times Roman,serif" font-size="14.00">Basic Block 10</text>
</g>
<!-- Basic Block 9&#45;&gt;Basic Block 10 -->
<g id="edge32" class="edge"><title>Basic Block 9&#45;&gt;Basic Block 10</title>
<path fill="none" stroke="black" d="M1187.88,-96.4164C1199.54,-100.143 1212.11,-103.658 1224,-106 1314.06,-123.736 1420.64,-128.602 1485.77,-129.806"/>
<polygon fill="black" stroke="black" points="1485.8,-133.307 1495.86,-129.969 1485.92,-126.308 1485.8,-133.307"/>
</g>
<!-- Basic Block 11 -->
<g id="node11" class="node"><title>Basic Block 11</title>
<polygon fill="#ffffcc" stroke="black" points="1324,-97 1224,-97 1224,-61 1324,-61 1324,-97"/>
<text text-anchor="middle" x="1274" y="-75.9" font-family="Times Roman,serif" font-size="14.00">Basic Block 11</text>
</g>
<!-- Basic Block 9&#45;&gt;Basic Block 11 -->
<g id="edge30" class="edge"><title>Basic Block 9&#45;&gt;Basic Block 11</title>
<path fill="none" stroke="black" d="M1187.52,-79C1195.92,-79 1204.78,-79 1213.51,-79"/>
<polygon fill="black" stroke="black" points="1213.66,-82.5001 1223.66,-79 1213.66,-75.5001 1213.66,-82.5001"/>
</g>
<!-- Basic Block 14 -->
<g id="node14" class="node"><title>Basic Block 14</title>
<polygon fill="#ffffcc" stroke="black" points="1732,-148 1632,-148 1632,-112 1732,-112 1732,-148"/>
<text text-anchor="middle" x="1682" y="-126.9" font-family="Times Roman,serif" font-size="14.00">Basic Block 14</text>
</g>
<!-- Basic Block 10&#45;&gt;Basic Block 14 -->
<g id="edge34" class="edge"><title>Basic Block 10&#45;&gt;Basic Block 14</title>
<path fill="none" stroke="black" d="M1596.25,-130C1604.54,-130 1613.2,-130 1621.7,-130"/>
<polygon fill="black" stroke="black" points="1621.95,-133.5 1631.95,-130 1621.95,-126.5 1621.95,-133.5"/>
</g>
<!-- Addr 3 -->
<g id="node36" class="node"><title>Addr 3</title>
<polygon fill="lightgrey" stroke="black" points="1437,-96 1383,-96 1383,-60 1437,-60 1437,-96"/>
<text text-anchor="middle" x="1410" y="-74.9" font-family="Times Roman,serif" font-size="14.00">Addr 3</text>
</g>
<!-- Basic Block 11&#45;&gt;Addr 3 -->
<g id="edge36" class="edge"><title>Basic Block 11&#45;&gt;Addr 3</title>
<path fill="none" stroke="black" d="M1324.25,-78.6305C1340.09,-78.5141 1357.3,-78.3875 1372.12,-78.2786"/>
<polygon fill="black" stroke="black" points="1372.46,-81.7763 1382.43,-78.2027 1372.4,-74.7764 1372.46,-81.7763"/>
</g>
<!-- Basic Block 12 -->
<g id="node12" class="node"><title>Basic Block 12</title>
<polygon fill="#ffffcc" stroke="black" points="1596,-94 1496,-94 1496,-58 1596,-58 1596,-94"/>
<text text-anchor="middle" x="1546" y="-72.9" font-family="Times Roman,serif" font-size="14.00">Basic Block 12</text>
</g>
<!-- Basic Block 13 -->
<g id="node13" class="node"><title>Basic Block 13</title>
<polygon fill="#ffffcc" stroke="black" points="1868,-94 1768,-94 1768,-58 1868,-58 1868,-94"/>
<text text-anchor="middle" x="1818" y="-72.9" font-family="Times Roman,serif" font-size="14.00">Basic Block 13</text>
</g>
<!-- Basic Block 12&#45;&gt;Basic Block 13 -->
<g id="edge42" class="edge"><title>Basic Block 12&#45;&gt;Basic Block 13</title>
<path fill="none" stroke="black" d="M1596.21,-76C1641.78,-76 1709.07,-76 1757.58,-76"/>
<polygon fill="black" stroke="black" points="1757.63,-79.5001 1767.63,-76 1757.63,-72.5001 1757.63,-79.5001"/>
</g>
<!-- Basic Block 12&#45;&gt;Basic Block 14 -->
<g id="edge40" class="edge"><title>Basic Block 12&#45;&gt;Basic Block 14</title>
<path fill="none" stroke="black" d="M1591.66,-94.1314C1602.88,-98.5838 1615,-103.398 1626.62,-108.01"/>
<polygon fill="black" stroke="black" points="1625.64,-111.387 1636.22,-111.824 1628.22,-104.881 1625.64,-111.387"/>
</g>
<!-- Basic Block 13&#45;&gt;Basic Block 33 -->
<g id="edge44" class="edge"><title>Basic Block 13&#45;&gt;Basic Block 33</title>
<path fill="none" stroke="black" d="M1868.02,-69.2236C1922.51,-62.4392 2012.28,-53 2090,-53 2090,-53 2090,-53 2906,-53 2990.04,-53 3016.53,-50.0299 3092,-87 3117.13,-99.3093 3140.43,-121.095 3156.42,-138.359"/>
<polygon fill="black" stroke="black" points="3153.94,-140.836 3163.23,-145.923 3159.14,-136.15 3153.94,-140.836"/>
</g>
<!-- Addr 4 -->
<g id="node37" class="node"><title>Addr 4</title>
<polygon fill="lightgrey" stroke="black" points="1845,-165 1791,-165 1791,-129 1845,-129 1845,-165"/>
<text text-anchor="middle" x="1818" y="-143.9" font-family="Times Roman,serif" font-size="14.00">Addr 4</text>
</g>
<!-- Basic Block 14&#45;&gt;Addr 4 -->
<g id="edge46" class="edge"><title>Basic Block 14&#45;&gt;Addr 4</title>
<path fill="none" stroke="black" d="M1732.25,-136.282C1748.09,-138.261 1765.3,-140.412 1780.12,-142.264"/>
<polygon fill="black" stroke="black" points="1780.07,-145.786 1790.43,-143.554 1780.94,-138.84 1780.07,-145.786"/>
</g>
<!-- Basic Block 15 -->
<g id="node15" class="node"><title>Basic Block 15</title>
<polygon fill="#ffffcc" stroke="black" points="2004,-167 1904,-167 1904,-131 2004,-131 2004,-167"/>
<text text-anchor="middle" x="1954" y="-145.9" font-family="Times Roman,serif" font-size="14.00">Basic Block 15</text>
</g>
<!-- Basic Block 17 -->
<g id="node17" class="node"><title>Basic Block 17</title>
<polygon fill="#ffffcc" stroke="black" points="2140,-201 2040,-201 2040,-165 2140,-165 2140,-201"/>
<text text-anchor="middle" x="2090" y="-179.9" font-family="Times Roman,serif" font-size="14.00">Basic Block 17</text>
</g>
<!-- Basic Block 15&#45;&gt;Basic Block 17 -->
<g id="edge50" class="edge"><title>Basic Block 15&#45;&gt;Basic Block 17</title>
<path fill="none" stroke="black" d="M2004.25,-161.564C2012.63,-163.658 2021.39,-165.848 2029.98,-167.995"/>
<polygon fill="black" stroke="black" points="2029.4,-171.458 2039.95,-170.488 2031.1,-164.667 2029.4,-171.458"/>
</g>
<!-- Basic Block 16 -->
<g id="node16" class="node"><title>Basic Block 16</title>
<polygon fill="#ffffcc" stroke="black" points="3092,-317 2992,-317 2992,-281 3092,-281 3092,-317"/>
<text text-anchor="middle" x="3042" y="-295.9" font-family="Times Roman,serif" font-size="14.00">Basic Block 16</text>
</g>
<!-- Basic Block 16&#45;&gt;Basic Block 17 -->
<g id="edge52" class="edge"><title>Basic Block 16&#45;&gt;Basic Block 17</title>
<path fill="none" stroke="black" d="M2991.85,-309.063C2937.45,-319.089 2847.93,-333 2770,-333 2362,-333 2362,-333 2362,-333 2259.79,-333 2159.83,-250.777 2114.81,-208.083"/>
<polygon fill="black" stroke="black" points="2117.19,-205.514 2107.56,-201.094 2112.33,-210.554 2117.19,-205.514"/>
</g>
<!-- Basic Block 18 -->
<g id="node18" class="node"><title>Basic Block 18</title>
<polygon fill="#ffffcc" stroke="black" points="2276,-156 2176,-156 2176,-120 2276,-120 2276,-156"/>
<text text-anchor="middle" x="2226" y="-134.9" font-family="Times Roman,serif" font-size="14.00">Basic Block 18</text>
</g>
<!-- Basic Block 17&#45;&gt;Basic Block 18 -->
<g id="edge56" class="edge"><title>Basic Block 17&#45;&gt;Basic Block 18</title>
<path fill="none" stroke="black" d="M2140.25,-166.372C2148.72,-163.57 2157.58,-160.638 2166.26,-157.767"/>
<polygon fill="black" stroke="black" points="2167.56,-161.024 2175.95,-154.56 2165.36,-154.379 2167.56,-161.024"/>
</g>
<!-- Basic Block 19 -->
<g id="node19" class="node"><title>Basic Block 19</title>
<polygon fill="#feb24c" stroke="black" points="2412,-179 2312,-179 2312,-143 2412,-143 2412,-179"/>
<text text-anchor="middle" x="2362" y="-157.9" font-family="Times Roman,serif" font-size="14.00">Basic Block 19</text>
</g>
<!-- Basic Block 17&#45;&gt;Basic Block 19 -->
<g id="edge54" class="edge"><title>Basic Block 17&#45;&gt;Basic Block 19</title>
<path fill="none" stroke="black" d="M2140.21,-178.939C2185.78,-175.253 2253.07,-169.81 2301.58,-165.887"/>
<polygon fill="black" stroke="black" points="2301.94,-169.369 2311.63,-165.074 2301.38,-162.392 2301.94,-169.369"/>
</g>
<!-- Basic Block 18&#45;&gt;Basic Block 19 -->
<g id="edge58" class="edge"><title>Basic Block 18&#45;&gt;Basic Block 19</title>
<path fill="none" stroke="black" d="M2276.25,-146.499C2284.63,-147.915 2293.39,-149.397 2301.98,-150.85"/>
<polygon fill="black" stroke="black" points="2301.51,-154.319 2311.95,-152.536 2302.68,-147.417 2301.51,-154.319"/>
</g>
<!-- Basic Block 20 -->
<g id="node20" class="node"><title>Basic Block 20</title>
<polygon fill="#ffffcc" stroke="black" points="2548,-213 2448,-213 2448,-177 2548,-177 2548,-213"/>
<text text-anchor="middle" x="2498" y="-191.9" font-family="Times Roman,serif" font-size="14.00">Basic Block 20</text>
</g>
<!-- Basic Block 19&#45;&gt;Basic Block 20 -->
<g id="edge62" class="edge"><title>Basic Block 19&#45;&gt;Basic Block 20</title>
<path fill="none" stroke="black" d="M2412.25,-173.564C2420.63,-175.658 2429.39,-177.848 2437.98,-179.995"/>
<polygon fill="black" stroke="black" points="2437.4,-183.458 2447.95,-182.488 2439.1,-176.667 2437.4,-183.458"/>
</g>
<!-- Basic Block 27 -->
<g id="node27" class="node"><title>Basic Block 27</title>
<polygon fill="#ffffcc" stroke="black" points="2548,-138 2448,-138 2448,-102 2548,-102 2548,-138"/>
<text text-anchor="middle" x="2498" y="-116.9" font-family="Times Roman,serif" font-size="14.00">Basic Block 27</text>
</g>
<!-- Basic Block 19&#45;&gt;Basic Block 27 -->
<g id="edge60" class="edge"><title>Basic Block 19&#45;&gt;Basic Block 27</title>
<path fill="none" stroke="black" d="M2412.25,-145.85C2420.72,-143.297 2429.58,-140.626 2438.26,-138.01"/>
<polygon fill="black" stroke="black" points="2439.39,-141.326 2447.95,-135.088 2437.37,-134.624 2439.39,-141.326"/>
</g>
<!-- Basic Block 21 -->
<g id="node21" class="node"><title>Basic Block 21</title>
<polygon fill="#ffffcc" stroke="black" points="2820,-267 2720,-267 2720,-231 2820,-231 2820,-267"/>
<text text-anchor="middle" x="2770" y="-245.9" font-family="Times Roman,serif" font-size="14.00">Basic Block 21</text>
</g>
<!-- Basic Block 20&#45;&gt;Basic Block 21 -->
<g id="edge66" class="edge"><title>Basic Block 20&#45;&gt;Basic Block 21</title>
<path fill="none" stroke="black" d="M2548.11,-212.212C2559.79,-215.811 2572.25,-219.321 2584,-222 2625.58,-231.482 2673.19,-238.32 2709.83,-242.742"/>
<polygon fill="black" stroke="black" points="2709.52,-246.229 2719.86,-243.925 2710.34,-239.278 2709.52,-246.229"/>
</g>
<!-- Basic Block 23 -->
<g id="node23" class="node"><title>Basic Block 23</title>
<polygon fill="#ffffcc" stroke="black" points="2684,-213 2584,-213 2584,-177 2684,-177 2684,-213"/>
<text text-anchor="middle" x="2634" y="-191.9" font-family="Times Roman,serif" font-size="14.00">Basic Block 23</text>
</g>
<!-- Basic Block 20&#45;&gt;Basic Block 23 -->
<g id="edge64" class="edge"><title>Basic Block 20&#45;&gt;Basic Block 23</title>
<path fill="none" stroke="black" d="M2548.25,-195C2556.54,-195 2565.2,-195 2573.7,-195"/>
<polygon fill="black" stroke="black" points="2573.95,-198.5 2583.95,-195 2573.95,-191.5 2573.95,-198.5"/>
</g>
<!-- Basic Block 21&#45;&gt;Basic Block 16 -->
<g id="edge68" class="edge"><title>Basic Block 21&#45;&gt;Basic Block 16</title>
<path fill="none" stroke="black" d="M2820.07,-266.395C2831.75,-269.985 2844.22,-273.445 2856,-276 2897.56,-285.016 2945.17,-290.822 2981.82,-294.344"/>
<polygon fill="black" stroke="black" points="2981.57,-297.836 2991.85,-295.278 2982.22,-290.866 2981.57,-297.836"/>
</g>
<!-- Basic Block 22 -->
<g id="node22" class="node"><title>Basic Block 22</title>
<polygon fill="#ffffcc" stroke="black" points="2956,-267 2856,-267 2856,-231 2956,-231 2956,-267"/>
<text text-anchor="middle" x="2906" y="-245.9" font-family="Times Roman,serif" font-size="14.00">Basic Block 22</text>
</g>
<!-- Basic Block 21&#45;&gt;Basic Block 22 -->
<g id="edge70" class="edge"><title>Basic Block 21&#45;&gt;Basic Block 22</title>
<path fill="none" stroke="black" d="M2820.25,-249C2828.54,-249 2837.2,-249 2845.7,-249"/>
<polygon fill="black" stroke="black" points="2845.95,-252.5 2855.95,-249 2845.95,-245.5 2845.95,-252.5"/>
</g>
<!-- Basic Block 22&#45;&gt;Basic Block 16 -->
<g id="edge72" class="edge"><title>Basic Block 22&#45;&gt;Basic Block 16</title>
<path fill="none" stroke="black" d="M2955.1,-267.051C2964.25,-270.414 2973.89,-273.96 2983.29,-277.417"/>
<polygon fill="black" stroke="black" points="2982.38,-280.81 2992.97,-280.975 2984.79,-274.24 2982.38,-280.81"/>
</g>
<!-- Addr 5 -->
<g id="node38" class="node"><title>Addr 5</title>
<polygon fill="lightgrey" stroke="black" points="2797,-213 2743,-213 2743,-177 2797,-177 2797,-213"/>
<text text-anchor="middle" x="2770" y="-191.9" font-family="Times Roman,serif" font-size="14.00">Addr 5</text>
</g>
<!-- Basic Block 23&#45;&gt;Addr 5 -->
<g id="edge74" class="edge"><title>Basic Block 23&#45;&gt;Addr 5</title>
<path fill="none" stroke="black" d="M2684.25,-195C2700.09,-195 2717.3,-195 2732.12,-195"/>
<polygon fill="black" stroke="black" points="2732.43,-198.5 2742.43,-195 2732.43,-191.5 2732.43,-198.5"/>
</g>
<!-- Basic Block 24 -->
<g id="node24" class="node"><title>Basic Block 24</title>
<polygon fill="#ffffcc" stroke="black" points="2956,-213 2856,-213 2856,-177 2956,-177 2956,-213"/>
<text text-anchor="middle" x="2906" y="-191.9" font-family="Times Roman,serif" font-size="14.00">Basic Block 24</text>
</g>
<!-- Basic Block 24&#45;&gt;Basic Block 16 -->
<g id="edge78" class="edge"><title>Basic Block 24&#45;&gt;Basic Block 16</title>
<path fill="none" stroke="black" d="M2944.08,-213.152C2948.3,-215.85 2952.37,-218.809 2956,-222 2976.57,-240.076 2971.43,-253.924 2992,-272 2993.13,-272.997 2994.31,-273.972 2995.52,-274.923"/>
<polygon fill="black" stroke="black" points="2993.73,-277.939 3003.92,-280.848 2997.77,-272.221 2993.73,-277.939"/>
</g>
<!-- Basic Block 25 -->
<g id="node25" class="node"><title>Basic Block 25</title>
<polygon fill="#ffffcc" stroke="black" points="3092,-263 2992,-263 2992,-227 3092,-227 3092,-263"/>
<text text-anchor="middle" x="3042" y="-241.9" font-family="Times Roman,serif" font-size="14.00">Basic Block 25</text>
</g>
<!-- Basic Block 24&#45;&gt;Basic Block 25 -->
<g id="edge80" class="edge"><title>Basic Block 24&#45;&gt;Basic Block 25</title>
<path fill="none" stroke="black" d="M2955.1,-213.051C2964.25,-216.414 2973.89,-219.96 2983.29,-223.417"/>
<polygon fill="black" stroke="black" points="2982.38,-226.81 2992.97,-226.975 2984.79,-220.24 2982.38,-226.81"/>
</g>
<!-- Basic Block 25&#45;&gt;Basic Block 33 -->
<g id="edge82" class="edge"><title>Basic Block 25&#45;&gt;Basic Block 33</title>
<path fill="none" stroke="black" d="M3076.06,-226.998C3081.42,-224.049 3086.89,-220.982 3092,-218 3108.42,-208.423 3126.27,-197.333 3141.43,-187.704"/>
<polygon fill="black" stroke="black" points="3143.46,-190.556 3150.01,-182.225 3139.7,-184.656 3143.46,-190.556"/>
</g>
<!-- Basic Block 28 -->
<g id="node28" class="node"><title>Basic Block 28</title>
<polygon fill="#ffffcc" stroke="black" points="2684,-138 2584,-138 2584,-102 2684,-102 2684,-138"/>
<text text-anchor="middle" x="2634" y="-116.9" font-family="Times Roman,serif" font-size="14.00">Basic Block 28</text>
</g>
<!-- Basic Block 26&#45;&gt;Basic Block 28 -->
<g id="edge84" class="edge"><title>Basic Block 26&#45;&gt;Basic Block 28</title>
<path fill="none" stroke="black" d="M1460.13,-17.1161C1514.7,-16.2312 1604.55,-15 1682,-15 1682,-15 1682,-15 2362,-15 2452.01,-15 2548.22,-65.6625 2598.58,-96.6049"/>
<polygon fill="black" stroke="black" points="2596.81,-99.6246 2607.14,-101.95 2600.51,-93.6862 2596.81,-99.6246"/>
</g>
<!-- Basic Block 27&#45;&gt;Basic Block 28 -->
<g id="edge86" class="edge"><title>Basic Block 27&#45;&gt;Basic Block 28</title>
<path fill="none" stroke="black" d="M2548.25,-120C2556.54,-120 2565.2,-120 2573.7,-120"/>
<polygon fill="black" stroke="black" points="2573.95,-123.5 2583.95,-120 2573.95,-116.5 2573.95,-123.5"/>
</g>
<!-- Basic Block 29 -->
<g id="node29" class="node"><title>Basic Block 29</title>
<polygon fill="#ffffcc" stroke="black" points="2820,-117 2720,-117 2720,-81 2820,-81 2820,-117"/>
<text text-anchor="middle" x="2770" y="-95.9" font-family="Times Roman,serif" font-size="14.00">Basic Block 29</text>
</g>
<!-- Basic Block 28&#45;&gt;Basic Block 29 -->
<g id="edge90" class="edge"><title>Basic Block 28&#45;&gt;Basic Block 29</title>
<path fill="none" stroke="black" d="M2684.25,-112.24C2692.63,-110.947 2701.39,-109.594 2709.98,-108.268"/>
<polygon fill="black" stroke="black" points="2710.6,-111.713 2719.95,-106.728 2709.53,-104.795 2710.6,-111.713"/>
</g>
<!-- Basic Block 30 -->
<g id="node30" class="node"><title>Basic Block 30</title>
<polygon fill="#ffffcc" stroke="black" points="2956,-159 2856,-159 2856,-123 2956,-123 2956,-159"/>
<text text-anchor="middle" x="2906" y="-137.9" font-family="Times Roman,serif" font-size="14.00">Basic Block 30</text>
</g>
<!-- Basic Block 28&#45;&gt;Basic Block 30 -->
<g id="edge88" class="edge"><title>Basic Block 28&#45;&gt;Basic Block 30</title>
<path fill="none" stroke="black" d="M2684.21,-123.876C2729.78,-127.395 2797.07,-132.59 2845.58,-136.335"/>
<polygon fill="black" stroke="black" points="2845.39,-139.831 2855.63,-137.111 2845.93,-132.851 2845.39,-139.831"/>
</g>
<!-- Basic Block 29&#45;&gt;Basic Block 33 -->
<g id="edge92" class="edge"><title>Basic Block 29&#45;&gt;Basic Block 33</title>
<path fill="none" stroke="black" d="M2820.14,-92.8031C2884.62,-86.6024 2999.35,-81.6009 3092,-110 3112.2,-116.19 3132.32,-128.414 3148.03,-139.668"/>
<polygon fill="black" stroke="black" points="3146.15,-142.633 3156.27,-145.777 3150.32,-137.01 3146.15,-142.633"/>
</g>
<!-- Basic Block 31 -->
<g id="node31" class="node"><title>Basic Block 31</title>
<polygon fill="#ffffcc" stroke="black" points="3092,-209 2992,-209 2992,-173 3092,-173 3092,-209"/>
<text text-anchor="middle" x="3042" y="-187.9" font-family="Times Roman,serif" font-size="14.00">Basic Block 31</text>
</g>
<!-- Basic Block 30&#45;&gt;Basic Block 31 -->
<g id="edge96" class="edge"><title>Basic Block 30&#45;&gt;Basic Block 31</title>
<path fill="none" stroke="black" d="M2955.1,-159.051C2964.25,-162.414 2973.89,-165.96 2983.29,-169.417"/>
<polygon fill="black" stroke="black" points="2982.38,-172.81 2992.97,-172.975 2984.79,-166.24 2982.38,-172.81"/>
</g>
<!-- Basic Block 32 -->
<g id="node32" class="node"><title>Basic Block 32</title>
<polygon fill="#ffffcc" stroke="black" points="3092,-155 2992,-155 2992,-119 3092,-119 3092,-155"/>
<text text-anchor="middle" x="3042" y="-133.9" font-family="Times Roman,serif" font-size="14.00">Basic Block 32</text>
</g>
<!-- Basic Block 30&#45;&gt;Basic Block 32 -->
<g id="edge94" class="edge"><title>Basic Block 30&#45;&gt;Basic Block 32</title>
<path fill="none" stroke="black" d="M2956.25,-139.522C2964.54,-139.278 2973.2,-139.023 2981.7,-138.774"/>
<polygon fill="black" stroke="black" points="2982.06,-142.265 2991.95,-138.472 2981.85,-135.268 2982.06,-142.265"/>
</g>
<!-- Basic Block 31&#45;&gt;Basic Block 33 -->
<g id="edge98" class="edge"><title>Basic Block 31&#45;&gt;Basic Block 33</title>
<path fill="none" stroke="black" d="M3092.25,-181.023C3100.63,-179.36 3109.39,-177.621 3117.98,-175.916"/>
<polygon fill="black" stroke="black" points="3118.82,-179.316 3127.95,-173.936 3117.46,-172.45 3118.82,-179.316"/>
</g>
<!-- Basic Block 32&#45;&gt;Basic Block 33 -->
<g id="edge100" class="edge"><title>Basic Block 32&#45;&gt;Basic Block 33</title>
<path fill="none" stroke="black" d="M3092.25,-146.977C3100.63,-148.64 3109.39,-150.379 3117.98,-152.084"/>
<polygon fill="black" stroke="black" points="3117.46,-155.55 3127.95,-154.064 3118.82,-148.684 3117.46,-155.55"/>
</g>
<!-- Addr 6 -->
<g id="node39" class="node"><title>Addr 6</title>
<polygon fill="lightgrey" stroke="black" points="3319,-182 3265,-182 3265,-146 3319,-146 3319,-182"/>
<text text-anchor="middle" x="3292" y="-160.9" font-family="Times Roman,serif" font-size="14.00">Addr 6</text>
</g>
<!-- Basic Block 33&#45;&gt;Addr 6 -->
<g id="edge102" class="edge"><title>Basic Block 33&#45;&gt;Addr 6</title>
<path fill="none" stroke="black" d="M3228,-164C3236.75,-164 3245.72,-164 3254.08,-164"/>
<polygon fill="black" stroke="black" points="3254.27,-167.5 3264.27,-164 3254.27,-160.5 3254.27,-167.5"/>
</g>
<!-- Addr 1&#45;&gt;Basic Block 4 -->
<g id="edge12" class="edge"><title>Addr 1&#45;&gt;Basic Block 4</title>
<path fill="none" stroke="black" d="M445.724,-265C453.748,-265 462.817,-265 471.942,-265"/>
<polygon fill="black" stroke="black" points="472.215,-268.5 482.215,-265 472.215,-261.5 472.215,-268.5"/>
</g>
<!-- Addr 2&#45;&gt;Basic Block 8 -->
<g id="edge24" class="edge"><title>Addr 2&#45;&gt;Basic Block 8</title>
<path fill="none" stroke="black" d="M924.911,-141.822C940.478,-130.462 960.714,-115.695 977.656,-103.332"/>
<polygon fill="black" stroke="black" points="980.158,-105.839 986.173,-97.1173 976.031,-100.185 980.158,-105.839"/>
</g>
<!-- Addr 3&#45;&gt;Basic Block 12 -->
<g id="edge38" class="edge"><title>Addr 3&#45;&gt;Basic Block 12</title>
<path fill="none" stroke="black" d="M1437.52,-77.5953C1451.41,-77.3911 1468.83,-77.1349 1485.62,-76.8879"/>
<polygon fill="black" stroke="black" points="1486.01,-80.3826 1495.96,-76.7359 1485.91,-73.3834 1486.01,-80.3826"/>
</g>
<!-- Addr 4&#45;&gt;Basic Block 15 -->
<g id="edge48" class="edge"><title>Addr 4&#45;&gt;Basic Block 15</title>
<path fill="none" stroke="black" d="M1845.52,-147.405C1859.41,-147.609 1876.83,-147.865 1893.62,-148.112"/>
<polygon fill="black" stroke="black" points="1893.91,-151.617 1903.96,-148.264 1894.01,-144.617 1893.91,-151.617"/>
</g>
<!-- Addr 5&#45;&gt;Basic Block 24 -->
<g id="edge76" class="edge"><title>Addr 5&#45;&gt;Basic Block 24</title>
<path fill="none" stroke="black" d="M2797.52,-195C2811.41,-195 2828.83,-195 2845.62,-195"/>
<polygon fill="black" stroke="black" points="2845.96,-198.5 2855.96,-195 2845.96,-191.5 2845.96,-198.5"/>
</g>
</g>
</svg>
