<?xml version="1.0" encoding="UTF-8" standalone="no"?>
<!DOCTYPE svg PUBLIC "-//W3C//DTD SVG 1.0//EN"
 "http://www.w3.org/TR/2001/REC-SVG-20010904/DTD/svg10.dtd" [
 <!ATTLIST svg xmlns:xlink CDATA #FIXED "http://www.w3.org/1999/xlink">
]>
<!-- Generated by Graphviz version 2.20.2 (Tue Mar &#160;2 19:03:41 UTC 2010)
     For user: (levinth) David Levinthal -->
<!-- Title: fget_light Pages: 1 -->
<svg width="1466pt" height="312pt"
 viewBox="0.00 0.00 1466.00 312.00" xmlns="http://www.w3.org/2000/svg" xmlns:xlink="http://www.w3.org/1999/xlink">
<g id="graph0" class="graph" transform="scale(1 1) rotate(0) translate(4 308)">
<title>fget_light</title>
<polygon style="fill:white;stroke:white;" points="-4,4 -4,-308 1462,-308 1462,4 -4,4"/>
<!-- Basic Block 1 -->
<g id="node1" class="node"><title>Basic Block 1</title>
<polygon style="fill:#ffffcc;stroke:black;" points="106,-243 3.55271e-14,-243 0,-207 106,-207 106,-243"/>
<text text-anchor="middle" x="53" y="-220.9" style="font-family:Times New Roman;font-size:14.00;">Basic Block 1</text>
</g>
<!-- Addr 1 -->
<g id="node14" class="node"><title>Addr 1</title>
<polygon style="fill:lightgrey;stroke:black;" points="204,-243 142,-243 142,-207 204,-207 204,-243"/>
<text text-anchor="middle" x="173" y="-220.9" style="font-family:Times New Roman;font-size:14.00;">Addr 1</text>
</g>
<!-- Basic Block 1&#45;&gt;Addr 1 -->
<g id="edge2" class="edge"><title>Basic Block 1&#45;&gt;Addr 1</title>
<path style="fill:none;stroke:black;" d="M106,-225C114,-225 123,-225 132,-225"/>
<polygon style="fill:black;stroke:black;" points="132,-228.5 142,-225 132,-221.5 132,-228.5"/>
</g>
<!-- Basic Block 2 -->
<g id="node2" class="node"><title>Basic Block 2</title>
<polygon style="fill:#ffffcc;stroke:black;" points="346,-243 240,-243 240,-207 346,-207 346,-243"/>
<text text-anchor="middle" x="293" y="-220.9" style="font-family:Times New Roman;font-size:14.00;">Basic Block 2</text>
</g>
<!-- Basic Block 3 -->
<g id="node3" class="node"><title>Basic Block 3</title>
<polygon style="fill:#ffffcc;stroke:black;" points="1061,-266 955,-266 955,-230 1061,-230 1061,-266"/>
<text text-anchor="middle" x="1008" y="-243.9" style="font-family:Times New Roman;font-size:14.00;">Basic Block 3</text>
</g>
<!-- Basic Block 2&#45;&gt;Basic Block 3 -->
<g id="edge8" class="edge"><title>Basic Block 2&#45;&gt;Basic Block 3</title>
<path style="fill:none;stroke:black;" d="M346,-232C403,-239 497,-248 577,-248 577,-248 577,-248 719,-248 797,-248 886,-248 945,-248"/>
<polygon style="fill:black;stroke:black;" points="945,-251.5 955,-248 945,-244.5 945,-251.5"/>
</g>
<!-- Basic Block 6 -->
<g id="node6" class="node"><title>Basic Block 6</title>
<polygon style="fill:#ffffcc;stroke:black;" points="488,-220 382,-220 382,-184 488,-184 488,-220"/>
<text text-anchor="middle" x="435" y="-197.9" style="font-family:Times New Roman;font-size:14.00;">Basic Block 6</text>
</g>
<!-- Basic Block 2&#45;&gt;Basic Block 6 -->
<g id="edge6" class="edge"><title>Basic Block 2&#45;&gt;Basic Block 6</title>
<path style="fill:none;stroke:black;" d="M346,-216C355,-215 363,-213 372,-212"/>
<polygon style="fill:black;stroke:black;" points="372.398,-215.478 382,-211 371.701,-208.512 372.398,-215.478"/>
</g>
<!-- Basic Block 4 -->
<g id="node4" class="node"><title>Basic Block 4</title>
<polygon style="fill:#ffffcc;stroke:black;" points="1213,-304 1107,-304 1107,-268 1213,-268 1213,-304"/>
<text text-anchor="middle" x="1160" y="-281.9" style="font-family:Times New Roman;font-size:14.00;">Basic Block 4</text>
</g>
<!-- Basic Block 3&#45;&gt;Basic Block 4 -->
<g id="edge12" class="edge"><title>Basic Block 3&#45;&gt;Basic Block 4</title>
<path style="fill:none;stroke:black;" d="M1061,-261C1073,-264 1085,-267 1097,-270"/>
<polygon style="fill:black;stroke:black;" points="1096.42,-273.479 1107,-273 1098.43,-266.774 1096.42,-273.479"/>
</g>
<!-- Basic Block 5 -->
<g id="node5" class="node"><title>Basic Block 5</title>
<polygon style="fill:#800026;stroke:black;" points="1360,-201 1254,-201 1254,-165 1360,-165 1360,-201"/>
<text text-anchor="middle" x="1307" y="-178.9" style="font-family:Times New Roman;font-size:14.00;">Basic Block 5</text>
</g>
<!-- Basic Block 3&#45;&gt;Basic Block 5 -->
<g id="edge10" class="edge"><title>Basic Block 3&#45;&gt;Basic Block 5</title>
<path style="fill:none;stroke:black;" d="M1061,-243C1104,-238 1166,-229 1218,-216 1230,-213 1242,-209 1254,-204"/>
<polygon style="fill:black;stroke:black;" points="1254.62,-207.483 1263,-201 1252.41,-200.842 1254.62,-207.483"/>
</g>
<!-- Basic Block 4&#45;&gt;Basic Block 5 -->
<g id="edge14" class="edge"><title>Basic Block 4&#45;&gt;Basic Block 5</title>
<path style="fill:none;stroke:black;" d="M1195,-268C1203,-264 1211,-259 1218,-254 1239,-239 1262,-222 1278,-208"/>
<polygon style="fill:black;stroke:black;" points="1280.78,-210.219 1286,-201 1276.17,-204.951 1280.78,-210.219"/>
</g>
<!-- Addr 2 -->
<g id="node15" class="node"><title>Addr 2</title>
<polygon style="fill:lightgrey;stroke:black;" points="1458,-201 1396,-201 1396,-165 1458,-165 1458,-201"/>
<text text-anchor="middle" x="1427" y="-178.9" style="font-family:Times New Roman;font-size:14.00;">Addr 2</text>
</g>
<!-- Basic Block 5&#45;&gt;Addr 2 -->
<g id="edge16" class="edge"><title>Basic Block 5&#45;&gt;Addr 2</title>
<path style="fill:none;stroke:black;" d="M1360,-183C1368,-183 1377,-183 1386,-183"/>
<polygon style="fill:black;stroke:black;" points="1386,-186.5 1396,-183 1386,-179.5 1386,-186.5"/>
</g>
<!-- Basic Block 6&#45;&gt;Basic Block 5 -->
<g id="edge18" class="edge"><title>Basic Block 6&#45;&gt;Basic Block 5</title>
<path style="fill:none;stroke:black;" d="M488,-202C545,-202 639,-202 719,-202 719,-202 719,-202 1008,-202 1090,-202 1183,-195 1244,-189"/>
<polygon style="fill:black;stroke:black;" points="1244.4,-192.478 1254,-188 1243.7,-185.512 1244.4,-192.478"/>
</g>
<!-- Basic Block 7 -->
<g id="node7" class="node"><title>Basic Block 7</title>
<polygon style="fill:#ffffcc;stroke:black;" points="630,-174 524,-174 524,-138 630,-138 630,-174"/>
<text text-anchor="middle" x="577" y="-151.9" style="font-family:Times New Roman;font-size:14.00;">Basic Block 7</text>
</g>
<!-- Basic Block 6&#45;&gt;Basic Block 7 -->
<g id="edge20" class="edge"><title>Basic Block 6&#45;&gt;Basic Block 7</title>
<path style="fill:none;stroke:black;" d="M488,-185C497,-182 506,-179 514,-176"/>
<polygon style="fill:black;stroke:black;" points="515.427,-179.226 524,-173 513.416,-172.521 515.427,-179.226"/>
</g>
<!-- Basic Block 7&#45;&gt;Basic Block 5 -->
<g id="edge22" class="edge"><title>Basic Block 7&#45;&gt;Basic Block 5</title>
<path style="fill:none;stroke:black;" d="M630,-158C687,-161 781,-164 861,-164 861,-164 861,-164 1008,-164 1090,-164 1183,-171 1244,-177"/>
<polygon style="fill:black;stroke:black;" points="1243.7,-180.488 1254,-178 1244.4,-173.522 1243.7,-180.488"/>
</g>
<!-- Basic Block 8 -->
<g id="node8" class="node"><title>Basic Block 8</title>
<polygon style="fill:#ffffcc;stroke:black;" points="772,-122 666,-122 666,-86 772,-86 772,-122"/>
<text text-anchor="middle" x="719" y="-99.9" style="font-family:Times New Roman;font-size:14.00;">Basic Block 8</text>
</g>
<!-- Basic Block 7&#45;&gt;Basic Block 8 -->
<g id="edge24" class="edge"><title>Basic Block 7&#45;&gt;Basic Block 8</title>
<path style="fill:none;stroke:black;" d="M626,-138C637,-134 649,-129 661,-125"/>
<polygon style="fill:black;stroke:black;" points="661.62,-128.483 670,-122 659.406,-121.842 661.62,-128.483"/>
</g>
<!-- Basic Block 9 -->
<g id="node9" class="node"><title>Basic Block 9</title>
<polygon style="fill:#ffffcc;stroke:black;" points="914,-95 808,-95 808,-59 914,-59 914,-95"/>
<text text-anchor="middle" x="861" y="-72.9" style="font-family:Times New Roman;font-size:14.00;">Basic Block 9</text>
</g>
<!-- Basic Block 8&#45;&gt;Basic Block 9 -->
<g id="edge26" class="edge"><title>Basic Block 8&#45;&gt;Basic Block 9</title>
<path style="fill:none;stroke:black;" d="M772,-94C781,-93 789,-91 798,-89"/>
<polygon style="fill:black;stroke:black;" points="798.881,-92.3933 808,-87 797.508,-85.5292 798.881,-92.3933"/>
</g>
<!-- Basic Block 10 -->
<g id="node10" class="node"><title>Basic Block 10</title>
<polygon style="fill:#ffffcc;stroke:black;" points="1065,-128 951,-128 951,-92 1065,-92 1065,-128"/>
<text text-anchor="middle" x="1008" y="-105.9" style="font-family:Times New Roman;font-size:14.00;">Basic Block 10</text>
</g>
<!-- Basic Block 9&#45;&gt;Basic Block 10 -->
<g id="edge30" class="edge"><title>Basic Block 9&#45;&gt;Basic Block 10</title>
<path style="fill:none;stroke:black;" d="M914,-89C923,-91 931,-93 940,-95"/>
<polygon style="fill:black;stroke:black;" points="939.508,-98.4708 950,-97 940.881,-91.6067 939.508,-98.4708"/>
</g>
<!-- Basic Block 12 -->
<g id="node12" class="node"><title>Basic Block 12</title>
<polygon style="fill:#ffffcc;stroke:black;" points="1065,-36 951,-36 951,-1.77636e-14 1065,-3.55271e-15 1065,-36"/>
<text text-anchor="middle" x="1008" y="-13.9" style="font-family:Times New Roman;font-size:14.00;">Basic Block 12</text>
</g>
<!-- Basic Block 9&#45;&gt;Basic Block 12 -->
<g id="edge28" class="edge"><title>Basic Block 9&#45;&gt;Basic Block 12</title>
<path style="fill:none;stroke:black;" d="M906,-59C921,-53 938,-46 953,-40"/>
<polygon style="fill:black;stroke:black;" points="955.015,-42.9636 963,-36 952.415,-36.4643 955.015,-42.9636"/>
</g>
<!-- Basic Block 11 -->
<g id="node11" class="node"><title>Basic Block 11</title>
<polygon style="fill:#ffffcc;stroke:black;" points="1217,-136 1103,-136 1103,-100 1217,-100 1217,-136"/>
<text text-anchor="middle" x="1160" y="-113.9" style="font-family:Times New Roman;font-size:14.00;">Basic Block 11</text>
</g>
<!-- Basic Block 10&#45;&gt;Basic Block 11 -->
<g id="edge34" class="edge"><title>Basic Block 10&#45;&gt;Basic Block 11</title>
<path style="fill:none;stroke:black;" d="M1066,-113C1075,-114 1083,-114 1092,-114"/>
<polygon style="fill:black;stroke:black;" points="1091.7,-117.488 1102,-115 1092.4,-110.522 1091.7,-117.488"/>
</g>
<!-- Basic Block 13 -->
<g id="node13" class="node"><title>Basic Block 13</title>
<polygon style="fill:#ffffcc;stroke:black;" points="1217,-82 1103,-82 1103,-46 1217,-46 1217,-82"/>
<text text-anchor="middle" x="1160" y="-59.9" style="font-family:Times New Roman;font-size:14.00;">Basic Block 13</text>
</g>
<!-- Basic Block 10&#45;&gt;Basic Block 13 -->
<g id="edge32" class="edge"><title>Basic Block 10&#45;&gt;Basic Block 13</title>
<path style="fill:none;stroke:black;" d="M1066,-92C1075,-89 1084,-87 1092,-84"/>
<polygon style="fill:black;stroke:black;" points="1093.43,-87.2259 1102,-81 1091.42,-80.5212 1093.43,-87.2259"/>
</g>
<!-- Basic Block 11&#45;&gt;Basic Block 5 -->
<g id="edge36" class="edge"><title>Basic Block 11&#45;&gt;Basic Block 5</title>
<path style="fill:none;stroke:black;" d="M1201,-136C1218,-144 1239,-153 1257,-161"/>
<polygon style="fill:black;stroke:black;" points="1255.44,-164.137 1266,-165 1258.28,-157.74 1255.44,-164.137"/>
</g>
<!-- Basic Block 12&#45;&gt;Basic Block 5 -->
<g id="edge38" class="edge"><title>Basic Block 12&#45;&gt;Basic Block 5</title>
<path style="fill:none;stroke:black;" d="M1066,-10C1111,-7 1173,-9 1218,-37 1261,-64 1287,-121 1299,-155"/>
<polygon style="fill:black;stroke:black;" points="1295.77,-156.427 1302,-165 1302.48,-154.416 1295.77,-156.427"/>
</g>
<!-- Basic Block 13&#45;&gt;Basic Block 9 -->
<g id="edge40" class="edge"><title>Basic Block 13&#45;&gt;Basic Block 9</title>
<path style="fill:none;stroke:black;" d="M1102,-67C1051,-69 977,-73 924,-75"/>
<polygon style="fill:black;stroke:black;" points="924,-71.5001 914,-75 924,-78.5001 924,-71.5001"/>
</g>
<!-- Addr 1&#45;&gt;Basic Block 2 -->
<g id="edge4" class="edge"><title>Addr 1&#45;&gt;Basic Block 2</title>
<path style="fill:none;stroke:black;" d="M204,-225C212,-225 221,-225 230,-225"/>
<polygon style="fill:black;stroke:black;" points="230,-228.5 240,-225 230,-221.5 230,-228.5"/>
</g>
</g>
</svg>
