<?xml version="1.0" encoding="UTF-8" standalone="no"?>
<!DOCTYPE svg PUBLIC "-//W3C//DTD SVG 1.0//EN"
 "http://www.w3.org/TR/2001/REC-SVG-20010904/DTD/svg10.dtd" [
 <!ATTLIST svg xmlns:xlink CDATA #FIXED "http://www.w3.org/1999/xlink">
]>
<!-- Generated by Graphviz version 2.20.2 (Tue Mar &#160;2 19:03:41 UTC 2010)
     For user: (levinth) David Levinthal -->
<!-- Title: vfs_llseek Pages: 1 -->
<svg width="1118pt" height="105pt"
 viewBox="0.00 0.00 1118.00 105.00" xmlns="http://www.w3.org/2000/svg" xmlns:xlink="http://www.w3.org/1999/xlink">
<g id="graph0" class="graph" transform="scale(1 1) rotate(0) translate(4 101)">
<title>vfs_llseek</title>
<polygon style="fill:white;stroke:white;" points="-4,4 -4,-101 1114,-101 1114,4 -4,4"/>
<!-- Basic Block 1 -->
<g id="node1" class="node"><title>Basic Block 1</title>
<polygon style="fill:#ffffcc;stroke:black;" points="106,-36 3.55271e-14,-36 0,-1.77636e-14 106,-3.55271e-15 106,-36"/>
<text text-anchor="middle" x="53" y="-13.9" style="font-family:Times New Roman;font-size:14.00;">Basic Block 1</text>
</g>
<!-- Addr 1 -->
<g id="node7" class="node"><title>Addr 1</title>
<polygon style="fill:lightgrey;stroke:black;" points="204,-36 142,-36 142,-1.77636e-14 204,-3.55271e-15 204,-36"/>
<text text-anchor="middle" x="173" y="-13.9" style="font-family:Times New Roman;font-size:14.00;">Addr 1</text>
</g>
<!-- Basic Block 1&#45;&gt;Addr 1 -->
<g id="edge2" class="edge"><title>Basic Block 1&#45;&gt;Addr 1</title>
<path style="fill:none;stroke:black;" d="M106,-18C114,-18 123,-18 132,-18"/>
<polygon style="fill:black;stroke:black;" points="132,-21.5001 142,-18 132,-14.5001 132,-21.5001"/>
</g>
<!-- Basic Block 2 -->
<g id="node2" class="node"><title>Basic Block 2</title>
<polygon style="fill:#ffffcc;stroke:black;" points="346,-36 240,-36 240,-1.77636e-14 346,-3.55271e-15 346,-36"/>
<text text-anchor="middle" x="293" y="-13.9" style="font-family:Times New Roman;font-size:14.00;">Basic Block 2</text>
</g>
<!-- Basic Block 3 -->
<g id="node3" class="node"><title>Basic Block 3</title>
<polygon style="fill:#ffffcc;stroke:black;" points="488,-59 382,-59 382,-23 488,-23 488,-59"/>
<text text-anchor="middle" x="435" y="-36.9" style="font-family:Times New Roman;font-size:14.00;">Basic Block 3</text>
</g>
<!-- Basic Block 2&#45;&gt;Basic Block 3 -->
<g id="edge8" class="edge"><title>Basic Block 2&#45;&gt;Basic Block 3</title>
<path style="fill:none;stroke:black;" d="M346,-27C355,-28 363,-30 372,-31"/>
<polygon style="fill:black;stroke:black;" points="371.701,-34.4875 382,-32 372.398,-27.5222 371.701,-34.4875"/>
</g>
<!-- Basic Block 5 -->
<g id="node5" class="node"><title>Basic Block 5</title>
<polygon style="fill:#ffffcc;stroke:black;" points="772,-51 666,-51 666,-15 772,-15 772,-51"/>
<text text-anchor="middle" x="719" y="-28.9" style="font-family:Times New Roman;font-size:14.00;">Basic Block 5</text>
</g>
<!-- Basic Block 2&#45;&gt;Basic Block 5 -->
<g id="edge6" class="edge"><title>Basic Block 2&#45;&gt;Basic Block 5</title>
<path style="fill:none;stroke:black;" d="M346,-15C358,-15 371,-14 382,-14 430,-13 441,-13 488,-14 545,-17 609,-22 656,-27"/>
<polygon style="fill:black;stroke:black;" points="655.701,-30.4875 666,-28 656.398,-23.5222 655.701,-30.4875"/>
</g>
<!-- Basic Block 4 -->
<g id="node4" class="node"><title>Basic Block 4</title>
<polygon style="fill:#ffffcc;stroke:black;" points="630,-97 524,-97 524,-61 630,-61 630,-97"/>
<text text-anchor="middle" x="577" y="-74.9" style="font-family:Times New Roman;font-size:14.00;">Basic Block 4</text>
</g>
<!-- Basic Block 3&#45;&gt;Basic Block 4 -->
<g id="edge12" class="edge"><title>Basic Block 3&#45;&gt;Basic Block 4</title>
<path style="fill:none;stroke:black;" d="M488,-55C497,-57 505,-60 514,-62"/>
<polygon style="fill:black;stroke:black;" points="513.416,-65.4788 524,-65 515.427,-58.7741 513.416,-65.4788"/>
</g>
<!-- Basic Block 3&#45;&gt;Basic Block 5 -->
<g id="edge10" class="edge"><title>Basic Block 3&#45;&gt;Basic Block 5</title>
<path style="fill:none;stroke:black;" d="M488,-40C536,-38 605,-36 656,-34"/>
<polygon style="fill:black;stroke:black;" points="656,-37.5001 666,-34 656,-30.5001 656,-37.5001"/>
</g>
<!-- Basic Block 4&#45;&gt;Basic Block 5 -->
<g id="edge14" class="edge"><title>Basic Block 4&#45;&gt;Basic Block 5</title>
<path style="fill:none;stroke:black;" d="M630,-62C639,-59 648,-56 656,-53"/>
<polygon style="fill:black;stroke:black;" points="657.427,-56.2259 666,-50 655.416,-49.5212 657.427,-56.2259"/>
</g>
<!-- Addr 2 -->
<g id="node8" class="node"><title>Addr 2</title>
<polygon style="fill:lightgrey;stroke:black;" points="870,-51 808,-51 808,-15 870,-15 870,-51"/>
<text text-anchor="middle" x="839" y="-28.9" style="font-family:Times New Roman;font-size:14.00;">Addr 2</text>
</g>
<!-- Basic Block 5&#45;&gt;Addr 2 -->
<g id="edge16" class="edge"><title>Basic Block 5&#45;&gt;Addr 2</title>
<path style="fill:none;stroke:black;" d="M772,-33C780,-33 789,-33 798,-33"/>
<polygon style="fill:black;stroke:black;" points="798,-36.5001 808,-33 798,-29.5001 798,-36.5001"/>
</g>
<!-- Basic Block 6 -->
<g id="node6" class="node"><title>Basic Block 6</title>
<polygon style="fill:#800026;stroke:black;" points="1012,-51 906,-51 906,-15 1012,-15 1012,-51"/>
<text text-anchor="middle" x="959" y="-28.9" style="font-family:Times New Roman;font-size:14.00;">Basic Block 6</text>
</g>
<!-- Addr 3 -->
<g id="node9" class="node"><title>Addr 3</title>
<polygon style="fill:lightgrey;stroke:black;" points="1110,-51 1048,-51 1048,-15 1110,-15 1110,-51"/>
<text text-anchor="middle" x="1079" y="-28.9" style="font-family:Times New Roman;font-size:14.00;">Addr 3</text>
</g>
<!-- Basic Block 6&#45;&gt;Addr 3 -->
<g id="edge20" class="edge"><title>Basic Block 6&#45;&gt;Addr 3</title>
<path style="fill:none;stroke:black;" d="M1012,-33C1020,-33 1029,-33 1038,-33"/>
<polygon style="fill:black;stroke:black;" points="1038,-36.5001 1048,-33 1038,-29.5001 1038,-36.5001"/>
</g>
<!-- Addr 1&#45;&gt;Basic Block 2 -->
<g id="edge4" class="edge"><title>Addr 1&#45;&gt;Basic Block 2</title>
<path style="fill:none;stroke:black;" d="M204,-18C212,-18 221,-18 230,-18"/>
<polygon style="fill:black;stroke:black;" points="230,-21.5001 240,-18 230,-14.5001 230,-21.5001"/>
</g>
<!-- Addr 2&#45;&gt;Basic Block 6 -->
<g id="edge18" class="edge"><title>Addr 2&#45;&gt;Basic Block 6</title>
<path style="fill:none;stroke:black;" d="M870,-33C878,-33 887,-33 896,-33"/>
<polygon style="fill:black;stroke:black;" points="896,-36.5001 906,-33 896,-29.5001 896,-36.5001"/>
</g>
</g>
</svg>
