<?xml version="1.0" encoding="UTF-8" standalone="no"?>
<!DOCTYPE svg PUBLIC "-//W3C//DTD SVG 1.1//EN"
 "http://www.w3.org/Graphics/SVG/1.1/DTD/svg11.dtd">
<!-- Generated by graphviz version 2.26.0 (20091210.2329)
 -->
<!-- Title: mark_used_flags Pages: 1 -->
<svg width="1580pt" height="509pt"
 viewBox="0.00 0.00 1580.00 509.00" xmlns="http://www.w3.org/2000/svg" xmlns:xlink="http://www.w3.org/1999/xlink">
<g id="graph1" class="graph" transform="scale(1 1) rotate(0) translate(4 505)">
<title>mark_used_flags</title>
<polygon fill="white" stroke="white" points="-4,5 -4,-505 1577,-505 1577,5 -4,5"/>
<!-- Basic Block 1 -->
<g id="node1" class="node"><title>Basic Block 1</title>
<polygon fill="#ffffcc" stroke="black" points="93,-156 1,-156 1,-120 93,-120 93,-156"/>
<text text-anchor="middle" x="47" y="-134.9" font-family="Times Roman,serif" font-size="14.00">Basic Block 1</text>
</g>
<!-- Basic Block 2 -->
<g id="node2" class="node"><title>Basic Block 2</title>
<polygon fill="#ffeda0" stroke="black" points="223,-301 131,-301 131,-265 223,-265 223,-301"/>
<text text-anchor="middle" x="177" y="-279.9" font-family="Times Roman,serif" font-size="14.00">Basic Block 2</text>
</g>
<!-- Basic Block 1&#45;&gt;Basic Block 2 -->
<g id="edge2" class="edge"><title>Basic Block 1&#45;&gt;Basic Block 2</title>
<path fill="none" stroke="black" d="M63.2017,-156.071C85.9724,-181.469 127.572,-227.868 153.672,-256.98"/>
<polygon fill="black" stroke="black" points="151.313,-259.592 160.594,-264.701 156.525,-254.919 151.313,-259.592"/>
</g>
<!-- Basic Block 3 -->
<g id="node3" class="node"><title>Basic Block 3</title>
<polygon fill="#800026" stroke="black" points="353,-354 261,-354 261,-318 353,-318 353,-354"/>
<text text-anchor="middle" x="307" y="-332.9" font-family="Times Roman,serif" font-size="14.00">Basic Block 3</text>
</g>
<!-- Basic Block 2&#45;&gt;Basic Block 3 -->
<g id="edge6" class="edge"><title>Basic Block 2&#45;&gt;Basic Block 3</title>
<path fill="none" stroke="black" d="M221.375,-301.091C231.729,-305.313 242.862,-309.851 253.563,-314.214"/>
<polygon fill="black" stroke="black" points="252.244,-317.456 262.825,-317.99 254.886,-310.974 252.244,-317.456"/>
</g>
<!-- Basic Block 21 -->
<g id="node21" class="node"><title>Basic Block 21</title>
<polygon fill="#ffffcc" stroke="black" points="490,-501 390,-501 390,-465 490,-465 490,-501"/>
<text text-anchor="middle" x="440" y="-479.9" font-family="Times Roman,serif" font-size="14.00">Basic Block 21</text>
</g>
<!-- Basic Block 2&#45;&gt;Basic Block 21 -->
<g id="edge4" class="edge"><title>Basic Block 2&#45;&gt;Basic Block 21</title>
<path fill="none" stroke="black" d="M193.965,-301.126C210.174,-318.003 235.674,-343.429 260,-363 305.919,-399.944 363.176,-436.684 400.618,-459.59"/>
<polygon fill="black" stroke="black" points="398.862,-462.619 409.225,-464.825 402.5,-456.638 398.862,-462.619"/>
</g>
<!-- Basic Block 4 -->
<g id="node4" class="node"><title>Basic Block 4</title>
<polygon fill="#ffffcc" stroke="black" points="486,-419 394,-419 394,-383 486,-383 486,-419"/>
<text text-anchor="middle" x="440" y="-397.9" font-family="Times Roman,serif" font-size="14.00">Basic Block 4</text>
</g>
<!-- Basic Block 3&#45;&gt;Basic Block 4 -->
<g id="edge10" class="edge"><title>Basic Block 3&#45;&gt;Basic Block 4</title>
<path fill="none" stroke="black" d="M344.048,-354.106C359.468,-361.642 377.537,-370.473 393.81,-378.426"/>
<polygon fill="black" stroke="black" points="392.629,-381.745 403.151,-382.991 395.703,-375.455 392.629,-381.745"/>
</g>
<!-- Basic Block 6 -->
<g id="node6" class="node"><title>Basic Block 6</title>
<polygon fill="#ffeda0" stroke="black" points="752,-354 660,-354 660,-318 752,-318 752,-354"/>
<text text-anchor="middle" x="706" y="-332.9" font-family="Times Roman,serif" font-size="14.00">Basic Block 6</text>
</g>
<!-- Basic Block 3&#45;&gt;Basic Block 6 -->
<g id="edge8" class="edge"><title>Basic Block 3&#45;&gt;Basic Block 6</title>
<path fill="none" stroke="black" d="M353.551,-336C427.032,-336 569.699,-336 649.132,-336"/>
<polygon fill="black" stroke="black" points="649.437,-339.5 659.437,-336 649.437,-332.5 649.437,-339.5"/>
</g>
<!-- Basic Block 5 -->
<g id="node5" class="node"><title>Basic Block 5</title>
<polygon fill="#ffffcc" stroke="black" points="619,-419 527,-419 527,-383 619,-383 619,-419"/>
<text text-anchor="middle" x="573" y="-397.9" font-family="Times Roman,serif" font-size="14.00">Basic Block 5</text>
</g>
<!-- Basic Block 4&#45;&gt;Basic Block 5 -->
<g id="edge14" class="edge"><title>Basic Block 4&#45;&gt;Basic Block 5</title>
<path fill="none" stroke="black" d="M486.517,-401C496.08,-401 506.25,-401 516.13,-401"/>
<polygon fill="black" stroke="black" points="516.285,-404.5 526.285,-401 516.284,-397.5 516.285,-404.5"/>
</g>
<!-- Basic Block 22 -->
<g id="node22" class="node"><title>Basic Block 22</title>
<polygon fill="#ffffcc" stroke="black" points="892,-470 792,-470 792,-434 892,-434 892,-470"/>
<text text-anchor="middle" x="842" y="-448.9" font-family="Times Roman,serif" font-size="14.00">Basic Block 22</text>
</g>
<!-- Basic Block 4&#45;&gt;Basic Block 22 -->
<g id="edge12" class="edge"><title>Basic Block 4&#45;&gt;Basic Block 22</title>
<path fill="none" stroke="black" d="M486.817,-417.825C499.395,-421.757 513.091,-425.517 526,-428 613.773,-444.881 717.402,-450.002 781.415,-451.49"/>
<polygon fill="black" stroke="black" points="781.657,-454.996 791.728,-451.707 781.804,-447.998 781.657,-454.996"/>
</g>
<!-- Basic Block 5&#45;&gt;Basic Block 6 -->
<g id="edge18" class="edge"><title>Basic Block 5&#45;&gt;Basic Block 6</title>
<path fill="none" stroke="black" d="M610.048,-382.894C625.468,-375.358 643.537,-366.527 659.81,-358.574"/>
<polygon fill="black" stroke="black" points="661.703,-361.545 669.151,-354.009 658.629,-355.255 661.703,-361.545"/>
</g>
<!-- Basic Block 23 -->
<g id="node23" class="node"><title>Basic Block 23</title>
<polygon fill="#ffffcc" stroke="black" points="756,-422 656,-422 656,-386 756,-386 756,-422"/>
<text text-anchor="middle" x="706" y="-400.9" font-family="Times Roman,serif" font-size="14.00">Basic Block 23</text>
</g>
<!-- Basic Block 5&#45;&gt;Basic Block 23 -->
<g id="edge16" class="edge"><title>Basic Block 5&#45;&gt;Basic Block 23</title>
<path fill="none" stroke="black" d="M619.517,-402.049C627.916,-402.239 636.784,-402.439 645.513,-402.636"/>
<polygon fill="black" stroke="black" points="645.583,-406.138 655.659,-402.864 645.741,-399.14 645.583,-406.138"/>
</g>
<!-- Basic Block 19 -->
<g id="node19" class="node"><title>Basic Block 19</title>
<polygon fill="#ffffcc" stroke="black" points="892,-345 792,-345 792,-309 892,-309 892,-345"/>
<text text-anchor="middle" x="842" y="-323.9" font-family="Times Roman,serif" font-size="14.00">Basic Block 19</text>
</g>
<!-- Basic Block 6&#45;&gt;Basic Block 19 -->
<g id="edge20" class="edge"><title>Basic Block 6&#45;&gt;Basic Block 19</title>
<path fill="none" stroke="black" d="M752.803,-332.903C762.156,-332.284 772.103,-331.626 781.832,-330.982"/>
<polygon fill="black" stroke="black" points="782.113,-334.471 791.86,-330.318 781.65,-327.486 782.113,-334.471"/>
</g>
<!-- Basic Block 7 -->
<g id="node7" class="node"><title>Basic Block 7</title>
<polygon fill="#ffeda0" stroke="black" points="1024,-294 932,-294 932,-258 1024,-258 1024,-294"/>
<text text-anchor="middle" x="978" y="-272.9" font-family="Times Roman,serif" font-size="14.00">Basic Block 7</text>
</g>
<!-- Basic Block 8 -->
<g id="node8" class="node"><title>Basic Block 8</title>
<polygon fill="#ffffcc" stroke="black" points="1160,-294 1068,-294 1068,-258 1160,-258 1160,-294"/>
<text text-anchor="middle" x="1114" y="-272.9" font-family="Times Roman,serif" font-size="14.00">Basic Block 8</text>
</g>
<!-- Basic Block 7&#45;&gt;Basic Block 8 -->
<g id="edge24" class="edge"><title>Basic Block 7&#45;&gt;Basic Block 8</title>
<path fill="none" stroke="black" d="M1024.8,-276C1035.17,-276 1046.26,-276 1056.98,-276"/>
<polygon fill="black" stroke="black" points="1057.11,-279.5 1067.11,-276 1057.11,-272.5 1057.11,-279.5"/>
</g>
<!-- Basic Block 13 -->
<g id="node13" class="node"><title>Basic Block 13</title>
<polygon fill="#ffffcc" stroke="black" points="1164,-202 1064,-202 1064,-166 1164,-166 1164,-202"/>
<text text-anchor="middle" x="1114" y="-180.9" font-family="Times Roman,serif" font-size="14.00">Basic Block 13</text>
</g>
<!-- Basic Block 7&#45;&gt;Basic Block 13 -->
<g id="edge22" class="edge"><title>Basic Block 7&#45;&gt;Basic Block 13</title>
<path fill="none" stroke="black" d="M1004.87,-257.824C1026.01,-243.522 1055.65,-223.473 1078.7,-207.876"/>
<polygon fill="black" stroke="black" points="1080.86,-210.641 1087.19,-202.138 1076.94,-204.843 1080.86,-210.641"/>
</g>
<!-- Basic Block 9 -->
<g id="node9" class="node"><title>Basic Block 9</title>
<polygon fill="#ffffcc" stroke="black" points="1296,-202 1204,-202 1204,-166 1296,-166 1296,-202"/>
<text text-anchor="middle" x="1250" y="-180.9" font-family="Times Roman,serif" font-size="14.00">Basic Block 9</text>
</g>
<!-- Basic Block 8&#45;&gt;Basic Block 9 -->
<g id="edge28" class="edge"><title>Basic Block 8&#45;&gt;Basic Block 9</title>
<path fill="none" stroke="black" d="M1140.87,-257.824C1162.01,-243.522 1191.65,-223.473 1214.7,-207.876"/>
<polygon fill="black" stroke="black" points="1216.86,-210.641 1223.19,-202.138 1212.94,-204.843 1216.86,-210.641"/>
</g>
<!-- Basic Block 18 -->
<g id="node18" class="node"><title>Basic Block 18</title>
<polygon fill="#ffffcc" stroke="black" points="1572,-221 1472,-221 1472,-185 1572,-185 1572,-221"/>
<text text-anchor="middle" x="1522" y="-199.9" font-family="Times Roman,serif" font-size="14.00">Basic Block 18</text>
</g>
<!-- Basic Block 8&#45;&gt;Basic Block 18 -->
<g id="edge26" class="edge"><title>Basic Block 8&#45;&gt;Basic Block 18</title>
<path fill="none" stroke="black" d="M1160.75,-281.547C1224.7,-287.426 1342.24,-292.067 1436,-261 1457.4,-253.91 1478.43,-239.885 1494.34,-227.404"/>
<polygon fill="black" stroke="black" points="1496.6,-230.077 1502.17,-221.062 1492.2,-224.638 1496.6,-230.077"/>
</g>
<!-- Basic Block 10 -->
<g id="node10" class="node"><title>Basic Block 10</title>
<polygon fill="#ffffcc" stroke="black" points="1436,-252 1336,-252 1336,-216 1436,-216 1436,-252"/>
<text text-anchor="middle" x="1386" y="-230.9" font-family="Times Roman,serif" font-size="14.00">Basic Block 10</text>
</g>
<!-- Basic Block 9&#45;&gt;Basic Block 10 -->
<g id="edge32" class="edge"><title>Basic Block 9&#45;&gt;Basic Block 10</title>
<path fill="none" stroke="black" d="M1296.8,-201.207C1306.59,-204.804 1317.02,-208.639 1327.17,-212.372"/>
<polygon fill="black" stroke="black" points="1326.2,-215.743 1336.79,-215.909 1328.61,-209.173 1326.2,-215.743"/>
</g>
<!-- Basic Block 11 -->
<g id="node11" class="node"><title>Basic Block 11</title>
<polygon fill="#ffffcc" stroke="black" points="1436,-198 1336,-198 1336,-162 1436,-162 1436,-198"/>
<text text-anchor="middle" x="1386" y="-176.9" font-family="Times Roman,serif" font-size="14.00">Basic Block 11</text>
</g>
<!-- Basic Block 9&#45;&gt;Basic Block 11 -->
<g id="edge30" class="edge"><title>Basic Block 9&#45;&gt;Basic Block 11</title>
<path fill="none" stroke="black" d="M1296.8,-182.623C1306.16,-182.348 1316.1,-182.056 1325.83,-181.77"/>
<polygon fill="black" stroke="black" points="1325.97,-185.267 1335.86,-181.475 1325.76,-178.27 1325.97,-185.267"/>
</g>
<!-- Basic Block 10&#45;&gt;Basic Block 2 -->
<g id="edge34" class="edge"><title>Basic Block 10&#45;&gt;Basic Block 2</title>
<path fill="none" stroke="black" d="M1335.87,-232.822C1281.3,-231.642 1191.45,-230 1114,-230 440,-230 440,-230 440,-230 367.8,-230 286.609,-249.432 233.787,-264.763"/>
<polygon fill="black" stroke="black" points="232.538,-261.483 223.937,-267.67 234.519,-268.196 232.538,-261.483"/>
</g>
<!-- Basic Block 11&#45;&gt;Basic Block 1 -->
<g id="edge36" class="edge"><title>Basic Block 11&#45;&gt;Basic Block 1</title>
<path fill="none" stroke="black" d="M1335.83,-165.142C1324.15,-162.086 1311.7,-159.149 1300,-157 1218.27,-141.996 1197.1,-138 1114,-138 307,-138 307,-138 307,-138 237.176,-138 156.804,-138 104.125,-138"/>
<polygon fill="black" stroke="black" points="103.97,-134.5 93.9696,-138 103.97,-141.5 103.97,-134.5"/>
</g>
<!-- Basic Block 12 -->
<g id="node12" class="node"><title>Basic Block 12</title>
<polygon fill="#ffffcc" stroke="black" points="1436,-144 1336,-144 1336,-108 1436,-108 1436,-144"/>
<text text-anchor="middle" x="1386" y="-122.9" font-family="Times Roman,serif" font-size="14.00">Basic Block 12</text>
</g>
<!-- Basic Block 12&#45;&gt;Basic Block 18 -->
<g id="edge38" class="edge"><title>Basic Block 12&#45;&gt;Basic Block 18</title>
<path fill="none" stroke="black" d="M1419.7,-144.01C1425.16,-146.984 1430.75,-150.058 1436,-153 1451.35,-161.601 1468.09,-171.274 1482.7,-179.803"/>
<polygon fill="black" stroke="black" points="1481.09,-182.915 1491.49,-184.946 1484.62,-176.874 1481.09,-182.915"/>
</g>
<!-- Basic Block 16 -->
<g id="node16" class="node"><title>Basic Block 16</title>
<polygon fill="#ffffcc" stroke="black" points="1300,-90 1200,-90 1200,-54 1300,-54 1300,-90"/>
<text text-anchor="middle" x="1250" y="-68.9" font-family="Times Roman,serif" font-size="14.00">Basic Block 16</text>
</g>
<!-- Basic Block 13&#45;&gt;Basic Block 16 -->
<g id="edge40" class="edge"><title>Basic Block 13&#45;&gt;Basic Block 16</title>
<path fill="none" stroke="black" d="M1136.15,-165.756C1158.97,-146.963 1194.69,-117.551 1220.02,-96.6859"/>
<polygon fill="black" stroke="black" points="1222.36,-99.2951 1227.86,-90.2362 1217.91,-93.8915 1222.36,-99.2951"/>
</g>
<!-- Basic Block 14 -->
<g id="node14" class="node"><title>Basic Block 14</title>
<polygon fill="#ffffcc" stroke="black" points="1436,-36 1336,-36 1336,-1.77636e-14 1436,-3.55271e-15 1436,-36"/>
<text text-anchor="middle" x="1386" y="-14.9" font-family="Times Roman,serif" font-size="14.00">Basic Block 14</text>
</g>
<!-- Basic Block 14&#45;&gt;Basic Block 1 -->
<g id="edge42" class="edge"><title>Basic Block 14&#45;&gt;Basic Block 1</title>
<path fill="none" stroke="black" d="M1335.87,-19.1785C1281.3,-20.3584 1191.45,-22 1114,-22 307,-22 307,-22 307,-22 217.659,-22 124.864,-79.8275 78.0299,-113.824"/>
<polygon fill="black" stroke="black" points="75.7986,-111.121 69.831,-119.875 79.9554,-116.753 75.7986,-111.121"/>
</g>
<!-- Basic Block 15 -->
<g id="node15" class="node"><title>Basic Block 15</title>
<polygon fill="#ffffcc" stroke="black" points="1164,-90 1064,-90 1064,-54 1164,-54 1164,-90"/>
<text text-anchor="middle" x="1114" y="-68.9" font-family="Times Roman,serif" font-size="14.00">Basic Block 15</text>
</g>
<!-- Basic Block 15&#45;&gt;Basic Block 16 -->
<g id="edge44" class="edge"><title>Basic Block 15&#45;&gt;Basic Block 16</title>
<path fill="none" stroke="black" d="M1164.25,-72C1172.54,-72 1181.2,-72 1189.7,-72"/>
<polygon fill="black" stroke="black" points="1189.95,-75.5001 1199.95,-72 1189.95,-68.5001 1189.95,-75.5001"/>
</g>
<!-- Basic Block 16&#45;&gt;Basic Block 14 -->
<g id="edge46" class="edge"><title>Basic Block 16&#45;&gt;Basic Block 14</title>
<path fill="none" stroke="black" d="M1295.66,-53.8686C1306.88,-49.4162 1319,-44.6019 1330.62,-39.9898"/>
<polygon fill="black" stroke="black" points="1332.22,-43.1189 1340.22,-36.1755 1329.64,-36.6129 1332.22,-43.1189"/>
</g>
<!-- Basic Block 17 -->
<g id="node17" class="node"><title>Basic Block 17</title>
<polygon fill="#ffffcc" stroke="black" points="1436,-90 1336,-90 1336,-54 1436,-54 1436,-90"/>
<text text-anchor="middle" x="1386" y="-68.9" font-family="Times Roman,serif" font-size="14.00">Basic Block 17</text>
</g>
<!-- Basic Block 16&#45;&gt;Basic Block 17 -->
<g id="edge48" class="edge"><title>Basic Block 16&#45;&gt;Basic Block 17</title>
<path fill="none" stroke="black" d="M1300.25,-72C1308.54,-72 1317.2,-72 1325.7,-72"/>
<polygon fill="black" stroke="black" points="1325.95,-75.5001 1335.95,-72 1325.95,-68.5001 1325.95,-75.5001"/>
</g>
<!-- Basic Block 17&#45;&gt;Basic Block 18 -->
<g id="edge50" class="edge"><title>Basic Block 17&#45;&gt;Basic Block 18</title>
<path fill="none" stroke="black" d="M1423.36,-90.0699C1427.79,-92.8148 1432.11,-95.8071 1436,-99 1463.33,-121.445 1488.34,-153.583 1504.25,-176.178"/>
<polygon fill="black" stroke="black" points="1501.53,-178.392 1510.09,-184.626 1507.28,-174.41 1501.53,-178.392"/>
</g>
<!-- Basic Block 18&#45;&gt;Basic Block 19 -->
<g id="edge52" class="edge"><title>Basic Block 18&#45;&gt;Basic Block 19</title>
<path fill="none" stroke="black" d="M1508.64,-221.021C1493.32,-240.293 1466.38,-270.208 1436,-286 1361.29,-324.839 1334.2,-322 1250,-322 1114,-322 1114,-322 1114,-322 1041.23,-322 957.533,-323.811 902.417,-325.253"/>
<polygon fill="black" stroke="black" points="902.03,-321.762 892.127,-325.527 902.216,-328.76 902.03,-321.762"/>
</g>
<!-- Basic Block 19&#45;&gt;Basic Block 7 -->
<g id="edge54" class="edge"><title>Basic Block 19&#45;&gt;Basic Block 7</title>
<path fill="none" stroke="black" d="M890.331,-308.876C900.502,-305.062 911.316,-301.007 921.749,-297.094"/>
<polygon fill="black" stroke="black" points="923.059,-300.341 931.194,-293.552 920.601,-293.787 923.059,-300.341"/>
</g>
<!-- Basic Block 20 -->
<g id="node20" class="node"><title>Basic Block 20</title>
<polygon fill="#ffffcc" stroke="black" points="1028,-386 928,-386 928,-350 1028,-350 1028,-386"/>
<text text-anchor="middle" x="978" y="-364.9" font-family="Times Roman,serif" font-size="14.00">Basic Block 20</text>
</g>
<!-- Basic Block 19&#45;&gt;Basic Block 20 -->
<g id="edge56" class="edge"><title>Basic Block 19&#45;&gt;Basic Block 20</title>
<path fill="none" stroke="black" d="M892.255,-342.15C900.721,-344.703 909.582,-347.374 918.261,-349.99"/>
<polygon fill="black" stroke="black" points="917.367,-353.376 927.952,-352.912 919.387,-346.674 917.367,-353.376"/>
</g>
<!-- Basic Block 24 -->
<g id="node24" class="node"><title>Basic Block 24</title>
<polygon fill="#ffffcc" stroke="black" points="1164,-451 1064,-451 1064,-415 1164,-415 1164,-451"/>
<text text-anchor="middle" x="1114" y="-429.9" font-family="Times Roman,serif" font-size="14.00">Basic Block 24</text>
</g>
<!-- Basic Block 20&#45;&gt;Basic Block 24 -->
<g id="edge58" class="edge"><title>Basic Block 20&#45;&gt;Basic Block 24</title>
<path fill="none" stroke="black" d="M1015.88,-386.106C1031.8,-393.713 1050.47,-402.638 1067.23,-410.649"/>
<polygon fill="black" stroke="black" points="1065.79,-413.837 1076.32,-414.991 1068.81,-407.521 1065.79,-413.837"/>
</g>
<!-- Basic Block 21&#45;&gt;Basic Block 24 -->
<g id="edge60" class="edge"><title>Basic Block 21&#45;&gt;Basic Block 24</title>
<path fill="none" stroke="black" d="M490.451,-487.541C543.917,-491.956 630.837,-498 706,-498 706,-498 706,-498 842,-498 918.489,-498 1003.85,-473.384 1058.19,-454.449"/>
<polygon fill="black" stroke="black" points="1059.37,-457.742 1067.63,-451.106 1057.04,-451.143 1059.37,-457.742"/>
</g>
<!-- Basic Block 22&#45;&gt;Basic Block 24 -->
<g id="edge62" class="edge"><title>Basic Block 22&#45;&gt;Basic Block 24</title>
<path fill="none" stroke="black" d="M892.206,-448.493C937.778,-445.31 1005.07,-440.609 1053.58,-437.221"/>
<polygon fill="black" stroke="black" points="1053.89,-440.707 1063.63,-436.519 1053.41,-433.724 1053.89,-440.707"/>
</g>
<!-- Basic Block 23&#45;&gt;Basic Block 24 -->
<g id="edge64" class="edge"><title>Basic Block 23&#45;&gt;Basic Block 24</title>
<path fill="none" stroke="black" d="M756.029,-407.556C831.225,-412.901 973.152,-422.989 1053.87,-428.726"/>
<polygon fill="black" stroke="black" points="1053.66,-432.22 1063.88,-429.438 1054.16,-425.237 1053.66,-432.22"/>
</g>
<!-- Addr 1 -->
<g id="node25" class="node"><title>Addr 1</title>
<polygon fill="lightgrey" stroke="black" points="1277,-451 1223,-451 1223,-415 1277,-415 1277,-451"/>
<text text-anchor="middle" x="1250" y="-429.9" font-family="Times Roman,serif" font-size="14.00">Addr 1</text>
</g>
<!-- Basic Block 24&#45;&gt;Addr 1 -->
<g id="edge66" class="edge"><title>Basic Block 24&#45;&gt;Addr 1</title>
<path fill="none" stroke="black" d="M1164.25,-433C1180.09,-433 1197.3,-433 1212.12,-433"/>
<polygon fill="black" stroke="black" points="1212.43,-436.5 1222.43,-433 1212.43,-429.5 1212.43,-436.5"/>
</g>
</g>
</svg>
