<?xml version="1.0" encoding="UTF-8" standalone="no"?>
<!DOCTYPE svg PUBLIC "-//W3C//DTD SVG 1.1//EN"
 "http://www.w3.org/Graphics/SVG/1.1/DTD/svg11.dtd">
<!-- Generated by graphviz version 2.26.0 (20091210.2329)
 -->
<!-- Title: verify_rtx_sharing Pages: 1 -->
<svg width="4228pt" height="546pt"
 viewBox="0.00 0.00 4228.00 546.00" xmlns="http://www.w3.org/2000/svg" xmlns:xlink="http://www.w3.org/1999/xlink">
<g id="graph1" class="graph" transform="scale(1 1) rotate(0) translate(4 542)">
<title>verify_rtx_sharing</title>
<polygon fill="white" stroke="white" points="-4,5 -4,-542 4225,-542 4225,5 -4,5"/>
<!-- Basic Block 1 -->
<g id="node1" class="node"><title>Basic Block 1</title>
<polygon fill="#fd8d3c" stroke="black" points="93,-276 1,-276 1,-240 93,-240 93,-276"/>
<text text-anchor="middle" x="47" y="-254.9" font-family="Times Roman,serif" font-size="14.00">Basic Block 1</text>
</g>
<!-- Basic Block 2 -->
<g id="node2" class="node"><title>Basic Block 2</title>
<polygon fill="#800026" stroke="black" points="223,-372 131,-372 131,-336 223,-336 223,-372"/>
<text text-anchor="middle" x="177" y="-350.9" font-family="Times Roman,serif" font-size="14.00">Basic Block 2</text>
</g>
<!-- Basic Block 1&#45;&gt;Basic Block 2 -->
<g id="edge4" class="edge"><title>Basic Block 1&#45;&gt;Basic Block 2</title>
<path fill="none" stroke="black" d="M71.452,-276.057C91.9306,-291.18 121.35,-312.904 143.93,-329.579"/>
<polygon fill="black" stroke="black" points="142.092,-332.573 152.216,-335.698 146.25,-326.942 142.092,-332.573"/>
</g>
<!-- Basic Block 46 -->
<g id="node46" class="node"><title>Basic Block 46</title>
<polygon fill="#ffffcc" stroke="black" points="1578,-230 1478,-230 1478,-194 1578,-194 1578,-230"/>
<text text-anchor="middle" x="1528" y="-208.9" font-family="Times Roman,serif" font-size="14.00">Basic Block 46</text>
</g>
<!-- Basic Block 1&#45;&gt;Basic Block 46 -->
<g id="edge2" class="edge"><title>Basic Block 1&#45;&gt;Basic Block 46</title>
<path fill="none" stroke="black" d="M93.5578,-258C146.123,-258 234.205,-258 310,-258 310,-258 310,-258 848,-258 931.097,-258 951.968,-252.258 1034,-239 1050.18,-236.385 1053.75,-233.126 1070,-231 1211.75,-212.458 1380.08,-210.583 1467.89,-211.114"/>
<polygon fill="black" stroke="black" points="1467.91,-214.614 1477.94,-211.187 1467.97,-207.614 1467.91,-214.614"/>
</g>
<!-- Basic Block 3 -->
<g id="node3" class="node"><title>Basic Block 3</title>
<polygon fill="#ffeda0" stroke="black" points="356,-372 264,-372 264,-336 356,-336 356,-372"/>
<text text-anchor="middle" x="310" y="-350.9" font-family="Times Roman,serif" font-size="14.00">Basic Block 3</text>
</g>
<!-- Basic Block 2&#45;&gt;Basic Block 3 -->
<g id="edge8" class="edge"><title>Basic Block 2&#45;&gt;Basic Block 3</title>
<path fill="none" stroke="black" d="M223.517,-354C233.08,-354 243.25,-354 253.13,-354"/>
<polygon fill="black" stroke="black" points="253.285,-357.5 263.285,-354 253.284,-350.5 253.285,-357.5"/>
</g>
<!-- Basic Block 16 -->
<g id="node16" class="node"><title>Basic Block 16</title>
<polygon fill="#ffffcc" stroke="black" points="360,-491 260,-491 260,-455 360,-455 360,-491"/>
<text text-anchor="middle" x="310" y="-469.9" font-family="Times Roman,serif" font-size="14.00">Basic Block 16</text>
</g>
<!-- Basic Block 2&#45;&gt;Basic Block 16 -->
<g id="edge6" class="edge"><title>Basic Block 2&#45;&gt;Basic Block 16</title>
<path fill="none" stroke="black" d="M197.2,-372.074C219.854,-392.343 256.741,-425.347 282.129,-448.062"/>
<polygon fill="black" stroke="black" points="279.824,-450.697 289.61,-454.756 284.491,-445.48 279.824,-450.697"/>
</g>
<!-- Addr 1 -->
<g id="node50" class="node"><title>Addr 1</title>
<polygon fill="lightgrey" stroke="black" points="473,-372 419,-372 419,-336 473,-336 473,-372"/>
<text text-anchor="middle" x="446" y="-350.9" font-family="Times Roman,serif" font-size="14.00">Addr 1</text>
</g>
<!-- Basic Block 3&#45;&gt;Addr 1 -->
<g id="edge10" class="edge"><title>Basic Block 3&#45;&gt;Addr 1</title>
<path fill="none" stroke="black" d="M356.803,-354C373.569,-354 392.245,-354 408.158,-354"/>
<polygon fill="black" stroke="black" points="408.168,-357.5 418.168,-354 408.168,-350.5 408.168,-357.5"/>
</g>
<!-- Basic Block 4 -->
<g id="node4" class="node"><title>Basic Block 4</title>
<polygon fill="#ffffcc" stroke="black" points="625,-372 533,-372 533,-336 625,-336 625,-372"/>
<text text-anchor="middle" x="579" y="-350.9" font-family="Times Roman,serif" font-size="14.00">Basic Block 4</text>
</g>
<!-- Basic Block 5 -->
<g id="node5" class="node"><title>Basic Block 5</title>
<polygon fill="#ffffcc" stroke="black" points="758,-322 666,-322 666,-286 758,-286 758,-322"/>
<text text-anchor="middle" x="712" y="-300.9" font-family="Times Roman,serif" font-size="14.00">Basic Block 5</text>
</g>
<!-- Basic Block 4&#45;&gt;Basic Block 5 -->
<g id="edge16" class="edge"><title>Basic Block 4&#45;&gt;Basic Block 5</title>
<path fill="none" stroke="black" d="M625.517,-336.512C635.281,-332.842 645.678,-328.933 655.754,-325.145"/>
<polygon fill="black" stroke="black" points="657.156,-328.357 665.285,-321.562 654.692,-321.805 657.156,-328.357"/>
</g>
<!-- Basic Block 17 -->
<g id="node17" class="node"><title>Basic Block 17</title>
<polygon fill="#ffffcc" stroke="black" points="1170,-406 1070,-406 1070,-370 1170,-370 1170,-406"/>
<text text-anchor="middle" x="1120" y="-384.9" font-family="Times Roman,serif" font-size="14.00">Basic Block 17</text>
</g>
<!-- Basic Block 4&#45;&gt;Basic Block 17 -->
<g id="edge14" class="edge"><title>Basic Block 4&#45;&gt;Basic Block 17</title>
<path fill="none" stroke="black" d="M618.719,-372.059C632.175,-377.3 647.477,-382.327 662,-385 802.669,-410.888 971.777,-401.877 1059.91,-394.229"/>
<polygon fill="black" stroke="black" points="1060.34,-397.704 1069.99,-393.329 1059.72,-390.732 1060.34,-397.704"/>
</g>
<!-- Addr 2 -->
<g id="node51" class="node"><title>Addr 2</title>
<polygon fill="lightgrey" stroke="black" points="875,-322 821,-322 821,-286 875,-286 875,-322"/>
<text text-anchor="middle" x="848" y="-300.9" font-family="Times Roman,serif" font-size="14.00">Addr 2</text>
</g>
<!-- Basic Block 5&#45;&gt;Addr 2 -->
<g id="edge18" class="edge"><title>Basic Block 5&#45;&gt;Addr 2</title>
<path fill="none" stroke="black" d="M758.803,-304C775.569,-304 794.245,-304 810.158,-304"/>
<polygon fill="black" stroke="black" points="810.168,-307.5 820.168,-304 810.168,-300.5 810.168,-307.5"/>
</g>
<!-- Basic Block 6 -->
<g id="node6" class="node"><title>Basic Block 6</title>
<polygon fill="#ffffcc" stroke="black" points="1030,-322 938,-322 938,-286 1030,-286 1030,-322"/>
<text text-anchor="middle" x="984" y="-300.9" font-family="Times Roman,serif" font-size="14.00">Basic Block 6</text>
</g>
<!-- Basic Block 7 -->
<g id="node7" class="node"><title>Basic Block 7</title>
<polygon fill="#ffffcc" stroke="black" points="1302,-295 1210,-295 1210,-259 1302,-259 1302,-295"/>
<text text-anchor="middle" x="1256" y="-273.9" font-family="Times Roman,serif" font-size="14.00">Basic Block 7</text>
</g>
<!-- Basic Block 6&#45;&gt;Basic Block 7 -->
<g id="edge24" class="edge"><title>Basic Block 6&#45;&gt;Basic Block 7</title>
<path fill="none" stroke="black" d="M1030.76,-299.359C1077.51,-294.718 1149.45,-287.576 1199.4,-282.618"/>
<polygon fill="black" stroke="black" points="1199.79,-286.097 1209.4,-281.626 1199.1,-279.131 1199.79,-286.097"/>
</g>
<!-- Basic Block 6&#45;&gt;Basic Block 17 -->
<g id="edge22" class="edge"><title>Basic Block 6&#45;&gt;Basic Block 17</title>
<path fill="none" stroke="black" d="M1018.39,-322.04C1023.66,-324.958 1029.01,-328.006 1034,-331 1051.37,-341.416 1070.17,-353.75 1085.75,-364.276"/>
<polygon fill="black" stroke="black" points="1083.81,-367.187 1094.05,-369.914 1087.74,-361.398 1083.81,-367.187"/>
</g>
<!-- Basic Block 49 -->
<g id="node49" class="node"><title>Basic Block 49</title>
<polygon fill="#ffffcc" stroke="black" points="3404,-255 3304,-255 3304,-219 3404,-219 3404,-255"/>
<text text-anchor="middle" x="3354" y="-233.9" font-family="Times Roman,serif" font-size="14.00">Basic Block 49</text>
</g>
<!-- Basic Block 7&#45;&gt;Basic Block 49 -->
<g id="edge26" class="edge"><title>Basic Block 7&#45;&gt;Basic Block 49</title>
<path fill="none" stroke="black" d="M1302.62,-271.758C1356.73,-266.134 1448.71,-258 1528,-258 1528,-258 1528,-258 3082,-258 3154.97,-258 3238.63,-250.394 3293.68,-244.336"/>
<polygon fill="black" stroke="black" points="3294.41,-247.777 3303.96,-243.187 3293.63,-240.82 3294.41,-247.777"/>
</g>
<!-- Basic Block 8 -->
<g id="node8" class="node"><title>Basic Block 8</title>
<polygon fill="#ffffcc" stroke="black" points="758,-376 666,-376 666,-340 758,-340 758,-376"/>
<text text-anchor="middle" x="712" y="-354.9" font-family="Times Roman,serif" font-size="14.00">Basic Block 8</text>
</g>
<!-- Addr 3 -->
<g id="node52" class="node"><title>Addr 3</title>
<polygon fill="lightgrey" stroke="black" points="875,-376 821,-376 821,-340 875,-340 875,-376"/>
<text text-anchor="middle" x="848" y="-354.9" font-family="Times Roman,serif" font-size="14.00">Addr 3</text>
</g>
<!-- Basic Block 8&#45;&gt;Addr 3 -->
<g id="edge28" class="edge"><title>Basic Block 8&#45;&gt;Addr 3</title>
<path fill="none" stroke="black" d="M758.803,-358C775.569,-358 794.245,-358 810.158,-358"/>
<polygon fill="black" stroke="black" points="810.168,-361.5 820.168,-358 810.168,-354.5 810.168,-361.5"/>
</g>
<!-- Basic Block 9 -->
<g id="node9" class="node"><title>Basic Block 9</title>
<polygon fill="#ffffcc" stroke="black" points="1030,-376 938,-376 938,-340 1030,-340 1030,-376"/>
<text text-anchor="middle" x="984" y="-354.9" font-family="Times Roman,serif" font-size="14.00">Basic Block 9</text>
</g>
<!-- Basic Block 10 -->
<g id="node10" class="node"><title>Basic Block 10</title>
<polygon fill="#ffffcc" stroke="black" points="1442,-341 1342,-341 1342,-305 1442,-305 1442,-341"/>
<text text-anchor="middle" x="1392" y="-319.9" font-family="Times Roman,serif" font-size="14.00">Basic Block 10</text>
</g>
<!-- Basic Block 9&#45;&gt;Basic Block 10 -->
<g id="edge34" class="edge"><title>Basic Block 9&#45;&gt;Basic Block 10</title>
<path fill="none" stroke="black" d="M1030.8,-353.985C1105.07,-347.614 1249.87,-335.192 1331.78,-328.166"/>
<polygon fill="black" stroke="black" points="1332.27,-331.637 1341.93,-327.295 1331.67,-324.663 1332.27,-331.637"/>
</g>
<!-- Basic Block 18 -->
<g id="node18" class="node"><title>Basic Block 18</title>
<polygon fill="#ffffcc" stroke="black" points="1170,-460 1070,-460 1070,-424 1170,-424 1170,-460"/>
<text text-anchor="middle" x="1120" y="-438.9" font-family="Times Roman,serif" font-size="14.00">Basic Block 18</text>
</g>
<!-- Basic Block 9&#45;&gt;Basic Block 18 -->
<g id="edge32" class="edge"><title>Basic Block 9&#45;&gt;Basic Block 18</title>
<path fill="none" stroke="black" d="M1009.95,-376.086C1026.82,-387.616 1049.42,-402.655 1070,-415 1072.18,-416.31 1074.44,-417.63 1076.72,-418.945"/>
<polygon fill="black" stroke="black" points="1075.18,-422.096 1085.61,-423.96 1078.62,-415.999 1075.18,-422.096"/>
</g>
<!-- Basic Block 10&#45;&gt;Basic Block 49 -->
<g id="edge36" class="edge"><title>Basic Block 10&#45;&gt;Basic Block 49</title>
<path fill="none" stroke="black" d="M1442.23,-315.009C1496.71,-307.047 1586.29,-296 1664,-296 1664,-296 1664,-296 3082,-296 3165.35,-296 3187.39,-293.22 3268,-272 3280.67,-268.665 3293.96,-263.92 3306.21,-258.996"/>
<polygon fill="black" stroke="black" points="3307.87,-262.095 3315.77,-255.032 3305.19,-255.628 3307.87,-262.095"/>
</g>
<!-- Basic Block 11 -->
<g id="node11" class="node"><title>Basic Block 11</title>
<polygon fill="#ffffcc" stroke="black" points="496,-173 396,-173 396,-137 496,-137 496,-173"/>
<text text-anchor="middle" x="446" y="-151.9" font-family="Times Roman,serif" font-size="14.00">Basic Block 11</text>
</g>
<!-- Addr 4 -->
<g id="node53" class="node"><title>Addr 4</title>
<polygon fill="lightgrey" stroke="black" points="606,-173 552,-173 552,-137 606,-137 606,-173"/>
<text text-anchor="middle" x="579" y="-151.9" font-family="Times Roman,serif" font-size="14.00">Addr 4</text>
</g>
<!-- Basic Block 11&#45;&gt;Addr 4 -->
<g id="edge38" class="edge"><title>Basic Block 11&#45;&gt;Addr 4</title>
<path fill="none" stroke="black" d="M496.282,-155C511.171,-155 527.215,-155 541.175,-155"/>
<polygon fill="black" stroke="black" points="541.389,-158.5 551.389,-155 541.389,-151.5 541.389,-158.5"/>
</g>
<!-- Basic Block 12 -->
<g id="node12" class="node"><title>Basic Block 12</title>
<polygon fill="#ffffcc" stroke="black" points="762,-173 662,-173 662,-137 762,-137 762,-173"/>
<text text-anchor="middle" x="712" y="-151.9" font-family="Times Roman,serif" font-size="14.00">Basic Block 12</text>
</g>
<!-- Basic Block 13 -->
<g id="node13" class="node"><title>Basic Block 13</title>
<polygon fill="#ffffcc" stroke="black" points="898,-192 798,-192 798,-156 898,-156 898,-192"/>
<text text-anchor="middle" x="848" y="-170.9" font-family="Times Roman,serif" font-size="14.00">Basic Block 13</text>
</g>
<!-- Basic Block 12&#45;&gt;Basic Block 13 -->
<g id="edge44" class="edge"><title>Basic Block 12&#45;&gt;Basic Block 13</title>
<path fill="none" stroke="black" d="M762.255,-162.021C770.63,-163.191 779.392,-164.415 787.981,-165.615"/>
<polygon fill="black" stroke="black" points="787.563,-169.091 797.952,-167.008 788.532,-162.158 787.563,-169.091"/>
</g>
<!-- Basic Block 48 -->
<g id="node48" class="node"><title>Basic Block 48</title>
<polygon fill="#ffffcc" stroke="black" points="1170,-184 1070,-184 1070,-148 1170,-148 1170,-184"/>
<text text-anchor="middle" x="1120" y="-162.9" font-family="Times Roman,serif" font-size="14.00">Basic Block 48</text>
</g>
<!-- Basic Block 12&#45;&gt;Basic Block 48 -->
<g id="edge42" class="edge"><title>Basic Block 12&#45;&gt;Basic Block 48</title>
<path fill="none" stroke="black" d="M762.422,-149.521C774.09,-148.472 786.466,-147.535 798,-147 889.33,-142.761 995.136,-151.657 1059.81,-158.658"/>
<polygon fill="black" stroke="black" points="1059.5,-162.145 1069.82,-159.763 1060.27,-155.188 1059.5,-162.145"/>
</g>
<!-- Basic Block 14 -->
<g id="node14" class="node"><title>Basic Block 14</title>
<polygon fill="#ffffcc" stroke="black" points="1034,-230 934,-230 934,-194 1034,-194 1034,-230"/>
<text text-anchor="middle" x="984" y="-208.9" font-family="Times Roman,serif" font-size="14.00">Basic Block 14</text>
</g>
<!-- Basic Block 13&#45;&gt;Basic Block 14 -->
<g id="edge48" class="edge"><title>Basic Block 13&#45;&gt;Basic Block 14</title>
<path fill="none" stroke="black" d="M898.255,-188.042C906.721,-190.407 915.582,-192.883 924.261,-195.308"/>
<polygon fill="black" stroke="black" points="923.379,-198.696 933.952,-198.016 925.262,-191.954 923.379,-198.696"/>
</g>
<!-- Basic Block 13&#45;&gt;Basic Block 48 -->
<g id="edge46" class="edge"><title>Basic Block 13&#45;&gt;Basic Block 48</title>
<path fill="none" stroke="black" d="M898.206,-172.523C943.778,-171.183 1011.07,-169.204 1059.58,-167.777"/>
<polygon fill="black" stroke="black" points="1059.73,-171.274 1069.63,-167.482 1059.53,-164.277 1059.73,-171.274"/>
</g>
<!-- Basic Block 15 -->
<g id="node15" class="node"><title>Basic Block 15</title>
<polygon fill="#ffffcc" stroke="black" points="1170,-276 1070,-276 1070,-240 1170,-240 1170,-276"/>
<text text-anchor="middle" x="1120" y="-254.9" font-family="Times Roman,serif" font-size="14.00">Basic Block 15</text>
</g>
<!-- Basic Block 14&#45;&gt;Basic Block 15 -->
<g id="edge52" class="edge"><title>Basic Block 14&#45;&gt;Basic Block 15</title>
<path fill="none" stroke="black" d="M1034.25,-228.998C1042.72,-231.862 1051.58,-234.859 1060.26,-237.794"/>
<polygon fill="black" stroke="black" points="1059.36,-241.183 1069.95,-241.072 1061.6,-234.552 1059.36,-241.183"/>
</g>
<!-- Basic Block 14&#45;&gt;Basic Block 48 -->
<g id="edge50" class="edge"><title>Basic Block 14&#45;&gt;Basic Block 48</title>
<path fill="none" stroke="black" d="M1034.25,-195.002C1042.72,-192.138 1051.58,-189.141 1060.26,-186.206"/>
<polygon fill="black" stroke="black" points="1061.6,-189.448 1069.95,-182.928 1059.36,-182.817 1061.6,-189.448"/>
</g>
<!-- Basic Block 19 -->
<g id="node19" class="node"><title>Basic Block 19</title>
<polygon fill="#ffffcc" stroke="black" points="1306,-451 1206,-451 1206,-415 1306,-415 1306,-451"/>
<text text-anchor="middle" x="1256" y="-429.9" font-family="Times Roman,serif" font-size="14.00">Basic Block 19</text>
</g>
<!-- Basic Block 15&#45;&gt;Basic Block 19 -->
<g id="edge54" class="edge"><title>Basic Block 15&#45;&gt;Basic Block 19</title>
<path fill="none" stroke="black" d="M1134.04,-276.069C1158.17,-307.114 1207.59,-370.705 1235.54,-406.679"/>
<polygon fill="black" stroke="black" points="1232.93,-409.019 1241.83,-414.767 1238.46,-404.723 1232.93,-409.019"/>
</g>
<!-- Basic Block 16&#45;&gt;Basic Block 19 -->
<g id="edge56" class="edge"><title>Basic Block 16&#45;&gt;Basic Block 19</title>
<path fill="none" stroke="black" d="M360.027,-477.46C414.009,-481.881 502.525,-488 579,-488 579,-488 579,-488 984,-488 1067.1,-488 1089.47,-489.488 1170,-469 1183.37,-465.597 1197.38,-460.468 1210.11,-455.139"/>
<polygon fill="black" stroke="black" points="1211.78,-458.231 1219.57,-451.05 1209,-451.806 1211.78,-458.231"/>
</g>
<!-- Basic Block 17&#45;&gt;Basic Block 19 -->
<g id="edge58" class="edge"><title>Basic Block 17&#45;&gt;Basic Block 19</title>
<path fill="none" stroke="black" d="M1170.25,-404.628C1178.72,-407.43 1187.58,-410.362 1196.26,-413.233"/>
<polygon fill="black" stroke="black" points="1195.36,-416.621 1205.95,-416.44 1197.56,-409.976 1195.36,-416.621"/>
</g>
<!-- Basic Block 18&#45;&gt;Basic Block 19 -->
<g id="edge60" class="edge"><title>Basic Block 18&#45;&gt;Basic Block 19</title>
<path fill="none" stroke="black" d="M1170.25,-438.674C1178.54,-438.126 1187.2,-437.553 1195.7,-436.99"/>
<polygon fill="black" stroke="black" points="1196.2,-440.465 1205.95,-436.312 1195.74,-433.48 1196.2,-440.465"/>
</g>
<!-- Basic Block 20 -->
<g id="node20" class="node"><title>Basic Block 20</title>
<polygon fill="#ffffcc" stroke="black" points="1442,-476 1342,-476 1342,-440 1442,-440 1442,-476"/>
<text text-anchor="middle" x="1392" y="-454.9" font-family="Times Roman,serif" font-size="14.00">Basic Block 20</text>
</g>
<!-- Basic Block 19&#45;&gt;Basic Block 20 -->
<g id="edge64" class="edge"><title>Basic Block 19&#45;&gt;Basic Block 20</title>
<path fill="none" stroke="black" d="M1306.25,-442.238C1314.63,-443.778 1323.39,-445.388 1331.98,-446.967"/>
<polygon fill="black" stroke="black" points="1331.48,-450.434 1341.95,-448.8 1332.75,-443.55 1331.48,-450.434"/>
</g>
<!-- Basic Block 25 -->
<g id="node25" class="node"><title>Basic Block 25</title>
<polygon fill="#ffffcc" stroke="black" points="2626,-458 2526,-458 2526,-422 2626,-422 2626,-458"/>
<text text-anchor="middle" x="2576" y="-436.9" font-family="Times Roman,serif" font-size="14.00">Basic Block 25</text>
</g>
<!-- Basic Block 19&#45;&gt;Basic Block 25 -->
<g id="edge62" class="edge"><title>Basic Block 19&#45;&gt;Basic Block 25</title>
<path fill="none" stroke="black" d="M1306.04,-426.813C1360.54,-420.618 1450.33,-412 1528,-412 1528,-412 1528,-412 2348,-412 2405.28,-412 2470.06,-420.815 2515.89,-428.553"/>
<polygon fill="black" stroke="black" points="2515.51,-432.037 2525.95,-430.286 2516.69,-425.139 2515.51,-432.037"/>
</g>
<!-- Addr 5 -->
<g id="node54" class="node"><title>Addr 5</title>
<polygon fill="lightgrey" stroke="black" points="1555,-476 1501,-476 1501,-440 1555,-440 1555,-476"/>
<text text-anchor="middle" x="1528" y="-454.9" font-family="Times Roman,serif" font-size="14.00">Addr 5</text>
</g>
<!-- Basic Block 20&#45;&gt;Addr 5 -->
<g id="edge66" class="edge"><title>Basic Block 20&#45;&gt;Addr 5</title>
<path fill="none" stroke="black" d="M1442.25,-458C1458.09,-458 1475.3,-458 1490.12,-458"/>
<polygon fill="black" stroke="black" points="1490.43,-461.5 1500.43,-458 1490.43,-454.5 1490.43,-461.5"/>
</g>
<!-- Basic Block 21 -->
<g id="node21" class="node"><title>Basic Block 21</title>
<polygon fill="#ffffcc" stroke="black" points="1714,-476 1614,-476 1614,-440 1714,-440 1714,-476"/>
<text text-anchor="middle" x="1664" y="-454.9" font-family="Times Roman,serif" font-size="14.00">Basic Block 21</text>
</g>
<!-- Addr 6 -->
<g id="node55" class="node"><title>Addr 6</title>
<polygon fill="lightgrey" stroke="black" points="1805,-476 1751,-476 1751,-440 1805,-440 1805,-476"/>
<text text-anchor="middle" x="1778" y="-454.9" font-family="Times Roman,serif" font-size="14.00">Addr 6</text>
</g>
<!-- Basic Block 21&#45;&gt;Addr 6 -->
<g id="edge70" class="edge"><title>Basic Block 21&#45;&gt;Addr 6</title>
<path fill="none" stroke="black" d="M1714,-458C1722.75,-458 1731.72,-458 1740.08,-458"/>
<polygon fill="black" stroke="black" points="1740.27,-461.5 1750.27,-458 1740.27,-454.5 1740.27,-461.5"/>
</g>
<!-- Basic Block 22 -->
<g id="node22" class="node"><title>Basic Block 22</title>
<polygon fill="#ffffcc" stroke="black" points="1942,-476 1842,-476 1842,-440 1942,-440 1942,-476"/>
<text text-anchor="middle" x="1892" y="-454.9" font-family="Times Roman,serif" font-size="14.00">Basic Block 22</text>
</g>
<!-- Addr 7 -->
<g id="node56" class="node"><title>Addr 7</title>
<polygon fill="lightgrey" stroke="black" points="2033,-476 1979,-476 1979,-440 2033,-440 2033,-476"/>
<text text-anchor="middle" x="2006" y="-454.9" font-family="Times Roman,serif" font-size="14.00">Addr 7</text>
</g>
<!-- Basic Block 22&#45;&gt;Addr 7 -->
<g id="edge74" class="edge"><title>Basic Block 22&#45;&gt;Addr 7</title>
<path fill="none" stroke="black" d="M1942,-458C1950.75,-458 1959.72,-458 1968.08,-458"/>
<polygon fill="black" stroke="black" points="1968.27,-461.5 1978.27,-458 1968.27,-454.5 1968.27,-461.5"/>
</g>
<!-- Basic Block 23 -->
<g id="node23" class="node"><title>Basic Block 23</title>
<polygon fill="#ffffcc" stroke="black" points="2170,-476 2070,-476 2070,-440 2170,-440 2170,-476"/>
<text text-anchor="middle" x="2120" y="-454.9" font-family="Times Roman,serif" font-size="14.00">Basic Block 23</text>
</g>
<!-- Addr 8 -->
<g id="node57" class="node"><title>Addr 8</title>
<polygon fill="lightgrey" stroke="black" points="2261,-476 2207,-476 2207,-440 2261,-440 2261,-476"/>
<text text-anchor="middle" x="2234" y="-454.9" font-family="Times Roman,serif" font-size="14.00">Addr 8</text>
</g>
<!-- Basic Block 23&#45;&gt;Addr 8 -->
<g id="edge78" class="edge"><title>Basic Block 23&#45;&gt;Addr 8</title>
<path fill="none" stroke="black" d="M2170,-458C2178.75,-458 2187.72,-458 2196.08,-458"/>
<polygon fill="black" stroke="black" points="2196.27,-461.5 2206.27,-458 2196.27,-454.5 2196.27,-461.5"/>
</g>
<!-- Basic Block 24 -->
<g id="node24" class="node"><title>Basic Block 24</title>
<polygon fill="#ffffcc" stroke="black" points="2398,-476 2298,-476 2298,-440 2398,-440 2398,-476"/>
<text text-anchor="middle" x="2348" y="-454.9" font-family="Times Roman,serif" font-size="14.00">Basic Block 24</text>
</g>
<!-- Addr 9 -->
<g id="node58" class="node"><title>Addr 9</title>
<polygon fill="lightgrey" stroke="black" points="2489,-476 2435,-476 2435,-440 2489,-440 2489,-476"/>
<text text-anchor="middle" x="2462" y="-454.9" font-family="Times Roman,serif" font-size="14.00">Addr 9</text>
</g>
<!-- Basic Block 24&#45;&gt;Addr 9 -->
<g id="edge82" class="edge"><title>Basic Block 24&#45;&gt;Addr 9</title>
<path fill="none" stroke="black" d="M2398,-458C2406.75,-458 2415.72,-458 2424.08,-458"/>
<polygon fill="black" stroke="black" points="2424.27,-461.5 2434.27,-458 2424.27,-454.5 2424.27,-461.5"/>
</g>
<!-- Basic Block 26 -->
<g id="node26" class="node"><title>Basic Block 26</title>
<polygon fill="#ffffcc" stroke="black" points="2762,-495 2662,-495 2662,-459 2762,-459 2762,-495"/>
<text text-anchor="middle" x="2712" y="-473.9" font-family="Times Roman,serif" font-size="14.00">Basic Block 26</text>
</g>
<!-- Basic Block 25&#45;&gt;Basic Block 26 -->
<g id="edge88" class="edge"><title>Basic Block 25&#45;&gt;Basic Block 26</title>
<path fill="none" stroke="black" d="M2626.25,-453.672C2634.72,-455.976 2643.58,-458.386 2652.26,-460.748"/>
<polygon fill="black" stroke="black" points="2651.38,-464.136 2661.95,-463.384 2653.22,-457.381 2651.38,-464.136"/>
</g>
<!-- Basic Block 27 -->
<g id="node27" class="node"><title>Basic Block 27</title>
<polygon fill="#ffffcc" stroke="black" points="2996,-468 2896,-468 2896,-432 2996,-432 2996,-468"/>
<text text-anchor="middle" x="2946" y="-446.9" font-family="Times Roman,serif" font-size="14.00">Basic Block 27</text>
</g>
<!-- Basic Block 25&#45;&gt;Basic Block 27 -->
<g id="edge86" class="edge"><title>Basic Block 25&#45;&gt;Basic Block 27</title>
<path fill="none" stroke="black" d="M2626.28,-441.359C2693.71,-443.181 2813.26,-446.412 2885.52,-448.365"/>
<polygon fill="black" stroke="black" points="2885.73,-451.872 2895.83,-448.644 2885.92,-444.875 2885.73,-451.872"/>
</g>
<!-- Addr 10 -->
<g id="node59" class="node"><title>Addr 10</title>
<polygon fill="lightgrey" stroke="black" points="2860,-495 2798,-495 2798,-459 2860,-459 2860,-495"/>
<text text-anchor="middle" x="2829" y="-473.9" font-family="Times Roman,serif" font-size="14.00">Addr 10</text>
</g>
<!-- Basic Block 26&#45;&gt;Addr 10 -->
<g id="edge90" class="edge"><title>Basic Block 26&#45;&gt;Addr 10</title>
<path fill="none" stroke="black" d="M2762.3,-477C2770.75,-477 2779.43,-477 2787.62,-477"/>
<polygon fill="black" stroke="black" points="2787.68,-480.5 2797.67,-477 2787.67,-473.5 2787.68,-480.5"/>
</g>
<!-- Basic Block 44 -->
<g id="node44" class="node"><title>Basic Block 44</title>
<polygon fill="#ffeda0" stroke="black" points="3132,-468 3032,-468 3032,-432 3132,-432 3132,-468"/>
<text text-anchor="middle" x="3082" y="-446.9" font-family="Times Roman,serif" font-size="14.00">Basic Block 44</text>
</g>
<!-- Basic Block 27&#45;&gt;Basic Block 44 -->
<g id="edge94" class="edge"><title>Basic Block 27&#45;&gt;Basic Block 44</title>
<path fill="none" stroke="black" d="M2996.25,-450C3004.54,-450 3013.2,-450 3021.7,-450"/>
<polygon fill="black" stroke="black" points="3021.95,-453.5 3031.95,-450 3021.95,-446.5 3021.95,-453.5"/>
</g>
<!-- Basic Block 28 -->
<g id="node28" class="node"><title>Basic Block 28</title>
<polygon fill="#ffeda0" stroke="black" points="3268,-468 3168,-468 3168,-432 3268,-432 3268,-468"/>
<text text-anchor="middle" x="3218" y="-446.9" font-family="Times Roman,serif" font-size="14.00">Basic Block 28</text>
</g>
<!-- Basic Block 29 -->
<g id="node29" class="node"><title>Basic Block 29</title>
<polygon fill="#ffffcc" stroke="black" points="3404,-468 3304,-468 3304,-432 3404,-432 3404,-468"/>
<text text-anchor="middle" x="3354" y="-446.9" font-family="Times Roman,serif" font-size="14.00">Basic Block 29</text>
</g>
<!-- Basic Block 28&#45;&gt;Basic Block 29 -->
<g id="edge98" class="edge"><title>Basic Block 28&#45;&gt;Basic Block 29</title>
<path fill="none" stroke="black" d="M3268.25,-450C3276.54,-450 3285.2,-450 3293.7,-450"/>
<polygon fill="black" stroke="black" points="3293.95,-453.5 3303.95,-450 3293.95,-446.5 3293.95,-453.5"/>
</g>
<!-- Basic Block 32 -->
<g id="node32" class="node"><title>Basic Block 32</title>
<polygon fill="#ffffcc" stroke="black" points="3404,-388 3304,-388 3304,-352 3404,-352 3404,-388"/>
<text text-anchor="middle" x="3354" y="-366.9" font-family="Times Roman,serif" font-size="14.00">Basic Block 32</text>
</g>
<!-- Basic Block 28&#45;&gt;Basic Block 32 -->
<g id="edge96" class="edge"><title>Basic Block 28&#45;&gt;Basic Block 32</title>
<path fill="none" stroke="black" d="M3252.03,-431.96C3257.4,-429.016 3262.87,-425.96 3268,-423 3284.25,-413.615 3301.94,-402.816 3317.03,-393.425"/>
<polygon fill="black" stroke="black" points="3318.96,-396.348 3325.58,-388.08 3315.25,-390.412 3318.96,-396.348"/>
</g>
<!-- Basic Block 30 -->
<g id="node30" class="node"><title>Basic Block 30</title>
<polygon fill="#ffeda0" stroke="black" points="3540,-472 3440,-472 3440,-436 3540,-436 3540,-472"/>
<text text-anchor="middle" x="3490" y="-450.9" font-family="Times Roman,serif" font-size="14.00">Basic Block 30</text>
</g>
<!-- Basic Block 29&#45;&gt;Basic Block 30 -->
<g id="edge102" class="edge"><title>Basic Block 29&#45;&gt;Basic Block 30</title>
<path fill="none" stroke="black" d="M3404.25,-451.478C3412.54,-451.722 3421.2,-451.977 3429.7,-452.226"/>
<polygon fill="black" stroke="black" points="3429.85,-455.732 3439.95,-452.528 3430.06,-448.735 3429.85,-455.732"/>
</g>
<!-- Basic Block 43 -->
<g id="node43" class="node"><title>Basic Block 43</title>
<polygon fill="#ffffcc" stroke="black" points="3948,-449 3848,-449 3848,-413 3948,-413 3948,-449"/>
<text text-anchor="middle" x="3898" y="-427.9" font-family="Times Roman,serif" font-size="14.00">Basic Block 43</text>
</g>
<!-- Basic Block 29&#45;&gt;Basic Block 43 -->
<g id="edge100" class="edge"><title>Basic Block 29&#45;&gt;Basic Block 43</title>
<path fill="none" stroke="black" d="M3404.03,-434.265C3415.72,-431.249 3428.2,-428.551 3440,-427 3581.62,-408.389 3750.01,-417.867 3837.86,-425.177"/>
<polygon fill="black" stroke="black" points="3837.65,-428.671 3847.91,-426.033 3838.24,-421.697 3837.65,-428.671"/>
</g>
<!-- Basic Block 30&#45;&gt;Basic Block 1 -->
<g id="edge104" class="edge"><title>Basic Block 30&#45;&gt;Basic Block 1</title>
<path fill="none" stroke="black" d="M3455.42,-472.02C3404.75,-496.702 3306.71,-538 3218,-538 310,-538 310,-538 310,-538 172.697,-538 86.1404,-356.914 57.5085,-286"/>
<polygon fill="black" stroke="black" points="60.6343,-284.387 53.7052,-276.372 54.1238,-286.958 60.6343,-284.387"/>
</g>
<!-- Basic Block 31 -->
<g id="node31" class="node"><title>Basic Block 31</title>
<polygon fill="#ffffcc" stroke="black" points="3812,-472 3712,-472 3712,-436 3812,-436 3812,-472"/>
<text text-anchor="middle" x="3762" y="-450.9" font-family="Times Roman,serif" font-size="14.00">Basic Block 31</text>
</g>
<!-- Basic Block 31&#45;&gt;Basic Block 43 -->
<g id="edge106" class="edge"><title>Basic Block 31&#45;&gt;Basic Block 43</title>
<path fill="none" stroke="black" d="M3812.25,-445.501C3820.63,-444.085 3829.39,-442.603 3837.98,-441.15"/>
<polygon fill="black" stroke="black" points="3838.68,-444.583 3847.95,-439.464 3837.51,-437.681 3838.68,-444.583"/>
</g>
<!-- Basic Block 33 -->
<g id="node33" class="node"><title>Basic Block 33</title>
<polygon fill="#ffffcc" stroke="black" points="3540,-342 3440,-342 3440,-306 3540,-306 3540,-342"/>
<text text-anchor="middle" x="3490" y="-320.9" font-family="Times Roman,serif" font-size="14.00">Basic Block 33</text>
</g>
<!-- Basic Block 32&#45;&gt;Basic Block 33 -->
<g id="edge110" class="edge"><title>Basic Block 32&#45;&gt;Basic Block 33</title>
<path fill="none" stroke="black" d="M3404.25,-353.002C3412.72,-350.138 3421.58,-347.141 3430.26,-344.206"/>
<polygon fill="black" stroke="black" points="3431.6,-347.448 3439.95,-340.928 3429.36,-340.817 3431.6,-347.448"/>
</g>
<!-- Basic Block 42 -->
<g id="node42" class="node"><title>Basic Block 42</title>
<polygon fill="#ffffcc" stroke="black" points="3812,-380 3712,-380 3712,-344 3812,-344 3812,-380"/>
<text text-anchor="middle" x="3762" y="-358.9" font-family="Times Roman,serif" font-size="14.00">Basic Block 42</text>
</g>
<!-- Basic Block 32&#45;&gt;Basic Block 42 -->
<g id="edge108" class="edge"><title>Basic Block 32&#45;&gt;Basic Block 42</title>
<path fill="none" stroke="black" d="M3404.03,-369.019C3479.23,-367.545 3621.15,-364.762 3701.87,-363.179"/>
<polygon fill="black" stroke="black" points="3701.95,-366.678 3711.88,-362.983 3701.82,-359.68 3701.95,-366.678"/>
</g>
<!-- Basic Block 41 -->
<g id="node41" class="node"><title>Basic Block 41</title>
<polygon fill="#ffffcc" stroke="black" points="3676,-315 3576,-315 3576,-279 3676,-279 3676,-315"/>
<text text-anchor="middle" x="3626" y="-293.9" font-family="Times Roman,serif" font-size="14.00">Basic Block 41</text>
</g>
<!-- Basic Block 33&#45;&gt;Basic Block 41 -->
<g id="edge112" class="edge"><title>Basic Block 33&#45;&gt;Basic Block 41</title>
<path fill="none" stroke="black" d="M3540.25,-314.023C3548.63,-312.36 3557.39,-310.621 3565.98,-308.916"/>
<polygon fill="black" stroke="black" points="3566.82,-312.316 3575.95,-306.936 3565.46,-305.45 3566.82,-312.316"/>
</g>
<!-- Basic Block 34 -->
<g id="node34" class="node"><title>Basic Block 34</title>
<polygon fill="#ffffcc" stroke="black" points="3812,-200 3712,-200 3712,-164 3812,-164 3812,-200"/>
<text text-anchor="middle" x="3762" y="-178.9" font-family="Times Roman,serif" font-size="14.00">Basic Block 34</text>
</g>
<!-- Basic Block 35 -->
<g id="node35" class="node"><title>Basic Block 35</title>
<polygon fill="#ffffcc" stroke="black" points="3948,-154 3848,-154 3848,-118 3948,-118 3948,-154"/>
<text text-anchor="middle" x="3898" y="-132.9" font-family="Times Roman,serif" font-size="14.00">Basic Block 35</text>
</g>
<!-- Basic Block 34&#45;&gt;Basic Block 35 -->
<g id="edge116" class="edge"><title>Basic Block 34&#45;&gt;Basic Block 35</title>
<path fill="none" stroke="black" d="M3812.25,-165.002C3820.72,-162.138 3829.58,-159.141 3838.26,-156.206"/>
<polygon fill="black" stroke="black" points="3839.6,-159.448 3847.95,-152.928 3837.36,-152.817 3839.6,-159.448"/>
</g>
<!-- Basic Block 39 -->
<g id="node39" class="node"><title>Basic Block 39</title>
<polygon fill="#ffffcc" stroke="black" points="4220,-123 4120,-123 4120,-87 4220,-87 4220,-123"/>
<text text-anchor="middle" x="4170" y="-101.9" font-family="Times Roman,serif" font-size="14.00">Basic Block 39</text>
</g>
<!-- Basic Block 34&#45;&gt;Basic Block 39 -->
<g id="edge114" class="edge"><title>Basic Block 34&#45;&gt;Basic Block 39</title>
<path fill="none" stroke="black" d="M3812.3,-178.249C3849.83,-175.115 3902.28,-170.023 3948,-163 4009,-153.63 4024.51,-151.421 4084,-135 4093.16,-132.47 4102.77,-129.474 4112.1,-126.371"/>
<polygon fill="black" stroke="black" points="4113.35,-129.642 4121.69,-123.112 4111.1,-123.014 4113.35,-129.642"/>
</g>
<!-- Basic Block 36 -->
<g id="node36" class="node"><title>Basic Block 36</title>
<polygon fill="#ffffcc" stroke="black" points="4084,-64 3984,-64 3984,-28 4084,-28 4084,-64"/>
<text text-anchor="middle" x="4034" y="-42.9" font-family="Times Roman,serif" font-size="14.00">Basic Block 36</text>
</g>
<!-- Basic Block 35&#45;&gt;Basic Block 36 -->
<g id="edge120" class="edge"><title>Basic Block 35&#45;&gt;Basic Block 36</title>
<path fill="none" stroke="black" d="M3925.52,-117.787C3946.44,-103.941 3975.4,-84.7762 3998.14,-69.7307"/>
<polygon fill="black" stroke="black" points="4000.11,-72.6232 4006.52,-64.1858 3996.25,-66.7857 4000.11,-72.6232"/>
</g>
<!-- Basic Block 35&#45;&gt;Basic Block 39 -->
<g id="edge118" class="edge"><title>Basic Block 35&#45;&gt;Basic Block 39</title>
<path fill="none" stroke="black" d="M3948.21,-130.278C3993.78,-125.084 4061.07,-117.414 4109.58,-111.887"/>
<polygon fill="black" stroke="black" points="4110.09,-115.351 4119.63,-110.741 4109.29,-108.396 4110.09,-115.351"/>
</g>
<!-- Basic Block 37 -->
<g id="node37" class="node"><title>Basic Block 37</title>
<polygon fill="#ffffcc" stroke="black" points="4220,-50 4120,-50 4120,-14 4220,-14 4220,-50"/>
<text text-anchor="middle" x="4170" y="-28.9" font-family="Times Roman,serif" font-size="14.00">Basic Block 37</text>
</g>
<!-- Basic Block 36&#45;&gt;Basic Block 37 -->
<g id="edge124" class="edge"><title>Basic Block 36&#45;&gt;Basic Block 37</title>
<path fill="none" stroke="black" d="M4084.25,-40.8267C4092.63,-39.9645 4101.39,-39.0626 4109.98,-38.1784"/>
<polygon fill="black" stroke="black" points="4110.36,-41.6577 4119.95,-37.152 4109.65,-34.6945 4110.36,-41.6577"/>
</g>
<!-- Basic Block 36&#45;&gt;Basic Block 39 -->
<g id="edge122" class="edge"><title>Basic Block 36&#45;&gt;Basic Block 39</title>
<path fill="none" stroke="black" d="M4075.54,-64.0225C4089.26,-69.9715 4104.67,-76.6583 4119.01,-82.8775"/>
<polygon fill="black" stroke="black" points="4117.68,-86.1155 4128.24,-86.8845 4120.46,-79.6937 4117.68,-86.1155"/>
</g>
<!-- Basic Block 37&#45;&gt;Basic Block 1 -->
<g id="edge126" class="edge"><title>Basic Block 37&#45;&gt;Basic Block 1</title>
<path fill="none" stroke="black" d="M4119.83,-22.5288C4065.4,-13.0928 3975.86,-0 3898,-0 310,-0 310,-0 310,-0 216.933,-0 194.689,-40.0908 130,-107 94.7624,-143.447 69.8056,-197.811 56.9602,-230.399"/>
<polygon fill="black" stroke="black" points="53.6795,-229.179 53.3645,-239.769 60.2149,-231.687 53.6795,-229.179"/>
</g>
<!-- Basic Block 38 -->
<g id="node38" class="node"><title>Basic Block 38</title>
<polygon fill="#ffffcc" stroke="black" points="3404,-309 3304,-309 3304,-273 3404,-273 3404,-309"/>
<text text-anchor="middle" x="3354" y="-287.9" font-family="Times Roman,serif" font-size="14.00">Basic Block 38</text>
</g>
<!-- Basic Block 40 -->
<g id="node40" class="node"><title>Basic Block 40</title>
<polygon fill="#ffffcc" stroke="black" points="3540,-288 3440,-288 3440,-252 3540,-252 3540,-288"/>
<text text-anchor="middle" x="3490" y="-266.9" font-family="Times Roman,serif" font-size="14.00">Basic Block 40</text>
</g>
<!-- Basic Block 38&#45;&gt;Basic Block 40 -->
<g id="edge128" class="edge"><title>Basic Block 38&#45;&gt;Basic Block 40</title>
<path fill="none" stroke="black" d="M3404.25,-283.24C3412.63,-281.947 3421.39,-280.594 3429.98,-279.268"/>
<polygon fill="black" stroke="black" points="3430.6,-282.713 3439.95,-277.728 3429.53,-275.795 3430.6,-282.713"/>
</g>
<!-- Basic Block 39&#45;&gt;Basic Block 1 -->
<g id="edge130" class="edge"><title>Basic Block 39&#45;&gt;Basic Block 1</title>
<path fill="none" stroke="black" d="M4119.77,-101.965C4042.8,-97.5815 3891,-90 3762,-90 310,-90 310,-90 310,-90 205.773,-90 109.679,-184.866 68.3491,-232.023"/>
<polygon fill="black" stroke="black" points="65.61,-229.84 61.735,-239.701 70.9135,-234.409 65.61,-229.84"/>
</g>
<!-- Basic Block 40&#45;&gt;Basic Block 41 -->
<g id="edge132" class="edge"><title>Basic Block 40&#45;&gt;Basic Block 41</title>
<path fill="none" stroke="black" d="M3540.25,-279.977C3548.63,-281.64 3557.39,-283.379 3565.98,-285.084"/>
<polygon fill="black" stroke="black" points="3565.46,-288.55 3575.95,-287.064 3566.82,-281.684 3565.46,-288.55"/>
</g>
<!-- Basic Block 41&#45;&gt;Basic Block 34 -->
<g id="edge134" class="edge"><title>Basic Block 41&#45;&gt;Basic Block 34</title>
<path fill="none" stroke="black" d="M3647.55,-278.778C3670.53,-259.347 3707.06,-228.454 3732.66,-206.812"/>
<polygon fill="black" stroke="black" points="3735.18,-209.266 3740.55,-200.137 3730.66,-203.921 3735.18,-209.266"/>
</g>
<!-- Basic Block 41&#45;&gt;Basic Block 42 -->
<g id="edge136" class="edge"><title>Basic Block 41&#45;&gt;Basic Block 42</title>
<path fill="none" stroke="black" d="M3663.88,-315.106C3679.8,-322.713 3698.47,-331.638 3715.23,-339.649"/>
<polygon fill="black" stroke="black" points="3713.79,-342.837 3724.32,-343.991 3716.81,-336.521 3713.79,-342.837"/>
</g>
<!-- Basic Block 42&#45;&gt;Basic Block 43 -->
<g id="edge138" class="edge"><title>Basic Block 42&#45;&gt;Basic Block 43</title>
<path fill="none" stroke="black" d="M3797.73,-380.129C3814.75,-388.765 3835.29,-399.184 3853.33,-408.337"/>
<polygon fill="black" stroke="black" points="3852,-411.589 3862.51,-412.992 3855.17,-405.346 3852,-411.589"/>
</g>
<!-- Basic Block 43&#45;&gt;Basic Block 44 -->
<g id="edge140" class="edge"><title>Basic Block 43&#45;&gt;Basic Block 44</title>
<path fill="none" stroke="black" d="M3873.38,-449.122C3856.88,-460.284 3834.17,-473.794 3812,-481 3732.97,-506.683 3709.1,-500 3626,-500 3354,-500 3354,-500 3354,-500 3270.7,-500 3249.4,-494.659 3168,-477 3159.44,-475.144 3150.52,-472.81 3141.8,-470.295"/>
<polygon fill="black" stroke="black" points="3142.65,-466.897 3132.07,-467.395 3140.65,-473.605 3142.65,-466.897"/>
</g>
<!-- Basic Block 44&#45;&gt;Basic Block 28 -->
<g id="edge142" class="edge"><title>Basic Block 44&#45;&gt;Basic Block 28</title>
<path fill="none" stroke="black" d="M3132.25,-450C3140.54,-450 3149.2,-450 3157.7,-450"/>
<polygon fill="black" stroke="black" points="3157.95,-453.5 3167.95,-450 3157.95,-446.5 3157.95,-453.5"/>
</g>
<!-- Basic Block 45 -->
<g id="node45" class="node"><title>Basic Block 45</title>
<polygon fill="#ffffcc" stroke="black" points="3268,-414 3168,-414 3168,-378 3268,-378 3268,-414"/>
<text text-anchor="middle" x="3218" y="-392.9" font-family="Times Roman,serif" font-size="14.00">Basic Block 45</text>
</g>
<!-- Basic Block 44&#45;&gt;Basic Block 45 -->
<g id="edge144" class="edge"><title>Basic Block 44&#45;&gt;Basic Block 45</title>
<path fill="none" stroke="black" d="M3127.66,-431.869C3138.88,-427.416 3151,-422.602 3162.62,-417.99"/>
<polygon fill="black" stroke="black" points="3164.22,-421.119 3172.22,-414.176 3161.64,-414.613 3164.22,-421.119"/>
</g>
<!-- Basic Block 45&#45;&gt;Basic Block 49 -->
<g id="edge146" class="edge"><title>Basic Block 45&#45;&gt;Basic Block 49</title>
<path fill="none" stroke="black" d="M3258.3,-377.932C3261.88,-375.283 3265.19,-372.312 3268,-369 3299.89,-331.363 3272.11,-301.637 3304,-264 3304.61,-263.276 3305.25,-262.567 3305.91,-261.875"/>
<polygon fill="black" stroke="black" points="3308.47,-264.286 3313.7,-255.068 3303.87,-259.016 3308.47,-264.286"/>
</g>
<!-- Basic Block 46&#45;&gt;Basic Block 49 -->
<g id="edge148" class="edge"><title>Basic Block 46&#45;&gt;Basic Block 49</title>
<path fill="none" stroke="black" d="M1578.27,-213.277C1628.76,-214.447 1708.76,-216 1778,-216 1778,-216 1778,-216 3082,-216 3154.97,-216 3238.63,-223.606 3293.68,-229.664"/>
<polygon fill="black" stroke="black" points="3293.63,-233.18 3303.96,-230.813 3294.41,-226.223 3293.63,-233.18"/>
</g>
<!-- Basic Block 47 -->
<g id="node47" class="node"><title>Basic Block 47</title>
<polygon fill="#ffffcc" stroke="black" points="3268,-360 3168,-360 3168,-324 3268,-324 3268,-360"/>
<text text-anchor="middle" x="3218" y="-338.9" font-family="Times Roman,serif" font-size="14.00">Basic Block 47</text>
</g>
<!-- Basic Block 47&#45;&gt;Basic Block 49 -->
<g id="edge150" class="edge"><title>Basic Block 47&#45;&gt;Basic Block 49</title>
<path fill="none" stroke="black" d="M3249.85,-323.908C3256.15,-319.708 3262.51,-314.993 3268,-310 3287.21,-292.533 3284.16,-280.743 3304,-264 3305.3,-262.906 3306.64,-261.838 3308.03,-260.796"/>
<polygon fill="black" stroke="black" points="3310.03,-263.67 3316.3,-255.133 3306.07,-257.895 3310.03,-263.67"/>
</g>
<!-- Basic Block 48&#45;&gt;Basic Block 49 -->
<g id="edge152" class="edge"><title>Basic Block 48&#45;&gt;Basic Block 49</title>
<path fill="none" stroke="black" d="M1170.13,-166C1224.71,-166 1314.56,-166 1392,-166 1392,-166 1392,-166 3082,-166 3160.96,-166 3248.75,-194.357 3302.68,-215.229"/>
<polygon fill="black" stroke="black" points="3301.43,-218.499 3312.02,-218.9 3303.99,-211.984 3301.43,-218.499"/>
</g>
<!-- Addr 11 -->
<g id="node60" class="node"><title>Addr 11</title>
<polygon fill="lightgrey" stroke="black" points="3521,-234 3459,-234 3459,-198 3521,-198 3521,-234"/>
<text text-anchor="middle" x="3490" y="-212.9" font-family="Times Roman,serif" font-size="14.00">Addr 11</text>
</g>
<!-- Basic Block 49&#45;&gt;Addr 11 -->
<g id="edge154" class="edge"><title>Basic Block 49&#45;&gt;Addr 11</title>
<path fill="none" stroke="black" d="M3404.25,-229.24C3418.99,-226.965 3434.92,-224.505 3449,-222.33"/>
<polygon fill="black" stroke="black" points="3449.54,-225.789 3458.89,-220.804 3448.47,-218.871 3449.54,-225.789"/>
</g>
<!-- Addr 1&#45;&gt;Basic Block 4 -->
<g id="edge12" class="edge"><title>Addr 1&#45;&gt;Basic Block 4</title>
<path fill="none" stroke="black" d="M473.558,-354C487.609,-354 505.241,-354 522.044,-354"/>
<polygon fill="black" stroke="black" points="522.359,-357.5 532.359,-354 522.359,-350.5 522.359,-357.5"/>
</g>
<!-- Addr 2&#45;&gt;Basic Block 6 -->
<g id="edge20" class="edge"><title>Addr 2&#45;&gt;Basic Block 6</title>
<path fill="none" stroke="black" d="M875.522,-304C890.315,-304 909.127,-304 926.915,-304"/>
<polygon fill="black" stroke="black" points="927.232,-307.5 937.232,-304 927.232,-300.5 927.232,-307.5"/>
</g>
<!-- Addr 3&#45;&gt;Basic Block 9 -->
<g id="edge30" class="edge"><title>Addr 3&#45;&gt;Basic Block 9</title>
<path fill="none" stroke="black" d="M875.522,-358C890.315,-358 909.127,-358 926.915,-358"/>
<polygon fill="black" stroke="black" points="927.232,-361.5 937.232,-358 927.232,-354.5 927.232,-361.5"/>
</g>
<!-- Addr 4&#45;&gt;Basic Block 12 -->
<g id="edge40" class="edge"><title>Addr 4&#45;&gt;Basic Block 12</title>
<path fill="none" stroke="black" d="M606.558,-155C619.665,-155 635.888,-155 651.648,-155"/>
<polygon fill="black" stroke="black" points="651.899,-158.5 661.899,-155 651.899,-151.5 651.899,-158.5"/>
</g>
<!-- Addr 5&#45;&gt;Basic Block 21 -->
<g id="edge68" class="edge"><title>Addr 5&#45;&gt;Basic Block 21</title>
<path fill="none" stroke="black" d="M1555.52,-458C1569.41,-458 1586.83,-458 1603.62,-458"/>
<polygon fill="black" stroke="black" points="1603.96,-461.5 1613.96,-458 1603.96,-454.5 1603.96,-461.5"/>
</g>
<!-- Addr 6&#45;&gt;Basic Block 22 -->
<g id="edge72" class="edge"><title>Addr 6&#45;&gt;Basic Block 22</title>
<path fill="none" stroke="black" d="M1805.6,-458C1813.54,-458 1822.54,-458 1831.65,-458"/>
<polygon fill="black" stroke="black" points="1831.94,-461.5 1841.94,-458 1831.94,-454.5 1831.94,-461.5"/>
</g>
<!-- Addr 7&#45;&gt;Basic Block 23 -->
<g id="edge76" class="edge"><title>Addr 7&#45;&gt;Basic Block 23</title>
<path fill="none" stroke="black" d="M2033.6,-458C2041.54,-458 2050.54,-458 2059.65,-458"/>
<polygon fill="black" stroke="black" points="2059.94,-461.5 2069.94,-458 2059.94,-454.5 2059.94,-461.5"/>
</g>
<!-- Addr 8&#45;&gt;Basic Block 24 -->
<g id="edge80" class="edge"><title>Addr 8&#45;&gt;Basic Block 24</title>
<path fill="none" stroke="black" d="M2261.6,-458C2269.54,-458 2278.54,-458 2287.65,-458"/>
<polygon fill="black" stroke="black" points="2287.94,-461.5 2297.94,-458 2287.94,-454.5 2287.94,-461.5"/>
</g>
<!-- Addr 9&#45;&gt;Basic Block 25 -->
<g id="edge84" class="edge"><title>Addr 9&#45;&gt;Basic Block 25</title>
<path fill="none" stroke="black" d="M2489.6,-453.643C2497.63,-452.374 2506.74,-450.937 2515.95,-449.482"/>
<polygon fill="black" stroke="black" points="2516.61,-452.921 2525.94,-447.904 2515.52,-446.007 2516.61,-452.921"/>
</g>
<!-- Addr 10&#45;&gt;Basic Block 27 -->
<g id="edge92" class="edge"><title>Addr 10&#45;&gt;Basic Block 27</title>
<path fill="none" stroke="black" d="M2860.05,-469.835C2868.02,-467.997 2876.86,-465.955 2885.76,-463.901"/>
<polygon fill="black" stroke="black" points="2886.83,-467.246 2895.79,-461.587 2885.26,-460.425 2886.83,-467.246"/>
</g>
</g>
</svg>
