<?xml version="1.0" encoding="UTF-8" standalone="no"?>
<!DOCTYPE svg PUBLIC "-//W3C//DTD SVG 1.0//EN"
 "http://www.w3.org/TR/2001/REC-SVG-20010904/DTD/svg10.dtd" [
 <!ATTLIST svg xmlns:xlink CDATA #FIXED "http://www.w3.org/1999/xlink">
]>
<!-- Generated by Graphviz version 2.20.2 (Tue Mar &#160;2 19:03:41 UTC 2010)
     For user: (levinth) David Levinthal -->
<!-- Title: flowid_drop_ref Pages: 1 -->
<svg width="1760pt" height="121pt"
 viewBox="0.00 0.00 1760.00 121.00" xmlns="http://www.w3.org/2000/svg" xmlns:xlink="http://www.w3.org/1999/xlink">
<g id="graph0" class="graph" transform="scale(1 1) rotate(0) translate(4 117)">
<title>flowid_drop_ref</title>
<polygon style="fill:white;stroke:white;" points="-4,4 -4,-117 1756,-117 1756,4 -4,4"/>
<!-- Basic Block 1 -->
<g id="node1" class="node"><title>Basic Block 1</title>
<polygon style="fill:#ffffcc;stroke:black;" points="106,-113 3.55271e-14,-113 0,-77 106,-77 106,-113"/>
<text text-anchor="middle" x="53" y="-90.9" style="font-family:Times New Roman;font-size:14.00;">Basic Block 1</text>
</g>
<!-- Addr 1 -->
<g id="node12" class="node"><title>Addr 1</title>
<polygon style="fill:lightgrey;stroke:black;" points="204,-113 142,-113 142,-77 204,-77 204,-113"/>
<text text-anchor="middle" x="173" y="-90.9" style="font-family:Times New Roman;font-size:14.00;">Addr 1</text>
</g>
<!-- Basic Block 1&#45;&gt;Addr 1 -->
<g id="edge2" class="edge"><title>Basic Block 1&#45;&gt;Addr 1</title>
<path style="fill:none;stroke:black;" d="M106,-95C114,-95 123,-95 132,-95"/>
<polygon style="fill:black;stroke:black;" points="132,-98.5001 142,-95 132,-91.5001 132,-98.5001"/>
</g>
<!-- Basic Block 2 -->
<g id="node2" class="node"><title>Basic Block 2</title>
<polygon style="fill:#ffffcc;stroke:black;" points="346,-113 240,-113 240,-77 346,-77 346,-113"/>
<text text-anchor="middle" x="293" y="-90.9" style="font-family:Times New Roman;font-size:14.00;">Basic Block 2</text>
</g>
<!-- Basic Block 3 -->
<g id="node3" class="node"><title>Basic Block 3</title>
<polygon style="fill:#ffffcc;stroke:black;" points="488,-90 382,-90 382,-54 488,-54 488,-90"/>
<text text-anchor="middle" x="435" y="-67.9" style="font-family:Times New Roman;font-size:14.00;">Basic Block 3</text>
</g>
<!-- Basic Block 2&#45;&gt;Basic Block 3 -->
<g id="edge8" class="edge"><title>Basic Block 2&#45;&gt;Basic Block 3</title>
<path style="fill:none;stroke:black;" d="M346,-86C355,-85 363,-83 372,-82"/>
<polygon style="fill:black;stroke:black;" points="372.398,-85.4778 382,-81 371.701,-78.5125 372.398,-85.4778"/>
</g>
<!-- Basic Block 4 -->
<g id="node4" class="node"><title>Basic Block 4</title>
<polygon style="fill:#800026;stroke:black;" points="630,-113 524,-113 524,-77 630,-77 630,-113"/>
<text text-anchor="middle" x="577" y="-90.9" style="font-family:Times New Roman;font-size:14.00;">Basic Block 4</text>
</g>
<!-- Basic Block 2&#45;&gt;Basic Block 4 -->
<g id="edge6" class="edge"><title>Basic Block 2&#45;&gt;Basic Block 4</title>
<path style="fill:none;stroke:black;" d="M346,-98C358,-98 371,-99 382,-99 430,-100 441,-100 488,-99 497,-99 505,-98 514,-98"/>
<polygon style="fill:black;stroke:black;" points="514,-101.5 524,-98 514,-94.5001 514,-101.5"/>
</g>
<!-- Basic Block 3&#45;&gt;Basic Block 4 -->
<g id="edge12" class="edge"><title>Basic Block 3&#45;&gt;Basic Block 4</title>
<path style="fill:none;stroke:black;" d="M488,-81C497,-82 505,-84 514,-85"/>
<polygon style="fill:black;stroke:black;" points="513.701,-88.4875 524,-86 514.398,-81.5222 513.701,-88.4875"/>
</g>
<!-- Basic Block 6 -->
<g id="node6" class="node"><title>Basic Block 6</title>
<polygon style="fill:#ffffcc;stroke:black;" points="630,-48 524,-48 524,-12 630,-12 630,-48"/>
<text text-anchor="middle" x="577" y="-25.9" style="font-family:Times New Roman;font-size:14.00;">Basic Block 6</text>
</g>
<!-- Basic Block 3&#45;&gt;Basic Block 6 -->
<g id="edge10" class="edge"><title>Basic Block 3&#45;&gt;Basic Block 6</title>
<path style="fill:none;stroke:black;" d="M488,-56C497,-54 506,-51 514,-48"/>
<polygon style="fill:black;stroke:black;" points="515.427,-51.2259 524,-45 513.416,-44.5212 515.427,-51.2259"/>
</g>
<!-- Addr 2 -->
<g id="node13" class="node"><title>Addr 2</title>
<polygon style="fill:lightgrey;stroke:black;" points="728,-113 666,-113 666,-77 728,-77 728,-113"/>
<text text-anchor="middle" x="697" y="-90.9" style="font-family:Times New Roman;font-size:14.00;">Addr 2</text>
</g>
<!-- Basic Block 4&#45;&gt;Addr 2 -->
<g id="edge14" class="edge"><title>Basic Block 4&#45;&gt;Addr 2</title>
<path style="fill:none;stroke:black;" d="M630,-95C638,-95 647,-95 656,-95"/>
<polygon style="fill:black;stroke:black;" points="656,-98.5001 666,-95 656,-91.5001 656,-98.5001"/>
</g>
<!-- Basic Block 5 -->
<g id="node5" class="node"><title>Basic Block 5</title>
<polygon style="fill:#ffffcc;stroke:black;" points="488,-36 382,-36 382,-1.77636e-14 488,-3.55271e-15 488,-36"/>
<text text-anchor="middle" x="435" y="-13.9" style="font-family:Times New Roman;font-size:14.00;">Basic Block 5</text>
</g>
<!-- Basic Block 5&#45;&gt;Basic Block 6 -->
<g id="edge16" class="edge"><title>Basic Block 5&#45;&gt;Basic Block 6</title>
<path style="fill:none;stroke:black;" d="M488,-23C497,-24 505,-24 514,-25"/>
<polygon style="fill:black;stroke:black;" points="513.701,-28.4875 524,-26 514.398,-21.5222 513.701,-28.4875"/>
</g>
<!-- Addr 3 -->
<g id="node14" class="node"><title>Addr 3</title>
<polygon style="fill:lightgrey;stroke:black;" points="728,-48 666,-48 666,-12 728,-12 728,-48"/>
<text text-anchor="middle" x="697" y="-25.9" style="font-family:Times New Roman;font-size:14.00;">Addr 3</text>
</g>
<!-- Basic Block 6&#45;&gt;Addr 3 -->
<g id="edge18" class="edge"><title>Basic Block 6&#45;&gt;Addr 3</title>
<path style="fill:none;stroke:black;" d="M630,-30C638,-30 647,-30 656,-30"/>
<polygon style="fill:black;stroke:black;" points="656,-33.5001 666,-30 656,-26.5001 656,-33.5001"/>
</g>
<!-- Basic Block 7 -->
<g id="node7" class="node"><title>Basic Block 7</title>
<polygon style="fill:#ffffcc;stroke:black;" points="870,-48 764,-48 764,-12 870,-12 870,-48"/>
<text text-anchor="middle" x="817" y="-25.9" style="font-family:Times New Roman;font-size:14.00;">Basic Block 7</text>
</g>
<!-- Basic Block 8 -->
<g id="node8" class="node"><title>Basic Block 8</title>
<polygon style="fill:#ffffcc;stroke:black;" points="1012,-71 906,-71 906,-35 1012,-35 1012,-71"/>
<text text-anchor="middle" x="959" y="-48.9" style="font-family:Times New Roman;font-size:14.00;">Basic Block 8</text>
</g>
<!-- Basic Block 7&#45;&gt;Basic Block 8 -->
<g id="edge24" class="edge"><title>Basic Block 7&#45;&gt;Basic Block 8</title>
<path style="fill:none;stroke:black;" d="M870,-39C879,-40 887,-42 896,-43"/>
<polygon style="fill:black;stroke:black;" points="895.701,-46.4875 906,-44 896.398,-39.5222 895.701,-46.4875"/>
</g>
<!-- Basic Block 9 -->
<g id="node9" class="node"><title>Basic Block 9</title>
<polygon style="fill:#ffffcc;stroke:black;" points="1154,-48 1048,-48 1048,-12 1154,-12 1154,-48"/>
<text text-anchor="middle" x="1101" y="-25.9" style="font-family:Times New Roman;font-size:14.00;">Basic Block 9</text>
</g>
<!-- Basic Block 7&#45;&gt;Basic Block 9 -->
<g id="edge22" class="edge"><title>Basic Block 7&#45;&gt;Basic Block 9</title>
<path style="fill:none;stroke:black;" d="M870,-27C882,-27 895,-26 906,-26 954,-25 965,-25 1012,-26 1021,-26 1029,-27 1038,-27"/>
<polygon style="fill:black;stroke:black;" points="1038,-30.5001 1048,-27 1038,-23.5001 1038,-30.5001"/>
</g>
<!-- Basic Block 8&#45;&gt;Basic Block 9 -->
<g id="edge26" class="edge"><title>Basic Block 8&#45;&gt;Basic Block 9</title>
<path style="fill:none;stroke:black;" d="M1012,-44C1021,-43 1029,-41 1038,-40"/>
<polygon style="fill:black;stroke:black;" points="1038.4,-43.4778 1048,-39 1037.7,-36.5125 1038.4,-43.4778"/>
</g>
<!-- Addr 4 -->
<g id="node15" class="node"><title>Addr 4</title>
<polygon style="fill:lightgrey;stroke:black;" points="1252,-48 1190,-48 1190,-12 1252,-12 1252,-48"/>
<text text-anchor="middle" x="1221" y="-25.9" style="font-family:Times New Roman;font-size:14.00;">Addr 4</text>
</g>
<!-- Basic Block 9&#45;&gt;Addr 4 -->
<g id="edge28" class="edge"><title>Basic Block 9&#45;&gt;Addr 4</title>
<path style="fill:none;stroke:black;" d="M1154,-30C1162,-30 1171,-30 1180,-30"/>
<polygon style="fill:black;stroke:black;" points="1180,-33.5001 1190,-30 1180,-26.5001 1180,-33.5001"/>
</g>
<!-- Basic Block 10 -->
<g id="node10" class="node"><title>Basic Block 10</title>
<polygon style="fill:#ffffcc;stroke:black;" points="1403,-48 1289,-48 1289,-12 1403,-12 1403,-48"/>
<text text-anchor="middle" x="1346" y="-25.9" style="font-family:Times New Roman;font-size:14.00;">Basic Block 10</text>
</g>
<!-- Addr 5 -->
<g id="node16" class="node"><title>Addr 5</title>
<polygon style="fill:lightgrey;stroke:black;" points="1502,-48 1440,-48 1440,-12 1502,-12 1502,-48"/>
<text text-anchor="middle" x="1471" y="-25.9" style="font-family:Times New Roman;font-size:14.00;">Addr 5</text>
</g>
<!-- Basic Block 10&#45;&gt;Addr 5 -->
<g id="edge32" class="edge"><title>Basic Block 10&#45;&gt;Addr 5</title>
<path style="fill:none;stroke:black;" d="M1404,-30C1412,-30 1421,-30 1430,-30"/>
<polygon style="fill:black;stroke:black;" points="1430,-33.5001 1440,-30 1430,-26.5001 1430,-33.5001"/>
</g>
<!-- Basic Block 11 -->
<g id="node11" class="node"><title>Basic Block 11</title>
<polygon style="fill:#ffffcc;stroke:black;" points="1653,-48 1539,-48 1539,-12 1653,-12 1653,-48"/>
<text text-anchor="middle" x="1596" y="-25.9" style="font-family:Times New Roman;font-size:14.00;">Basic Block 11</text>
</g>
<!-- Addr 6 -->
<g id="node17" class="node"><title>Addr 6</title>
<polygon style="fill:lightgrey;stroke:black;" points="1752,-48 1690,-48 1690,-12 1752,-12 1752,-48"/>
<text text-anchor="middle" x="1721" y="-25.9" style="font-family:Times New Roman;font-size:14.00;">Addr 6</text>
</g>
<!-- Basic Block 11&#45;&gt;Addr 6 -->
<g id="edge36" class="edge"><title>Basic Block 11&#45;&gt;Addr 6</title>
<path style="fill:none;stroke:black;" d="M1654,-30C1662,-30 1671,-30 1680,-30"/>
<polygon style="fill:black;stroke:black;" points="1680,-33.5001 1690,-30 1680,-26.5001 1680,-33.5001"/>
</g>
<!-- Addr 1&#45;&gt;Basic Block 2 -->
<g id="edge4" class="edge"><title>Addr 1&#45;&gt;Basic Block 2</title>
<path style="fill:none;stroke:black;" d="M204,-95C212,-95 221,-95 230,-95"/>
<polygon style="fill:black;stroke:black;" points="230,-98.5001 240,-95 230,-91.5001 230,-98.5001"/>
</g>
<!-- Addr 3&#45;&gt;Basic Block 7 -->
<g id="edge20" class="edge"><title>Addr 3&#45;&gt;Basic Block 7</title>
<path style="fill:none;stroke:black;" d="M728,-30C736,-30 745,-30 754,-30"/>
<polygon style="fill:black;stroke:black;" points="754,-33.5001 764,-30 754,-26.5001 754,-33.5001"/>
</g>
<!-- Addr 4&#45;&gt;Basic Block 10 -->
<g id="edge30" class="edge"><title>Addr 4&#45;&gt;Basic Block 10</title>
<path style="fill:none;stroke:black;" d="M1252,-30C1260,-30 1269,-30 1278,-30"/>
<polygon style="fill:black;stroke:black;" points="1278,-33.5001 1288,-30 1278,-26.5001 1278,-33.5001"/>
</g>
<!-- Addr 5&#45;&gt;Basic Block 11 -->
<g id="edge34" class="edge"><title>Addr 5&#45;&gt;Basic Block 11</title>
<path style="fill:none;stroke:black;" d="M1502,-30C1510,-30 1519,-30 1528,-30"/>
<polygon style="fill:black;stroke:black;" points="1528,-33.5001 1538,-30 1528,-26.5001 1528,-33.5001"/>
</g>
</g>
</svg>
