<?xml version="1.0" encoding="UTF-8" standalone="no"?>
<!DOCTYPE svg PUBLIC "-//W3C//DTD SVG 1.0//EN"
 "http://www.w3.org/TR/2001/REC-SVG-20010904/DTD/svg10.dtd" [
 <!ATTLIST svg xmlns:xlink CDATA #FIXED "http://www.w3.org/1999/xlink">
]>
<!-- Generated by Graphviz version 2.20.2 (Tue Mar &#160;2 19:03:41 UTC 2010)
     For user: (levinth) David Levinthal -->
<!-- Title: vfs_read Pages: 1 -->
<svg width="3496pt" height="244pt"
 viewBox="0.00 0.00 3496.00 244.00" xmlns="http://www.w3.org/2000/svg" xmlns:xlink="http://www.w3.org/1999/xlink">
<g id="graph0" class="graph" transform="scale(1 1) rotate(0) translate(4 240)">
<title>vfs_read</title>
<polygon style="fill:white;stroke:white;" points="-4,4 -4,-240 3492,-240 3492,4 -4,4"/>
<!-- Basic Block 1 -->
<g id="node1" class="node"><title>Basic Block 1</title>
<polygon style="fill:#ffffcc;stroke:black;" points="106,-41 3.55271e-14,-41 0,-5 106,-5 106,-41"/>
<text text-anchor="middle" x="53" y="-18.9" style="font-family:Times New Roman;font-size:14.00;">Basic Block 1</text>
</g>
<!-- Addr 1 -->
<g id="node24" class="node"><title>Addr 1</title>
<polygon style="fill:lightgrey;stroke:black;" points="204,-41 142,-41 142,-5 204,-5 204,-41"/>
<text text-anchor="middle" x="173" y="-18.9" style="font-family:Times New Roman;font-size:14.00;">Addr 1</text>
</g>
<!-- Basic Block 1&#45;&gt;Addr 1 -->
<g id="edge2" class="edge"><title>Basic Block 1&#45;&gt;Addr 1</title>
<path style="fill:none;stroke:black;" d="M106,-23C114,-23 123,-23 132,-23"/>
<polygon style="fill:black;stroke:black;" points="132,-26.5001 142,-23 132,-19.5001 132,-26.5001"/>
</g>
<!-- Basic Block 2 -->
<g id="node2" class="node"><title>Basic Block 2</title>
<polygon style="fill:#ffffcc;stroke:black;" points="346,-41 240,-41 240,-5 346,-5 346,-41"/>
<text text-anchor="middle" x="293" y="-18.9" style="font-family:Times New Roman;font-size:14.00;">Basic Block 2</text>
</g>
<!-- Basic Block 3 -->
<g id="node3" class="node"><title>Basic Block 3</title>
<polygon style="fill:#ffffcc;stroke:black;" points="488,-64 382,-64 382,-28 488,-28 488,-64"/>
<text text-anchor="middle" x="435" y="-41.9" style="font-family:Times New Roman;font-size:14.00;">Basic Block 3</text>
</g>
<!-- Basic Block 2&#45;&gt;Basic Block 3 -->
<g id="edge8" class="edge"><title>Basic Block 2&#45;&gt;Basic Block 3</title>
<path style="fill:none;stroke:black;" d="M346,-32C355,-33 363,-35 372,-36"/>
<polygon style="fill:black;stroke:black;" points="371.701,-39.4875 382,-37 372.398,-32.5222 371.701,-39.4875"/>
</g>
<!-- Basic Block 16 -->
<g id="node16" class="node"><title>Basic Block 16</title>
<polygon style="fill:#fc4e2a;stroke:black;" points="3389,-117 3275,-117 3275,-81 3389,-81 3389,-117"/>
<text text-anchor="middle" x="3332" y="-94.9" style="font-family:Times New Roman;font-size:14.00;">Basic Block 16</text>
</g>
<!-- Basic Block 2&#45;&gt;Basic Block 16 -->
<g id="edge6" class="edge"><title>Basic Block 2&#45;&gt;Basic Block 16</title>
<path style="fill:none;stroke:black;" d="M346,-17C404,-10 500,-1 582,-0 582,-0 582,-0 3055,-0 3139,-1 3161,-10 3238,-42 3259,-51 3281,-63 3298,-75"/>
<polygon style="fill:black;stroke:black;" points="3296.74,-78.3651 3307,-81 3300.62,-72.5408 3296.74,-78.3651"/>
</g>
<!-- Basic Block 4 -->
<g id="node4" class="node"><title>Basic Block 4</title>
<polygon style="fill:#ffffcc;stroke:black;" points="635,-160 529,-160 529,-124 635,-124 635,-160"/>
<text text-anchor="middle" x="582" y="-137.9" style="font-family:Times New Roman;font-size:14.00;">Basic Block 4</text>
</g>
<!-- Basic Block 3&#45;&gt;Basic Block 4 -->
<g id="edge12" class="edge"><title>Basic Block 3&#45;&gt;Basic Block 4</title>
<path style="fill:none;stroke:black;" d="M456,-64C474,-79 500,-99 524,-115 526,-116 529,-118 532,-119"/>
<polygon style="fill:black;stroke:black;" points="530.559,-122.203 541,-124 533.958,-116.084 530.559,-122.203"/>
</g>
<!-- Basic Block 19 -->
<g id="node19" class="node"><title>Basic Block 19</title>
<polygon style="fill:#ffffcc;stroke:black;" points="943,-64 829,-64 829,-28 943,-28 943,-64"/>
<text text-anchor="middle" x="886" y="-41.9" style="font-family:Times New Roman;font-size:14.00;">Basic Block 19</text>
</g>
<!-- Basic Block 3&#45;&gt;Basic Block 19 -->
<g id="edge10" class="edge"><title>Basic Block 3&#45;&gt;Basic Block 19</title>
<path style="fill:none;stroke:black;" d="M488,-46C570,-46 728,-46 818,-46"/>
<polygon style="fill:black;stroke:black;" points="818,-49.5001 828,-46 818,-42.5001 818,-49.5001"/>
</g>
<!-- Basic Block 5 -->
<g id="node5" class="node"><title>Basic Block 5</title>
<polygon style="fill:#ffffcc;stroke:black;" points="939,-133 833,-133 833,-97 939,-97 939,-133"/>
<text text-anchor="middle" x="886" y="-110.9" style="font-family:Times New Roman;font-size:14.00;">Basic Block 5</text>
</g>
<!-- Basic Block 4&#45;&gt;Basic Block 5 -->
<g id="edge16" class="edge"><title>Basic Block 4&#45;&gt;Basic Block 5</title>
<path style="fill:none;stroke:black;" d="M635,-137C687,-133 767,-126 823,-121"/>
<polygon style="fill:black;stroke:black;" points="823.398,-124.478 833,-120 822.701,-117.512 823.398,-124.478"/>
</g>
<!-- Basic Block 18 -->
<g id="node18" class="node"><title>Basic Block 18</title>
<polygon style="fill:#ffffcc;stroke:black;" points="791,-108 677,-108 677,-72 791,-72 791,-108"/>
<text text-anchor="middle" x="734" y="-85.9" style="font-family:Times New Roman;font-size:14.00;">Basic Block 18</text>
</g>
<!-- Basic Block 4&#45;&gt;Basic Block 18 -->
<g id="edge14" class="edge"><title>Basic Block 4&#45;&gt;Basic Block 18</title>
<path style="fill:none;stroke:black;" d="M635,-124C647,-120 660,-115 672,-111"/>
<polygon style="fill:black;stroke:black;" points="673.427,-114.226 682,-108 671.416,-107.521 673.427,-114.226"/>
</g>
<!-- Basic Block 6 -->
<g id="node6" class="node"><title>Basic Block 6</title>
<polygon style="fill:#ffffcc;stroke:black;" points="1086,-158 980,-158 980,-122 1086,-122 1086,-158"/>
<text text-anchor="middle" x="1033" y="-135.9" style="font-family:Times New Roman;font-size:14.00;">Basic Block 6</text>
</g>
<!-- Basic Block 5&#45;&gt;Basic Block 6 -->
<g id="edge20" class="edge"><title>Basic Block 5&#45;&gt;Basic Block 6</title>
<path style="fill:none;stroke:black;" d="M939,-124C949,-126 960,-128 970,-129"/>
<polygon style="fill:black;stroke:black;" points="969.508,-132.471 980,-131 970.881,-125.607 969.508,-132.471"/>
</g>
<!-- Basic Block 23 -->
<g id="node23" class="node"><title>Basic Block 23</title>
<polygon style="fill:#ffffcc;stroke:black;" points="1237,-106 1123,-106 1123,-70 1237,-70 1237,-106"/>
<text text-anchor="middle" x="1180" y="-83.9" style="font-family:Times New Roman;font-size:14.00;">Basic Block 23</text>
</g>
<!-- Basic Block 5&#45;&gt;Basic Block 23 -->
<g id="edge18" class="edge"><title>Basic Block 5&#45;&gt;Basic Block 23</title>
<path style="fill:none;stroke:black;" d="M939,-110C988,-105 1059,-99 1112,-94"/>
<polygon style="fill:black;stroke:black;" points="1112.4,-97.4778 1122,-93 1111.7,-90.5125 1112.4,-97.4778"/>
</g>
<!-- Addr 2 -->
<g id="node25" class="node"><title>Addr 2</title>
<polygon style="fill:lightgrey;stroke:black;" points="1211,-160 1149,-160 1149,-124 1211,-124 1211,-160"/>
<text text-anchor="middle" x="1180" y="-137.9" style="font-family:Times New Roman;font-size:14.00;">Addr 2</text>
</g>
<!-- Basic Block 6&#45;&gt;Addr 2 -->
<g id="edge22" class="edge"><title>Basic Block 6&#45;&gt;Addr 2</title>
<path style="fill:none;stroke:black;" d="M1086,-141C1103,-141 1122,-141 1139,-142"/>
<polygon style="fill:black;stroke:black;" points="1139,-145.5 1149,-142 1139,-138.5 1139,-145.5"/>
</g>
<!-- Basic Block 7 -->
<g id="node7" class="node"><title>Basic Block 7</title>
<polygon style="fill:#800026;stroke:black;" points="1380,-160 1274,-160 1274,-124 1380,-124 1380,-160"/>
<text text-anchor="middle" x="1327" y="-137.9" style="font-family:Times New Roman;font-size:14.00;">Basic Block 7</text>
</g>
<!-- Basic Block 8 -->
<g id="node8" class="node"><title>Basic Block 8</title>
<polygon style="fill:#ffffcc;stroke:black;" points="1527,-236 1421,-236 1421,-200 1527,-200 1527,-236"/>
<text text-anchor="middle" x="1474" y="-213.9" style="font-family:Times New Roman;font-size:14.00;">Basic Block 8</text>
</g>
<!-- Basic Block 7&#45;&gt;Basic Block 8 -->
<g id="edge28" class="edge"><title>Basic Block 7&#45;&gt;Basic Block 8</title>
<path style="fill:none;stroke:black;" d="M1359,-160C1376,-170 1397,-181 1416,-191 1419,-193 1422,-194 1426,-196"/>
<polygon style="fill:black;stroke:black;" points="1424.44,-199.137 1435,-200 1427.28,-192.74 1424.44,-199.137"/>
</g>
<!-- Basic Block 7&#45;&gt;Basic Block 16 -->
<g id="edge26" class="edge"><title>Basic Block 7&#45;&gt;Basic Block 16</title>
<path style="fill:none;stroke:black;" d="M1380,-135C1440,-128 1540,-118 1626,-118 1626,-118 1626,-118 3055,-118 3127,-118 3209,-112 3264,-106"/>
<polygon style="fill:black;stroke:black;" points="3264.4,-109.478 3274,-105 3263.7,-102.512 3264.4,-109.478"/>
</g>
<!-- Basic Block 9 -->
<g id="node9" class="node"><title>Basic Block 9</title>
<polygon style="fill:#ffffcc;stroke:black;" points="1679,-236 1573,-236 1573,-200 1679,-200 1679,-236"/>
<text text-anchor="middle" x="1626" y="-213.9" style="font-family:Times New Roman;font-size:14.00;">Basic Block 9</text>
</g>
<!-- Basic Block 8&#45;&gt;Basic Block 9 -->
<g id="edge32" class="edge"><title>Basic Block 8&#45;&gt;Basic Block 9</title>
<path style="fill:none;stroke:black;" d="M1527,-218C1539,-218 1551,-218 1563,-218"/>
<polygon style="fill:black;stroke:black;" points="1563,-221.5 1573,-218 1563,-214.5 1563,-221.5"/>
</g>
<!-- Basic Block 21 -->
<g id="node21" class="node"><title>Basic Block 21</title>
<polygon style="fill:#ffffcc;stroke:black;" points="1683,-182 1569,-182 1569,-146 1683,-146 1683,-182"/>
<text text-anchor="middle" x="1626" y="-159.9" style="font-family:Times New Roman;font-size:14.00;">Basic Block 21</text>
</g>
<!-- Basic Block 8&#45;&gt;Basic Block 21 -->
<g id="edge30" class="edge"><title>Basic Block 8&#45;&gt;Basic Block 21</title>
<path style="fill:none;stroke:black;" d="M1525,-200C1538,-195 1552,-190 1565,-186"/>
<polygon style="fill:black;stroke:black;" points="1567.02,-188.964 1575,-182 1564.42,-182.464 1567.02,-188.964"/>
</g>
<!-- Addr 3 -->
<g id="node26" class="node"><title>Addr 3</title>
<polygon style="fill:lightgrey;stroke:black;" points="1907,-236 1845,-236 1845,-200 1907,-200 1907,-236"/>
<text text-anchor="middle" x="1876" y="-213.9" style="font-family:Times New Roman;font-size:14.00;">Addr 3</text>
</g>
<!-- Basic Block 9&#45;&gt;Addr 3 -->
<g id="edge34" class="edge"><title>Basic Block 9&#45;&gt;Addr 3</title>
<path style="fill:none;stroke:black;" d="M1679,-218C1725,-218 1792,-218 1835,-218"/>
<polygon style="fill:black;stroke:black;" points="1835,-221.5 1845,-218 1835,-214.5 1835,-221.5"/>
</g>
<!-- Basic Block 10 -->
<g id="node10" class="node"><title>Basic Block 10</title>
<polygon style="fill:#800026;stroke:black;" points="2085,-182 1971,-182 1971,-146 2085,-146 2085,-182"/>
<text text-anchor="middle" x="2028" y="-159.9" style="font-family:Times New Roman;font-size:14.00;">Basic Block 10</text>
</g>
<!-- Basic Block 11 -->
<g id="node11" class="node"><title>Basic Block 11</title>
<polygon style="fill:#ffffcc;stroke:black;" points="2237,-220 2123,-220 2123,-184 2237,-184 2237,-220"/>
<text text-anchor="middle" x="2180" y="-197.9" style="font-family:Times New Roman;font-size:14.00;">Basic Block 11</text>
</g>
<!-- Basic Block 10&#45;&gt;Basic Block 11 -->
<g id="edge40" class="edge"><title>Basic Block 10&#45;&gt;Basic Block 11</title>
<path style="fill:none;stroke:black;" d="M2086,-178C2095,-180 2103,-182 2112,-185"/>
<polygon style="fill:black;stroke:black;" points="2111.51,-188.471 2122,-187 2112.88,-181.607 2111.51,-188.471"/>
</g>
<!-- Basic Block 10&#45;&gt;Basic Block 16 -->
<g id="edge38" class="edge"><title>Basic Block 10&#45;&gt;Basic Block 16</title>
<path style="fill:none;stroke:black;" d="M2086,-161C2142,-159 2229,-156 2305,-156 2305,-156 2305,-156 3055,-156 3138,-156 3159,-151 3238,-132 3251,-129 3264,-124 3276,-120"/>
<polygon style="fill:black;stroke:black;" points="3277.43,-123.226 3286,-117 3275.42,-116.521 3277.43,-123.226"/>
</g>
<!-- Addr 4 -->
<g id="node27" class="node"><title>Addr 4</title>
<polygon style="fill:lightgrey;stroke:black;" points="2336,-220 2274,-220 2274,-184 2336,-184 2336,-220"/>
<text text-anchor="middle" x="2305" y="-197.9" style="font-family:Times New Roman;font-size:14.00;">Addr 4</text>
</g>
<!-- Basic Block 11&#45;&gt;Addr 4 -->
<g id="edge42" class="edge"><title>Basic Block 11&#45;&gt;Addr 4</title>
<path style="fill:none;stroke:black;" d="M2238,-202C2246,-202 2255,-202 2264,-202"/>
<polygon style="fill:black;stroke:black;" points="2264,-205.5 2274,-202 2264,-198.5 2264,-205.5"/>
</g>
<!-- Basic Block 12 -->
<g id="node12" class="node"><title>Basic Block 12</title>
<polygon style="fill:#800026;stroke:black;" points="2487,-220 2373,-220 2373,-184 2487,-184 2487,-220"/>
<text text-anchor="middle" x="2430" y="-197.9" style="font-family:Times New Roman;font-size:14.00;">Basic Block 12</text>
</g>
<!-- Addr 5 -->
<g id="node28" class="node"><title>Addr 5</title>
<polygon style="fill:lightgrey;stroke:black;" points="2586,-220 2524,-220 2524,-184 2586,-184 2586,-220"/>
<text text-anchor="middle" x="2555" y="-197.9" style="font-family:Times New Roman;font-size:14.00;">Addr 5</text>
</g>
<!-- Basic Block 12&#45;&gt;Addr 5 -->
<g id="edge46" class="edge"><title>Basic Block 12&#45;&gt;Addr 5</title>
<path style="fill:none;stroke:black;" d="M2488,-202C2496,-202 2505,-202 2514,-202"/>
<polygon style="fill:black;stroke:black;" points="2514,-205.5 2524,-202 2514,-198.5 2514,-205.5"/>
</g>
<!-- Basic Block 13 -->
<g id="node13" class="node"><title>Basic Block 13</title>
<polygon style="fill:#fc4e2a;stroke:black;" points="2737,-220 2623,-220 2623,-184 2737,-184 2737,-220"/>
<text text-anchor="middle" x="2680" y="-197.9" style="font-family:Times New Roman;font-size:14.00;">Basic Block 13</text>
</g>
<!-- Addr 6 -->
<g id="node29" class="node"><title>Addr 6</title>
<polygon style="fill:lightgrey;stroke:black;" points="2836,-220 2774,-220 2774,-184 2836,-184 2836,-220"/>
<text text-anchor="middle" x="2805" y="-197.9" style="font-family:Times New Roman;font-size:14.00;">Addr 6</text>
</g>
<!-- Basic Block 13&#45;&gt;Addr 6 -->
<g id="edge50" class="edge"><title>Basic Block 13&#45;&gt;Addr 6</title>
<path style="fill:none;stroke:black;" d="M2738,-202C2746,-202 2755,-202 2764,-202"/>
<polygon style="fill:black;stroke:black;" points="2764,-205.5 2774,-202 2764,-198.5 2764,-205.5"/>
</g>
<!-- Basic Block 14 -->
<g id="node14" class="node"><title>Basic Block 14</title>
<polygon style="fill:#fc4e2a;stroke:black;" points="2987,-220 2873,-220 2873,-184 2987,-184 2987,-220"/>
<text text-anchor="middle" x="2930" y="-197.9" style="font-family:Times New Roman;font-size:14.00;">Basic Block 14</text>
</g>
<!-- Addr 7 -->
<g id="node30" class="node"><title>Addr 7</title>
<polygon style="fill:lightgrey;stroke:black;" points="3086,-220 3024,-220 3024,-184 3086,-184 3086,-220"/>
<text text-anchor="middle" x="3055" y="-197.9" style="font-family:Times New Roman;font-size:14.00;">Addr 7</text>
</g>
<!-- Basic Block 14&#45;&gt;Addr 7 -->
<g id="edge54" class="edge"><title>Basic Block 14&#45;&gt;Addr 7</title>
<path style="fill:none;stroke:black;" d="M2988,-202C2996,-202 3005,-202 3014,-202"/>
<polygon style="fill:black;stroke:black;" points="3014,-205.5 3024,-202 3014,-198.5 3014,-205.5"/>
</g>
<!-- Basic Block 15 -->
<g id="node15" class="node"><title>Basic Block 15</title>
<polygon style="fill:#bd0026;stroke:black;" points="3237,-220 3123,-220 3123,-184 3237,-184 3237,-220"/>
<text text-anchor="middle" x="3180" y="-197.9" style="font-family:Times New Roman;font-size:14.00;">Basic Block 15</text>
</g>
<!-- Basic Block 15&#45;&gt;Basic Block 16 -->
<g id="edge58" class="edge"><title>Basic Block 15&#45;&gt;Basic Block 16</title>
<path style="fill:none;stroke:black;" d="M3215,-184C3223,-180 3231,-175 3238,-170 3260,-155 3284,-138 3302,-123"/>
<polygon style="fill:black;stroke:black;" points="3304.1,-125.8 3310,-117 3299.9,-120.2 3304.1,-125.8"/>
</g>
<!-- Addr 8 -->
<g id="node31" class="node"><title>Addr 8</title>
<polygon style="fill:lightgrey;stroke:black;" points="3488,-117 3426,-117 3426,-81 3488,-81 3488,-117"/>
<text text-anchor="middle" x="3457" y="-94.9" style="font-family:Times New Roman;font-size:14.00;">Addr 8</text>
</g>
<!-- Basic Block 16&#45;&gt;Addr 8 -->
<g id="edge60" class="edge"><title>Basic Block 16&#45;&gt;Addr 8</title>
<path style="fill:none;stroke:black;" d="M3390,-99C3398,-99 3407,-99 3416,-99"/>
<polygon style="fill:black;stroke:black;" points="3416,-102.5 3426,-99 3416,-95.5001 3416,-102.5"/>
</g>
<!-- Basic Block 17 -->
<g id="node17" class="node"><title>Basic Block 17</title>
<polygon style="fill:#ffffcc;stroke:black;" points="639,-106 525,-106 525,-70 639,-70 639,-106"/>
<text text-anchor="middle" x="582" y="-83.9" style="font-family:Times New Roman;font-size:14.00;">Basic Block 17</text>
</g>
<!-- Basic Block 17&#45;&gt;Basic Block 18 -->
<g id="edge62" class="edge"><title>Basic Block 17&#45;&gt;Basic Block 18</title>
<path style="fill:none;stroke:black;" d="M640,-89C649,-89 657,-89 666,-89"/>
<polygon style="fill:black;stroke:black;" points="666,-92.5001 676,-89 666,-85.5001 666,-92.5001"/>
</g>
<!-- Basic Block 18&#45;&gt;Basic Block 5 -->
<g id="edge64" class="edge"><title>Basic Block 18&#45;&gt;Basic Block 5</title>
<path style="fill:none;stroke:black;" d="M792,-100C802,-102 813,-103 823,-105"/>
<polygon style="fill:black;stroke:black;" points="822.508,-108.471 833,-107 823.881,-101.607 822.508,-108.471"/>
</g>
<!-- Basic Block 18&#45;&gt;Basic Block 19 -->
<g id="edge66" class="edge"><title>Basic Block 18&#45;&gt;Basic Block 19</title>
<path style="fill:none;stroke:black;" d="M792,-73C801,-71 809,-68 818,-66"/>
<polygon style="fill:black;stroke:black;" points="819.427,-69.2259 828,-63 817.416,-62.5212 819.427,-69.2259"/>
</g>
<!-- Basic Block 19&#45;&gt;Basic Block 16 -->
<g id="edge68" class="edge"><title>Basic Block 19&#45;&gt;Basic Block 16</title>
<path style="fill:none;stroke:black;" d="M944,-45C1003,-44 1098,-42 1180,-42 1180,-42 1180,-42 3055,-42 3130,-42 3212,-62 3268,-78"/>
<polygon style="fill:black;stroke:black;" points="3267.42,-81.4788 3278,-81 3269.43,-74.7741 3267.42,-81.4788"/>
</g>
<!-- Basic Block 20 -->
<g id="node20" class="node"><title>Basic Block 20</title>
<polygon style="fill:#ffffcc;stroke:black;" points="1531,-182 1417,-182 1417,-146 1531,-146 1531,-182"/>
<text text-anchor="middle" x="1474" y="-159.9" style="font-family:Times New Roman;font-size:14.00;">Basic Block 20</text>
</g>
<!-- Basic Block 20&#45;&gt;Basic Block 21 -->
<g id="edge70" class="edge"><title>Basic Block 20&#45;&gt;Basic Block 21</title>
<path style="fill:none;stroke:black;" d="M1532,-164C1541,-164 1549,-164 1558,-164"/>
<polygon style="fill:black;stroke:black;" points="1558,-167.5 1568,-164 1558,-160.5 1558,-167.5"/>
</g>
<!-- Addr 9 -->
<g id="node32" class="node"><title>Addr 9</title>
<polygon style="fill:lightgrey;stroke:black;" points="1782,-182 1720,-182 1720,-146 1782,-146 1782,-182"/>
<text text-anchor="middle" x="1751" y="-159.9" style="font-family:Times New Roman;font-size:14.00;">Addr 9</text>
</g>
<!-- Basic Block 21&#45;&gt;Addr 9 -->
<g id="edge72" class="edge"><title>Basic Block 21&#45;&gt;Addr 9</title>
<path style="fill:none;stroke:black;" d="M1684,-164C1692,-164 1701,-164 1710,-164"/>
<polygon style="fill:black;stroke:black;" points="1710,-167.5 1720,-164 1710,-160.5 1710,-167.5"/>
</g>
<!-- Basic Block 22 -->
<g id="node22" class="node"><title>Basic Block 22</title>
<polygon style="fill:#ffffcc;stroke:black;" points="1933,-182 1819,-182 1819,-146 1933,-146 1933,-182"/>
<text text-anchor="middle" x="1876" y="-159.9" style="font-family:Times New Roman;font-size:14.00;">Basic Block 22</text>
</g>
<!-- Basic Block 22&#45;&gt;Basic Block 10 -->
<g id="edge76" class="edge"><title>Basic Block 22&#45;&gt;Basic Block 10</title>
<path style="fill:none;stroke:black;" d="M1934,-164C1943,-164 1951,-164 1960,-164"/>
<polygon style="fill:black;stroke:black;" points="1960,-167.5 1970,-164 1960,-160.5 1960,-167.5"/>
</g>
<!-- Basic Block 23&#45;&gt;Basic Block 16 -->
<g id="edge78" class="edge"><title>Basic Block 23&#45;&gt;Basic Block 16</title>
<path style="fill:none;stroke:black;" d="M1238,-86C1297,-83 1392,-80 1474,-80 1474,-80 1474,-80 3055,-80 3127,-80 3209,-86 3264,-92"/>
<polygon style="fill:black;stroke:black;" points="3263.7,-95.4875 3274,-93 3264.4,-88.5222 3263.7,-95.4875"/>
</g>
<!-- Addr 1&#45;&gt;Basic Block 2 -->
<g id="edge4" class="edge"><title>Addr 1&#45;&gt;Basic Block 2</title>
<path style="fill:none;stroke:black;" d="M204,-23C212,-23 221,-23 230,-23"/>
<polygon style="fill:black;stroke:black;" points="230,-26.5001 240,-23 230,-19.5001 230,-26.5001"/>
</g>
<!-- Addr 2&#45;&gt;Basic Block 7 -->
<g id="edge24" class="edge"><title>Addr 2&#45;&gt;Basic Block 7</title>
<path style="fill:none;stroke:black;" d="M1211,-142C1226,-142 1246,-142 1264,-142"/>
<polygon style="fill:black;stroke:black;" points="1264,-145.5 1274,-142 1264,-138.5 1264,-145.5"/>
</g>
<!-- Addr 3&#45;&gt;Basic Block 10 -->
<g id="edge36" class="edge"><title>Addr 3&#45;&gt;Basic Block 10</title>
<path style="fill:none;stroke:black;" d="M1907,-207C1924,-201 1947,-193 1967,-185"/>
<polygon style="fill:black;stroke:black;" points="1968.43,-188.226 1977,-182 1966.42,-181.521 1968.43,-188.226"/>
</g>
<!-- Addr 4&#45;&gt;Basic Block 12 -->
<g id="edge44" class="edge"><title>Addr 4&#45;&gt;Basic Block 12</title>
<path style="fill:none;stroke:black;" d="M2336,-202C2344,-202 2353,-202 2362,-202"/>
<polygon style="fill:black;stroke:black;" points="2362,-205.5 2372,-202 2362,-198.5 2362,-205.5"/>
</g>
<!-- Addr 5&#45;&gt;Basic Block 13 -->
<g id="edge48" class="edge"><title>Addr 5&#45;&gt;Basic Block 13</title>
<path style="fill:none;stroke:black;" d="M2586,-202C2594,-202 2603,-202 2612,-202"/>
<polygon style="fill:black;stroke:black;" points="2612,-205.5 2622,-202 2612,-198.5 2612,-205.5"/>
</g>
<!-- Addr 6&#45;&gt;Basic Block 14 -->
<g id="edge52" class="edge"><title>Addr 6&#45;&gt;Basic Block 14</title>
<path style="fill:none;stroke:black;" d="M2836,-202C2844,-202 2853,-202 2862,-202"/>
<polygon style="fill:black;stroke:black;" points="2862,-205.5 2872,-202 2862,-198.5 2862,-205.5"/>
</g>
<!-- Addr 7&#45;&gt;Basic Block 15 -->
<g id="edge56" class="edge"><title>Addr 7&#45;&gt;Basic Block 15</title>
<path style="fill:none;stroke:black;" d="M3086,-202C3094,-202 3103,-202 3112,-202"/>
<polygon style="fill:black;stroke:black;" points="3112,-205.5 3122,-202 3112,-198.5 3112,-205.5"/>
</g>
<!-- Addr 9&#45;&gt;Basic Block 22 -->
<g id="edge74" class="edge"><title>Addr 9&#45;&gt;Basic Block 22</title>
<path style="fill:none;stroke:black;" d="M1782,-164C1790,-164 1799,-164 1808,-164"/>
<polygon style="fill:black;stroke:black;" points="1808,-167.5 1818,-164 1808,-160.5 1808,-167.5"/>
</g>
</g>
</svg>
