<?xml version="1.0" encoding="UTF-8" standalone="no"?>
<!DOCTYPE svg PUBLIC "-//W3C//DTD SVG 1.0//EN"
 "http://www.w3.org/TR/2001/REC-SVG-20010904/DTD/svg10.dtd" [
 <!ATTLIST svg xmlns:xlink CDATA #FIXED "http://www.w3.org/1999/xlink">
]>
<!-- Generated by Graphviz version 2.20.2 (Tue Mar &#160;2 19:03:41 UTC 2010)
     For user: (levinth) David Levinthal -->
<!-- Title: diskmon_pop_curr_flow Pages: 1 -->
<svg width="1270pt" height="132pt"
 viewBox="0.00 0.00 1270.00 132.00" xmlns="http://www.w3.org/2000/svg" xmlns:xlink="http://www.w3.org/1999/xlink">
<g id="graph0" class="graph" transform="scale(1 1) rotate(0) translate(4 128)">
<title>diskmon_pop_curr_flow</title>
<polygon style="fill:white;stroke:white;" points="-4,4 -4,-128 1266,-128 1266,4 -4,4"/>
<!-- Basic Block 1 -->
<g id="node1" class="node"><title>Basic Block 1</title>
<polygon style="fill:#ffffcc;stroke:black;" points="106,-124 3.55271e-14,-124 0,-88 106,-88 106,-124"/>
<text text-anchor="middle" x="53" y="-101.9" style="font-family:Times New Roman;font-size:14.00;">Basic Block 1</text>
</g>
<!-- Addr 1 -->
<g id="node11" class="node"><title>Addr 1</title>
<polygon style="fill:lightgrey;stroke:black;" points="204,-124 142,-124 142,-88 204,-88 204,-124"/>
<text text-anchor="middle" x="173" y="-101.9" style="font-family:Times New Roman;font-size:14.00;">Addr 1</text>
</g>
<!-- Basic Block 1&#45;&gt;Addr 1 -->
<g id="edge2" class="edge"><title>Basic Block 1&#45;&gt;Addr 1</title>
<path style="fill:none;stroke:black;" d="M106,-106C114,-106 123,-106 132,-106"/>
<polygon style="fill:black;stroke:black;" points="132,-109.5 142,-106 132,-102.5 132,-109.5"/>
</g>
<!-- Basic Block 2 -->
<g id="node2" class="node"><title>Basic Block 2</title>
<polygon style="fill:#ffffcc;stroke:black;" points="346,-124 240,-124 240,-88 346,-88 346,-124"/>
<text text-anchor="middle" x="293" y="-101.9" style="font-family:Times New Roman;font-size:14.00;">Basic Block 2</text>
</g>
<!-- Basic Block 3 -->
<g id="node3" class="node"><title>Basic Block 3</title>
<polygon style="fill:#ffffcc;stroke:black;" points="772,-90 666,-90 666,-54 772,-54 772,-90"/>
<text text-anchor="middle" x="719" y="-67.9" style="font-family:Times New Roman;font-size:14.00;">Basic Block 3</text>
</g>
<!-- Basic Block 2&#45;&gt;Basic Block 3 -->
<g id="edge8" class="edge"><title>Basic Block 2&#45;&gt;Basic Block 3</title>
<path style="fill:none;stroke:black;" d="M346,-102C413,-97 530,-89 630,-80 639,-79 647,-79 656,-78"/>
<polygon style="fill:black;stroke:black;" points="656.398,-81.4778 666,-77 655.701,-74.5125 656.398,-81.4778"/>
</g>
<!-- Basic Block 7 -->
<g id="node7" class="node"><title>Basic Block 7</title>
<polygon style="fill:#ffffcc;stroke:black;" points="488,-74 382,-74 382,-38 488,-38 488,-74"/>
<text text-anchor="middle" x="435" y="-51.9" style="font-family:Times New Roman;font-size:14.00;">Basic Block 7</text>
</g>
<!-- Basic Block 2&#45;&gt;Basic Block 7 -->
<g id="edge6" class="edge"><title>Basic Block 2&#45;&gt;Basic Block 7</title>
<path style="fill:none;stroke:black;" d="M344,-88C354,-85 364,-81 374,-78"/>
<polygon style="fill:black;stroke:black;" points="376.015,-80.9636 384,-74 373.415,-74.4643 376.015,-80.9636"/>
</g>
<!-- Addr 2 -->
<g id="node12" class="node"><title>Addr 2</title>
<polygon style="fill:lightgrey;stroke:black;" points="870,-90 808,-90 808,-54 870,-54 870,-90"/>
<text text-anchor="middle" x="839" y="-67.9" style="font-family:Times New Roman;font-size:14.00;">Addr 2</text>
</g>
<!-- Basic Block 3&#45;&gt;Addr 2 -->
<g id="edge10" class="edge"><title>Basic Block 3&#45;&gt;Addr 2</title>
<path style="fill:none;stroke:black;" d="M772,-72C780,-72 789,-72 798,-72"/>
<polygon style="fill:black;stroke:black;" points="798,-75.5001 808,-72 798,-68.5001 798,-75.5001"/>
</g>
<!-- Basic Block 4 -->
<g id="node4" class="node"><title>Basic Block 4</title>
<polygon style="fill:#800026;stroke:black;" points="1017,-90 911,-90 911,-54 1017,-54 1017,-90"/>
<text text-anchor="middle" x="964" y="-67.9" style="font-family:Times New Roman;font-size:14.00;">Basic Block 4</text>
</g>
<!-- Basic Block 5 -->
<g id="node5" class="node"><title>Basic Block 5</title>
<polygon style="fill:#e31a1c;stroke:black;" points="1164,-63 1058,-63 1058,-27 1164,-27 1164,-63"/>
<text text-anchor="middle" x="1111" y="-40.9" style="font-family:Times New Roman;font-size:14.00;">Basic Block 5</text>
</g>
<!-- Basic Block 4&#45;&gt;Basic Block 5 -->
<g id="edge14" class="edge"><title>Basic Block 4&#45;&gt;Basic Block 5</title>
<path style="fill:none;stroke:black;" d="M1017,-62C1027,-60 1038,-58 1048,-57"/>
<polygon style="fill:black;stroke:black;" points="1048.88,-60.3933 1058,-55 1047.51,-53.5292 1048.88,-60.3933"/>
</g>
<!-- Addr 3 -->
<g id="node13" class="node"><title>Addr 3</title>
<polygon style="fill:lightgrey;stroke:black;" points="1262,-63 1200,-63 1200,-27 1262,-27 1262,-63"/>
<text text-anchor="middle" x="1231" y="-40.9" style="font-family:Times New Roman;font-size:14.00;">Addr 3</text>
</g>
<!-- Basic Block 5&#45;&gt;Addr 3 -->
<g id="edge16" class="edge"><title>Basic Block 5&#45;&gt;Addr 3</title>
<path style="fill:none;stroke:black;" d="M1164,-45C1172,-45 1181,-45 1190,-45"/>
<polygon style="fill:black;stroke:black;" points="1190,-48.5001 1200,-45 1190,-41.5001 1190,-48.5001"/>
</g>
<!-- Basic Block 6 -->
<g id="node6" class="node"><title>Basic Block 6</title>
<polygon style="fill:#ffffcc;stroke:black;" points="346,-70 240,-70 240,-34 346,-34 346,-70"/>
<text text-anchor="middle" x="293" y="-47.9" style="font-family:Times New Roman;font-size:14.00;">Basic Block 6</text>
</g>
<!-- Basic Block 6&#45;&gt;Basic Block 7 -->
<g id="edge18" class="edge"><title>Basic Block 6&#45;&gt;Basic Block 7</title>
<path style="fill:none;stroke:black;" d="M346,-54C355,-54 363,-55 372,-55"/>
<polygon style="fill:black;stroke:black;" points="372,-58.5001 382,-55 372,-51.5001 372,-58.5001"/>
</g>
<!-- Basic Block 7&#45;&gt;Basic Block 3 -->
<g id="edge20" class="edge"><title>Basic Block 7&#45;&gt;Basic Block 3</title>
<path style="fill:none;stroke:black;" d="M488,-59C536,-62 605,-65 656,-68"/>
<polygon style="fill:black;stroke:black;" points="655.701,-71.4875 666,-69 656.398,-64.5222 655.701,-71.4875"/>
</g>
<!-- Basic Block 8 -->
<g id="node8" class="node"><title>Basic Block 8</title>
<polygon style="fill:#ffffcc;stroke:black;" points="630,-40 524,-40 524,-4 630,-4 630,-40"/>
<text text-anchor="middle" x="577" y="-17.9" style="font-family:Times New Roman;font-size:14.00;">Basic Block 8</text>
</g>
<!-- Basic Block 7&#45;&gt;Basic Block 8 -->
<g id="edge22" class="edge"><title>Basic Block 7&#45;&gt;Basic Block 8</title>
<path style="fill:none;stroke:black;" d="M488,-43C497,-41 505,-39 514,-37"/>
<polygon style="fill:black;stroke:black;" points="514.881,-40.3933 524,-35 513.508,-33.5292 514.881,-40.3933"/>
</g>
<!-- Basic Block 8&#45;&gt;Basic Block 3 -->
<g id="edge24" class="edge"><title>Basic Block 8&#45;&gt;Basic Block 3</title>
<path style="fill:none;stroke:black;" d="M628,-40C638,-43 648,-47 658,-50"/>
<polygon style="fill:black;stroke:black;" points="657.415,-53.5357 668,-54 660.015,-47.0364 657.415,-53.5357"/>
</g>
<!-- Basic Block 9 -->
<g id="node9" class="node"><title>Basic Block 9</title>
<polygon style="fill:#ffffcc;stroke:black;" points="772,-36 666,-36 666,-1.77636e-14 772,-3.55271e-15 772,-36"/>
<text text-anchor="middle" x="719" y="-13.9" style="font-family:Times New Roman;font-size:14.00;">Basic Block 9</text>
</g>
<!-- Basic Block 8&#45;&gt;Basic Block 9 -->
<g id="edge26" class="edge"><title>Basic Block 8&#45;&gt;Basic Block 9</title>
<path style="fill:none;stroke:black;" d="M630,-20C639,-20 647,-19 656,-19"/>
<polygon style="fill:black;stroke:black;" points="656,-22.5001 666,-19 656,-15.5001 656,-22.5001"/>
</g>
<!-- Addr 4 -->
<g id="node14" class="node"><title>Addr 4</title>
<polygon style="fill:lightgrey;stroke:black;" points="870,-36 808,-36 808,-1.77636e-14 870,-3.55271e-15 870,-36"/>
<text text-anchor="middle" x="839" y="-13.9" style="font-family:Times New Roman;font-size:14.00;">Addr 4</text>
</g>
<!-- Basic Block 9&#45;&gt;Addr 4 -->
<g id="edge28" class="edge"><title>Basic Block 9&#45;&gt;Addr 4</title>
<path style="fill:none;stroke:black;" d="M772,-18C780,-18 789,-18 798,-18"/>
<polygon style="fill:black;stroke:black;" points="798,-21.5001 808,-18 798,-14.5001 798,-21.5001"/>
</g>
<!-- Basic Block 10 -->
<g id="node10" class="node"><title>Basic Block 10</title>
<polygon style="fill:#ffffcc;stroke:black;" points="1021,-36 907,-36 907,-1.77636e-14 1021,-3.55271e-15 1021,-36"/>
<text text-anchor="middle" x="964" y="-13.9" style="font-family:Times New Roman;font-size:14.00;">Basic Block 10</text>
</g>
<!-- Basic Block 10&#45;&gt;Basic Block 5 -->
<g id="edge32" class="edge"><title>Basic Block 10&#45;&gt;Basic Block 5</title>
<path style="fill:none;stroke:black;" d="M1022,-29C1031,-30 1039,-32 1048,-33"/>
<polygon style="fill:black;stroke:black;" points="1047.51,-36.4708 1058,-35 1048.88,-29.6067 1047.51,-36.4708"/>
</g>
<!-- Addr 1&#45;&gt;Basic Block 2 -->
<g id="edge4" class="edge"><title>Addr 1&#45;&gt;Basic Block 2</title>
<path style="fill:none;stroke:black;" d="M204,-106C212,-106 221,-106 230,-106"/>
<polygon style="fill:black;stroke:black;" points="230,-109.5 240,-106 230,-102.5 230,-109.5"/>
</g>
<!-- Addr 2&#45;&gt;Basic Block 4 -->
<g id="edge12" class="edge"><title>Addr 2&#45;&gt;Basic Block 4</title>
<path style="fill:none;stroke:black;" d="M870,-72C879,-72 890,-72 901,-72"/>
<polygon style="fill:black;stroke:black;" points="901,-75.5001 911,-72 901,-68.5001 901,-75.5001"/>
</g>
<!-- Addr 4&#45;&gt;Basic Block 10 -->
<g id="edge30" class="edge"><title>Addr 4&#45;&gt;Basic Block 10</title>
<path style="fill:none;stroke:black;" d="M870,-18C878,-18 887,-18 896,-18"/>
<polygon style="fill:black;stroke:black;" points="896,-21.5001 906,-18 896,-14.5001 896,-21.5001"/>
</g>
</g>
</svg>
