<?xml version="1.0" encoding="UTF-8" standalone="no"?>
<!DOCTYPE svg PUBLIC "-//W3C//DTD SVG 1.1//EN"
 "http://www.w3.org/Graphics/SVG/1.1/DTD/svg11.dtd">
<!-- Generated by graphviz version 2.26.0 (20091210.2329)
 -->
<!-- Title: ggc_set_mark Pages: 1 -->
<svg width="1028pt" height="98pt"
 viewBox="0.00 0.00 1028.00 98.00" xmlns="http://www.w3.org/2000/svg" xmlns:xlink="http://www.w3.org/1999/xlink">
<g id="graph1" class="graph" transform="scale(1 1) rotate(0) translate(4 94)">
<title>ggc_set_mark</title>
<polygon fill="white" stroke="white" points="-4,5 -4,-94 1025,-94 1025,5 -4,5"/>
<!-- Basic Block 1 -->
<g id="node1" class="node"><title>Basic Block 1</title>
<polygon fill="#ffffcc" stroke="black" points="93,-63 1,-63 1,-27 93,-27 93,-63"/>
<text text-anchor="middle" x="47" y="-41.9" font-family="Times Roman,serif" font-size="14.00">Basic Block 1</text>
</g>
<!-- Addr 1 -->
<g id="node8" class="node"><title>Addr 1</title>
<polygon fill="lightgrey" stroke="black" points="185,-63 131,-63 131,-27 185,-27 185,-63"/>
<text text-anchor="middle" x="158" y="-41.9" font-family="Times Roman,serif" font-size="14.00">Addr 1</text>
</g>
<!-- Basic Block 1&#45;&gt;Addr 1 -->
<g id="edge2" class="edge"><title>Basic Block 1&#45;&gt;Addr 1</title>
<path fill="none" stroke="black" d="M93.7523,-45C102.598,-45 111.748,-45 120.272,-45"/>
<polygon fill="black" stroke="black" points="120.298,-48.5001 130.298,-45 120.298,-41.5001 120.298,-48.5001"/>
</g>
<!-- Basic Block 2 -->
<g id="node2" class="node"><title>Basic Block 2</title>
<polygon fill="#ffffcc" stroke="black" points="315,-63 223,-63 223,-27 315,-27 315,-63"/>
<text text-anchor="middle" x="269" y="-41.9" font-family="Times Roman,serif" font-size="14.00">Basic Block 2</text>
</g>
<!-- Basic Block 3 -->
<g id="node3" class="node"><title>Basic Block 3</title>
<polygon fill="#ffffcc" stroke="black" points="445,-86 353,-86 353,-50 445,-50 445,-86"/>
<text text-anchor="middle" x="399" y="-64.9" font-family="Times Roman,serif" font-size="14.00">Basic Block 3</text>
</g>
<!-- Basic Block 2&#45;&gt;Basic Block 3 -->
<g id="edge8" class="edge"><title>Basic Block 2&#45;&gt;Basic Block 3</title>
<path fill="none" stroke="black" d="M315.566,-53.2386C324.247,-54.7745 333.406,-56.395 342.351,-57.9776"/>
<polygon fill="black" stroke="black" points="341.866,-61.4459 352.322,-59.7417 343.085,-54.5529 341.866,-61.4459"/>
</g>
<!-- Basic Block 4 -->
<g id="node4" class="node"><title>Basic Block 4</title>
<polygon fill="#800026" stroke="black" points="667,-63 575,-63 575,-27 667,-27 667,-63"/>
<text text-anchor="middle" x="621" y="-41.9" font-family="Times Roman,serif" font-size="14.00">Basic Block 4</text>
</g>
<!-- Basic Block 2&#45;&gt;Basic Block 4 -->
<g id="edge6" class="edge"><title>Basic Block 2&#45;&gt;Basic Block 4</title>
<path fill="none" stroke="black" d="M315.518,-42.363C327.408,-41.7976 340.174,-41.2848 352,-41 434.643,-39.0098 455.357,-39.0098 538,-41 546.5,-41.2047 555.486,-41.5272 564.283,-41.9023"/>
<polygon fill="black" stroke="black" points="564.335,-45.4081 574.482,-42.363 564.65,-38.4153 564.335,-45.4081"/>
</g>
<!-- Addr 2 -->
<g id="node9" class="node"><title>Addr 2</title>
<polygon fill="lightgrey" stroke="black" points="537,-86 483,-86 483,-50 537,-50 537,-86"/>
<text text-anchor="middle" x="510" y="-64.9" font-family="Times Roman,serif" font-size="14.00">Addr 2</text>
</g>
<!-- Basic Block 3&#45;&gt;Addr 2 -->
<g id="edge10" class="edge"><title>Basic Block 3&#45;&gt;Addr 2</title>
<path fill="none" stroke="black" d="M445.752,-68C454.598,-68 463.748,-68 472.272,-68"/>
<polygon fill="black" stroke="black" points="472.298,-71.5001 482.298,-68 472.298,-64.5001 472.298,-71.5001"/>
</g>
<!-- Basic Block 5 -->
<g id="node5" class="node"><title>Basic Block 5</title>
<polygon fill="#ffffcc" stroke="black" points="797,-90 705,-90 705,-54 797,-54 797,-90"/>
<text text-anchor="middle" x="751" y="-68.9" font-family="Times Roman,serif" font-size="14.00">Basic Block 5</text>
</g>
<!-- Basic Block 4&#45;&gt;Basic Block 5 -->
<g id="edge16" class="edge"><title>Basic Block 4&#45;&gt;Basic Block 5</title>
<path fill="none" stroke="black" d="M667.566,-54.6714C676.247,-56.4744 685.406,-58.3767 694.351,-60.2345"/>
<polygon fill="black" stroke="black" points="693.82,-63.6987 704.322,-62.3054 695.243,-56.8449 693.82,-63.6987"/>
</g>
<!-- Basic Block 6 -->
<g id="node6" class="node"><title>Basic Block 6</title>
<polygon fill="#ffffcc" stroke="black" points="797,-36 705,-36 705,-1.77636e-14 797,-3.55271e-15 797,-36"/>
<text text-anchor="middle" x="751" y="-14.9" font-family="Times Roman,serif" font-size="14.00">Basic Block 6</text>
</g>
<!-- Basic Block 4&#45;&gt;Basic Block 6 -->
<g id="edge14" class="edge"><title>Basic Block 4&#45;&gt;Basic Block 6</title>
<path fill="none" stroke="black" d="M667.566,-35.3286C676.247,-33.5256 685.406,-31.6233 694.351,-29.7655"/>
<polygon fill="black" stroke="black" points="695.243,-33.1551 704.322,-27.6946 693.82,-26.3013 695.243,-33.1551"/>
</g>
<!-- Basic Block 7 -->
<g id="node7" class="node"><title>Basic Block 7</title>
<polygon fill="#ffffcc" stroke="black" points="927,-63 835,-63 835,-27 927,-27 927,-63"/>
<text text-anchor="middle" x="881" y="-41.9" font-family="Times Roman,serif" font-size="14.00">Basic Block 7</text>
</g>
<!-- Basic Block 5&#45;&gt;Basic Block 7 -->
<g id="edge18" class="edge"><title>Basic Block 5&#45;&gt;Basic Block 7</title>
<path fill="none" stroke="black" d="M797.566,-62.3286C806.247,-60.5256 815.406,-58.6233 824.351,-56.7655"/>
<polygon fill="black" stroke="black" points="825.243,-60.1551 834.322,-54.6946 823.82,-53.3013 825.243,-60.1551"/>
</g>
<!-- Basic Block 6&#45;&gt;Basic Block 7 -->
<g id="edge20" class="edge"><title>Basic Block 6&#45;&gt;Basic Block 7</title>
<path fill="none" stroke="black" d="M797.566,-27.6714C806.247,-29.4744 815.406,-31.3767 824.351,-33.2345"/>
<polygon fill="black" stroke="black" points="823.82,-36.6987 834.322,-35.3054 825.243,-29.8449 823.82,-36.6987"/>
</g>
<!-- Addr 3 -->
<g id="node10" class="node"><title>Addr 3</title>
<polygon fill="lightgrey" stroke="black" points="1019,-63 965,-63 965,-27 1019,-27 1019,-63"/>
<text text-anchor="middle" x="992" y="-41.9" font-family="Times Roman,serif" font-size="14.00">Addr 3</text>
</g>
<!-- Basic Block 7&#45;&gt;Addr 3 -->
<g id="edge22" class="edge"><title>Basic Block 7&#45;&gt;Addr 3</title>
<path fill="none" stroke="black" d="M927.752,-45C936.598,-45 945.748,-45 954.272,-45"/>
<polygon fill="black" stroke="black" points="954.298,-48.5001 964.298,-45 954.298,-41.5001 954.298,-48.5001"/>
</g>
<!-- Addr 1&#45;&gt;Basic Block 2 -->
<g id="edge4" class="edge"><title>Addr 1&#45;&gt;Basic Block 2</title>
<path fill="none" stroke="black" d="M185.724,-45C193.748,-45 202.817,-45 211.942,-45"/>
<polygon fill="black" stroke="black" points="212.215,-48.5001 222.215,-45 212.215,-41.5001 212.215,-48.5001"/>
</g>
<!-- Addr 2&#45;&gt;Basic Block 4 -->
<g id="edge12" class="edge"><title>Addr 2&#45;&gt;Basic Block 4</title>
<path fill="none" stroke="black" d="M537.724,-62.2555C545.835,-60.5748 555.012,-58.6732 564.236,-56.7619"/>
<polygon fill="black" stroke="black" points="565.133,-60.1504 574.215,-54.6942 563.713,-53.296 565.133,-60.1504"/>
</g>
</g>
</svg>
