<?xml version="1.0" encoding="UTF-8" standalone="no"?>
<!DOCTYPE svg PUBLIC "-//W3C//DTD SVG 1.0//EN"
 "http://www.w3.org/TR/2001/REC-SVG-20010904/DTD/svg10.dtd" [
 <!ATTLIST svg xmlns:xlink CDATA #FIXED "http://www.w3.org/1999/xlink">
]>
<!-- Generated by Graphviz version 2.20.2 (Tue Mar &#160;2 19:03:41 UTC 2010)
     For user: (levinth) David Levinthal -->
<!-- Title: sys_lseek Pages: 1 -->
<svg width="1912pt" height="144pt"
 viewBox="0.00 0.00 1912.00 144.00" xmlns="http://www.w3.org/2000/svg" xmlns:xlink="http://www.w3.org/1999/xlink">
<g id="graph0" class="graph" transform="scale(1 1) rotate(0) translate(4 140)">
<title>sys_lseek</title>
<polygon style="fill:white;stroke:white;" points="-4,4 -4,-140 1908,-140 1908,4 -4,4"/>
<!-- Basic Block 1 -->
<g id="node1" class="node"><title>Basic Block 1</title>
<polygon style="fill:#ffffcc;stroke:black;" points="106,-86 3.55271e-14,-86 0,-50 106,-50 106,-86"/>
<text text-anchor="middle" x="53" y="-63.9" style="font-family:Times New Roman;font-size:14.00;">Basic Block 1</text>
</g>
<!-- Addr 1 -->
<g id="node13" class="node"><title>Addr 1</title>
<polygon style="fill:lightgrey;stroke:black;" points="204,-86 142,-86 142,-50 204,-50 204,-86"/>
<text text-anchor="middle" x="173" y="-63.9" style="font-family:Times New Roman;font-size:14.00;">Addr 1</text>
</g>
<!-- Basic Block 1&#45;&gt;Addr 1 -->
<g id="edge2" class="edge"><title>Basic Block 1&#45;&gt;Addr 1</title>
<path style="fill:none;stroke:black;" d="M106,-68C114,-68 123,-68 132,-68"/>
<polygon style="fill:black;stroke:black;" points="132,-71.5001 142,-68 132,-64.5001 132,-71.5001"/>
</g>
<!-- Basic Block 2 -->
<g id="node2" class="node"><title>Basic Block 2</title>
<polygon style="fill:#ffffcc;stroke:black;" points="346,-86 240,-86 240,-50 346,-50 346,-86"/>
<text text-anchor="middle" x="293" y="-63.9" style="font-family:Times New Roman;font-size:14.00;">Basic Block 2</text>
</g>
<!-- Addr 2 -->
<g id="node14" class="node"><title>Addr 2</title>
<polygon style="fill:lightgrey;stroke:black;" points="444,-86 382,-86 382,-50 444,-50 444,-86"/>
<text text-anchor="middle" x="413" y="-63.9" style="font-family:Times New Roman;font-size:14.00;">Addr 2</text>
</g>
<!-- Basic Block 2&#45;&gt;Addr 2 -->
<g id="edge6" class="edge"><title>Basic Block 2&#45;&gt;Addr 2</title>
<path style="fill:none;stroke:black;" d="M346,-68C354,-68 363,-68 372,-68"/>
<polygon style="fill:black;stroke:black;" points="372,-71.5001 382,-68 372,-64.5001 372,-71.5001"/>
</g>
<!-- Basic Block 3 -->
<g id="node3" class="node"><title>Basic Block 3</title>
<polygon style="fill:#800026;stroke:black;" points="586,-86 480,-86 480,-50 586,-50 586,-86"/>
<text text-anchor="middle" x="533" y="-63.9" style="font-family:Times New Roman;font-size:14.00;">Basic Block 3</text>
</g>
<!-- Basic Block 4 -->
<g id="node4" class="node"><title>Basic Block 4</title>
<polygon style="fill:#ffffcc;stroke:black;" points="728,-136 622,-136 622,-100 728,-100 728,-136"/>
<text text-anchor="middle" x="675" y="-113.9" style="font-family:Times New Roman;font-size:14.00;">Basic Block 4</text>
</g>
<!-- Basic Block 3&#45;&gt;Basic Block 4 -->
<g id="edge12" class="edge"><title>Basic Block 3&#45;&gt;Basic Block 4</title>
<path style="fill:none;stroke:black;" d="M584,-86C594,-89 604,-93 614,-96"/>
<polygon style="fill:black;stroke:black;" points="613.415,-99.5357 624,-100 616.015,-93.0364 613.415,-99.5357"/>
</g>
<!-- Basic Block 10 -->
<g id="node10" class="node"><title>Basic Block 10</title>
<polygon style="fill:#ffffcc;stroke:black;" points="879,-36 765,-36 765,-1.77636e-14 879,-3.55271e-15 879,-36"/>
<text text-anchor="middle" x="822" y="-13.9" style="font-family:Times New Roman;font-size:14.00;">Basic Block 10</text>
</g>
<!-- Basic Block 3&#45;&gt;Basic Block 10 -->
<g id="edge10" class="edge"><title>Basic Block 3&#45;&gt;Basic Block 10</title>
<path style="fill:none;stroke:black;" d="M577,-50C591,-45 607,-40 622,-37 666,-28 715,-23 754,-21"/>
<polygon style="fill:black;stroke:black;" points="754.398,-24.4778 764,-20 753.701,-17.5125 754.398,-24.4778"/>
</g>
<!-- Basic Block 5 -->
<g id="node5" class="node"><title>Basic Block 5</title>
<polygon style="fill:#ffffcc;stroke:black;" points="1262,-109 1156,-109 1156,-73 1262,-73 1262,-109"/>
<text text-anchor="middle" x="1209" y="-86.9" style="font-family:Times New Roman;font-size:14.00;">Basic Block 5</text>
</g>
<!-- Basic Block 4&#45;&gt;Basic Block 5 -->
<g id="edge16" class="edge"><title>Basic Block 4&#45;&gt;Basic Block 5</title>
<path style="fill:none;stroke:black;" d="M728,-117C812,-114 979,-108 1120,-99 1129,-98 1137,-98 1146,-97"/>
<polygon style="fill:black;stroke:black;" points="1146.4,-100.478 1156,-96 1145.7,-93.5125 1146.4,-100.478"/>
</g>
<!-- Basic Block 8 -->
<g id="node8" class="node"><title>Basic Block 8</title>
<polygon style="fill:#ffffcc;stroke:black;" points="875,-90 769,-90 769,-54 875,-54 875,-90"/>
<text text-anchor="middle" x="822" y="-67.9" style="font-family:Times New Roman;font-size:14.00;">Basic Block 8</text>
</g>
<!-- Basic Block 4&#45;&gt;Basic Block 8 -->
<g id="edge14" class="edge"><title>Basic Block 4&#45;&gt;Basic Block 8</title>
<path style="fill:none;stroke:black;" d="M728,-101C738,-98 749,-94 759,-91"/>
<polygon style="fill:black;stroke:black;" points="760.427,-94.2259 769,-88 758.416,-87.5212 760.427,-94.2259"/>
</g>
<!-- Basic Block 6 -->
<g id="node6" class="node"><title>Basic Block 6</title>
<polygon style="fill:#bd0026;stroke:black;" points="1806,-82 1700,-82 1700,-46 1806,-46 1806,-82"/>
<text text-anchor="middle" x="1753" y="-59.9" style="font-family:Times New Roman;font-size:14.00;">Basic Block 6</text>
</g>
<!-- Basic Block 5&#45;&gt;Basic Block 6 -->
<g id="edge20" class="edge"><title>Basic Block 5&#45;&gt;Basic Block 6</title>
<path style="fill:none;stroke:black;" d="M1262,-96C1348,-103 1520,-112 1664,-91 1673,-90 1682,-88 1691,-85"/>
<polygon style="fill:black;stroke:black;" points="1692.43,-88.2259 1701,-82 1690.42,-81.5212 1692.43,-88.2259"/>
</g>
<!-- Basic Block 11 -->
<g id="node11" class="node"><title>Basic Block 11</title>
<polygon style="fill:#ffffcc;stroke:black;" points="1413,-82 1299,-82 1299,-46 1413,-46 1413,-82"/>
<text text-anchor="middle" x="1356" y="-59.9" style="font-family:Times New Roman;font-size:14.00;">Basic Block 11</text>
</g>
<!-- Basic Block 5&#45;&gt;Basic Block 11 -->
<g id="edge18" class="edge"><title>Basic Block 5&#45;&gt;Basic Block 11</title>
<path style="fill:none;stroke:black;" d="M1262,-81C1271,-80 1279,-78 1288,-77"/>
<polygon style="fill:black;stroke:black;" points="1288.88,-80.3933 1298,-75 1287.51,-73.5292 1288.88,-80.3933"/>
</g>
<!-- Addr 3 -->
<g id="node15" class="node"><title>Addr 3</title>
<polygon style="fill:lightgrey;stroke:black;" points="1904,-82 1842,-82 1842,-46 1904,-46 1904,-82"/>
<text text-anchor="middle" x="1873" y="-59.9" style="font-family:Times New Roman;font-size:14.00;">Addr 3</text>
</g>
<!-- Basic Block 6&#45;&gt;Addr 3 -->
<g id="edge22" class="edge"><title>Basic Block 6&#45;&gt;Addr 3</title>
<path style="fill:none;stroke:black;" d="M1806,-64C1814,-64 1823,-64 1832,-64"/>
<polygon style="fill:black;stroke:black;" points="1832,-67.5001 1842,-64 1832,-60.5001 1832,-67.5001"/>
</g>
<!-- Basic Block 7 -->
<g id="node7" class="node"><title>Basic Block 7</title>
<polygon style="fill:#ffffcc;stroke:black;" points="728,-82 622,-82 622,-46 728,-46 728,-82"/>
<text text-anchor="middle" x="675" y="-59.9" style="font-family:Times New Roman;font-size:14.00;">Basic Block 7</text>
</g>
<!-- Basic Block 7&#45;&gt;Basic Block 8 -->
<g id="edge24" class="edge"><title>Basic Block 7&#45;&gt;Basic Block 8</title>
<path style="fill:none;stroke:black;" d="M728,-67C738,-68 749,-68 759,-68"/>
<polygon style="fill:black;stroke:black;" points="758.701,-71.4875 769,-69 759.398,-64.5222 758.701,-71.4875"/>
</g>
<!-- Addr 4 -->
<g id="node16" class="node"><title>Addr 4</title>
<polygon style="fill:lightgrey;stroke:black;" points="978,-90 916,-90 916,-54 978,-54 978,-90"/>
<text text-anchor="middle" x="947" y="-67.9" style="font-family:Times New Roman;font-size:14.00;">Addr 4</text>
</g>
<!-- Basic Block 8&#45;&gt;Addr 4 -->
<g id="edge26" class="edge"><title>Basic Block 8&#45;&gt;Addr 4</title>
<path style="fill:none;stroke:black;" d="M875,-72C885,-72 896,-72 906,-72"/>
<polygon style="fill:black;stroke:black;" points="906,-75.5001 916,-72 906,-68.5001 906,-75.5001"/>
</g>
<!-- Basic Block 9 -->
<g id="node9" class="node"><title>Basic Block 9</title>
<polygon style="fill:#bd0026;stroke:black;" points="1120,-90 1014,-90 1014,-54 1120,-54 1120,-90"/>
<text text-anchor="middle" x="1067" y="-67.9" style="font-family:Times New Roman;font-size:14.00;">Basic Block 9</text>
</g>
<!-- Basic Block 9&#45;&gt;Basic Block 5 -->
<g id="edge30" class="edge"><title>Basic Block 9&#45;&gt;Basic Block 5</title>
<path style="fill:none;stroke:black;" d="M1120,-79C1129,-80 1137,-81 1146,-83"/>
<polygon style="fill:black;stroke:black;" points="1145.7,-86.4875 1156,-84 1146.4,-79.5222 1145.7,-86.4875"/>
</g>
<!-- Basic Block 10&#45;&gt;Basic Block 6 -->
<g id="edge32" class="edge"><title>Basic Block 10&#45;&gt;Basic Block 6</title>
<path style="fill:none;stroke:black;" d="M880,-18C930,-18 1003,-18 1067,-18 1067,-18 1067,-18 1481,-18 1563,-18 1584,-20 1664,-37 1673,-38 1681,-41 1690,-43"/>
<polygon style="fill:black;stroke:black;" points="1689.42,-46.4788 1700,-46 1691.43,-39.7741 1689.42,-46.4788"/>
</g>
<!-- Addr 5 -->
<g id="node17" class="node"><title>Addr 5</title>
<polygon style="fill:lightgrey;stroke:black;" points="1512,-82 1450,-82 1450,-46 1512,-46 1512,-82"/>
<text text-anchor="middle" x="1481" y="-59.9" style="font-family:Times New Roman;font-size:14.00;">Addr 5</text>
</g>
<!-- Basic Block 11&#45;&gt;Addr 5 -->
<g id="edge34" class="edge"><title>Basic Block 11&#45;&gt;Addr 5</title>
<path style="fill:none;stroke:black;" d="M1414,-64C1422,-64 1431,-64 1440,-64"/>
<polygon style="fill:black;stroke:black;" points="1440,-67.5001 1450,-64 1440,-60.5001 1440,-67.5001"/>
</g>
<!-- Basic Block 12 -->
<g id="node12" class="node"><title>Basic Block 12</title>
<polygon style="fill:#ffffcc;stroke:black;" points="1663,-82 1549,-82 1549,-46 1663,-46 1663,-82"/>
<text text-anchor="middle" x="1606" y="-59.9" style="font-family:Times New Roman;font-size:14.00;">Basic Block 12</text>
</g>
<!-- Basic Block 12&#45;&gt;Basic Block 6 -->
<g id="edge38" class="edge"><title>Basic Block 12&#45;&gt;Basic Block 6</title>
<path style="fill:none;stroke:black;" d="M1664,-64C1673,-64 1681,-64 1690,-64"/>
<polygon style="fill:black;stroke:black;" points="1690,-67.5001 1700,-64 1690,-60.5001 1690,-67.5001"/>
</g>
<!-- Addr 1&#45;&gt;Basic Block 2 -->
<g id="edge4" class="edge"><title>Addr 1&#45;&gt;Basic Block 2</title>
<path style="fill:none;stroke:black;" d="M204,-68C212,-68 221,-68 230,-68"/>
<polygon style="fill:black;stroke:black;" points="230,-71.5001 240,-68 230,-64.5001 230,-71.5001"/>
</g>
<!-- Addr 2&#45;&gt;Basic Block 3 -->
<g id="edge8" class="edge"><title>Addr 2&#45;&gt;Basic Block 3</title>
<path style="fill:none;stroke:black;" d="M444,-68C452,-68 461,-68 470,-68"/>
<polygon style="fill:black;stroke:black;" points="470,-71.5001 480,-68 470,-64.5001 470,-71.5001"/>
</g>
<!-- Addr 4&#45;&gt;Basic Block 9 -->
<g id="edge28" class="edge"><title>Addr 4&#45;&gt;Basic Block 9</title>
<path style="fill:none;stroke:black;" d="M978,-72C986,-72 995,-72 1004,-72"/>
<polygon style="fill:black;stroke:black;" points="1004,-75.5001 1014,-72 1004,-68.5001 1004,-75.5001"/>
</g>
<!-- Addr 5&#45;&gt;Basic Block 12 -->
<g id="edge36" class="edge"><title>Addr 5&#45;&gt;Basic Block 12</title>
<path style="fill:none;stroke:black;" d="M1512,-64C1520,-64 1529,-64 1538,-64"/>
<polygon style="fill:black;stroke:black;" points="1538,-67.5001 1548,-64 1538,-60.5001 1538,-67.5001"/>
</g>
</g>
</svg>
