<?xml version="1.0" encoding="UTF-8" standalone="no"?>
<!DOCTYPE svg PUBLIC "-//W3C//DTD SVG 1.0//EN"
 "http://www.w3.org/TR/2001/REC-SVG-20010904/DTD/svg10.dtd" [
 <!ATTLIST svg xmlns:xlink CDATA #FIXED "http://www.w3.org/1999/xlink">
]>
<!-- Generated by Graphviz version 2.20.2 (Tue Mar &#160;2 19:03:41 UTC 2010)
     For user: (levinth) David Levinthal -->
<!-- Title: raw_read_buffer Pages: 1 -->
<svg width="1554pt" height="126pt"
 viewBox="0.00 0.00 1554.00 126.00" xmlns="http://www.w3.org/2000/svg" xmlns:xlink="http://www.w3.org/1999/xlink">
<g id="graph0" class="graph" transform="scale(1 1) rotate(0) translate(4 122)">
<title>raw_read_buffer</title>
<polygon style="fill:white;stroke:white;" points="-4,4 -4,-122 1550,-122 1550,4 -4,4"/>
<!-- Basic Block 1 -->
<g id="node1" class="node"><title>Basic Block 1</title>
<polygon style="fill:#ffffcc;stroke:black;" points="106,-64 3.55271e-14,-64 0,-28 106,-28 106,-64"/>
<text text-anchor="middle" x="53" y="-41.9" style="font-family:Times New Roman;font-size:14.00;">Basic Block 1</text>
</g>
<!-- Basic Block 2 -->
<g id="node2" class="node"><title>Basic Block 2</title>
<polygon style="fill:#ffffcc;stroke:black;" points="248,-88 142,-88 142,-52 248,-52 248,-88"/>
<text text-anchor="middle" x="195" y="-65.9" style="font-family:Times New Roman;font-size:14.00;">Basic Block 2</text>
</g>
<!-- Basic Block 1&#45;&gt;Basic Block 2 -->
<g id="edge4" class="edge"><title>Basic Block 1&#45;&gt;Basic Block 2</title>
<path style="fill:none;stroke:black;" d="M106,-55C115,-56 123,-58 132,-59"/>
<polygon style="fill:black;stroke:black;" points="131.508,-62.4708 142,-61 132.881,-55.6067 131.508,-62.4708"/>
</g>
<!-- Basic Block 7 -->
<g id="node7" class="node"><title>Basic Block 7</title>
<polygon style="fill:#ffffcc;stroke:black;" points="390,-36 284,-36 284,-1.77636e-14 390,-3.55271e-15 390,-36"/>
<text text-anchor="middle" x="337" y="-13.9" style="font-family:Times New Roman;font-size:14.00;">Basic Block 7</text>
</g>
<!-- Basic Block 1&#45;&gt;Basic Block 7 -->
<g id="edge2" class="edge"><title>Basic Block 1&#45;&gt;Basic Block 7</title>
<path style="fill:none;stroke:black;" d="M106,-41C154,-36 223,-29 274,-24"/>
<polygon style="fill:black;stroke:black;" points="274.398,-27.4778 284,-23 273.701,-20.5125 274.398,-27.4778"/>
</g>
<!-- Addr 1 -->
<g id="node10" class="node"><title>Addr 1</title>
<polygon style="fill:lightgrey;stroke:black;" points="368,-90 306,-90 306,-54 368,-54 368,-90"/>
<text text-anchor="middle" x="337" y="-67.9" style="font-family:Times New Roman;font-size:14.00;">Addr 1</text>
</g>
<!-- Basic Block 2&#45;&gt;Addr 1 -->
<g id="edge6" class="edge"><title>Basic Block 2&#45;&gt;Addr 1</title>
<path style="fill:none;stroke:black;" d="M248,-71C264,-71 281,-71 296,-71"/>
<polygon style="fill:black;stroke:black;" points="296,-74.5001 306,-71 296,-67.5001 296,-74.5001"/>
</g>
<!-- Basic Block 3 -->
<g id="node3" class="node"><title>Basic Block 3</title>
<polygon style="fill:#800026;stroke:black;" points="532,-90 426,-90 426,-54 532,-54 532,-90"/>
<text text-anchor="middle" x="479" y="-67.9" style="font-family:Times New Roman;font-size:14.00;">Basic Block 3</text>
</g>
<!-- Basic Block 4 -->
<g id="node4" class="node"><title>Basic Block 4</title>
<polygon style="fill:#ffffcc;stroke:black;" points="674,-90 568,-90 568,-54 674,-54 674,-90"/>
<text text-anchor="middle" x="621" y="-67.9" style="font-family:Times New Roman;font-size:14.00;">Basic Block 4</text>
</g>
<!-- Basic Block 3&#45;&gt;Basic Block 4 -->
<g id="edge12" class="edge"><title>Basic Block 3&#45;&gt;Basic Block 4</title>
<path style="fill:none;stroke:black;" d="M532,-72C541,-72 549,-72 558,-72"/>
<polygon style="fill:black;stroke:black;" points="558,-75.5001 568,-72 558,-68.5001 558,-75.5001"/>
</g>
<!-- Basic Block 9 -->
<g id="node9" class="node"><title>Basic Block 9</title>
<polygon style="fill:#ffffcc;stroke:black;" points="1296,-86 1190,-86 1190,-50 1296,-50 1296,-86"/>
<text text-anchor="middle" x="1243" y="-63.9" style="font-family:Times New Roman;font-size:14.00;">Basic Block 9</text>
</g>
<!-- Basic Block 3&#45;&gt;Basic Block 9 -->
<g id="edge10" class="edge"><title>Basic Block 3&#45;&gt;Basic Block 9</title>
<path style="fill:none;stroke:black;" d="M532,-90C544,-93 556,-96 568,-99 644,-114 664,-118 741,-118 741,-118 741,-118 1003,-118 1071,-118 1089,-114 1154,-99 1165,-97 1176,-93 1187,-89"/>
<polygon style="fill:black;stroke:black;" points="1188.43,-92.2259 1197,-86 1186.42,-85.5212 1188.43,-92.2259"/>
</g>
<!-- Addr 2 -->
<g id="node11" class="node"><title>Addr 2</title>
<polygon style="fill:lightgrey;stroke:black;" points="772,-90 710,-90 710,-54 772,-54 772,-90"/>
<text text-anchor="middle" x="741" y="-67.9" style="font-family:Times New Roman;font-size:14.00;">Addr 2</text>
</g>
<!-- Basic Block 4&#45;&gt;Addr 2 -->
<g id="edge14" class="edge"><title>Basic Block 4&#45;&gt;Addr 2</title>
<path style="fill:none;stroke:black;" d="M674,-72C682,-72 691,-72 700,-72"/>
<polygon style="fill:black;stroke:black;" points="700,-75.5001 710,-72 700,-68.5001 700,-75.5001"/>
</g>
<!-- Basic Block 5 -->
<g id="node5" class="node"><title>Basic Block 5</title>
<polygon style="fill:#bd0026;stroke:black;" points="914,-90 808,-90 808,-54 914,-54 914,-90"/>
<text text-anchor="middle" x="861" y="-67.9" style="font-family:Times New Roman;font-size:14.00;">Basic Block 5</text>
</g>
<!-- Basic Block 6 -->
<g id="node6" class="node"><title>Basic Block 6</title>
<polygon style="fill:#fc4e2a;stroke:black;" points="1056,-90 950,-90 950,-54 1056,-54 1056,-90"/>
<text text-anchor="middle" x="1003" y="-67.9" style="font-family:Times New Roman;font-size:14.00;">Basic Block 6</text>
</g>
<!-- Basic Block 5&#45;&gt;Basic Block 6 -->
<g id="edge20" class="edge"><title>Basic Block 5&#45;&gt;Basic Block 6</title>
<path style="fill:none;stroke:black;" d="M914,-72C923,-72 931,-72 940,-72"/>
<polygon style="fill:black;stroke:black;" points="940,-75.5001 950,-72 940,-68.5001 940,-75.5001"/>
</g>
<!-- Basic Block 8 -->
<g id="node8" class="node"><title>Basic Block 8</title>
<polygon style="fill:#ffffcc;stroke:black;" points="1056,-36 950,-36 950,-1.77636e-14 1056,-3.55271e-15 1056,-36"/>
<text text-anchor="middle" x="1003" y="-13.9" style="font-family:Times New Roman;font-size:14.00;">Basic Block 8</text>
</g>
<!-- Basic Block 5&#45;&gt;Basic Block 8 -->
<g id="edge18" class="edge"><title>Basic Block 5&#45;&gt;Basic Block 8</title>
<path style="fill:none;stroke:black;" d="M909,-54C921,-49 933,-45 945,-40"/>
<polygon style="fill:black;stroke:black;" points="947.015,-42.9636 955,-36 944.415,-36.4643 947.015,-42.9636"/>
</g>
<!-- Addr 3 -->
<g id="node12" class="node"><title>Addr 3</title>
<polygon style="fill:lightgrey;stroke:black;" points="1154,-90 1092,-90 1092,-54 1154,-54 1154,-90"/>
<text text-anchor="middle" x="1123" y="-67.9" style="font-family:Times New Roman;font-size:14.00;">Addr 3</text>
</g>
<!-- Basic Block 6&#45;&gt;Addr 3 -->
<g id="edge22" class="edge"><title>Basic Block 6&#45;&gt;Addr 3</title>
<path style="fill:none;stroke:black;" d="M1056,-72C1064,-72 1073,-72 1082,-72"/>
<polygon style="fill:black;stroke:black;" points="1082,-75.5001 1092,-72 1082,-68.5001 1082,-75.5001"/>
</g>
<!-- Addr 4 -->
<g id="node13" class="node"><title>Addr 4</title>
<polygon style="fill:lightgrey;stroke:black;" points="510,-36 448,-36 448,-1.77636e-14 510,-3.55271e-15 510,-36"/>
<text text-anchor="middle" x="479" y="-13.9" style="font-family:Times New Roman;font-size:14.00;">Addr 4</text>
</g>
<!-- Basic Block 7&#45;&gt;Addr 4 -->
<g id="edge24" class="edge"><title>Basic Block 7&#45;&gt;Addr 4</title>
<path style="fill:none;stroke:black;" d="M390,-18C406,-18 423,-18 438,-18"/>
<polygon style="fill:black;stroke:black;" points="438,-21.5001 448,-18 438,-14.5001 438,-21.5001"/>
</g>
<!-- Addr 5 -->
<g id="node14" class="node"><title>Addr 5</title>
<polygon style="fill:lightgrey;stroke:black;" points="1154,-36 1092,-36 1092,-1.77636e-14 1154,-3.55271e-15 1154,-36"/>
<text text-anchor="middle" x="1123" y="-13.9" style="font-family:Times New Roman;font-size:14.00;">Addr 5</text>
</g>
<!-- Basic Block 8&#45;&gt;Addr 5 -->
<g id="edge28" class="edge"><title>Basic Block 8&#45;&gt;Addr 5</title>
<path style="fill:none;stroke:black;" d="M1056,-18C1064,-18 1073,-18 1082,-18"/>
<polygon style="fill:black;stroke:black;" points="1082,-21.5001 1092,-18 1082,-14.5001 1082,-21.5001"/>
</g>
<!-- Addr 6 -->
<g id="node15" class="node"><title>Addr 6</title>
<polygon style="fill:lightgrey;stroke:black;" points="1394,-86 1332,-86 1332,-50 1394,-50 1394,-86"/>
<text text-anchor="middle" x="1363" y="-63.9" style="font-family:Times New Roman;font-size:14.00;">Addr 6</text>
</g>
<!-- Basic Block 9&#45;&gt;Addr 6 -->
<g id="edge32" class="edge"><title>Basic Block 9&#45;&gt;Addr 6</title>
<path style="fill:none;stroke:black;" d="M1296,-68C1304,-68 1313,-68 1322,-68"/>
<polygon style="fill:black;stroke:black;" points="1322,-71.5001 1332,-68 1322,-64.5001 1322,-71.5001"/>
</g>
<!-- Addr 1&#45;&gt;Basic Block 3 -->
<g id="edge8" class="edge"><title>Addr 1&#45;&gt;Basic Block 3</title>
<path style="fill:none;stroke:black;" d="M368,-72C382,-72 399,-72 416,-72"/>
<polygon style="fill:black;stroke:black;" points="416,-75.5001 426,-72 416,-68.5001 416,-75.5001"/>
</g>
<!-- Addr 2&#45;&gt;Basic Block 5 -->
<g id="edge16" class="edge"><title>Addr 2&#45;&gt;Basic Block 5</title>
<path style="fill:none;stroke:black;" d="M772,-72C780,-72 789,-72 798,-72"/>
<polygon style="fill:black;stroke:black;" points="798,-75.5001 808,-72 798,-68.5001 798,-75.5001"/>
</g>
<!-- Addr 4&#45;&gt;Basic Block 8 -->
<g id="edge26" class="edge"><title>Addr 4&#45;&gt;Basic Block 8</title>
<path style="fill:none;stroke:black;" d="M510,-18C594,-18 826,-18 940,-18"/>
<polygon style="fill:black;stroke:black;" points="940,-21.5001 950,-18 940,-14.5001 940,-21.5001"/>
</g>
<!-- Addr 5&#45;&gt;Basic Block 9 -->
<g id="edge30" class="edge"><title>Addr 5&#45;&gt;Basic Block 9</title>
<path style="fill:none;stroke:black;" d="M1154,-31C1165,-36 1177,-41 1189,-46"/>
<polygon style="fill:black;stroke:black;" points="1188.42,-49.5357 1199,-50 1191.02,-43.0364 1188.42,-49.5357"/>
</g>
<!-- Basic Block 10 -->
<g id="node33" class="node"><title>Basic Block 10</title>
<polygon style="fill:lightgrey;stroke:black;" points="1545,-86 1431,-86 1431,-50 1545,-50 1545,-86"/>
<text text-anchor="middle" x="1488" y="-63.9" style="font-family:Times New Roman;font-size:14.00;">Basic Block 10</text>
</g>
<!-- Addr 6&#45;&gt;Basic Block 10 -->
<g id="edge34" class="edge"><title>Addr 6&#45;&gt;Basic Block 10</title>
<path style="fill:none;stroke:black;" d="M1394,-68C1402,-68 1411,-68 1420,-68"/>
<polygon style="fill:black;stroke:black;" points="1420,-71.5001 1430,-68 1420,-64.5001 1420,-71.5001"/>
</g>
</g>
</svg>
