<?xml version="1.0" encoding="UTF-8" standalone="no"?>
<!DOCTYPE svg PUBLIC "-//W3C//DTD SVG 1.0//EN"
 "http://www.w3.org/TR/2001/REC-SVG-20010904/DTD/svg10.dtd" [
 <!ATTLIST svg xmlns:xlink CDATA #FIXED "http://www.w3.org/1999/xlink">
]>
<!-- Generated by Graphviz version 2.20.2 (Tue Mar &#160;2 19:03:41 UTC 2010)
     For user: (levinth) David Levinthal -->
<!-- Title: ext4_llseek Pages: 1 -->
<svg width="2364pt" height="196pt"
 viewBox="0.00 0.00 2364.00 196.00" xmlns="http://www.w3.org/2000/svg" xmlns:xlink="http://www.w3.org/1999/xlink">
<g id="graph0" class="graph" transform="scale(1 1) rotate(0) translate(4 192)">
<title>ext4_llseek</title>
<polygon style="fill:white;stroke:white;" points="-4,4 -4,-192 2360,-192 2360,4 -4,4"/>
<!-- Basic Block 1 -->
<g id="node1" class="node"><title>Basic Block 1</title>
<polygon style="fill:#ffffcc;stroke:black;" points="106,-171 3.55271e-14,-171 0,-135 106,-135 106,-171"/>
<text text-anchor="middle" x="53" y="-148.9" style="font-family:Times New Roman;font-size:14.00;">Basic Block 1</text>
</g>
<!-- Addr 1 -->
<g id="node25" class="node"><title>Addr 1</title>
<polygon style="fill:lightgrey;stroke:black;" points="204,-171 142,-171 142,-135 204,-135 204,-171"/>
<text text-anchor="middle" x="173" y="-148.9" style="font-family:Times New Roman;font-size:14.00;">Addr 1</text>
</g>
<!-- Basic Block 1&#45;&gt;Addr 1 -->
<g id="edge2" class="edge"><title>Basic Block 1&#45;&gt;Addr 1</title>
<path style="fill:none;stroke:black;" d="M106,-153C114,-153 123,-153 132,-153"/>
<polygon style="fill:black;stroke:black;" points="132,-156.5 142,-153 132,-149.5 132,-156.5"/>
</g>
<!-- Basic Block 2 -->
<g id="node2" class="node"><title>Basic Block 2</title>
<polygon style="fill:#ffffcc;stroke:black;" points="351,-171 245,-171 245,-135 351,-135 351,-171"/>
<text text-anchor="middle" x="298" y="-148.9" style="font-family:Times New Roman;font-size:14.00;">Basic Block 2</text>
</g>
<!-- Basic Block 3 -->
<g id="node3" class="node"><title>Basic Block 3</title>
<polygon style="fill:#ffffcc;stroke:black;" points="503,-171 397,-171 397,-135 503,-135 503,-171"/>
<text text-anchor="middle" x="450" y="-148.9" style="font-family:Times New Roman;font-size:14.00;">Basic Block 3</text>
</g>
<!-- Basic Block 2&#45;&gt;Basic Block 3 -->
<g id="edge8" class="edge"><title>Basic Block 2&#45;&gt;Basic Block 3</title>
<path style="fill:none;stroke:black;" d="M351,-153C363,-153 375,-153 387,-153"/>
<polygon style="fill:black;stroke:black;" points="387,-156.5 397,-153 387,-149.5 387,-156.5"/>
</g>
<!-- Basic Block 15 -->
<g id="node15" class="node"><title>Basic Block 15</title>
<polygon style="fill:#ffffcc;stroke:black;" points="507,-117 393,-117 393,-81 507,-81 507,-117"/>
<text text-anchor="middle" x="450" y="-94.9" style="font-family:Times New Roman;font-size:14.00;">Basic Block 15</text>
</g>
<!-- Basic Block 2&#45;&gt;Basic Block 15 -->
<g id="edge6" class="edge"><title>Basic Block 2&#45;&gt;Basic Block 15</title>
<path style="fill:none;stroke:black;" d="M349,-135C362,-130 376,-125 389,-121"/>
<polygon style="fill:black;stroke:black;" points="391.015,-123.964 399,-117 388.415,-117.464 391.015,-123.964"/>
</g>
<!-- Basic Block 4 -->
<g id="node4" class="node"><title>Basic Block 4</title>
<polygon style="fill:#ffffcc;stroke:black;" points="650,-144 544,-144 544,-108 650,-108 650,-144"/>
<text text-anchor="middle" x="597" y="-121.9" style="font-family:Times New Roman;font-size:14.00;">Basic Block 4</text>
</g>
<!-- Basic Block 3&#45;&gt;Basic Block 4 -->
<g id="edge10" class="edge"><title>Basic Block 3&#45;&gt;Basic Block 4</title>
<path style="fill:none;stroke:black;" d="M503,-143C513,-141 524,-139 534,-138"/>
<polygon style="fill:black;stroke:black;" points="534.881,-141.393 544,-136 533.508,-134.529 534.881,-141.393"/>
</g>
<!-- Addr 2 -->
<g id="node26" class="node"><title>Addr 2</title>
<polygon style="fill:lightgrey;stroke:black;" points="748,-144 686,-144 686,-108 748,-108 748,-144"/>
<text text-anchor="middle" x="717" y="-121.9" style="font-family:Times New Roman;font-size:14.00;">Addr 2</text>
</g>
<!-- Basic Block 4&#45;&gt;Addr 2 -->
<g id="edge12" class="edge"><title>Basic Block 4&#45;&gt;Addr 2</title>
<path style="fill:none;stroke:black;" d="M650,-126C658,-126 667,-126 676,-126"/>
<polygon style="fill:black;stroke:black;" points="676,-129.5 686,-126 676,-122.5 676,-129.5"/>
</g>
<!-- Basic Block 5 -->
<g id="node5" class="node"><title>Basic Block 5</title>
<polygon style="fill:#fd8d3c;stroke:black;" points="895,-144 789,-144 789,-108 895,-108 895,-144"/>
<text text-anchor="middle" x="842" y="-121.9" style="font-family:Times New Roman;font-size:14.00;">Basic Block 5</text>
</g>
<!-- Basic Block 6 -->
<g id="node6" class="node"><title>Basic Block 6</title>
<polygon style="fill:#ffffcc;stroke:black;" points="1047,-144 941,-144 941,-108 1047,-108 1047,-144"/>
<text text-anchor="middle" x="994" y="-121.9" style="font-family:Times New Roman;font-size:14.00;">Basic Block 6</text>
</g>
<!-- Basic Block 5&#45;&gt;Basic Block 6 -->
<g id="edge18" class="edge"><title>Basic Block 5&#45;&gt;Basic Block 6</title>
<path style="fill:none;stroke:black;" d="M895,-126C907,-126 919,-126 931,-126"/>
<polygon style="fill:black;stroke:black;" points="931,-129.5 941,-126 931,-122.5 931,-129.5"/>
</g>
<!-- Basic Block 17 -->
<g id="node17" class="node"><title>Basic Block 17</title>
<polygon style="fill:#ffffcc;stroke:black;" points="1051,-90 937,-90 937,-54 1051,-54 1051,-90"/>
<text text-anchor="middle" x="994" y="-67.9" style="font-family:Times New Roman;font-size:14.00;">Basic Block 17</text>
</g>
<!-- Basic Block 5&#45;&gt;Basic Block 17 -->
<g id="edge16" class="edge"><title>Basic Block 5&#45;&gt;Basic Block 17</title>
<path style="fill:none;stroke:black;" d="M893,-108C906,-103 920,-98 933,-94"/>
<polygon style="fill:black;stroke:black;" points="935.015,-96.9636 943,-90 932.415,-90.4643 935.015,-96.9636"/>
</g>
<!-- Basic Block 7 -->
<g id="node7" class="node"><title>Basic Block 7</title>
<polygon style="fill:#ffffcc;stroke:black;" points="1199,-182 1093,-182 1093,-146 1199,-146 1199,-182"/>
<text text-anchor="middle" x="1146" y="-159.9" style="font-family:Times New Roman;font-size:14.00;">Basic Block 7</text>
</g>
<!-- Basic Block 6&#45;&gt;Basic Block 7 -->
<g id="edge22" class="edge"><title>Basic Block 6&#45;&gt;Basic Block 7</title>
<path style="fill:none;stroke:black;" d="M1047,-139C1059,-142 1071,-145 1083,-148"/>
<polygon style="fill:black;stroke:black;" points="1082.42,-151.479 1093,-151 1084.43,-144.774 1082.42,-151.479"/>
</g>
<!-- Basic Block 8 -->
<g id="node8" class="node"><title>Basic Block 8</title>
<polygon style="fill:#ffffcc;stroke:black;" points="1346,-136 1240,-136 1240,-100 1346,-100 1346,-136"/>
<text text-anchor="middle" x="1293" y="-113.9" style="font-family:Times New Roman;font-size:14.00;">Basic Block 8</text>
</g>
<!-- Basic Block 6&#45;&gt;Basic Block 8 -->
<g id="edge20" class="edge"><title>Basic Block 6&#45;&gt;Basic Block 8</title>
<path style="fill:none;stroke:black;" d="M1047,-125C1098,-123 1175,-121 1230,-119"/>
<polygon style="fill:black;stroke:black;" points="1230,-122.5 1240,-119 1230,-115.5 1230,-122.5"/>
</g>
<!-- Basic Block 7&#45;&gt;Basic Block 8 -->
<g id="edge24" class="edge"><title>Basic Block 7&#45;&gt;Basic Block 8</title>
<path style="fill:none;stroke:black;" d="M1199,-147C1209,-144 1220,-140 1230,-137"/>
<polygon style="fill:black;stroke:black;" points="1231.43,-140.226 1240,-134 1229.42,-133.521 1231.43,-140.226"/>
</g>
<!-- Basic Block 9 -->
<g id="node9" class="node"><title>Basic Block 9</title>
<polygon style="fill:#ffffcc;stroke:black;" points="1493,-174 1387,-174 1387,-138 1493,-138 1493,-174"/>
<text text-anchor="middle" x="1440" y="-151.9" style="font-family:Times New Roman;font-size:14.00;">Basic Block 9</text>
</g>
<!-- Basic Block 8&#45;&gt;Basic Block 9 -->
<g id="edge28" class="edge"><title>Basic Block 8&#45;&gt;Basic Block 9</title>
<path style="fill:none;stroke:black;" d="M1346,-132C1356,-134 1367,-137 1377,-140"/>
<polygon style="fill:black;stroke:black;" points="1376.42,-143.479 1387,-143 1378.43,-136.774 1376.42,-143.479"/>
</g>
<!-- Basic Block 23 -->
<g id="node23" class="node"><title>Basic Block 23</title>
<polygon style="fill:#ffffcc;stroke:black;" points="1649,-101 1535,-101 1535,-65 1649,-65 1649,-101"/>
<text text-anchor="middle" x="1592" y="-78.9" style="font-family:Times New Roman;font-size:14.00;">Basic Block 23</text>
</g>
<!-- Basic Block 8&#45;&gt;Basic Block 23 -->
<g id="edge26" class="edge"><title>Basic Block 8&#45;&gt;Basic Block 23</title>
<path style="fill:none;stroke:black;" d="M1346,-112C1396,-106 1470,-97 1524,-91"/>
<polygon style="fill:black;stroke:black;" points="1524.4,-94.4778 1534,-90 1523.7,-87.5125 1524.4,-94.4778"/>
</g>
<!-- Basic Block 10 -->
<g id="node10" class="node"><title>Basic Block 10</title>
<polygon style="fill:#ffffcc;stroke:black;" points="1649,-174 1535,-174 1535,-138 1649,-138 1649,-174"/>
<text text-anchor="middle" x="1592" y="-151.9" style="font-family:Times New Roman;font-size:14.00;">Basic Block 10</text>
</g>
<!-- Basic Block 9&#45;&gt;Basic Block 10 -->
<g id="edge32" class="edge"><title>Basic Block 9&#45;&gt;Basic Block 10</title>
<path style="fill:none;stroke:black;" d="M1493,-156C1503,-156 1514,-156 1524,-156"/>
<polygon style="fill:black;stroke:black;" points="1524,-159.5 1534,-156 1524,-152.5 1524,-159.5"/>
</g>
<!-- Basic Block 9&#45;&gt;Basic Block 23 -->
<g id="edge30" class="edge"><title>Basic Block 9&#45;&gt;Basic Block 23</title>
<path style="fill:none;stroke:black;" d="M1478,-138C1498,-128 1523,-116 1545,-105"/>
<polygon style="fill:black;stroke:black;" points="1546.28,-108.26 1554,-101 1543.44,-101.863 1546.28,-108.26"/>
</g>
<!-- Basic Block 11 -->
<g id="node11" class="node"><title>Basic Block 11</title>
<polygon style="fill:#ffffcc;stroke:black;" points="1801,-188 1687,-188 1687,-152 1801,-152 1801,-188"/>
<text text-anchor="middle" x="1744" y="-165.9" style="font-family:Times New Roman;font-size:14.00;">Basic Block 11</text>
</g>
<!-- Basic Block 10&#45;&gt;Basic Block 11 -->
<g id="edge36" class="edge"><title>Basic Block 10&#45;&gt;Basic Block 11</title>
<path style="fill:none;stroke:black;" d="M1650,-161C1659,-162 1667,-162 1676,-163"/>
<polygon style="fill:black;stroke:black;" points="1675.7,-166.488 1686,-164 1676.4,-159.522 1675.7,-166.488"/>
</g>
<!-- Basic Block 12 -->
<g id="node12" class="node"><title>Basic Block 12</title>
<polygon style="fill:#ffffcc;stroke:black;" points="1953,-144 1839,-144 1839,-108 1953,-108 1953,-144"/>
<text text-anchor="middle" x="1896" y="-121.9" style="font-family:Times New Roman;font-size:14.00;">Basic Block 12</text>
</g>
<!-- Basic Block 10&#45;&gt;Basic Block 12 -->
<g id="edge34" class="edge"><title>Basic Block 10&#45;&gt;Basic Block 12</title>
<path style="fill:none;stroke:black;" d="M1650,-148C1662,-146 1674,-144 1686,-143 1734,-137 1787,-134 1828,-131"/>
<polygon style="fill:black;stroke:black;" points="1828.4,-134.478 1838,-130 1827.7,-127.512 1828.4,-134.478"/>
</g>
<!-- Basic Block 11&#45;&gt;Basic Block 12 -->
<g id="edge38" class="edge"><title>Basic Block 11&#45;&gt;Basic Block 12</title>
<path style="fill:none;stroke:black;" d="M1802,-153C1811,-151 1819,-148 1828,-146"/>
<polygon style="fill:black;stroke:black;" points="1829.43,-149.226 1838,-143 1827.42,-142.521 1829.43,-149.226"/>
</g>
<!-- Addr 3 -->
<g id="node27" class="node"><title>Addr 3</title>
<polygon style="fill:lightgrey;stroke:black;" points="2079,-140 2017,-140 2017,-104 2079,-104 2079,-140"/>
<text text-anchor="middle" x="2048" y="-117.9" style="font-family:Times New Roman;font-size:14.00;">Addr 3</text>
</g>
<!-- Basic Block 12&#45;&gt;Addr 3 -->
<g id="edge40" class="edge"><title>Basic Block 12&#45;&gt;Addr 3</title>
<path style="fill:none;stroke:black;" d="M1954,-124C1971,-124 1990,-123 2007,-123"/>
<polygon style="fill:black;stroke:black;" points="2007,-126.5 2017,-123 2007,-119.5 2007,-126.5"/>
</g>
<!-- Basic Block 13 -->
<g id="node13" class="node"><title>Basic Block 13</title>
<polygon style="fill:#800026;stroke:black;" points="2257,-90 2143,-90 2143,-54 2257,-54 2257,-90"/>
<text text-anchor="middle" x="2200" y="-67.9" style="font-family:Times New Roman;font-size:14.00;">Basic Block 13</text>
</g>
<!-- Addr 4 -->
<g id="node28" class="node"><title>Addr 4</title>
<polygon style="fill:lightgrey;stroke:black;" points="2356,-90 2294,-90 2294,-54 2356,-54 2356,-90"/>
<text text-anchor="middle" x="2325" y="-67.9" style="font-family:Times New Roman;font-size:14.00;">Addr 4</text>
</g>
<!-- Basic Block 13&#45;&gt;Addr 4 -->
<g id="edge44" class="edge"><title>Basic Block 13&#45;&gt;Addr 4</title>
<path style="fill:none;stroke:black;" d="M2258,-72C2266,-72 2275,-72 2284,-72"/>
<polygon style="fill:black;stroke:black;" points="2284,-75.5001 2294,-72 2284,-68.5001 2284,-75.5001"/>
</g>
<!-- Basic Block 14 -->
<g id="node14" class="node"><title>Basic Block 14</title>
<polygon style="fill:#ffffcc;stroke:black;" points="355,-117 241,-117 241,-81 355,-81 355,-117"/>
<text text-anchor="middle" x="298" y="-94.9" style="font-family:Times New Roman;font-size:14.00;">Basic Block 14</text>
</g>
<!-- Basic Block 14&#45;&gt;Basic Block 15 -->
<g id="edge46" class="edge"><title>Basic Block 14&#45;&gt;Basic Block 15</title>
<path style="fill:none;stroke:black;" d="M356,-99C365,-99 373,-99 382,-99"/>
<polygon style="fill:black;stroke:black;" points="382,-102.5 392,-99 382,-95.5001 382,-102.5"/>
</g>
<!-- Basic Block 15&#45;&gt;Basic Block 4 -->
<g id="edge48" class="edge"><title>Basic Block 15&#45;&gt;Basic Block 4</title>
<path style="fill:none;stroke:black;" d="M508,-110C517,-111 525,-113 534,-114"/>
<polygon style="fill:black;stroke:black;" points="533.508,-117.471 544,-116 534.881,-110.607 533.508,-117.471"/>
</g>
<!-- Basic Block 16 -->
<g id="node16" class="node"><title>Basic Block 16</title>
<polygon style="fill:#ffffcc;stroke:black;" points="899,-90 785,-90 785,-54 899,-54 899,-90"/>
<text text-anchor="middle" x="842" y="-67.9" style="font-family:Times New Roman;font-size:14.00;">Basic Block 16</text>
</g>
<!-- Basic Block 16&#45;&gt;Basic Block 17 -->
<g id="edge50" class="edge"><title>Basic Block 16&#45;&gt;Basic Block 17</title>
<path style="fill:none;stroke:black;" d="M900,-72C909,-72 917,-72 926,-72"/>
<polygon style="fill:black;stroke:black;" points="926,-75.5001 936,-72 926,-68.5001 926,-75.5001"/>
</g>
<!-- Basic Block 18 -->
<g id="node18" class="node"><title>Basic Block 18</title>
<polygon style="fill:#ffffcc;stroke:black;" points="1203,-90 1089,-90 1089,-54 1203,-54 1203,-90"/>
<text text-anchor="middle" x="1146" y="-67.9" style="font-family:Times New Roman;font-size:14.00;">Basic Block 18</text>
</g>
<!-- Basic Block 17&#45;&gt;Basic Block 18 -->
<g id="edge54" class="edge"><title>Basic Block 17&#45;&gt;Basic Block 18</title>
<path style="fill:none;stroke:black;" d="M1052,-72C1061,-72 1069,-72 1078,-72"/>
<polygon style="fill:black;stroke:black;" points="1078,-75.5001 1088,-72 1078,-68.5001 1078,-75.5001"/>
</g>
<!-- Basic Block 20 -->
<g id="node20" class="node"><title>Basic Block 20</title>
<polygon style="fill:#ffffcc;stroke:black;" points="1203,-36 1089,-36 1089,-1.77636e-14 1203,-3.55271e-15 1203,-36"/>
<text text-anchor="middle" x="1146" y="-13.9" style="font-family:Times New Roman;font-size:14.00;">Basic Block 20</text>
</g>
<!-- Basic Block 17&#45;&gt;Basic Block 20 -->
<g id="edge52" class="edge"><title>Basic Block 17&#45;&gt;Basic Block 20</title>
<path style="fill:none;stroke:black;" d="M1045,-54C1058,-49 1072,-44 1085,-40"/>
<polygon style="fill:black;stroke:black;" points="1087.02,-42.9636 1095,-36 1084.42,-36.4643 1087.02,-42.9636"/>
</g>
<!-- Basic Block 18&#45;&gt;Basic Block 8 -->
<g id="edge56" class="edge"><title>Basic Block 18&#45;&gt;Basic Block 8</title>
<path style="fill:none;stroke:black;" d="M1204,-90C1213,-93 1221,-96 1230,-98"/>
<polygon style="fill:black;stroke:black;" points="1229.42,-101.479 1240,-101 1231.43,-94.7741 1229.42,-101.479"/>
</g>
<!-- Basic Block 19 -->
<g id="node19" class="node"><title>Basic Block 19</title>
<polygon style="fill:#ffffcc;stroke:black;" points="1051,-36 937,-36 937,-1.77636e-14 1051,-3.55271e-15 1051,-36"/>
<text text-anchor="middle" x="994" y="-13.9" style="font-family:Times New Roman;font-size:14.00;">Basic Block 19</text>
</g>
<!-- Basic Block 19&#45;&gt;Basic Block 20 -->
<g id="edge58" class="edge"><title>Basic Block 19&#45;&gt;Basic Block 20</title>
<path style="fill:none;stroke:black;" d="M1052,-18C1061,-18 1069,-18 1078,-18"/>
<polygon style="fill:black;stroke:black;" points="1078,-21.5001 1088,-18 1078,-14.5001 1078,-21.5001"/>
</g>
<!-- Addr 5 -->
<g id="node29" class="node"><title>Addr 5</title>
<polygon style="fill:lightgrey;stroke:black;" points="1324,-36 1262,-36 1262,-1.77636e-14 1324,-3.55271e-15 1324,-36"/>
<text text-anchor="middle" x="1293" y="-13.9" style="font-family:Times New Roman;font-size:14.00;">Addr 5</text>
</g>
<!-- Basic Block 20&#45;&gt;Addr 5 -->
<g id="edge60" class="edge"><title>Basic Block 20&#45;&gt;Addr 5</title>
<path style="fill:none;stroke:black;" d="M1204,-18C1220,-18 1237,-18 1252,-18"/>
<polygon style="fill:black;stroke:black;" points="1252,-21.5001 1262,-18 1252,-14.5001 1252,-21.5001"/>
</g>
<!-- Basic Block 21 -->
<g id="node21" class="node"><title>Basic Block 21</title>
<polygon style="fill:#ffffcc;stroke:black;" points="2105,-40 1991,-40 1991,-4 2105,-4 2105,-40"/>
<text text-anchor="middle" x="2048" y="-17.9" style="font-family:Times New Roman;font-size:14.00;">Basic Block 21</text>
</g>
<!-- Basic Block 21&#45;&gt;Basic Block 13 -->
<g id="edge64" class="edge"><title>Basic Block 21&#45;&gt;Basic Block 13</title>
<path style="fill:none;stroke:black;" d="M2103,-40C2114,-43 2125,-47 2136,-51"/>
<polygon style="fill:black;stroke:black;" points="2135.42,-54.4788 2146,-54 2137.43,-47.7741 2135.42,-54.4788"/>
</g>
<!-- Basic Block 22 -->
<g id="node22" class="node"><title>Basic Block 22</title>
<polygon style="fill:#ffffcc;stroke:black;" points="1497,-82 1383,-82 1383,-46 1497,-46 1497,-82"/>
<text text-anchor="middle" x="1440" y="-59.9" style="font-family:Times New Roman;font-size:14.00;">Basic Block 22</text>
</g>
<!-- Basic Block 22&#45;&gt;Basic Block 23 -->
<g id="edge66" class="edge"><title>Basic Block 22&#45;&gt;Basic Block 23</title>
<path style="fill:none;stroke:black;" d="M1498,-71C1507,-72 1515,-73 1524,-75"/>
<polygon style="fill:black;stroke:black;" points="1523.7,-78.4875 1534,-76 1524.4,-71.5222 1523.7,-78.4875"/>
</g>
<!-- Addr 6 -->
<g id="node30" class="node"><title>Addr 6</title>
<polygon style="fill:lightgrey;stroke:black;" points="1775,-92 1713,-92 1713,-56 1775,-56 1775,-92"/>
<text text-anchor="middle" x="1744" y="-69.9" style="font-family:Times New Roman;font-size:14.00;">Addr 6</text>
</g>
<!-- Basic Block 23&#45;&gt;Addr 6 -->
<g id="edge68" class="edge"><title>Basic Block 23&#45;&gt;Addr 6</title>
<path style="fill:none;stroke:black;" d="M1650,-80C1667,-79 1686,-78 1703,-77"/>
<polygon style="fill:black;stroke:black;" points="1703.4,-80.4778 1713,-76 1702.7,-73.5125 1703.4,-80.4778"/>
</g>
<!-- Basic Block 24 -->
<g id="node24" class="node"><title>Basic Block 24</title>
<polygon style="fill:#ffffcc;stroke:black;" points="1953,-90 1839,-90 1839,-54 1953,-54 1953,-90"/>
<text text-anchor="middle" x="1896" y="-67.9" style="font-family:Times New Roman;font-size:14.00;">Basic Block 24</text>
</g>
<!-- Basic Block 24&#45;&gt;Basic Block 13 -->
<g id="edge72" class="edge"><title>Basic Block 24&#45;&gt;Basic Block 13</title>
<path style="fill:none;stroke:black;" d="M1954,-72C2005,-72 2078,-72 2132,-72"/>
<polygon style="fill:black;stroke:black;" points="2132,-75.5001 2142,-72 2132,-68.5001 2132,-75.5001"/>
</g>
<!-- Addr 1&#45;&gt;Basic Block 2 -->
<g id="edge4" class="edge"><title>Addr 1&#45;&gt;Basic Block 2</title>
<path style="fill:none;stroke:black;" d="M204,-153C213,-153 224,-153 235,-153"/>
<polygon style="fill:black;stroke:black;" points="235,-156.5 245,-153 235,-149.5 235,-156.5"/>
</g>
<!-- Addr 2&#45;&gt;Basic Block 5 -->
<g id="edge14" class="edge"><title>Addr 2&#45;&gt;Basic Block 5</title>
<path style="fill:none;stroke:black;" d="M748,-126C757,-126 768,-126 779,-126"/>
<polygon style="fill:black;stroke:black;" points="779,-129.5 789,-126 779,-122.5 779,-129.5"/>
</g>
<!-- Addr 3&#45;&gt;Basic Block 13 -->
<g id="edge42" class="edge"><title>Addr 3&#45;&gt;Basic Block 13</title>
<path style="fill:none;stroke:black;" d="M2079,-112C2095,-107 2116,-100 2135,-93"/>
<polygon style="fill:black;stroke:black;" points="2136.43,-96.2259 2145,-90 2134.42,-89.5212 2136.43,-96.2259"/>
</g>
<!-- Addr 5&#45;&gt;Basic Block 21 -->
<g id="edge62" class="edge"><title>Addr 5&#45;&gt;Basic Block 21</title>
<path style="fill:none;stroke:black;" d="M1324,-18C1379,-18 1495,-18 1592,-18 1592,-18 1592,-18 1744,-18 1825,-18 1918,-20 1980,-21"/>
<polygon style="fill:black;stroke:black;" points="1980,-24.5001 1990,-21 1980,-17.5001 1980,-24.5001"/>
</g>
<!-- Addr 6&#45;&gt;Basic Block 24 -->
<g id="edge70" class="edge"><title>Addr 6&#45;&gt;Basic Block 24</title>
<path style="fill:none;stroke:black;" d="M1775,-74C1790,-74 1810,-73 1828,-73"/>
<polygon style="fill:black;stroke:black;" points="1828,-76.5001 1838,-73 1828,-69.5001 1828,-76.5001"/>
</g>
</g>
</svg>
