<?xml version="1.0" encoding="UTF-8" standalone="no"?>
<!DOCTYPE svg PUBLIC "-//W3C//DTD SVG 1.1//EN"
 "http://www.w3.org/Graphics/SVG/1.1/DTD/svg11.dtd">
<!-- Generated by graphviz version 2.26.0 (20091210.2329)
 -->
<!-- Title: lookup_page_table_entry Pages: 1 -->
<svg width="454pt" height="98pt"
 viewBox="0.00 0.00 454.00 98.00" xmlns="http://www.w3.org/2000/svg" xmlns:xlink="http://www.w3.org/1999/xlink">
<g id="graph1" class="graph" transform="scale(1 1) rotate(0) translate(4 94)">
<title>lookup_page_table_entry</title>
<polygon fill="white" stroke="white" points="-4,5 -4,-94 451,-94 451,5 -4,5"/>
<!-- Basic Block 1 -->
<g id="node1" class="node"><title>Basic Block 1</title>
<polygon fill="#ffffcc" stroke="black" points="93,-90 1,-90 1,-54 93,-54 93,-90"/>
<text text-anchor="middle" x="47" y="-68.9" font-family="Times Roman,serif" font-size="14.00">Basic Block 1</text>
</g>
<!-- Basic Block 3 -->
<g id="node3" class="node"><title>Basic Block 3</title>
<polygon fill="#ffffcc" stroke="black" points="223,-90 131,-90 131,-54 223,-54 223,-90"/>
<text text-anchor="middle" x="177" y="-68.9" font-family="Times Roman,serif" font-size="14.00">Basic Block 3</text>
</g>
<!-- Basic Block 1&#45;&gt;Basic Block 3 -->
<g id="edge2" class="edge"><title>Basic Block 1&#45;&gt;Basic Block 3</title>
<path fill="none" stroke="black" d="M93.5658,-72C102.154,-72 111.21,-72 120.063,-72"/>
<polygon fill="black" stroke="black" points="120.322,-75.5001 130.322,-72 120.322,-68.5001 120.322,-75.5001"/>
</g>
<!-- Basic Block 2 -->
<g id="node2" class="node"><title>Basic Block 2</title>
<polygon fill="#ffffcc" stroke="black" points="353,-90 261,-90 261,-54 353,-54 353,-90"/>
<text text-anchor="middle" x="307" y="-68.9" font-family="Times Roman,serif" font-size="14.00">Basic Block 2</text>
</g>
<!-- Basic Block 2&#45;&gt;Basic Block 3 -->
<g id="edge4" class="edge"><title>Basic Block 2&#45;&gt;Basic Block 3</title>
<path fill="none" stroke="black" d="M260.322,-78.5058C251.73,-78.7406 242.673,-78.8061 233.822,-78.7023"/>
<polygon fill="black" stroke="black" points="233.632,-75.198 223.566,-78.5027 233.496,-82.1967 233.632,-75.198"/>
</g>
<!-- Basic Block 3&#45;&gt;Basic Block 2 -->
<g id="edge6" class="edge"><title>Basic Block 3&#45;&gt;Basic Block 2</title>
<path fill="none" stroke="black" d="M223.566,-65.4973C232.154,-65.261 241.21,-65.1941 250.063,-65.2964"/>
<polygon fill="black" stroke="black" points="250.257,-68.8007 260.322,-65.4942 250.392,-61.802 250.257,-68.8007"/>
</g>
<!-- Basic Block 4 -->
<g id="node4" class="node"><title>Basic Block 4</title>
<polygon fill="#800026" stroke="black" points="353,-36 261,-36 261,-1.77636e-14 353,-3.55271e-15 353,-36"/>
<text text-anchor="middle" x="307" y="-14.9" font-family="Times Roman,serif" font-size="14.00">Basic Block 4</text>
</g>
<!-- Basic Block 3&#45;&gt;Basic Block 4 -->
<g id="edge8" class="edge"><title>Basic Block 3&#45;&gt;Basic Block 4</title>
<path fill="none" stroke="black" d="M220.65,-53.8686C231.261,-49.4607 242.727,-44.6982 253.728,-40.1282"/>
<polygon fill="black" stroke="black" points="255.352,-43.2439 263.244,-36.1755 252.667,-36.7794 255.352,-43.2439"/>
</g>
<!-- Addr 1 -->
<g id="node5" class="node"><title>Addr 1</title>
<polygon fill="lightgrey" stroke="black" points="445,-36 391,-36 391,-1.77636e-14 445,-3.55271e-15 445,-36"/>
<text text-anchor="middle" x="418" y="-14.9" font-family="Times Roman,serif" font-size="14.00">Addr 1</text>
</g>
<!-- Basic Block 4&#45;&gt;Addr 1 -->
<g id="edge10" class="edge"><title>Basic Block 4&#45;&gt;Addr 1</title>
<path fill="none" stroke="black" d="M353.752,-18C362.598,-18 371.748,-18 380.272,-18"/>
<polygon fill="black" stroke="black" points="380.298,-21.5001 390.298,-18 380.298,-14.5001 380.298,-21.5001"/>
</g>
</g>
</svg>
