<?xml version="1.0" encoding="UTF-8" standalone="no"?>
<!DOCTYPE svg PUBLIC "-//W3C//DTD SVG 1.0//EN"
 "http://www.w3.org/TR/2001/REC-SVG-20010904/DTD/svg10.dtd" [
 <!ATTLIST svg xmlns:xlink CDATA #FIXED "http://www.w3.org/1999/xlink">
]>
<!-- Generated by Graphviz version 2.20.2 (Tue Mar &#160;2 19:03:41 UTC 2010)
     For user: (levinth) David Levinthal -->
<!-- Title: sys_read Pages: 1 -->
<svg width="1608pt" height="118pt"
 viewBox="0.00 0.00 1608.00 118.00" xmlns="http://www.w3.org/2000/svg" xmlns:xlink="http://www.w3.org/1999/xlink">
<g id="graph0" class="graph" transform="scale(1 1) rotate(0) translate(4 114)">
<title>sys_read</title>
<polygon style="fill:white;stroke:white;" points="-4,4 -4,-114 1604,-114 1604,4 -4,4"/>
<!-- Basic Block 1 -->
<g id="node1" class="node"><title>Basic Block 1</title>
<polygon style="fill:#ffffcc;stroke:black;" points="106,-90 3.55271e-14,-90 0,-54 106,-54 106,-90"/>
<text text-anchor="middle" x="53" y="-67.9" style="font-family:Times New Roman;font-size:14.00;">Basic Block 1</text>
</g>
<!-- Addr 1 -->
<g id="node11" class="node"><title>Addr 1</title>
<polygon style="fill:lightgrey;stroke:black;" points="204,-90 142,-90 142,-54 204,-54 204,-90"/>
<text text-anchor="middle" x="173" y="-67.9" style="font-family:Times New Roman;font-size:14.00;">Addr 1</text>
</g>
<!-- Basic Block 1&#45;&gt;Addr 1 -->
<g id="edge2" class="edge"><title>Basic Block 1&#45;&gt;Addr 1</title>
<path style="fill:none;stroke:black;" d="M106,-72C114,-72 123,-72 132,-72"/>
<polygon style="fill:black;stroke:black;" points="132,-75.5001 142,-72 132,-68.5001 132,-75.5001"/>
</g>
<!-- Basic Block 2 -->
<g id="node2" class="node"><title>Basic Block 2</title>
<polygon style="fill:#ffffcc;stroke:black;" points="346,-90 240,-90 240,-54 346,-54 346,-90"/>
<text text-anchor="middle" x="293" y="-67.9" style="font-family:Times New Roman;font-size:14.00;">Basic Block 2</text>
</g>
<!-- Addr 2 -->
<g id="node12" class="node"><title>Addr 2</title>
<polygon style="fill:lightgrey;stroke:black;" points="444,-90 382,-90 382,-54 444,-54 444,-90"/>
<text text-anchor="middle" x="413" y="-67.9" style="font-family:Times New Roman;font-size:14.00;">Addr 2</text>
</g>
<!-- Basic Block 2&#45;&gt;Addr 2 -->
<g id="edge6" class="edge"><title>Basic Block 2&#45;&gt;Addr 2</title>
<path style="fill:none;stroke:black;" d="M346,-72C354,-72 363,-72 372,-72"/>
<polygon style="fill:black;stroke:black;" points="372,-75.5001 382,-72 372,-68.5001 372,-75.5001"/>
</g>
<!-- Basic Block 3 -->
<g id="node3" class="node"><title>Basic Block 3</title>
<polygon style="fill:#800026;stroke:black;" points="586,-90 480,-90 480,-54 586,-54 586,-90"/>
<text text-anchor="middle" x="533" y="-67.9" style="font-family:Times New Roman;font-size:14.00;">Basic Block 3</text>
</g>
<!-- Basic Block 4 -->
<g id="node4" class="node"><title>Basic Block 4</title>
<polygon style="fill:#ffffcc;stroke:black;" points="728,-90 622,-90 622,-54 728,-54 728,-90"/>
<text text-anchor="middle" x="675" y="-67.9" style="font-family:Times New Roman;font-size:14.00;">Basic Block 4</text>
</g>
<!-- Basic Block 3&#45;&gt;Basic Block 4 -->
<g id="edge12" class="edge"><title>Basic Block 3&#45;&gt;Basic Block 4</title>
<path style="fill:none;stroke:black;" d="M586,-72C595,-72 603,-72 612,-72"/>
<polygon style="fill:black;stroke:black;" points="612,-75.5001 622,-72 612,-68.5001 612,-75.5001"/>
</g>
<!-- Basic Block 8 -->
<g id="node8" class="node"><title>Basic Block 8</title>
<polygon style="fill:#ffffcc;stroke:black;" points="728,-36 622,-36 622,-1.77636e-14 728,-3.55271e-15 728,-36"/>
<text text-anchor="middle" x="675" y="-13.9" style="font-family:Times New Roman;font-size:14.00;">Basic Block 8</text>
</g>
<!-- Basic Block 3&#45;&gt;Basic Block 8 -->
<g id="edge10" class="edge"><title>Basic Block 3&#45;&gt;Basic Block 8</title>
<path style="fill:none;stroke:black;" d="M581,-54C593,-49 605,-45 617,-40"/>
<polygon style="fill:black;stroke:black;" points="619.015,-42.9636 627,-36 616.415,-36.4643 619.015,-42.9636"/>
</g>
<!-- Addr 3 -->
<g id="node13" class="node"><title>Addr 3</title>
<polygon style="fill:lightgrey;stroke:black;" points="826,-90 764,-90 764,-54 826,-54 826,-90"/>
<text text-anchor="middle" x="795" y="-67.9" style="font-family:Times New Roman;font-size:14.00;">Addr 3</text>
</g>
<!-- Basic Block 4&#45;&gt;Addr 3 -->
<g id="edge14" class="edge"><title>Basic Block 4&#45;&gt;Addr 3</title>
<path style="fill:none;stroke:black;" d="M728,-72C736,-72 745,-72 754,-72"/>
<polygon style="fill:black;stroke:black;" points="754,-75.5001 764,-72 754,-68.5001 754,-75.5001"/>
</g>
<!-- Basic Block 5 -->
<g id="node5" class="node"><title>Basic Block 5</title>
<polygon style="fill:#e31a1c;stroke:black;" points="968,-90 862,-90 862,-54 968,-54 968,-90"/>
<text text-anchor="middle" x="915" y="-67.9" style="font-family:Times New Roman;font-size:14.00;">Basic Block 5</text>
</g>
<!-- Basic Block 6 -->
<g id="node6" class="node"><title>Basic Block 6</title>
<polygon style="fill:#bd0026;stroke:black;" points="1502,-82 1396,-82 1396,-46 1502,-46 1502,-82"/>
<text text-anchor="middle" x="1449" y="-59.9" style="font-family:Times New Roman;font-size:14.00;">Basic Block 6</text>
</g>
<!-- Basic Block 5&#45;&gt;Basic Block 6 -->
<g id="edge20" class="edge"><title>Basic Block 5&#45;&gt;Basic Block 6</title>
<path style="fill:none;stroke:black;" d="M968,-85C980,-87 992,-90 1004,-91 1162,-107 1204,-114 1360,-91 1369,-90 1378,-88 1387,-85"/>
<polygon style="fill:black;stroke:black;" points="1388.43,-88.2259 1397,-82 1386.42,-81.5212 1388.43,-88.2259"/>
</g>
<!-- Basic Block 9 -->
<g id="node9" class="node"><title>Basic Block 9</title>
<polygon style="fill:#ffffcc;stroke:black;" points="1110,-82 1004,-82 1004,-46 1110,-46 1110,-82"/>
<text text-anchor="middle" x="1057" y="-59.9" style="font-family:Times New Roman;font-size:14.00;">Basic Block 9</text>
</g>
<!-- Basic Block 5&#45;&gt;Basic Block 9 -->
<g id="edge18" class="edge"><title>Basic Block 5&#45;&gt;Basic Block 9</title>
<path style="fill:none;stroke:black;" d="M968,-69C977,-68 985,-68 994,-68"/>
<polygon style="fill:black;stroke:black;" points="994.398,-71.4778 1004,-67 993.701,-64.5125 994.398,-71.4778"/>
</g>
<!-- Addr 4 -->
<g id="node14" class="node"><title>Addr 4</title>
<polygon style="fill:lightgrey;stroke:black;" points="1600,-82 1538,-82 1538,-46 1600,-46 1600,-82"/>
<text text-anchor="middle" x="1569" y="-59.9" style="font-family:Times New Roman;font-size:14.00;">Addr 4</text>
</g>
<!-- Basic Block 6&#45;&gt;Addr 4 -->
<g id="edge22" class="edge"><title>Basic Block 6&#45;&gt;Addr 4</title>
<path style="fill:none;stroke:black;" d="M1502,-64C1510,-64 1519,-64 1528,-64"/>
<polygon style="fill:black;stroke:black;" points="1528,-67.5001 1538,-64 1528,-60.5001 1528,-67.5001"/>
</g>
<!-- Basic Block 7 -->
<g id="node7" class="node"><title>Basic Block 7</title>
<polygon style="fill:#ffffcc;stroke:black;" points="586,-36 480,-36 480,-1.77636e-14 586,-3.55271e-15 586,-36"/>
<text text-anchor="middle" x="533" y="-13.9" style="font-family:Times New Roman;font-size:14.00;">Basic Block 7</text>
</g>
<!-- Basic Block 7&#45;&gt;Basic Block 8 -->
<g id="edge24" class="edge"><title>Basic Block 7&#45;&gt;Basic Block 8</title>
<path style="fill:none;stroke:black;" d="M586,-18C595,-18 603,-18 612,-18"/>
<polygon style="fill:black;stroke:black;" points="612,-21.5001 622,-18 612,-14.5001 612,-21.5001"/>
</g>
<!-- Basic Block 8&#45;&gt;Basic Block 6 -->
<g id="edge26" class="edge"><title>Basic Block 8&#45;&gt;Basic Block 6</title>
<path style="fill:none;stroke:black;" d="M728,-18C777,-18 851,-19 915,-18 915,-18 915,-18 1177,-18 1259,-19 1280,-21 1360,-37 1369,-39 1377,-41 1386,-44"/>
<polygon style="fill:black;stroke:black;" points="1385.51,-47.4708 1396,-46 1386.88,-40.6067 1385.51,-47.4708"/>
</g>
<!-- Addr 5 -->
<g id="node15" class="node"><title>Addr 5</title>
<polygon style="fill:lightgrey;stroke:black;" points="1208,-82 1146,-82 1146,-46 1208,-46 1208,-82"/>
<text text-anchor="middle" x="1177" y="-59.9" style="font-family:Times New Roman;font-size:14.00;">Addr 5</text>
</g>
<!-- Basic Block 9&#45;&gt;Addr 5 -->
<g id="edge28" class="edge"><title>Basic Block 9&#45;&gt;Addr 5</title>
<path style="fill:none;stroke:black;" d="M1110,-64C1118,-64 1127,-64 1136,-64"/>
<polygon style="fill:black;stroke:black;" points="1136,-67.5001 1146,-64 1136,-60.5001 1136,-67.5001"/>
</g>
<!-- Basic Block 10 -->
<g id="node10" class="node"><title>Basic Block 10</title>
<polygon style="fill:#ffffcc;stroke:black;" points="1359,-82 1245,-82 1245,-46 1359,-46 1359,-82"/>
<text text-anchor="middle" x="1302" y="-59.9" style="font-family:Times New Roman;font-size:14.00;">Basic Block 10</text>
</g>
<!-- Basic Block 10&#45;&gt;Basic Block 6 -->
<g id="edge32" class="edge"><title>Basic Block 10&#45;&gt;Basic Block 6</title>
<path style="fill:none;stroke:black;" d="M1360,-64C1369,-64 1377,-64 1386,-64"/>
<polygon style="fill:black;stroke:black;" points="1386,-67.5001 1396,-64 1386,-60.5001 1386,-67.5001"/>
</g>
<!-- Addr 1&#45;&gt;Basic Block 2 -->
<g id="edge4" class="edge"><title>Addr 1&#45;&gt;Basic Block 2</title>
<path style="fill:none;stroke:black;" d="M204,-72C212,-72 221,-72 230,-72"/>
<polygon style="fill:black;stroke:black;" points="230,-75.5001 240,-72 230,-68.5001 230,-75.5001"/>
</g>
<!-- Addr 2&#45;&gt;Basic Block 3 -->
<g id="edge8" class="edge"><title>Addr 2&#45;&gt;Basic Block 3</title>
<path style="fill:none;stroke:black;" d="M444,-72C452,-72 461,-72 470,-72"/>
<polygon style="fill:black;stroke:black;" points="470,-75.5001 480,-72 470,-68.5001 470,-75.5001"/>
</g>
<!-- Addr 3&#45;&gt;Basic Block 5 -->
<g id="edge16" class="edge"><title>Addr 3&#45;&gt;Basic Block 5</title>
<path style="fill:none;stroke:black;" d="M826,-72C834,-72 843,-72 852,-72"/>
<polygon style="fill:black;stroke:black;" points="852,-75.5001 862,-72 852,-68.5001 852,-75.5001"/>
</g>
<!-- Addr 5&#45;&gt;Basic Block 10 -->
<g id="edge30" class="edge"><title>Addr 5&#45;&gt;Basic Block 10</title>
<path style="fill:none;stroke:black;" d="M1208,-64C1216,-64 1225,-64 1234,-64"/>
<polygon style="fill:black;stroke:black;" points="1234,-67.5001 1244,-64 1234,-60.5001 1234,-67.5001"/>
</g>
</g>
</svg>
