<?xml version="1.0" encoding="UTF-8" standalone="no"?>
<!DOCTYPE svg PUBLIC "-//W3C//DTD SVG 1.0//EN"
 "http://www.w3.org/TR/2001/REC-SVG-20010904/DTD/svg10.dtd" [
 <!ATTLIST svg xmlns:xlink CDATA #FIXED "http://www.w3.org/1999/xlink">
]>
<!-- Generated by Graphviz version 2.20.2 (Tue Mar &#160;2 19:03:41 UTC 2010)
     For user: (levinth) David Levinthal -->
<!-- Title: lseek Pages: 1 -->
<svg width="790pt" height="229pt"
 viewBox="0.00 0.00 790.00 229.00" xmlns="http://www.w3.org/2000/svg" xmlns:xlink="http://www.w3.org/1999/xlink">
<g id="graph0" class="graph" transform="scale(1 1) rotate(0) translate(4 225)">
<title>lseek</title>
<polygon style="fill:white;stroke:white;" points="-4,4 -4,-225 786,-225 786,4 -4,4"/>
<!-- Basic Block 1 -->
<g id="node1" class="node"><title>Basic Block 1</title>
<polygon style="fill:#ffffcc;stroke:black;" points="106,-63 3.55271e-14,-63 0,-27 106,-27 106,-63"/>
<text text-anchor="middle" x="53" y="-40.9" style="font-family:Times New Roman;font-size:14.00;">Basic Block 1</text>
</g>
<!-- Basic Block 2 -->
<g id="node2" class="node"><title>Basic Block 2</title>
<polygon style="fill:#ffffcc;stroke:black;" points="248,-90 142,-90 142,-54 248,-54 248,-90"/>
<text text-anchor="middle" x="195" y="-67.9" style="font-family:Times New Roman;font-size:14.00;">Basic Block 2</text>
</g>
<!-- Basic Block 1&#45;&gt;Basic Block 2 -->
<g id="edge4" class="edge"><title>Basic Block 1&#45;&gt;Basic Block 2</title>
<path style="fill:none;stroke:black;" d="M106,-55C115,-56 123,-58 132,-60"/>
<polygon style="fill:black;stroke:black;" points="131.508,-63.4708 142,-62 132.881,-56.6067 131.508,-63.4708"/>
</g>
<!-- Basic Block 5 -->
<g id="node5" class="node"><title>Basic Block 5</title>
<polygon style="fill:#ffffcc;stroke:black;" points="248,-36 142,-36 142,-1.77636e-14 248,-3.55271e-15 248,-36"/>
<text text-anchor="middle" x="195" y="-13.9" style="font-family:Times New Roman;font-size:14.00;">Basic Block 5</text>
</g>
<!-- Basic Block 1&#45;&gt;Basic Block 5 -->
<g id="edge2" class="edge"><title>Basic Block 1&#45;&gt;Basic Block 5</title>
<path style="fill:none;stroke:black;" d="M106,-35C115,-34 123,-32 132,-30"/>
<polygon style="fill:black;stroke:black;" points="132.881,-33.3933 142,-28 131.508,-26.5292 132.881,-33.3933"/>
</g>
<!-- Addr 1 -->
<g id="node11" class="node"><title>Addr 1</title>
<polygon style="fill:lightgrey;stroke:black;" points="368,-90 306,-90 306,-54 368,-54 368,-90"/>
<text text-anchor="middle" x="337" y="-67.9" style="font-family:Times New Roman;font-size:14.00;">Addr 1</text>
</g>
<!-- Basic Block 2&#45;&gt;Addr 1 -->
<g id="edge6" class="edge"><title>Basic Block 2&#45;&gt;Addr 1</title>
<path style="fill:none;stroke:black;" d="M248,-72C264,-72 281,-72 296,-72"/>
<polygon style="fill:black;stroke:black;" points="296,-75.5001 306,-72 296,-68.5001 296,-75.5001"/>
</g>
<!-- Basic Block 3 -->
<g id="node3" class="node"><title>Basic Block 3</title>
<polygon style="fill:#800026;stroke:black;" points="390,-221 284,-221 284,-185 390,-185 390,-221"/>
<text text-anchor="middle" x="337" y="-198.9" style="font-family:Times New Roman;font-size:14.00;">Basic Block 3</text>
</g>
<!-- Basic Block 4 -->
<g id="node4" class="node"><title>Basic Block 4</title>
<polygon style="fill:#800026;stroke:black;" points="537,-221 431,-221 431,-185 537,-185 537,-221"/>
<text text-anchor="middle" x="484" y="-198.9" style="font-family:Times New Roman;font-size:14.00;">Basic Block 4</text>
</g>
<!-- Basic Block 3&#45;&gt;Basic Block 4 -->
<g id="edge10" class="edge"><title>Basic Block 3&#45;&gt;Basic Block 4</title>
<path style="fill:none;stroke:black;" d="M390,-203C400,-203 411,-203 421,-203"/>
<polygon style="fill:black;stroke:black;" points="421,-206.5 431,-203 421,-199.5 421,-206.5"/>
</g>
<!-- Basic Block 10 -->
<g id="node10" class="node"><title>Basic Block 10</title>
<polygon style="fill:#ffffcc;stroke:black;" points="541,-167 427,-167 427,-131 541,-131 541,-167"/>
<text text-anchor="middle" x="484" y="-144.9" style="font-family:Times New Roman;font-size:14.00;">Basic Block 10</text>
</g>
<!-- Basic Block 3&#45;&gt;Basic Block 10 -->
<g id="edge8" class="edge"><title>Basic Block 3&#45;&gt;Basic Block 10</title>
<path style="fill:none;stroke:black;" d="M386,-185C399,-180 412,-175 426,-171"/>
<polygon style="fill:black;stroke:black;" points="427.283,-174.26 435,-167 424.44,-167.863 427.283,-174.26"/>
</g>
<!-- Addr 2 -->
<g id="node12" class="node"><title>Addr 2</title>
<polygon style="fill:lightgrey;stroke:black;" points="662,-221 600,-221 600,-185 662,-185 662,-221"/>
<text text-anchor="middle" x="631" y="-198.9" style="font-family:Times New Roman;font-size:14.00;">Addr 2</text>
</g>
<!-- Basic Block 4&#45;&gt;Addr 2 -->
<g id="edge12" class="edge"><title>Basic Block 4&#45;&gt;Addr 2</title>
<path style="fill:none;stroke:black;" d="M537,-203C554,-203 573,-203 590,-203"/>
<polygon style="fill:black;stroke:black;" points="590,-206.5 600,-203 590,-199.5 590,-206.5"/>
</g>
<!-- Addr 3 -->
<g id="node13" class="node"><title>Addr 3</title>
<polygon style="fill:lightgrey;stroke:black;" points="368,-36 306,-36 306,-1.77636e-14 368,-3.55271e-15 368,-36"/>
<text text-anchor="middle" x="337" y="-13.9" style="font-family:Times New Roman;font-size:14.00;">Addr 3</text>
</g>
<!-- Basic Block 5&#45;&gt;Addr 3 -->
<g id="edge14" class="edge"><title>Basic Block 5&#45;&gt;Addr 3</title>
<path style="fill:none;stroke:black;" d="M248,-18C264,-18 281,-18 296,-18"/>
<polygon style="fill:black;stroke:black;" points="296,-21.5001 306,-18 296,-14.5001 296,-21.5001"/>
</g>
<!-- Basic Block 6 -->
<g id="node6" class="node"><title>Basic Block 6</title>
<polygon style="fill:#ffffcc;stroke:black;" points="537,-36 431,-36 431,-1.77636e-14 537,-3.55271e-15 537,-36"/>
<text text-anchor="middle" x="484" y="-13.9" style="font-family:Times New Roman;font-size:14.00;">Basic Block 6</text>
</g>
<!-- Addr 4 -->
<g id="node14" class="node"><title>Addr 4</title>
<polygon style="fill:lightgrey;stroke:black;" points="662,-36 600,-36 600,-1.77636e-14 662,-3.55271e-15 662,-36"/>
<text text-anchor="middle" x="631" y="-13.9" style="font-family:Times New Roman;font-size:14.00;">Addr 4</text>
</g>
<!-- Basic Block 6&#45;&gt;Addr 4 -->
<g id="edge18" class="edge"><title>Basic Block 6&#45;&gt;Addr 4</title>
<path style="fill:none;stroke:black;" d="M537,-18C554,-18 573,-18 590,-18"/>
<polygon style="fill:black;stroke:black;" points="590,-21.5001 600,-18 590,-14.5001 590,-21.5001"/>
</g>
<!-- Basic Block 7 -->
<g id="node7" class="node"><title>Basic Block 7</title>
<polygon style="fill:#ffffcc;stroke:black;" points="106,-144 3.55271e-14,-144 0,-108 106,-108 106,-144"/>
<text text-anchor="middle" x="53" y="-121.9" style="font-family:Times New Roman;font-size:14.00;">Basic Block 7</text>
</g>
<!-- Addr 5 -->
<g id="node15" class="node"><title>Addr 5</title>
<polygon style="fill:lightgrey;stroke:black;" points="226,-144 164,-144 164,-108 226,-108 226,-144"/>
<text text-anchor="middle" x="195" y="-121.9" style="font-family:Times New Roman;font-size:14.00;">Addr 5</text>
</g>
<!-- Basic Block 7&#45;&gt;Addr 5 -->
<g id="edge20" class="edge"><title>Basic Block 7&#45;&gt;Addr 5</title>
<path style="fill:none;stroke:black;" d="M106,-126C122,-126 139,-126 154,-126"/>
<polygon style="fill:black;stroke:black;" points="154,-129.5 164,-126 154,-122.5 154,-129.5"/>
</g>
<!-- Basic Block 8 -->
<g id="node8" class="node"><title>Basic Block 8</title>
<polygon style="fill:#ffffcc;stroke:black;" points="390,-144 284,-144 284,-108 390,-108 390,-144"/>
<text text-anchor="middle" x="337" y="-121.9" style="font-family:Times New Roman;font-size:14.00;">Basic Block 8</text>
</g>
<!-- Basic Block 9 -->
<g id="node9" class="node"><title>Basic Block 9</title>
<polygon style="fill:#ffffcc;stroke:black;" points="684,-144 578,-144 578,-108 684,-108 684,-144"/>
<text text-anchor="middle" x="631" y="-121.9" style="font-family:Times New Roman;font-size:14.00;">Basic Block 9</text>
</g>
<!-- Basic Block 8&#45;&gt;Basic Block 9 -->
<g id="edge26" class="edge"><title>Basic Block 8&#45;&gt;Basic Block 9</title>
<path style="fill:none;stroke:black;" d="M390,-123C402,-123 415,-122 426,-122 478,-121 491,-121 542,-122 551,-122 559,-123 568,-123"/>
<polygon style="fill:black;stroke:black;" points="568,-126.5 578,-123 568,-119.5 568,-126.5"/>
</g>
<!-- Basic Block 8&#45;&gt;Basic Block 10 -->
<g id="edge24" class="edge"><title>Basic Block 8&#45;&gt;Basic Block 10</title>
<path style="fill:none;stroke:black;" d="M390,-134C399,-135 407,-137 416,-138"/>
<polygon style="fill:black;stroke:black;" points="415.508,-141.471 426,-140 416.881,-134.607 415.508,-141.471"/>
</g>
<!-- Addr 6 -->
<g id="node16" class="node"><title>Addr 6</title>
<polygon style="fill:lightgrey;stroke:black;" points="782,-144 720,-144 720,-108 782,-108 782,-144"/>
<text text-anchor="middle" x="751" y="-121.9" style="font-family:Times New Roman;font-size:14.00;">Addr 6</text>
</g>
<!-- Basic Block 9&#45;&gt;Addr 6 -->
<g id="edge28" class="edge"><title>Basic Block 9&#45;&gt;Addr 6</title>
<path style="fill:none;stroke:black;" d="M684,-126C692,-126 701,-126 710,-126"/>
<polygon style="fill:black;stroke:black;" points="710,-129.5 720,-126 710,-122.5 710,-129.5"/>
</g>
<!-- Basic Block 10&#45;&gt;Basic Block 9 -->
<g id="edge30" class="edge"><title>Basic Block 10&#45;&gt;Basic Block 9</title>
<path style="fill:none;stroke:black;" d="M542,-140C551,-139 559,-137 568,-136"/>
<polygon style="fill:black;stroke:black;" points="568.398,-139.478 578,-135 567.701,-132.512 568.398,-139.478"/>
</g>
<!-- Addr 3&#45;&gt;Basic Block 6 -->
<g id="edge16" class="edge"><title>Addr 3&#45;&gt;Basic Block 6</title>
<path style="fill:none;stroke:black;" d="M368,-18C383,-18 403,-18 421,-18"/>
<polygon style="fill:black;stroke:black;" points="421,-21.5001 431,-18 421,-14.5001 421,-21.5001"/>
</g>
<!-- Addr 5&#45;&gt;Basic Block 8 -->
<g id="edge22" class="edge"><title>Addr 5&#45;&gt;Basic Block 8</title>
<path style="fill:none;stroke:black;" d="M226,-126C240,-126 257,-126 274,-126"/>
<polygon style="fill:black;stroke:black;" points="274,-129.5 284,-126 274,-122.5 274,-129.5"/>
</g>
</g>
</svg>
